<svg width="21" height="21" viewBox="0 0 21 21" fill="none" xmlns="http://www.w3.org/2000/svg">
<path d="M18.4272 5.78927H16.0272L14.6702 0.490811C14.6289 0.343063 14.5346 0.217783 14.4071 0.141155C14.2796 0.0645267 14.1288 0.0424798 13.9861 0.079622C13.9148 0.0985006 13.8478 0.132232 13.7891 0.178806C13.7305 0.22538 13.6814 0.283845 13.6447 0.350716C13.6081 0.417588 13.5847 0.491498 13.5759 0.568043C13.5671 0.644589 13.5731 0.722204 13.5936 0.796265L14.8721 5.78927H5.30576L6.58426 0.796265C6.6028 0.721436 6.60706 0.64351 6.59679 0.566954C6.58652 0.490398 6.56193 0.416718 6.52442 0.35014C6.48691 0.283561 6.43722 0.225394 6.37821 0.178973C6.3192 0.132551 6.25202 0.098789 6.18052 0.079622C6.03795 0.0439703 5.88776 0.0666706 5.76062 0.143088C5.63348 0.219506 5.53898 0.343878 5.49641 0.490811L4.15062 5.78927H1.73941C1.32911 5.79595 0.935298 5.9595 0.632086 6.24914C0.328873 6.53877 0.137174 6.93451 0.0930695 7.36188C0.0489649 7.78925 0.155496 8.21877 0.392613 8.56959C0.62973 8.92042 0.981078 9.16836 1.38053 9.26675L2.21044 18.3951C2.27276 19.1251 2.5942 19.8041 3.11124 20.2979C3.62828 20.7916 4.30331 21.0643 5.00295 21.062H15.1637C15.8633 21.0643 16.5384 20.7916 17.0554 20.2979C17.5724 19.8041 17.8939 19.1251 17.9562 18.3951L18.7861 9.26675C19.1856 9.16836 19.5369 8.92042 19.774 8.56959C20.0111 8.21877 20.1177 7.78925 20.0736 7.36188C20.0295 6.93451 19.8378 6.53877 19.5346 6.24914C19.2313 5.9595 18.8375 5.79595 18.4272 5.78927ZM16.8459 18.2894C16.8067 18.7277 16.6123 19.1348 16.301 19.4305C15.9896 19.7262 15.5839 19.8891 15.1637 19.8872H5.00295C4.58271 19.8891 4.177 19.7262 3.86567 19.4305C3.55434 19.1348 3.35993 18.7277 3.32071 18.2894L2.51324 9.31374H17.6534L16.8459 18.2894ZM18.4272 8.13892H1.73941C1.59141 8.13649 1.45012 8.07383 1.34546 7.96419C1.2408 7.85455 1.18097 7.70654 1.17866 7.5515C1.17866 7.39571 1.23774 7.2463 1.3429 7.13614C1.44806 7.02598 1.59069 6.96409 1.73941 6.96409H18.4272C18.576 6.96409 18.7186 7.02598 18.8237 7.13614C18.9289 7.2463 18.988 7.39571 18.988 7.5515C18.9857 7.70654 18.9258 7.85455 18.8212 7.96419C18.7165 8.07383 18.5752 8.13649 18.4272 8.13892Z" fill="black"/>
</svg>
