<svg width="48" height="51" viewBox="0 0 48 51" fill="none" xmlns="http://www.w3.org/2000/svg">
<path d="M19.0195 32.6797V47.7997C19.0195 49.5997 20.2795 50.4797 21.8395 49.7397L27.1995 47.1997C27.6395 46.9797 28.3795 46.9797 28.8195 47.1997L34.1995 49.7397C35.7395 50.4597 37.0195 49.5997 37.0195 47.7997V32.6797" fill="#509E2F"/>
<path d="M28 36C35.4558 36 41.5 30.1797 41.5 23C41.5 15.8203 35.4558 10 28 10C20.5442 10 14.5 15.8203 14.5 23C14.5 30.1797 20.5442 36 28 36Z" fill="#509E2F"/>
<path d="M15.04 27.0399L15.02 41.7999C15.02 43.5999 16.28 44.4799 17.84 43.7399L23.2 41.2C23.64 40.98 24.38 40.98 24.82 41.2L30.2 43.7399C31.74 44.4599 33.02 43.5999 33.02 41.7999V26.6799" stroke="#212721" stroke-width="2" stroke-linecap="round" stroke-linejoin="round"/>
<path d="M24 30C31.4558 30 37.5 24.1797 37.5 17C37.5 9.8203 31.4558 4 24 4C16.5442 4 10.5 9.8203 10.5 17C10.5 24.1797 16.5442 30 24 30Z" stroke="#212721" stroke-width="2" stroke-linecap="round" stroke-linejoin="round"/>
</svg>
