<svg width="178" height="228" viewBox="0 0 178 228" fill="none" xmlns="http://www.w3.org/2000/svg">
<path d="M60.4012 23.4132C59.8791 22.9984 59.42 22.7188 58.8886 22.6372C58.0962 22.3483 57.2315 22.2575 56.4298 22.3018C55.6281 22.3462 55.2134 22.8683 54.4117 22.9126C35.6559 25.7247 23.027 57.591 46.6245 70.1226C48.7943 71.2504 51.0993 72.3153 53.1247 73.8393C54.304 74.6059 55.1407 75.6965 56.2478 76.6613C57.5436 78.0315 59.0469 79.1407 60.0002 80.835C61.2682 83.205 61.3198 86.1415 61.2454 88.8076C61.2711 90.2758 61.0266 91.8699 61.2504 93.4103C60.0061 94.9766 58.1674 96.3261 56.4639 97.6127C58.0136 97.0556 59.5004 96.3633 60.8614 95.4007C62.2223 94.4381 63.5926 93.1422 64.3056 91.4944C64.7297 90.6391 64.9557 89.7115 65.0465 88.8469C65.1373 87.9823 65.03 87.0454 64.7876 86.1715C63.7291 81.0724 61.9999 80.8907 66.4832 73.2113C69.848 67.3684 72.1129 62.6955 70.8956 53.7231C69.3379 42.6066 63.9098 38.7198 62.9164 31.2878C62.9815 28.955 62.5596 27.3423 61.8673 25.8554C61.9581 24.9908 61.1843 24.0354 60.4012 23.4132ZM62.9911 90.7907C62.7022 91.5831 62.2874 92.1052 61.8004 92.8254C62.3689 91.5738 62.8023 90.3852 62.9747 88.9892C63.0562 88.4579 63.1377 87.9265 63.2192 87.3951C63.3894 88.4671 63.4245 89.6021 62.9911 90.7907ZM61.9073 31.5932C61.8981 31.9251 62.423 34.4556 62.1601 34.6002C62.1752 34.5923 62.238 34.5551 62.2452 34.4857C62.2476 34.4621 62.2436 34.4349 62.2292 34.4038C62.2344 34.4311 62.2398 34.4584 62.2452 34.4857C62.9573 38.0765 64.8456 41.4387 66.2105 44.7207C74.164 65.6878 61.9362 71.2167 61.4335 79.6742C59.9581 77.5652 55.8001 73.5804 55.8001 73.5804C53.3971 71.2454 50.7053 69.7028 47.7523 67.9528C46.3749 67.1139 44.9975 66.275 43.6923 65.2381C42.9722 64.751 42.5223 64.1381 41.8651 63.7863C30.4282 50.5265 38.1289 30.3296 53.1952 23.479C53.0414 24.2085 53.0858 25.0102 53.4005 25.686C53.4634 25.8212 53.4634 25.8212 53.5263 25.9563L53.5893 26.0915C40.2615 32.7905 34.3923 49.5031 43.0115 60.95C44.2981 62.6535 46.1253 64.1052 48.1063 64.8275C44.1557 60.5816 42.897 57.8783 42.0531 54.653C39.0458 42.8957 45.4937 34.1371 54.8408 26.66C54.8408 26.66 55.3721 26.7416 55.4351 26.8767C56.7588 27.2472 59.6581 28.5287 60.8117 27.8271C61.7207 28.7197 61.8094 30.3231 61.9073 31.5932ZM60.9747 26.7644C60.3547 25.0795 56.7424 25.4457 55.626 24.8142C55.5631 24.679 54.5819 23.9846 54.1857 23.8402C54.1228 23.705 54.2579 23.642 54.195 23.5069C55.6446 24.1477 56.9333 23.3832 60.6694 25.7553C60.723 26.2238 60.7859 26.3589 60.9747 26.7644Z" fill="#7D82CE"/>
<path d="M62.1601 34.6002C62.423 34.4556 61.8981 31.9251 61.9073 31.5932C61.8094 30.3231 61.7207 28.7197 60.8117 27.8271C59.6581 28.5287 56.7588 27.2472 55.4351 26.8767C55.3721 26.7416 54.8408 26.66 54.8408 26.66C45.4937 34.1371 39.0458 42.8957 42.0531 54.653C42.897 57.8783 44.1557 60.5816 48.1063 64.8275C46.1253 64.1052 44.2981 62.6535 43.0115 60.95C34.3923 49.5031 40.2615 32.7905 53.5893 26.0915L53.5263 25.9563L53.4005 25.686C53.0858 25.0102 53.0414 24.2085 53.1952 23.479C38.1289 30.3296 30.4282 50.5265 41.8651 63.7863C42.5223 64.1381 42.9722 64.751 43.6923 65.2381C44.9975 66.275 46.3749 67.1139 47.7523 67.9528C50.7053 69.7028 53.3971 71.2454 55.8001 73.5804C55.8001 73.5804 59.9581 77.5652 61.4335 79.6742C61.9362 71.2167 74.164 65.6878 66.2105 44.7207C64.8456 41.4387 62.9573 38.0765 62.2452 34.4857C62.238 34.5551 62.1752 34.5923 62.1601 34.6002Z" fill="#7D82CE"/>
<path d="M62.5681 17.4702C62.046 17.0554 61.5869 16.7758 61.0555 16.6942C60.2631 16.4053 59.3985 16.3145 58.5968 16.3588C57.7951 16.4032 57.3803 16.9253 56.5786 16.9696C37.8228 19.7817 25.1939 51.648 48.7914 64.1796C50.9613 65.3074 53.2663 66.3723 55.2916 67.8963C56.4709 68.6629 57.3076 69.7535 58.4147 70.7183C59.7106 72.0885 61.2139 73.1978 62.1672 74.892C63.4352 77.262 63.4867 80.1985 63.4123 82.8646C63.4381 84.3328 63.1935 85.9269 63.4174 87.4674C62.173 89.0336 60.3343 90.3831 58.6308 91.6697C60.1806 91.1126 61.6674 90.4203 63.0283 89.4577C64.3893 88.4951 65.7595 87.1992 66.4725 85.5514C66.8966 84.6961 67.1226 83.7685 67.2134 82.9039C67.3043 82.0393 67.1969 81.1024 66.9545 80.2285C65.896 75.1294 64.1668 74.9477 68.6501 67.2683C72.0149 61.4254 74.2798 56.7525 73.0626 47.7801C71.5049 36.6636 66.0768 32.7768 65.0834 25.3448C65.1484 23.012 64.7265 21.3993 64.0342 19.9124C64.125 19.0478 63.3512 18.0924 62.5681 17.4702ZM65.158 84.8477C64.8691 85.6401 64.4544 86.1622 63.9673 86.8824C64.5359 85.6308 64.9692 84.4422 65.1416 83.0463C65.2231 82.5149 65.3046 81.9835 65.3862 81.4521C65.5564 82.5241 65.5914 83.6591 65.158 84.8477ZM64.0743 25.6502C64.065 25.9835 64.5942 28.533 64.3239 28.6589C64.3239 28.6589 64.459 28.5959 64.3961 28.4608C65.0955 32.0823 67.0022 35.4708 68.3775 38.7777C76.3309 59.7448 64.1031 65.2737 63.6004 73.7313C62.125 71.6223 57.967 67.6374 57.967 67.6374C55.564 65.3024 52.8722 63.7598 49.9193 62.0098C48.5419 61.1709 47.1644 60.332 45.8593 59.2951C45.1391 58.8081 44.6893 58.1952 44.032 57.8433C32.5951 44.5835 40.2958 24.3866 55.3621 17.536C55.2084 18.2655 55.2527 19.0672 55.5674 19.743C55.6303 19.8782 55.6303 19.8782 55.6933 20.0134L55.7562 20.1485C42.4285 26.8475 36.5592 43.5601 45.1784 55.007C46.465 56.7105 48.2923 58.1622 50.2733 58.8845C46.3227 54.6386 45.064 51.9354 44.22 48.71C41.2127 36.9527 47.6606 28.1941 57.0077 20.717C57.0077 20.717 57.5391 20.7986 57.602 20.9337C58.9258 21.3042 61.8251 22.5857 62.9786 21.8842C63.8876 22.7767 63.9763 24.3801 64.0743 25.6502ZM63.1416 20.8214C62.5216 19.1365 58.9093 19.5027 57.793 18.8712C57.73 18.736 56.7488 18.0416 56.3526 17.8972C56.2897 17.762 56.4249 17.6991 56.3619 17.5639C57.8116 18.2047 59.1003 17.4402 62.8363 19.8123C62.8899 20.2808 62.9528 20.4159 63.1416 20.8214Z" fill="#212721"/>
<path d="M66.8585 45.4058C69.9659 55.9652 65.9252 62.1228 64.5436 66.2199C68.5635 63.1969 71.8418 53.2826 68.4712 44.9839C67.5364 42.6232 66.1962 40.4512 64.2431 38.7291C65.1149 40.9547 66.1218 43.1173 66.8585 45.4058Z" fill="#212721"/>
<path d="M47.293 36.5887C46.4263 38.9659 45.8205 41.5505 45.8813 44.1537C45.8442 45.4868 46.0773 46.694 46.5085 47.9734C46.8769 49.1176 47.4433 50.3341 48.3523 51.2266C48.1191 50.0194 47.8859 48.8123 47.6528 47.6051C47.4196 46.3979 47.5198 45.2 47.4847 44.065C47.685 41.6692 48.1462 39.4808 49.0759 37.2388C50.0056 34.9967 51.1963 32.9621 52.3871 30.9274C53.5778 28.8928 55.1018 26.8675 56.1667 24.5625C54.1206 26.1731 52.5337 28.0632 51.1448 30.0256C49.5579 31.9158 48.295 34.1485 47.293 36.5887Z" fill="#212721"/>
<path d="M113.672 188.35C113.917 188.971 114.175 189.442 114.594 189.779C115.136 190.425 115.84 190.936 116.556 191.298C117.273 191.661 117.893 191.416 118.609 191.779C136.258 198.721 163.128 177.439 148.958 154.787C147.643 152.725 146.179 150.651 145.187 148.318C144.549 147.065 144.37 145.702 143.893 144.313C143.456 142.478 142.709 140.766 142.731 138.822C142.817 136.136 144.241 133.567 145.639 131.295C146.35 130.011 147.359 128.752 147.936 127.306C149.796 126.572 152.063 126.323 154.182 126.06C152.561 125.768 150.928 125.624 149.268 125.777C147.608 125.93 145.773 126.368 144.332 127.438C143.537 127.967 142.877 128.657 142.366 129.36C141.855 130.064 141.48 130.929 141.253 131.807C139.62 136.752 141.027 137.774 133.304 142.183C127.469 145.561 123.171 148.475 119.739 156.854C115.53 167.26 118.287 173.34 115.431 180.273C114.209 182.261 113.768 183.868 113.624 185.502C113.113 186.206 113.305 187.42 113.672 188.35ZM145.118 128.705C145.765 128.163 146.385 127.918 147.167 127.538C146.049 128.338 145.079 129.15 144.232 130.273C143.895 130.692 143.559 131.112 143.223 131.531C143.611 130.518 144.149 129.517 145.118 128.705ZM116.458 180.513C116.632 180.23 117.443 177.776 117.743 177.783C117.726 177.782 117.653 177.783 117.612 177.839C117.598 177.858 117.588 177.884 117.585 177.918C117.594 177.892 117.603 177.866 117.612 177.839C118.79 174.373 118.836 170.518 119.295 166.993C122.891 144.858 136.245 146.184 140.909 139.111C141.132 141.675 142.741 147.205 142.741 147.205C143.654 150.428 145.214 153.11 146.896 156.102C147.67 157.517 148.443 158.933 149.055 160.483C149.435 161.265 149.518 162.021 149.912 162.654C153.187 179.856 136.419 193.497 119.946 191.896C120.444 191.341 120.806 190.625 120.872 189.882C120.885 189.734 120.885 189.734 120.898 189.585L120.911 189.437C135.803 190.299 149.242 178.76 147.501 164.537C147.238 162.419 146.382 160.248 145.027 158.632C146.326 164.284 146.064 167.255 145.182 170.47C141.908 182.156 131.945 186.517 120.111 188.319C120.111 188.319 119.692 187.982 119.705 187.834C118.744 186.851 116.874 184.292 115.524 184.322C115.183 183.095 115.908 181.662 116.458 180.513ZM114.851 185.161C114.546 186.931 117.857 188.42 118.508 189.525C118.495 189.673 118.998 190.765 119.269 191.088C119.256 191.237 119.107 191.224 119.094 191.372C118.159 190.093 116.661 190.11 114.611 186.188C114.799 185.755 114.812 185.607 114.851 185.161Z" fill="#7D82CE"/>
<path d="M117.743 177.783C117.443 177.776 116.632 180.23 116.458 180.513C115.908 181.662 115.183 183.095 115.524 184.322C116.874 184.292 118.744 186.851 119.705 187.834C119.692 187.982 120.111 188.319 120.111 188.319C131.945 186.517 141.908 182.156 145.182 170.47C146.064 167.255 146.326 164.284 145.027 158.632C146.382 160.248 147.238 162.419 147.501 164.537C149.242 178.76 135.803 190.299 120.911 189.437L120.898 189.585L120.872 189.882C120.806 190.625 120.444 191.341 119.946 191.896C136.419 193.497 153.187 179.856 149.912 162.654C149.518 162.021 149.435 161.265 149.055 160.483C148.443 158.933 147.67 157.517 146.896 156.102C145.214 153.11 143.654 150.428 142.741 147.205C142.741 147.205 141.132 141.675 140.909 139.111C136.245 146.184 122.891 144.858 119.295 166.993C118.836 170.518 118.79 174.373 117.612 177.839C117.653 177.783 117.726 177.782 117.743 177.783Z" fill="#7D82CE"/>
<path d="M108.824 192.414C109.069 193.034 109.327 193.506 109.746 193.842C110.288 194.488 110.991 194.999 111.708 195.362C112.424 195.724 113.045 195.48 113.761 195.842C131.41 202.784 158.28 181.502 144.11 158.85C142.795 156.789 141.331 154.714 140.339 152.382C139.701 151.128 139.522 149.765 139.045 148.376C138.608 146.542 137.861 144.829 137.882 142.885C137.969 140.199 139.393 137.63 140.79 135.358C141.502 134.074 142.511 132.816 143.087 131.37C144.948 130.636 147.215 130.386 149.334 130.124C147.713 129.831 146.079 129.687 144.42 129.841C142.76 129.994 140.925 130.431 139.484 131.501C138.689 132.03 138.029 132.72 137.518 133.424C137.007 134.127 136.632 134.992 136.405 135.87C134.772 140.815 136.179 141.837 128.456 146.246C122.621 149.624 118.323 152.538 114.891 160.917C110.682 171.323 113.439 177.403 110.583 184.336C109.361 186.324 108.92 187.932 108.776 189.566C108.265 190.269 108.457 191.483 108.824 192.414ZM140.27 132.768C140.917 132.226 141.537 131.982 142.319 131.601C141.201 132.401 140.231 133.214 139.384 134.336C139.047 134.756 138.711 135.175 138.375 135.595C138.763 134.581 139.301 133.581 140.27 132.768ZM111.61 184.577C111.785 184.293 112.601 181.82 112.898 181.846C112.898 181.846 112.75 181.833 112.737 181.982C113.942 178.495 113.985 174.608 114.447 171.056C118.043 148.921 131.397 150.247 136.061 143.174C136.284 145.738 137.893 151.268 137.893 151.268C138.806 154.492 140.366 157.174 142.048 160.166C142.822 161.581 143.595 162.996 144.207 164.547C144.587 165.329 144.67 166.084 145.064 166.718C148.338 183.919 131.571 197.56 115.098 195.96C115.596 195.405 115.958 194.688 116.024 193.946C116.037 193.797 116.037 193.797 116.05 193.649L116.063 193.5C130.954 194.363 144.394 182.824 142.653 168.601C142.39 166.482 141.534 164.311 140.179 162.695C141.478 168.348 141.216 171.318 140.334 174.533C137.06 186.219 127.097 190.58 115.263 192.382C115.263 192.382 114.844 192.046 114.857 191.897C113.896 190.915 112.026 188.355 110.676 188.386C110.335 187.158 111.06 185.725 111.61 184.577ZM110.003 189.225C109.698 190.994 113.009 192.483 113.66 193.588C113.647 193.736 114.15 194.828 114.421 195.152C114.408 195.3 114.259 195.287 114.246 195.436C113.311 194.156 111.813 194.174 109.763 190.251C109.951 189.819 109.964 189.67 110.003 189.225Z" fill="#212721"/>
<path d="M119.077 166.076C121.665 155.377 128.243 152.065 131.488 149.207C126.496 149.815 118.699 156.762 117.469 165.635C117.098 168.146 117.173 170.697 118.003 173.165C118.361 170.802 118.57 168.426 119.077 166.076Z" fill="#212721"/>
<path d="M131.612 183.494C133.551 181.869 135.368 179.933 136.617 177.648C137.316 176.513 137.718 175.351 137.984 174.027C138.237 172.852 138.355 171.515 138.014 170.288C137.612 171.45 137.21 172.612 136.809 173.774C136.407 174.936 135.721 175.923 135.184 176.924C133.813 178.898 132.319 180.563 130.393 182.04C128.467 183.517 126.418 184.683 124.37 185.85C122.321 187.017 119.989 188.009 117.914 189.472C120.491 189.101 122.811 188.257 124.995 187.252C127.314 186.409 129.524 185.106 131.612 183.494Z" fill="#212721"/>
<path d="M89.7384 131.342C87.9927 129.358 78.2372 129.953 67.1178 124.44C65.0109 123.448 62.9763 122.257 60.5991 121.39C54.9893 119.233 50.692 120.247 44.5044 119.674C38.9762 116.985 38.4562 114.102 35.7643 112.56C34.585 111.793 33.2613 111.422 31.8653 111.25C30.8655 111.222 29.8657 111.194 28.9917 111.437C28.4604 111.355 27.7938 111.337 27.1902 111.453C27.5142 111.796 27.9734 112.075 28.2973 112.418C28.7565 112.698 29.0175 112.905 29.4137 113.049C31.1244 113.898 32.898 114.881 34.2661 116.053C36.7413 118.19 38.2703 120.767 39.0513 123.858C38.2804 129.973 38.987 135.729 45.6995 143.788C55.3278 154.929 78.8288 154.184 87.2083 140.743C88.1823 139.303 88.8953 137.655 89.4102 135.935C89.7713 134.944 90.2677 133.891 90.2326 132.756C90.3141 132.225 90.1253 131.819 89.7384 131.342ZM32.4946 112.602C32.0984 112.457 31.6393 112.178 31.2431 112.033C31.3782 111.97 31.4412 112.105 31.5764 112.042C32.8372 112.278 34.0258 112.711 35.1421 113.343C37.834 114.885 38.1022 117.227 40.857 118.905C39.9295 118.679 39.5332 118.535 39.0741 118.255C38.6336 117.309 37.9227 116.489 37.2118 115.668C35.8437 114.496 34.1423 113.315 32.4946 112.602ZM86.0289 139.976C77.2275 151.804 55.8706 152.209 47.0698 142.492C41.1217 135.722 40.054 130.956 39.7879 126.146C39.8601 125.948 39.9324 125.75 40.0046 125.552C40.3636 127.029 41.5036 131.597 42.2681 132.886C42.6758 130.229 40.1605 122.354 40.2327 122.156C41.3119 124.121 44.759 127.285 46.6957 127.206C46.1829 126.458 45.5257 126.106 44.9406 125.556C43.2595 124.051 41.8453 122.422 40.5036 120.598C40.4948 120.586 40.4861 120.574 40.4773 120.562C40.483 120.574 40.4918 120.586 40.5036 120.598C40.7553 120.848 42.3473 121.014 42.6657 121.023C43.4581 121.312 43.8543 121.457 44.7189 121.548C46.052 121.585 47.448 121.757 48.844 121.929C50.5732 122.111 52.3747 122.095 54.0411 122.141C56.9053 122.288 59.5435 123.362 62.1095 124.634C63.3611 125.203 64.8107 125.843 66.0623 126.412C70.1408 128.46 76.2283 130.231 82.0919 130.461C83.1547 130.624 84.3526 130.724 85.4153 130.887C84.8653 131.472 84.5764 132.265 84.4227 132.994C83.6653 133.84 83.1246 134.092 82.584 134.344L83.169 134.894C75.0962 137.337 68.5475 137.754 60.6328 134.532C56.68 132.754 56.1673 132.006 53.1422 130.454C53.9067 131.743 54.9415 132.906 56.1838 133.808C57.426 134.709 58.6682 135.611 59.9827 136.315C67.8066 140.402 77.8232 140.014 84.015 135.651C85.3924 136.49 87.3198 136.744 88.753 135.583C87.9048 137.294 86.9937 138.869 86.0289 139.976ZM89.3494 133.332C88.4662 133.908 87.4478 134.546 86.2499 134.446C85.7814 134.5 85.5204 134.292 85.4575 134.157C85.3316 133.887 85.4761 133.491 85.6205 133.094C85.6928 132.896 85.5855 131.959 85.8558 131.834C86.1354 131.374 86.4058 131.249 87.1352 131.402C87.8018 131.421 88.459 131.773 88.9181 132.052C89.3143 132.197 89.368 132.665 89.3494 133.332Z" fill="#7D82CE"/>
<path d="M47.0698 142.492C55.8706 152.209 77.2275 151.804 86.0289 139.976C86.9937 138.869 87.9048 137.294 88.753 135.583C87.3198 136.744 85.3924 136.49 84.015 135.651C77.8232 140.014 67.8066 140.402 59.9827 136.315C58.6682 135.611 57.426 134.709 56.1838 133.808C54.9415 132.906 53.9067 131.743 53.1422 130.454C56.1673 132.006 56.68 132.754 60.6328 134.532C68.5475 137.754 75.0962 137.337 83.169 134.894L82.584 134.344C83.1246 134.092 83.6653 133.84 84.4227 132.994C84.5764 132.265 84.8653 131.472 85.4153 130.887C84.3526 130.724 83.1547 130.624 82.0919 130.461C76.2283 130.231 70.1408 128.46 66.0623 126.412C64.8107 125.843 63.3611 125.203 62.1095 124.634C59.5435 123.362 56.9053 122.288 54.0411 122.141C52.3747 122.095 50.5732 122.111 48.844 121.929C47.448 121.757 46.052 121.585 44.7189 121.548C43.8543 121.457 43.4581 121.312 42.6657 121.023C42.3473 121.014 40.7553 120.848 40.5036 120.598C41.8453 122.422 43.2595 124.051 44.9406 125.556C45.5257 126.106 46.1829 126.458 46.6957 127.206C44.759 127.285 41.3119 124.121 40.2327 122.156C40.1605 122.354 42.6758 130.229 42.2681 132.886C41.5036 131.597 40.3636 127.029 40.0046 125.552L39.7879 126.146C40.054 130.956 41.1217 135.722 47.0698 142.492Z" fill="#7D82CE"/>
<path d="M45.4069 127.97C47.7498 137.241 62.4422 146.189 76.1568 139.968C79.8063 138.269 83.2133 135.695 85.18 132.148C75.4087 140.481 64.0127 142.497 53.7229 135.94C50.185 133.64 48.3763 131.522 45.4069 127.97Z" fill="#212721"/>
<path d="M91.9054 125.399C90.1597 123.415 80.4041 124.01 69.2847 118.497C67.1779 117.505 65.1432 116.314 62.766 115.447C57.1563 113.29 52.8589 114.304 46.6713 113.731C41.1431 111.042 40.6232 108.159 37.9313 106.617C36.752 105.85 35.4282 105.479 34.0322 105.307C33.0324 105.279 32.0326 105.251 31.1587 105.494C30.6273 105.412 29.9608 105.394 29.3572 105.51C29.6811 105.853 30.1403 106.132 30.4643 106.475C30.9234 106.755 31.1844 106.962 31.5806 107.106C33.2913 107.955 35.0649 108.938 36.433 110.11C38.9082 112.247 40.4372 114.824 41.2182 117.915C40.4473 124.03 41.1539 129.786 47.8665 137.845C57.4947 148.986 80.9957 148.241 89.3752 134.8C90.3492 133.36 91.0622 131.712 91.5771 129.992C91.9383 129.001 92.4346 127.948 92.3996 126.813C92.4811 126.282 92.2923 125.876 91.9054 125.399ZM34.6615 106.659C34.2653 106.514 33.8062 106.235 33.41 106.09C33.5452 106.027 33.6081 106.162 33.7433 106.099C35.0041 106.335 36.1927 106.768 37.3091 107.4C40.001 108.942 40.2692 111.284 43.024 112.962C42.0964 112.736 41.7002 112.592 41.241 112.312C40.8005 111.366 40.0896 110.546 39.3788 109.725C38.0107 108.553 36.3093 107.372 34.6615 106.659ZM88.1958 134.033C79.3944 145.861 58.0375 146.266 49.2367 136.549C43.2886 129.779 42.2209 125.013 41.9548 120.203C42.0271 120.005 42.0993 119.807 42.1715 119.609C42.5305 121.086 43.6706 125.654 44.4351 126.943C44.8427 124.286 42.3274 116.411 42.3996 116.213C43.4788 118.178 46.9259 121.342 48.8626 121.263C48.3498 120.515 47.6926 120.163 47.1076 119.613C45.4155 118.098 43.9938 116.458 42.6443 114.619C42.7701 114.889 44.4994 115.071 44.8326 115.08C45.625 115.369 46.0212 115.514 46.8859 115.605C48.2189 115.642 49.6149 115.814 51.0109 115.986C52.7402 116.168 54.5417 116.152 56.208 116.198C59.0722 116.345 61.7105 117.419 64.2765 118.691C65.528 119.26 66.9777 119.9 68.2292 120.469C72.3078 122.517 78.3952 124.288 84.2589 124.518C85.3216 124.681 86.5195 124.781 87.5822 124.944C87.0323 125.529 86.7433 126.322 86.5896 127.051C85.8322 127.897 85.2916 128.149 84.7509 128.401L85.3359 128.951C77.2632 131.394 70.7144 131.811 62.7997 128.589C58.847 126.811 58.3342 126.063 55.3091 124.511C56.0736 125.8 57.1085 126.963 58.3507 127.865C59.5929 128.766 60.8352 129.668 62.1496 130.372C69.9735 134.459 79.9901 134.071 86.182 129.708C87.5594 130.547 89.4867 130.801 90.9199 129.64C90.0717 131.351 89.1606 132.926 88.1958 134.033ZM91.5163 127.389C90.6331 127.965 89.6147 128.603 88.4168 128.503C87.9484 128.557 87.6874 128.349 87.6244 128.214C87.4986 127.944 87.643 127.548 87.7875 127.151C87.8597 126.953 87.7524 126.016 88.0227 125.891C88.3024 125.431 88.5727 125.306 89.3022 125.459C89.9687 125.478 90.6259 125.83 91.0851 126.109C91.4813 126.254 91.5349 126.722 91.5163 127.389Z" fill="#212721"/>
</svg>
