<svg width="100" height="103" viewBox="0 0 100 103" fill="none" xmlns="http://www.w3.org/2000/svg">
<path d="M90.5255 44.4947C90.3859 42.9466 90.5251 42.4273 91.417 40.281C91.6101 39.8557 91.8033 39.4304 92.0164 38.9309C93.4083 35.8055 94.8002 32.68 95.4729 29.2824C95.6773 28.224 96.6534 21.3297 94.5816 21.9672C93.891 22.1797 93.4364 22.694 93.0017 23.134C92.6806 23.4456 92.4874 23.8709 92.3682 24.316C92.2489 24.7611 92.3911 25.1172 92.3457 25.5821C92.3972 26.868 92.4033 28.6189 92.1393 29.8998C92.0541 30.5131 91.4583 34.8059 87.1425 40.5668L87.0487 40.6212C84.664 40.0618 79.9629 39.2792 75.7261 42.6759C75.1038 43.2248 74.6095 43.8874 74.243 44.6638L74.2032 44.8122C70.0576 49.3466 59.531 64.0976 49.5142 71.0342C43.1801 75.4592 34.8446 77.5987 27.2905 78.596C10.7495 79.7295 5.40833 76.3106 3.53583 78.2737C1.43602 80.4938 11.9217 84.8141 15.2416 86.0217C20.8865 88.0114 58.3829 100.603 88.4053 56.2505C88.6524 55.9192 89.0816 55.7957 89.3089 55.5385C92.3944 51.1177 90.9521 45.5631 90.5255 44.4947ZM92.6041 24.6177C92.516 24.3556 92.8569 23.9699 92.9706 23.8413C93.3314 23.3814 93.7662 22.9413 94.3288 22.615C94.4226 22.5607 94.4226 22.5607 94.4965 22.5805C94.5903 22.5261 94.758 22.4915 94.8319 22.5113C95.1616 22.7587 93.2351 24.6278 93.2351 24.6278C93.0475 24.7365 92.6923 24.8799 92.6041 24.6177ZM87.3961 55.5826C83.8937 63.6287 58.0573 93.8368 23.7712 87.5917C13.7096 85.5317 4.47715 80.6726 4.08167 78.897C4.06691 76.5872 30.1684 85.8869 50.2022 72.0136C61.3102 64.2562 68.6713 52.1555 73.7802 46.6866L75.2322 45.406C76.8178 43.9226 82.6493 41.6687 82.2104 48.6274C82.1284 50.1161 81.9128 51.8075 81.7481 52.7176C81.6686 53.0143 81.9984 53.2616 82.2797 53.0985C84.3627 51.8279 90.1458 49.1635 87.3961 55.5826ZM89.7574 53.2734C89.658 53.6444 89.4847 53.9955 89.3313 54.2724C89.158 54.6235 88.8171 55.0092 88.7177 55.3801C91.0688 46.31 83.0697 52.5151 82.8251 51.6544C82.793 48.2269 84.0371 45.0619 81.0923 43.6368C79.0685 42.6174 77.4202 43.4479 75.4025 44.1794C77.6129 40.9552 83.5983 40.4918 86.9722 41.7934C87.9951 40.6363 91.8879 36.7498 92.8584 30.172C93.1081 28.6487 93.1362 27.0661 93.0903 25.4636C93.9287 25.2907 94.5709 24.6677 94.9373 23.8912C94.9944 24.8606 96.3307 26.9679 92.0245 37.4225C89.2636 44.4746 89.414 43.3223 88.8483 42.7731C89.8722 45.7508 91.0469 49.6435 89.7574 53.2734Z" fill="#FFB347"/>
<path d="M87.3961 55.5826C83.8937 63.6287 58.0573 93.8368 23.7712 87.5917C13.7096 85.5317 4.47715 80.6726 4.08167 78.897C4.06691 76.5872 30.1684 85.8869 50.2022 72.0136C61.3102 64.2562 68.6713 52.1555 73.7802 46.6866L75.2322 45.406C76.8178 43.9226 82.6493 41.6687 82.2104 48.6274C82.1284 50.1161 81.9128 51.8075 81.7481 52.7176C81.6686 53.0143 81.9984 53.2616 82.2797 53.0985C84.3627 51.8279 90.1458 49.1635 87.3961 55.5826Z" fill="#FFB347"/>
<path d="M89.7574 53.2734C89.658 53.6444 89.4847 53.9955 89.3313 54.2724C89.158 54.6235 88.8171 55.0092 88.7177 55.3801C91.0688 46.31 83.0697 52.5151 82.8251 51.6544C82.793 48.2269 84.0371 45.0619 81.0923 43.6368C79.0685 42.6174 77.4202 43.4479 75.4025 44.1794C77.6129 40.9552 83.5983 40.4918 86.9722 41.7934C87.9951 40.6363 91.8879 36.7498 92.8584 30.172C93.1081 28.6487 93.1362 27.0661 93.0903 25.4636C93.9287 25.2907 94.5709 24.6677 94.9373 23.8912C94.9944 24.8606 96.3307 26.9679 92.0245 37.4225C89.2636 44.4746 89.414 43.3223 88.8483 42.7731C89.8722 45.7508 91.0469 49.6435 89.7574 53.2734Z" fill="#FFB347"/>
<path d="M92.6041 24.6177C92.516 24.3556 92.8569 23.9699 92.9706 23.8413C93.3314 23.3814 93.7662 22.9413 94.3288 22.615C94.4226 22.5607 94.4226 22.5607 94.4965 22.5805C94.5903 22.5261 94.758 22.4915 94.8319 22.5113C95.1616 22.7587 93.2351 24.6278 93.2351 24.6278C93.0475 24.7365 92.6923 24.8799 92.6041 24.6177Z" fill="#FFB347"/>
<path d="M88.9048 41.6751C88.7652 40.127 88.9043 39.6077 89.7963 37.4614C89.9894 37.0361 90.1826 36.6108 90.3956 36.1114C91.7875 32.9859 93.1794 29.8604 93.8522 26.4628C94.0566 25.4044 95.0327 18.5101 92.9609 19.1476C92.2703 19.3601 91.8157 19.8744 91.3809 20.3145C91.0599 20.626 90.8667 21.0513 90.7474 21.4964C90.6282 21.9415 90.7703 22.2976 90.725 22.7625C90.7764 24.0485 90.7825 25.7993 90.5185 27.0802C90.4334 27.6935 89.8376 31.9864 85.5217 37.7473L85.428 37.8016C83.0433 37.2422 78.3422 36.4596 74.1054 39.8564C73.4831 40.4052 72.9887 41.0678 72.6223 41.8443L72.5825 41.9926C68.4369 46.527 57.9103 61.278 47.8934 68.2146C41.5594 72.6396 33.2239 74.7792 25.6697 75.7764C9.12879 76.9099 3.78761 73.491 1.91511 75.4541C-0.184704 77.6743 10.301 81.9946 13.6209 83.2022C19.2658 85.1918 56.7622 97.7832 86.7845 53.431C87.0317 53.0996 87.4608 52.9761 87.6882 52.719C90.7737 48.2981 89.3314 42.7435 88.9048 41.6751ZM90.9834 21.7981C90.8952 21.536 91.2362 21.1503 91.3498 21.0217C91.7107 20.5618 92.1454 20.1218 92.7081 19.7955C92.8019 19.7411 92.8019 19.7411 92.8758 19.7609C92.9695 19.7065 93.1372 19.6719 93.2111 19.6917C93.5409 19.9391 91.6143 21.8082 91.6143 21.8082C91.4268 21.9169 91.0716 22.0603 90.9834 21.7981ZM85.7754 52.763C82.273 60.8091 56.4366 91.0172 22.1505 84.7721C12.0888 82.7122 2.85642 77.8531 2.46094 76.0774C2.44619 73.7677 28.5477 83.0673 48.5815 69.194C59.6895 61.4367 67.0506 49.3359 72.1595 43.867L73.6115 42.5864C75.1971 41.103 81.0286 38.8491 80.5897 45.8079C80.5076 47.2965 80.292 48.988 80.1274 49.898C80.0479 50.1947 80.3777 50.4421 80.659 50.2789C82.742 49.0083 88.5251 46.3439 85.7754 52.763ZM88.1367 50.4539C88.0373 50.8248 87.864 51.1759 87.7106 51.4528C87.5373 51.8039 87.1963 52.1896 87.097 52.5605C89.4481 43.4904 81.449 49.6955 81.2043 48.8349C81.1723 45.4074 82.4164 42.2423 79.4716 40.8172C77.4477 39.7978 75.7995 40.6283 73.7818 41.3598C75.9922 38.1357 81.9776 37.6722 85.3515 38.9738C86.3744 37.8167 90.2672 33.9302 91.2377 27.3524C91.4874 25.8291 91.5155 24.2465 91.4696 22.644C92.308 22.4711 92.9502 21.8481 93.3166 21.0717C93.3737 22.0411 94.71 24.1483 90.4038 34.6029C87.6429 41.655 87.7933 40.5027 87.2276 39.9535C88.2514 42.9312 89.4261 46.8239 88.1367 50.4539Z" fill="#212721"/>
<path d="M85.3631 51.9369C83.3912 54.2709 79.7685 58.6274 75.6484 62.771C69.7297 68.8975 63.6173 73.3819 60.2414 75.3397C31.7472 92.1141 9.69499 79.5264 6.0112 77.9033C6.81849 78.4377 7.6997 78.9918 8.52687 79.452C31.8721 91.3525 57.1054 82.6094 74.9981 64.9025C75.4328 64.4625 75.8676 64.0224 76.3762 63.6021C77.3593 62.5934 79.5529 60.3188 82.272 56.6743C83.8688 54.5579 84.7694 52.9705 84.4085 53.4304C84.7892 52.8963 85.0762 52.4166 85.3631 51.9369Z" fill="#212721"/>
<path d="M57.8368 74.8545C60.2695 73.7571 62.6338 72.3233 64.8702 70.7758C67.1066 69.2283 69.2349 67.4928 71.2353 65.6435C75.9181 61.1736 81.1289 54.1418 82.3959 51.778C81.1998 53.2862 74.8493 60.7282 70.5075 64.8125C68.581 66.6815 66.5464 68.3626 64.438 70.0239C62.3096 71.7594 60.0732 73.3069 57.8368 74.8545Z" fill="#212721"/>
<path d="M37.8611 82.303C44.3552 81.4192 50.6699 79.1357 55.6345 76.57C44.5739 80.6032 33.8741 84.1765 14.7711 80.0915C14.791 80.0173 24.2023 84.2087 37.8611 82.303Z" fill="#212721"/>
<path d="M75.673 58.2455C77.1703 56.5 78.787 54.3094 79.6789 52.1631C78.1617 53.9828 71.7715 61.5732 70.1319 62.9625C72.1211 61.7463 74.1954 59.9169 75.673 58.2455Z" fill="#212721"/>
<path d="M72.3986 45.0441C61.3205 59.4883 60.8088 59.0332 56.544 64.0126C62.2272 59.6517 68.8931 52.2147 72.3986 45.0441Z" fill="#212721"/>
<path d="M83.5656 46.5258C83.5682 45.3338 83.2466 43.5779 82.4449 42.7271C83.375 45.7591 82.213 47.4355 82.1478 47.9745C84.1314 47.0749 86.2342 45.7301 87.2749 47.7582C87.545 48.2281 87.6276 48.8068 87.7841 49.4053C88.5506 45.9532 86.092 45.374 83.5656 46.5258Z" fill="#212721"/>
</svg>
