<svg width="99" height="102" viewBox="0 0 99 102" fill="none" xmlns="http://www.w3.org/2000/svg">
<path d="M80.4392 73.8329C76.8021 77.7826 73.1145 81.6071 65.3667 84.7443C59.4933 87.1226 53.1874 88.0732 46.898 87.2687C29.1073 85.0017 12.0093 65.4066 24.3708 42.7708C24.7928 42.0171 25.0156 41.4898 25.6133 40.8106C26.1368 40.3073 29.961 44.0042 35.0539 40.7763C34.7568 41.4794 34.0884 43.0614 33.0415 44.0682C31.7446 45.1761 30.37 45.7327 28.7184 45.9644C31.985 48.2843 35.2412 48.4229 38.1389 46.9581C43.6103 44.3055 42.3561 38.6937 45.9399 39.2824C47.4937 39.5275 48.8247 40.2999 50.3278 40.4198C56.5664 41.0991 60.4298 37.3492 61.0135 33.7616C56.5148 35.5832 53.9577 35.0159 51.2723 33.772L51.6471 33.6202C52.3226 33.4924 52.5726 33.3912 53.3967 32.9118C54.6463 32.4058 55.8689 31.4736 56.7908 30.5175C57.7127 29.5614 58.4826 28.2297 59.0025 26.9992C59.1004 26.5225 59.3231 25.9951 59.421 25.5184C68.2403 26.4641 77.05 30.6193 82.5435 37.72C88.7465 46.5733 89.1515 63.0198 80.4392 73.8329Z" fill="#D22730"/>
<path d="M22.691 37.1857L22.012 36.5864C24.3968 37.8063 27.2274 37.9715 29.8787 37.335C32.5301 36.6985 34.9787 35.5614 37.3766 34.299C36.9003 34.2004 36.4241 34.1019 36.0221 33.8275C35.6201 33.5532 35.2687 33.404 34.8667 33.1297C33.5358 32.3573 32.3298 31.5342 31.3432 29.4568C32.3735 30.2052 33.2281 30.8791 34.4577 31.4011C35.5116 31.8486 36.8155 32.1949 37.9908 31.8647C37.7279 34.4481 39.2651 36.4484 41.5923 36.0889C46.4222 35.4445 46.763 33.4123 45.5228 30.709C45.4215 30.4586 44.7154 29.4332 44.8403 29.3826C46.4036 26.4182 46.5382 23.1583 45.9465 19.9009C49.2036 25.4302 48.4608 27.188 47.8736 30.0485C49.0997 29.8434 53.2541 29.3269 56.3641 25.1534C57.411 24.1467 58.3059 22.7644 58.9001 21.3581C59.0015 21.6085 58.9272 21.7843 59.0286 22.0347C59.0557 22.4608 59.0085 23.0627 58.9106 23.5395C58.8128 24.0162 58.6642 24.3678 58.6913 24.7939C56.6728 32.0223 50.4919 32.9224 47.165 33.6867C51.2793 35.2262 53.2149 36.7737 57.1937 36.1826C58.1699 36.0787 59.0446 35.7245 60.0443 35.3197C54.449 43.4136 45.2704 35.4738 43.0552 38.2649C41.9847 39.5726 42.3807 43.7834 37.0072 45.9593C35.0078 46.7689 32.8056 47.0778 30.7249 46.609C31.3261 46.6569 31.9002 46.2787 32.3494 45.9512C36.0677 43.2799 35.6115 42.1533 36.9284 40.0173C37.2019 39.6151 37.5969 38.4352 38.0697 37.8067L38.019 37.6815C37.3199 38.1103 36.7964 38.6137 36.0973 39.0424C31.2508 41.442 26.3631 40.507 22.691 37.1857Z" fill="#D22730"/>
<path d="M37.7705 27.7284C35.6757 24.3512 32.4433 23.9116 32.3183 23.9622C32.2676 23.837 31.7336 22.1591 32.9798 20.926C33.179 20.6996 33.4796 20.7236 33.706 20.9233C34.537 21.8981 33.2944 23.8584 33.5443 23.7572C33.9192 23.6054 34.9897 22.2977 34.7598 21.3708C38.7763 23.3871 41.8201 26.2344 44.1683 30.2375C46.8443 34.6908 40.5654 36.0676 39.0553 34.4935C37.7444 32.693 40.1423 31.4306 37.7705 27.7284Z" fill="#D22730"/>
<path d="M54.2127 25.5875C52.8416 26.8712 51.0449 28.1815 49.194 28.6396C49.4063 25.9309 49.332 26.1067 49.4063 25.9309C51.4835 25.6727 52.6353 25.6434 54.2127 25.5875Z" fill="#D22730"/>
<path d="M44.6541 27.1267C44.5056 27.4782 44.482 27.7792 44.3334 28.1308C44.2321 27.8804 44.0058 27.6806 43.9551 27.5554C43.9044 27.4303 44.5292 27.1773 44.6541 27.1267Z" fill="#D22730"/>
<path d="M38.0345 30.5356C38.1359 30.786 38.1124 31.0869 38.163 31.2121C38.0381 31.2627 37.9637 31.4385 37.8388 31.4891C37.5382 31.4651 37.1869 31.316 36.8356 31.1668C37.2105 31.015 37.5347 30.738 38.0345 30.5356Z" fill="#D22730"/>
<path fill-rule="evenodd" clip-rule="evenodd" d="M61.0927 24.2587C60.6164 24.1601 60.1909 24.1867 59.5896 24.1388C59.5896 24.1388 59.7076 22.634 59.6569 22.5088C59.552 21.5313 59.4979 20.679 58.9674 19.7282C58.596 20.6071 58.0996 21.5366 57.5019 22.2157C57.2284 22.6179 55.9586 24.152 55.9586 24.152C55.9586 24.152 51.6015 24.1678 49.325 24.6525C48.7875 22.2474 48.3042 20.6947 45.159 17.5971C45.5751 20.7798 45.6363 23.0863 45.0255 26.2478C44.475 26.325 43.8502 26.578 43.3503 26.7804C43.1004 26.8816 41.4819 23.6029 37.5904 21.536C36.4351 20.8382 35.2055 20.3161 33.9016 19.9698C32.7228 19.573 31.7773 20.83 31.5073 21.9593C31.3352 22.6118 31.6192 24.391 31.6699 24.5162C31.8219 24.8917 32.0482 25.0915 32.3996 25.2407C34.0783 25.4351 35.1594 26.3087 36.3418 27.4327C36.8451 27.9574 37.5748 28.6819 37.9532 29.2572C37.629 29.5342 35.8052 30.4184 35.356 30.746C34.7548 30.698 34.0015 30.2745 33.4239 29.9256C32.4443 29.3023 31.3397 28.7296 30.36 28.1064C30.4378 28.6577 30.7725 30.5621 31.303 31.5129C31.6307 31.963 31.9584 32.4131 32.4111 32.8127C30.8137 33.8966 29.3919 35.0552 28.0715 36.464C27.8723 36.6904 26.4942 36.5199 26.1935 36.496C25.4673 36.4986 24.8661 36.4506 24.2142 36.2775C22.961 36.0564 21.7078 35.8353 20.6775 35.0869C21.083 36.0883 21.5628 36.914 22.1675 37.6891C22.9986 38.6639 23.904 39.4629 24.7587 40.1368C21.6451 43.5831 13.825 57.6776 22.7652 73.2906C35.1653 94.9336 65.9629 94.1195 82.3949 74.3523C96.007 56.6012 88.4053 27.7698 61.0927 24.2587ZM49.194 28.6396C51.0449 28.1815 52.8416 26.8712 54.2127 25.5875C52.6353 25.6434 51.4835 25.6727 49.4063 25.9309C49.332 26.1067 49.4063 25.9309 49.194 28.6396ZM44.3334 28.1308C44.482 27.7792 44.5056 27.4782 44.6541 27.1267C44.5292 27.1773 43.9044 27.4303 43.9551 27.5554C44.0058 27.6806 44.2321 27.8804 44.3334 28.1308ZM32.3183 23.9622C32.4433 23.9116 35.6757 24.3512 37.7705 27.7284C40.1423 31.4306 37.7444 32.693 39.0553 34.4935C40.5654 36.0676 46.8443 34.6908 44.1683 30.2375C41.8201 26.2344 38.7763 23.3871 34.7598 21.3708C34.9897 22.2977 33.9192 23.6054 33.5443 23.7572C33.2944 23.8584 34.537 21.8981 33.706 20.9233C33.4796 20.7236 33.179 20.6996 32.9798 20.926C31.7336 22.1591 32.2676 23.837 32.3183 23.9622ZM38.163 31.2121C38.1124 31.0869 38.1359 30.786 38.0345 30.5356C37.5347 30.738 37.2105 31.015 36.8356 31.1668C37.1869 31.316 37.5382 31.4651 37.8388 31.4891C37.9637 31.4385 38.0381 31.2627 38.163 31.2121ZM36.1505 34.504C35.8499 34.4801 33.9684 33.7848 33.4415 33.5611C32.918 34.0645 31.1721 35.5 30.5979 35.8782C32.6245 35.4947 34.2996 34.9621 36.1505 34.504ZM22.012 36.5864L22.691 37.1857C26.3631 40.507 31.2508 41.442 36.0973 39.0424C36.7964 38.6137 37.3199 38.1103 38.019 37.6815L38.0697 37.8067C37.5969 38.4352 37.2019 39.6151 36.9284 40.0173C35.6115 42.1533 36.0677 43.2799 32.3494 45.9512C31.9002 46.2787 31.3261 46.6569 30.7249 46.609C32.8056 47.0778 35.0078 46.7689 37.0072 45.9593C42.3807 43.7834 41.9847 39.5726 43.0552 38.2649C45.2704 35.4738 54.449 43.4136 60.0443 35.3197C59.0446 35.7245 58.1699 36.0787 57.1937 36.1826C53.2149 36.7737 51.2793 35.2262 47.165 33.6867C50.4919 32.9224 56.6728 32.0223 58.6913 24.7939C58.6642 24.3678 58.8128 24.0162 58.9106 23.5395C59.0085 23.0627 59.0557 22.4608 59.0286 22.0347C58.9272 21.7843 59.0015 21.6085 58.9001 21.3581C58.3059 22.7644 57.411 24.1467 56.3641 25.1534C53.2541 29.3269 49.0997 29.8434 47.8736 30.0485C48.4608 27.188 49.2036 25.4302 45.9465 19.9009C46.5382 23.1583 46.4036 26.4182 44.8403 29.3826C44.7154 29.4332 45.4215 30.4586 45.5228 30.709C46.763 33.4123 46.4222 35.4445 41.5923 36.0889C39.2651 36.4484 37.7279 34.4481 37.9908 31.8647C36.8155 32.1949 35.5116 31.8486 34.4577 31.4011C33.2281 30.8791 32.3735 30.2052 31.3432 29.4568C32.3298 31.5342 33.5358 32.3573 34.8667 33.1297C35.2687 33.404 35.6201 33.5532 36.0221 33.8275C36.4241 34.1019 36.9003 34.2004 37.3766 34.299C34.9787 35.5614 32.5301 36.6985 29.8787 37.335C27.2274 37.9715 24.3968 37.8063 22.012 36.5864ZM65.3667 84.7443C73.1145 81.6071 76.8021 77.7826 80.4392 73.8329C89.1515 63.0198 88.7465 46.5733 82.5435 37.72C77.05 30.6193 68.2403 26.4641 59.421 25.5184C59.3231 25.9951 59.1004 26.5225 59.0025 26.9992C58.4826 28.2297 57.7127 29.5614 56.7908 30.5175C55.8689 31.4736 54.6463 32.4058 53.3967 32.9118C52.5726 33.3912 52.3226 33.4924 51.6471 33.6202L51.2723 33.772C53.9577 35.0159 56.5148 35.5832 61.0135 33.7616C60.4298 37.3492 56.5664 41.0991 50.3278 40.4198C48.8247 40.2999 47.4937 39.5275 45.9399 39.2824C42.3561 38.6937 43.6103 44.3055 38.1389 46.9581C35.2412 48.4229 31.985 48.2843 28.7184 45.9644C30.37 45.7327 31.7446 45.1761 33.0415 44.0682C34.0884 43.0614 34.7568 41.4794 35.0539 40.7763C29.961 44.0042 26.1368 40.3073 25.6133 40.8106C25.0156 41.4898 24.7928 42.0171 24.3708 42.7708C12.0093 65.4066 29.1073 85.0017 46.898 87.2687C53.1874 88.0732 59.4933 87.1226 65.3667 84.7443Z" fill="#D22730"/>
<path d="M33.4415 33.5611C33.9684 33.7848 35.8499 34.4801 36.1505 34.504C34.2996 34.9621 32.6245 35.4947 30.5979 35.8782C31.1721 35.5 32.918 34.0645 33.4415 33.5611Z" fill="#D22730"/>
<path d="M55.8232 22.0212C55.3469 21.9227 54.9213 21.9493 54.3201 21.9013C54.3201 21.9013 54.438 20.3965 54.3874 20.2713C54.2825 19.2939 54.2283 18.4416 53.6978 17.4907C53.3265 18.3696 52.8301 19.2992 52.2324 19.9783C51.9589 20.3805 50.6891 21.9146 50.6891 21.9146C50.6891 21.9146 46.332 21.9304 44.0555 22.4151C43.518 20.01 43.0347 18.4573 39.8895 15.3596C40.3055 18.5424 40.3668 20.8489 39.756 24.0103C39.2054 24.0876 38.5806 24.3406 38.0808 24.543C37.8308 24.6442 36.2123 21.3655 32.3209 19.2986C31.1656 18.6007 29.936 18.0787 28.6321 17.7324C27.4532 17.3355 26.5078 18.5926 26.2378 19.7219C26.0656 20.3744 26.3496 22.1536 26.4003 22.2788C26.5524 22.6543 26.7787 22.8541 27.13 23.0032C28.8088 23.1977 29.8898 24.0713 31.0722 25.1953C31.5756 25.72 32.3053 26.4445 32.6837 27.0198C32.3595 27.2968 30.5357 28.181 30.0865 28.5085C29.4853 28.4606 28.732 28.0371 28.1544 27.6882C27.1747 27.0649 26.0701 26.4922 25.0905 25.869C25.1683 26.4203 25.503 28.3246 26.0334 29.2755C26.3612 29.7256 26.6889 30.1757 27.1416 30.5752C25.5442 31.6592 24.1224 32.8177 22.802 34.2266C22.6027 34.453 21.2246 34.2825 20.924 34.2585C20.1978 34.2612 19.5966 34.2132 18.9447 34.0401C17.6915 33.819 16.4383 33.5979 15.408 32.8495C15.8135 33.8509 16.2932 34.6766 16.898 35.4516C17.7291 36.4265 18.6345 37.2255 19.4892 37.8993C16.3756 41.3457 8.55548 55.4401 17.4957 71.0532C29.8958 92.6962 60.6933 91.8821 77.1254 72.1149C90.7375 54.3637 83.1357 25.5323 55.8232 22.0212ZM48.9431 23.3501C47.572 24.6338 45.7754 25.9441 43.9245 26.4022C44.1368 23.6935 44.0625 23.8693 44.1367 23.6935C46.214 23.4352 47.3658 23.4059 48.9431 23.3501ZM39.3846 24.8892C39.2361 25.2408 39.2125 25.5418 39.0639 25.8933C38.9625 25.643 38.7362 25.4432 38.6855 25.318C38.6349 25.1928 39.2596 24.9398 39.3846 24.8892ZM32.501 25.491C30.4062 22.1137 27.1737 21.6742 27.0488 21.7248C26.9981 21.5996 26.4641 19.9217 27.7102 18.6885C27.9095 18.4622 28.2101 18.4861 28.4364 18.6859C29.2675 19.6607 28.0249 21.6209 28.2748 21.5197C28.6497 21.3679 29.7202 20.0603 29.4903 19.1334C33.5067 21.1497 36.5506 23.9969 38.8988 28.0001C41.5747 32.4533 35.2959 33.8301 33.7858 32.256C32.4749 30.4555 34.8728 29.1932 32.501 25.491ZM32.765 28.2982C32.8664 28.5486 32.8428 28.8495 32.8935 28.9747C32.7685 29.0253 32.6942 29.2011 32.5692 29.2517C32.2686 29.2277 31.9173 29.0785 31.566 28.9294C31.9409 28.7776 32.2651 28.5006 32.765 28.2982ZM28.1719 31.3237C28.6989 31.5474 30.5804 32.2426 30.881 32.2666C29.0301 32.7247 27.3549 33.2573 25.3284 33.6407C25.9025 33.2625 27.6485 31.827 28.1719 31.3237ZM17.4214 34.9483C17.1951 34.7485 16.9688 34.5487 16.7424 34.349C19.1273 35.5689 21.9578 35.7341 24.6092 35.0976C27.2605 34.4611 29.7091 33.3239 32.1071 32.0615C31.6308 31.963 31.1545 31.8644 30.7525 31.5901C30.3505 31.3157 29.9992 31.1666 29.5972 30.8923C28.2662 30.1198 27.0603 29.2968 26.0736 27.2193C27.104 27.9678 27.9586 28.6416 29.1882 29.1637C30.2421 29.6112 31.5459 29.9575 32.7213 29.6272C32.4583 32.2107 33.9956 34.2109 36.3228 33.8514C41.1527 33.207 41.4934 31.1749 40.2533 28.4715C40.1519 28.2212 39.4458 27.1957 39.5708 27.1451C41.1341 24.1808 41.2686 20.9208 40.6769 17.6635C43.9341 23.1928 43.1913 24.9506 42.6041 27.8111C43.8302 27.606 47.9846 27.0895 51.0946 22.916C52.1415 21.9093 53.0364 20.527 53.6306 19.1207C53.732 19.3711 53.6577 19.5469 53.759 19.7972C53.7861 20.2234 53.739 20.8253 53.6411 21.3021C53.5432 21.7788 53.3947 22.1304 53.4218 22.5565C51.4033 29.7849 45.2223 30.6849 41.8955 31.4492C46.0098 32.9888 47.9454 34.5363 51.9242 33.9451C52.9003 33.8413 53.7751 33.4871 54.7748 33.0823C49.1795 41.1761 40.0009 33.2363 37.7857 36.0275C36.7152 37.3352 37.1112 41.546 31.7377 43.7219C29.7383 44.5315 27.5361 44.8404 25.4553 44.3715C26.0566 44.4195 26.6307 44.0413 27.0799 43.7137C30.7982 41.0425 30.342 39.9158 31.6589 37.7798C31.9324 37.3777 32.3274 36.1978 32.8001 35.5692C32.8001 35.5692 32.8001 35.5692 32.7494 35.4441C32.0503 35.8729 31.5269 36.3762 30.8278 36.805C25.9813 39.2046 21.0936 38.2696 17.4214 34.9483ZM75.1696 71.5954C71.5326 75.5452 67.8449 79.3696 60.0971 82.5069C54.2238 84.8851 47.9178 85.8358 41.6284 85.0313C23.8378 82.7643 6.73978 63.1692 19.1012 40.5334C19.5233 39.7797 19.7461 39.2524 20.3438 38.5732C19.6954 39.1272 19.9453 39.026 20.3438 38.5732C20.8672 38.0698 24.6915 41.7667 29.7844 38.5389C29.4873 39.242 28.8188 40.824 27.7719 41.8307C26.4751 42.9387 25.1005 43.4953 23.4489 43.727C26.7155 46.0469 29.9716 46.1854 32.8694 44.7207C38.3407 42.0681 37.0866 36.4563 40.6704 37.045C42.2242 37.2901 43.5551 38.0625 45.0582 38.1824C51.2969 38.8617 55.1603 35.1117 55.744 31.5242C51.2452 33.3458 48.6882 32.7785 46.0027 31.5346C46.1277 31.484 46.2526 31.4334 46.3776 31.3828C47.0531 31.255 47.3031 31.1537 48.1271 30.6744C49.3768 30.1683 50.5993 29.2362 51.5213 28.2801C52.4432 27.3239 53.213 25.9923 53.733 24.7618C53.8308 24.285 54.0536 23.7577 54.1515 23.281C62.9708 24.2267 71.7805 28.3819 77.2739 35.4826C83.477 44.3359 83.882 60.7823 75.1696 71.5954Z" fill="#212721"/>
<path d="M38.2137 31.3372C38.5379 31.0602 38.7607 30.5329 38.7843 30.232C39.098 27.7737 35.9764 24.3751 33.99 22.7024C33.3617 22.2283 32.7333 21.7542 32.1557 21.4053C31.578 21.0564 30.8248 20.6329 30.1729 20.4597C31.3788 21.2827 32.3856 22.3321 33.5173 23.3309C34.9767 24.7799 38.0983 28.1785 38.0074 30.1094C37.9838 30.4104 37.9603 30.7113 37.761 30.9377C37.5618 31.1641 37.3626 31.3905 36.9877 31.5423C36.3628 31.7953 35.6366 31.7979 34.9104 31.8006C35.5624 31.9737 36.3899 32.2214 37.1904 32.043C37.3897 31.8166 37.8895 31.6142 38.2137 31.3372Z" fill="#212721"/>
<path d="M35.9312 35.7584C34.1687 38.9491 32.8483 40.358 29.954 42.5499C33.1087 42.4381 36.1716 38.8666 35.9312 35.7584Z" fill="#212721"/>
<path d="M30.6957 35.4014C31.5198 34.922 32.2189 34.4932 32.8673 33.9392C31.9419 34.1682 31.1414 34.3467 30.3409 34.5251L27.9902 35.1855C27.9902 35.1855 23.4879 36.2801 23.113 36.4319C23.9406 36.6796 24.8425 36.7515 25.6936 36.6983C27.271 36.6424 28.9969 36.235 30.6957 35.4014Z" fill="#212721"/>
<path d="M50.7524 35.0023C49.2493 34.8824 47.0707 34.8904 43.9867 34.0993C43.3348 33.9261 42.5073 33.6784 41.6797 33.4307C43.7203 35.9556 48.2059 36.6163 50.7524 35.0023Z" fill="#212721"/>
<path d="M46.7927 29.1749C47.4918 28.7461 48.2651 28.1415 48.8628 27.4624C49.4606 26.7832 49.8826 26.0295 50.1291 25.2012C49.4806 25.7552 48.8322 26.3091 48.1332 26.7379C47.4847 27.2919 46.7856 27.7207 46.2115 28.0989C45.5124 28.5276 44.8133 28.9564 44.0635 29.26C43.3137 29.5636 42.5639 29.8673 41.7399 30.3466C42.6417 30.4186 43.4929 30.3653 44.2934 30.1869C45.2188 29.9579 45.9686 29.6543 46.7927 29.1749Z" fill="#212721"/>
<path d="M60.6847 27.9207C62.4919 28.7917 64.1235 29.5881 65.7315 30.6855C81.6828 40.9826 78.1019 56.566 77.4641 59.3013C75.145 66.5057 70.191 72.5914 63.5007 76.9032C61.4541 78.3148 59.2554 79.3507 57.0061 80.2616C52.5073 82.0832 47.5288 83.0792 42.5704 83.0471C57.7839 85.7748 74.336 75.2842 78.498 60.7768C78.7444 59.9485 78.9165 59.296 79.1629 58.4677C82.8757 44.2879 72.608 28.6295 60.6847 27.9207Z" fill="#212721"/>
<path d="M28.4569 74.7742C26.7476 73.4265 25.2882 71.9775 23.9031 70.3528C22.5179 68.7281 21.207 66.9276 20.146 65.026C22.0155 73.5941 31.0656 80.8574 39.7058 81.0015C37.6486 80.2317 31.9263 77.5948 28.4569 74.7742Z" fill="#212721"/>
<path d="M61.0688 76.2853C72.5856 70.6019 79.6796 56.5101 73.1583 43.9973C75.5346 53.8173 74.7939 66.3565 60.437 75.0841C57.5156 76.8498 54.1416 78.216 50.6898 79.0309C54.2701 78.8925 57.9211 77.8513 61.0688 76.2853Z" fill="#212721"/>
<path d="M61.9967 71.3926C68.5892 67.5575 70.8611 60.955 69.9382 56.5204C69.5468 58.4274 68.9796 60.2598 68.1862 61.8924C66.4743 65.2083 64.0835 67.9249 61.2399 70.2419C59.8181 71.4005 58.2206 72.4844 56.5725 73.4432C58.4741 73.1104 60.3485 72.3514 61.9967 71.3926Z" fill="#212721"/>
</svg>
