<svg width="153" height="146" viewBox="0 0 153 146" fill="none" xmlns="http://www.w3.org/2000/svg">
<path d="M129.027 40.0728L128.539 39.8526C125.907 38.9593 123.455 38.5389 121.065 38.6361C120.975 38.3997 120.812 38.3263 120.577 38.4159C117.816 38.2481 115 38.6427 111.993 39.2452C111.903 39.0088 111.696 38.8171 111.415 38.7885C108.728 38.4577 106.427 38.7914 103.847 39.0964C103.92 38.9334 103.948 38.6522 103.858 38.4157C103.768 38.1793 103.56 37.9877 103.162 38.0039C101.052 38.1297 99.0327 38.492 96.9125 39.2984C96.0879 39.6121 95.1456 39.9705 94.2483 40.4471C94.1584 40.2107 93.7879 39.9457 93.4345 40.0801C92.9634 40.2593 92.4472 40.3203 91.9761 40.4996C90.327 41.1268 88.8857 41.9457 87.5343 43.001C86.7997 43.551 86.0372 44.3823 85.3925 45.1687C85.0563 45.7026 84.5572 46.163 84.221 46.6968C84.0753 47.0229 83.8847 47.2307 83.7391 47.5567C83.6213 47.6015 83.6662 47.7197 83.5484 47.7645C83.3857 47.6911 83.2229 47.6177 82.9873 47.7073C82.8696 47.7521 82.7518 47.7969 82.6789 47.9599C81.5694 50.0057 80.7405 52.0801 80.1022 53.9466C79.8539 51.8761 79.2972 50.0581 78.5949 48.5662C78.505 48.3298 78.1795 48.183 77.7812 48.1992C77.0105 45.1096 75.6229 42.5252 73.0683 39.7082C72.8606 39.5165 72.5351 39.3697 72.1817 39.5042C72.0639 39.549 71.8283 39.6386 71.8005 39.9198C69.9139 37.7958 68.1622 36.0265 66.5005 34.4936C66.2928 34.302 65.9673 34.1552 65.6139 34.2896C65.3784 34.3792 65.3055 34.5422 65.1149 34.75C65.0421 34.913 64.8964 35.2391 64.8236 35.4021C62.875 32.7605 60.573 30.2533 58.2432 28.0273C58.0355 27.8357 57.71 27.6889 57.4744 27.7785C57.2388 27.8681 57.166 28.0311 57.0932 28.1942L57.0203 28.3572C55.4314 26.6613 53.6519 25.1731 51.6818 23.8929C51.519 23.8194 51.2385 23.7908 51.0029 23.8805C50.8851 23.9253 50.7673 23.9701 50.6945 24.1331C47.8137 28.6116 44.7208 34.6593 45.4827 41.2704C43.8336 41.8976 44.5613 47.7099 45.0344 50.3715C44.8716 50.2981 44.7088 50.2247 44.4733 50.3143C44.1199 50.4487 43.9743 50.7747 43.9914 51.1741C44.353 54.9606 45.2586 58.4049 46.6803 61.7881L46.4447 61.8777C46.2091 61.9673 46.1363 62.1304 45.9457 62.3382C45.8729 62.5012 45.845 62.7824 46.0527 62.974C47.8728 66.3411 50.3932 68.3592 53.3848 70.1981C53.2671 70.2429 53.1942 70.4059 53.0765 70.4508C52.9587 70.4956 53.0036 70.6138 53.0036 70.6138C52.1341 70.8092 51.2646 71.0046 50.3223 71.363C49.8512 71.5422 49.38 71.7215 48.9538 72.0189C48.3649 72.2429 47.8209 72.5851 47.1141 72.854C45.7007 73.3916 44.2872 73.9292 43.2892 74.8501C42.863 75.1475 42.4817 75.5632 42.4539 75.8444C42.381 76.0074 42.426 76.1256 42.6337 76.3172C41.7364 76.7939 38.0975 80.343 37.7891 80.5956C36.337 82.0951 35.1376 83.9044 34.056 85.669L33.9832 85.832C33.9832 85.832 33.9104 85.995 34.0281 85.9502L34.1909 86.0236L35.0154 85.71L34.752 86.0808C33.4905 87.3725 32.5095 88.6928 31.6635 90.3677C30.9352 91.9979 30.2519 93.7462 29.7934 96.0856C29.7206 96.2486 29.8105 96.485 29.9005 96.7214C28.4781 100.781 27.6897 104.734 27.5352 108.581C27.5074 108.863 27.5973 109.099 27.76 109.172C27.9228 109.246 28.0855 109.319 28.2033 109.274C27.9526 111.805 27.8645 114.41 28.0571 117.043C28.102 117.161 28.147 117.279 28.147 117.279C28.147 117.279 28.147 117.279 28.2198 117.116C28.3376 117.071 29.2521 116.994 32.3659 117.028L32.6465 117.056C34.5203 117.02 36.467 116.821 38.2788 116.267C38.206 116.43 38.251 116.548 38.4587 116.74C38.6664 116.931 38.8741 117.123 39.1097 117.033C40.8936 116.761 42.6326 116.37 44.2817 115.743C46.2841 114.981 48.0788 114.028 49.8564 112.675C49.8285 112.956 49.9185 113.193 49.9634 113.311C50.1711 113.502 50.4517 113.531 50.6873 113.441C55.5166 111.604 59.3524 108.928 62.5479 105.277C62.7556 105.468 63.0811 105.615 63.4345 105.481C65.302 104.364 67.8142 102.462 69.0523 99.6903C70.1593 102.246 71.5404 103.75 72.7076 103.983C74.6625 107.705 77.1893 110.803 80.0803 113.086C80.288 113.278 80.5685 113.306 80.8041 113.217C81.0397 113.127 81.2303 112.919 81.3031 112.756C83.1726 114.481 86.0185 116.646 89.9182 117.327C90.036 117.283 90.1988 117.356 90.1988 117.356C90.3166 117.311 90.4344 117.266 90.5072 117.103C94.1327 118.836 98.3022 120.227 102.808 121.084C102.898 121.321 103.178 121.349 103.414 121.26C103.532 121.215 103.605 121.052 103.56 120.934C103.633 120.771 103.705 120.608 103.733 120.327C103.688 120.208 103.643 120.09 103.526 120.135C103.418 119.499 103.474 118.937 103.367 118.301C103.254 116.585 102.978 114.796 103.1 112.99C103.156 112.428 103.139 112.028 103.194 111.466C103.272 109.542 103.422 107.455 103.218 105.503C103.094 104.468 102.852 103.477 102.538 102.65C101.981 100.832 101.531 99.6496 101.491 97.7706C101.343 95.2558 100.562 92.8469 99.264 90.4989C99.3818 90.4541 99.3818 90.4541 99.4547 90.2911C99.6453 90.0833 99.7909 89.7572 99.701 89.5208C99.1937 86.0603 97.7442 82.9583 95.2345 80.2595C95.3523 80.2147 95.5429 80.0069 95.6157 79.8439C95.6885 79.6809 95.5986 79.4445 95.5536 79.3263C95.256 78.8982 94.9134 78.352 94.4979 77.9688C96.8151 78.0346 99.188 77.5379 101.779 76.5522C102.604 76.2386 103.428 75.925 104.208 75.4931C104.444 75.4035 104.634 75.1957 104.662 74.9145C104.69 74.6333 104.645 74.5151 104.437 74.3235C104.23 74.1318 104.022 73.9402 103.814 73.7486C108.716 71.7486 112.109 68.9698 114.698 65.1433C114.771 64.9803 114.844 64.8173 114.754 64.5809C114.709 64.4627 114.619 64.2263 114.456 64.1529C117.125 61.2434 119.115 58.3216 120.571 55.0613C120.644 54.8983 120.672 54.6171 120.509 54.5437C121.771 53.252 122.762 51.251 123.653 49.6943L124.135 48.8345C124.326 48.6266 124.236 48.3902 124.146 48.1538C124.746 47.2491 125.228 46.3893 125.71 45.5294C125.928 45.0404 126.264 44.5065 126.528 44.1357C126.864 43.6018 127.318 43.0232 127.654 42.4894C128.108 41.9107 128.635 41.1691 129.044 40.4722C129.072 40.191 129.072 40.191 129.027 40.0728ZM122.508 48.1004C122.362 48.4264 122.071 49.0785 121.835 49.1681L121.88 49.2863L122.043 49.3597L122.161 49.3149C121.668 50.8554 120.407 52.1471 119.263 53.394C118.882 53.8096 118.383 54.2701 118.119 54.6409C118.046 54.8039 117.856 55.0117 117.783 55.1748L117.71 55.3378C117.71 55.3378 117.755 55.456 117.873 55.4112L118.978 55.1261L118.714 55.497C117.823 57.0537 116.932 58.6104 115.716 60.0203L115.38 60.5542C113.39 63.476 112.173 64.8859 111.983 65.0937C111.983 65.0937 111.983 65.0937 111.865 65.1385L111.747 65.1833C111.747 65.1833 111.792 65.3015 111.837 65.4198L112.769 65.742C112.034 66.292 111.344 66.9603 110.655 67.6285C108.423 69.5599 106.309 71.4464 103.6 72.4769C103.247 72.6113 102.893 72.7457 102.54 72.8801C102.304 72.9697 102.232 73.1328 102.159 73.2958C102.086 73.4588 102.176 73.6952 102.221 73.8134C102.428 74.005 102.473 74.1232 102.681 74.3149L102.726 74.4331C102.255 74.6123 101.902 74.7467 101.43 74.9259C99.1924 75.7772 96.7018 76.3186 93.4872 76.7295C92.4037 75.6532 91.2195 75.0211 89.9624 74.5521L88.7053 74.0831C88.4248 74.0545 88.2171 73.8629 87.8916 73.7161C87.3583 73.3776 86.7523 73.2022 86.1462 73.0268C86.4546 72.7742 86.5554 72.33 86.656 71.8857L86.6111 71.7675C87.0373 71.4701 87.5812 71.1279 88.0074 70.8305C88.8598 70.2356 89.83 69.596 90.8452 69.0745C91.0807 68.9849 91.1536 68.8219 91.1814 68.5407C91.1365 68.4225 91.0915 68.3043 91.0465 68.186C91.4727 67.8886 91.8989 67.5912 92.3251 67.2938C95.3104 68.0526 98.3514 68.249 101.33 67.9278C102.363 67.8058 103.232 67.6104 103.866 67.5045L104.735 67.3091C104.853 67.2643 104.853 67.2643 104.808 67.1461C104.763 67.0279 104.763 67.0279 104.646 67.0727L103.731 67.1499C103.215 67.2109 102.373 67.1251 101.296 67.1289C98.5807 67.0793 96.0558 66.8219 93.396 66.2099C93.7044 65.9573 94.3491 65.1708 95.3021 64.1317C96.0646 63.3004 96.7821 62.351 97.0177 62.2614C97.0177 62.2614 97.1355 62.2166 97.0905 62.0984L97.0456 61.9802C95.463 61.3643 94.1331 61.0583 92.2871 60.8133C93.6385 59.758 94.945 58.5845 96.3413 57.6474C99.9327 58.5817 103.58 58.9535 107.193 58.5264C108.343 58.3596 109.375 58.2376 109.964 58.0136L110.951 57.7734C111.069 57.7286 111.069 57.7286 111.024 57.6104C110.979 57.4922 110.979 57.4921 110.861 57.537L109.829 57.659C109.195 57.7648 108.281 57.842 107.041 57.7724C103.809 57.7838 100.723 57.4692 97.6199 56.7551C100.794 54.4654 104.013 52.2938 107.204 50.4034C107.204 50.4034 107.204 50.4034 107.249 50.5216L107.294 50.6399C109.836 51.2967 112.434 51.3911 114.924 50.8496C115.794 50.6542 116.428 50.5484 116.899 50.3692L117.606 50.1004C117.723 50.0556 117.723 50.0556 117.678 49.9374C117.633 49.8192 117.633 49.8191 117.516 49.864L116.882 49.9698C116.483 49.986 115.732 50.1366 114.935 50.169C112.826 50.2948 110.744 50.1394 108.69 49.7028C113.44 46.9488 118.443 44.5045 123.508 42.578C123.744 42.4884 123.817 42.3254 123.727 42.0889C123.637 41.8525 123.429 41.6609 123.076 41.7953C114.713 44.9764 106.945 49.0135 99.8452 53.7437C101.246 51.0459 102.782 48.7027 104.834 46.2985C105.669 45.3043 106.314 44.5178 106.813 44.0574L107.457 43.2709C107.575 43.2261 107.53 43.1079 107.53 43.1079L107.367 43.0345L106.56 43.7475C105.943 44.2528 105.253 44.921 104.255 45.8419C101.542 48.6331 99.3614 51.7628 97.7143 55.2308C95.1571 57.0154 92.7627 58.8733 90.4582 60.9677C89.7344 60.8371 89.0555 60.8247 88.3766 60.8123C89.2828 56.8142 90.7222 53.1545 92.8405 49.5072C93.6587 48.1135 94.3762 47.164 94.7125 46.6302L95.43 45.6807C95.43 45.6807 95.5028 45.5177 95.385 45.5625L95.2223 45.4891L94.342 46.3652C93.7702 46.9886 93.0527 47.9381 92.1446 49.0954C89.7008 52.5959 87.9529 56.5082 87.0189 60.7875C86.2222 60.8199 85.4255 60.8523 84.7188 61.1211C84.601 61.1659 84.601 61.1659 84.4832 61.2107C84.3205 61.1373 84.1577 61.0639 84.0399 61.1087C83.406 61.2145 82.5365 61.41 81.712 61.7236C81.123 61.9476 80.5341 62.1716 79.9901 62.5138C80.0458 61.9514 80.1465 61.5072 80.2022 60.9447C80.4486 60.1745 80.5771 59.449 80.7057 58.7236C81.4105 55.6139 82.1603 52.6225 83.4712 49.6883C83.589 49.6435 83.589 49.6435 83.7068 49.5987C84.0601 49.4643 84.3236 49.0934 84.5421 48.6044C84.6149 48.4414 84.6877 48.2784 84.8055 48.2336C86.5318 45.6826 89.044 43.7798 92.2243 42.5701C92.2693 42.6883 92.3143 42.8065 92.477 42.8799C92.6847 43.0715 92.9653 43.1001 93.2008 43.0105C93.3186 42.9657 93.3186 42.9657 93.3186 42.9657C94.2888 42.3261 95.4218 41.7598 96.5996 41.3118C98.0131 40.7741 99.4716 40.3547 101.183 40.2451C101.11 40.4081 101.082 40.6893 101.29 40.8809C101.497 41.0726 101.66 41.146 101.896 41.0564C103.943 40.4129 106.451 40.2709 109.492 40.4673C109.301 40.6751 109.436 41.0297 109.481 41.1479C109.571 41.3843 109.897 41.5312 110.132 41.4415C112.769 40.5741 115.658 40.0164 118.771 40.0498C118.861 40.2862 119.069 40.4778 119.467 40.4616C121.767 40.128 124.012 40.3568 127.042 41.2339C126.134 42.3912 125.316 43.7849 124.57 45.0156L124.161 45.7124C123.898 46.0832 123.752 46.4093 123.489 46.7801C123.225 47.1509 122.962 47.5218 122.743 48.0108C122.653 47.7744 122.581 47.9374 122.508 48.1004ZM97.4738 89.6914C97.401 89.8544 97.4909 90.0909 97.5358 90.2091C98.5637 91.8478 99.1931 93.5027 99.4971 95.0108C99.6941 95.8831 99.6554 96.845 99.7346 97.762C99.7688 98.5609 99.7302 99.5228 99.9271 100.395C99.9892 100.913 100.287 101.341 100.584 101.769C100.719 102.123 100.927 102.315 101.062 102.67C101.557 103.97 101.861 105.478 101.946 107.475C101.997 108.673 101.931 109.917 101.792 111.323C101.676 114.208 101.442 117.139 102.386 119.621C98.6771 118.732 94.7882 117.369 89.9955 115.404C89.8328 115.33 89.715 115.375 89.5972 115.42C89.4794 115.465 89.3616 115.509 89.4066 115.628C86.4042 114.469 83.4575 112.749 80.7743 110.657C80.7743 110.657 80.7743 110.657 80.6565 110.702C80.6565 110.702 80.6565 110.702 80.5387 110.747L80.4659 110.91C80.3931 111.073 80.438 111.191 80.3652 111.354C78.8662 109.894 77.6478 108.464 76.5022 106.87C75.9069 106.014 75.3845 104.994 74.907 104.094C74.4744 103.311 74.0419 102.528 73.6094 101.746C73.6094 101.746 73.5644 101.627 73.4466 101.672C73.3288 101.717 73.3288 101.717 73.3738 101.835L73.1724 102.724C72.5771 101.868 72.1446 101.085 71.5493 100.229L71.2517 99.8009C70.4765 98.472 69.937 97.0535 69.4702 95.472C68.8515 93.1364 68.7489 90.7398 68.6463 88.3432L68.7191 88.1802C68.747 87.899 68.7749 87.6178 68.8477 87.4548C69.094 86.6845 69.3404 85.9143 69.6317 85.2622C69.7045 85.0992 69.7773 84.9362 69.923 84.6102C70.0686 84.2841 70.2143 83.9581 70.2871 83.7951C71.1395 83.2002 71.9748 82.206 72.4288 81.6273C72.5017 81.4643 72.6923 81.2565 72.8101 81.2117C73.9538 79.9648 74.6991 78.7341 75.0462 77.5196C75.0094 81.3223 75.9942 85.6836 78.2361 90.514C77.7541 91.3738 77.3172 92.3519 77.1607 93.3586C76.9594 94.2471 76.8758 95.0907 76.8821 96.1708C76.8327 97.8133 77.0918 99.2032 77.2608 100.357L77.3508 100.593C77.689 102.9 77.903 104.172 77.903 104.172C77.948 104.29 77.948 104.29 78.0658 104.245C78.1835 104.2 78.1835 104.2 78.1386 104.082C78.1386 104.082 78.2051 102.839 77.9847 100.487L77.9226 99.9697C77.9163 98.8896 77.865 97.6913 77.8865 96.33C77.8802 95.2499 78.0923 93.6808 78.8655 92.1689C79.6578 93.8972 80.6128 95.6989 81.8654 97.9287C81.9553 98.1651 82.163 98.3567 82.253 98.5932L82.7305 99.494C82.7305 99.494 82.7754 99.6122 82.8932 99.5674C84.0559 101.561 85.0388 103.081 85.9767 104.484C85.7474 105.653 85.6809 106.896 85.895 108.168C86.0191 109.203 86.3788 110.149 86.8563 111.05C87.2439 111.714 87.5865 112.261 87.8392 112.57C88.0918 112.88 88.2996 113.072 88.2996 113.072L88.4623 113.145C88.5801 113.1 88.5351 112.982 88.5351 112.982L88.1925 112.436C88.0127 111.963 87.715 111.535 87.5631 110.781C87.0963 109.2 86.9101 107.647 87.1223 106.077C90.9916 111.642 94.8933 115.164 99.3604 116.983C99.3604 116.983 99.4782 116.938 99.4332 116.82C99.4332 116.82 99.3883 116.702 99.3433 116.584C96.6151 114.374 93.7971 111.928 91.1974 108.993C92.9814 108.72 94.7824 108.847 96.6006 109.373C97.3694 109.622 97.8576 109.842 98.3459 110.062L98.9969 110.356L99.1147 110.311C99.1147 110.311 99.1147 110.311 99.2325 110.266C99.2325 110.266 99.3053 110.103 99.1875 110.148C99.1875 110.148 98.9798 109.957 98.6093 109.692C98.2389 109.427 97.7056 109.088 96.8919 108.721C95.9154 108.281 94.866 108.003 93.8616 107.844C92.7395 107.73 91.5445 107.778 90.3944 107.945C90.3944 107.945 90.0968 107.517 89.8891 107.325C88.0304 104.92 86.3623 102.307 84.5144 99.2214C85.0305 99.1604 85.5467 99.0994 86.2255 99.1118C87.1849 99.1528 88.0266 99.2386 89.1937 99.4712C90.7592 99.6876 92.2518 100.067 93.9072 100.52C94.8387 100.842 95.7703 101.164 96.7468 101.605L97.7233 102.045C97.7233 102.045 97.7233 102.045 97.8411 102L97.9589 101.956L97.914 101.837C97.914 101.837 97.5884 101.691 97.0103 101.234C96.1515 100.749 95.175 100.308 94.1985 99.8678C92.6159 99.252 91.0783 98.7543 89.4679 98.4197C88.3008 98.1871 87.2964 98.0279 86.337 97.9869C85.7759 97.9297 84.8165 97.8887 83.8292 98.1289C83.4866 97.5827 83.3067 97.1098 82.9641 96.5636C80.8015 92.6503 79.262 89.3119 78.1657 86.0754C78.0308 85.7208 77.8959 85.3662 77.8788 84.9668C79.8705 84.8857 81.9971 85.1594 84.3313 85.6246C86.3851 86.0612 88.0404 86.514 89.578 87.0117L94.0281 88.4312C94.0281 88.4312 94.0281 88.4312 94.1459 88.3864L94.2637 88.3415C94.2637 88.3415 94.2187 88.2233 94.1738 88.1051L93.0345 87.5913C92.3835 87.2977 91.2442 86.7838 89.8244 86.2414C88.4046 85.699 86.6593 85.0097 84.5606 84.4549C82.0186 83.798 79.7743 83.5692 77.502 83.6217C77.0011 81.2413 76.6629 78.9343 76.3976 76.4643L76.3076 76.2279C77.2842 76.6683 78.6141 76.9743 79.6463 76.8523C80.1624 76.7913 80.6336 76.6121 81.1047 76.4329C82.1648 76.0297 83.2528 75.3452 84.1502 74.8686L84.8119 74.4815L84.767 74.3633C85.4351 75.0564 86.4116 75.4968 87.2982 75.7008C87.5787 75.7294 87.7865 75.921 88.067 75.9496C88.3475 75.9782 88.5553 76.1699 88.8358 76.1985C89.1613 76.3453 89.4418 76.3739 89.6496 76.5655C91.3221 77.4177 92.4784 78.331 93.4442 79.4521C93.2086 79.5417 93.1358 79.7047 93.1079 79.9859C93.0801 80.2671 93.2149 80.6218 93.4227 80.8134C94.8317 82.0365 96.0951 83.5856 96.9323 85.4321C97.1121 85.9049 98.4161 89.333 98.2704 89.659C98.1526 89.7038 98.1526 89.7038 98.0349 89.7486C97.7372 89.3206 97.5466 89.5284 97.4738 89.6914ZM68.3436 97.1183L68.5684 97.7094C68.7483 98.1822 67.3583 100.199 66.4502 101.357C66.0689 101.772 65.6877 102.188 65.1887 102.648C64.8803 102.901 64.6168 103.272 64.1906 103.569L64.1564 102.77L64.1115 102.652C64.1115 102.652 64.1115 102.652 63.9937 102.697C62.1154 104.494 60.3099 106.128 58.3417 107.688C57.3436 108.609 56.1379 109.338 54.9321 110.068C54.6965 110.157 54.3432 110.292 53.7992 110.634C52.9747 110.948 52.1951 111.379 51.7239 111.559C51.7968 111.396 51.8246 111.114 51.8975 110.951C51.9253 110.67 51.9532 110.389 51.7455 110.197C51.5377 110.006 51.2122 109.859 50.9767 109.949C50.8589 109.993 50.8589 109.993 50.7411 110.038C48.6272 111.925 46.2157 113.383 43.5065 114.414C42.5642 114.772 41.4592 115.057 40.4719 115.297C40.6175 114.971 40.5276 114.735 40.2749 114.425C40.0672 114.233 39.7417 114.087 39.5061 114.176C36.163 115.313 32.7129 115.813 28.9202 115.767C29.278 113.872 29.3103 111.83 29.5054 109.862C29.4712 109.063 29.5997 108.337 29.5655 107.538C29.5934 107.257 29.5034 107.021 29.3407 106.947C29.1779 106.874 29.0152 106.801 28.7347 106.772C29.0069 102.88 29.8853 99.1628 31.2969 95.7844C31.3247 95.5031 31.3526 95.2219 31.1448 95.0303C32.2309 91.505 33.3341 88.3792 36.7265 85.6004C36.9171 85.3926 36.99 85.2295 37.0178 84.9483C36.9279 84.7119 36.838 84.4755 36.5125 84.3287C38.665 81.4803 41.1151 79.0598 44.1435 77.0961C44.3341 76.8883 44.5247 76.6805 44.5526 76.3992C44.6254 76.2362 44.5355 75.9998 44.3727 75.9264C44.4905 75.8816 44.4905 75.8816 44.6083 75.8368C45.1523 75.4946 45.7412 75.2705 46.2852 74.9283C47.6537 74.2725 49.14 73.5718 50.8619 72.7815L51.0975 72.6919C51.922 72.3783 52.6737 72.2277 53.5432 72.0323C55.6311 73.2678 57.8818 74.5767 60.0812 74.6873C58.8026 75.5795 54.6863 78.2277 54.5299 79.2344C54.457 79.3974 54.6198 79.4708 54.6198 79.4708C54.6647 79.589 54.7825 79.5442 54.8275 79.6624C53.4932 81.1172 51.9062 82.262 50.482 83.4803C50.2464 83.5699 50.0558 83.7778 50.0279 84.059C50 84.3402 50.2078 84.5318 50.4883 84.5604C52.9125 85.2621 55.4095 85.8007 57.7267 85.8665C56.1226 86.612 54.5185 87.3574 52.9594 88.2211C50.9785 87.6215 48.762 87.1114 46.6804 86.956C44.5988 86.8006 42.8149 87.0733 41.7098 87.3583C40.4869 87.6881 39.4997 87.9283 38.7929 88.1972L37.8506 88.5556C37.7328 88.6004 37.7328 88.6004 37.7778 88.7186C37.8228 88.8368 37.8227 88.8368 37.9405 88.792L39.3262 88.5356C39.9601 88.4298 40.8295 88.2343 41.9796 88.0675C43.1296 87.9007 44.8407 87.7911 46.6867 88.0361C48.2522 88.2525 49.8626 88.5871 51.4002 89.0848C48.2092 90.9751 45.063 92.9837 42.2424 95.1391C40.7732 96.2391 39.4668 97.4126 38.3959 98.4965C36.8475 98.6796 35.4619 98.936 34.4018 99.3392C34.1663 99.4288 33.8129 99.5632 33.5773 99.6528C32.635 100.011 31.8554 100.443 31.0759 100.875C30.2235 101.47 29.7694 102.048 29.3432 102.346C29.0798 102.717 28.8892 102.924 28.8892 102.924C28.8892 102.924 28.8163 103.088 28.9341 103.043L29.0969 103.116L29.7137 102.611C30.1399 102.313 30.6389 101.853 31.4185 101.421C31.7718 101.287 32.198 100.989 32.6692 100.81C33.2581 100.586 33.8471 100.362 34.5988 100.211C35.2327 100.106 35.9844 99.9551 36.8539 99.7596C33.9218 103.04 31.6408 106.614 30.1006 110.718C30.1006 110.718 30.1456 110.836 30.1906 110.954L30.3533 111.028L30.4711 110.983C31.7092 108.211 33.3905 105.542 35.3245 103.183C36.3504 101.981 37.4213 100.897 38.5371 99.9312L38.9184 99.5156C40.3426 98.2973 41.0322 97.6291 41.3407 97.3764C41.4819 98.8111 41.2248 100.262 40.8328 101.358C40.4857 102.573 40.0938 103.669 39.7746 104.602L39.5282 105.373C39.0634 106.632 38.7721 107.284 38.5536 107.773C38.3352 108.262 38.1445 108.47 38.0267 108.515C38.0267 108.515 37.9539 108.678 38.0717 108.633L38.2345 108.706C38.2345 108.706 38.5429 108.454 38.8791 107.92C39.3332 107.341 39.8151 106.481 40.1793 105.666L40.2521 105.503C40.689 104.525 41.3166 103.339 41.8093 101.799C42.0835 100.747 42.3298 99.977 42.4134 99.1334C42.497 98.2897 42.5356 97.3278 42.3387 96.4556C42.7649 96.1581 43.1911 95.8607 43.4995 95.6081C47.0547 92.9027 50.9975 90.8617 54.8225 88.8655L55.7198 88.3889C56.2486 90.4881 56.4969 92.5586 56.274 94.8084C56.1518 96.6139 55.6762 98.5539 54.9929 100.302C54.4103 101.606 53.8555 102.629 53.3736 103.489L52.7011 104.557C52.7011 104.557 52.6282 104.72 52.746 104.675L52.9088 104.748C52.9088 104.748 53.29 104.333 53.7441 103.754C54.2709 103.012 54.9885 102.063 55.6889 100.714C56.6077 98.8761 57.1283 97.0543 57.4411 95.041C57.7368 92.6282 57.6342 90.2316 56.8977 87.9409C58.1484 87.3298 59.472 86.5557 60.6777 85.8265C62.2261 85.6435 63.7295 85.3422 65.0252 84.8494C65.8497 84.5358 66.5115 84.1487 67.2911 83.7169C66.9269 84.532 66.7705 85.5386 66.642 86.2641L66.6141 86.5453C66.2842 88.1592 66.2348 89.8018 66.5388 91.3099C67.3481 93.4376 67.6242 95.227 68.3436 97.1183ZM45.6531 52.707C45.8158 52.7805 46.0964 52.8091 46.2142 52.7643C46.5675 52.6298 46.7132 52.3038 46.5783 51.9492C46.3193 50.5593 46.1052 49.2876 45.9361 48.1341C45.8291 47.4983 45.9108 43.8138 45.8766 43.0149C46.0393 43.0883 46.1571 43.0435 46.2749 42.9987C46.5105 42.9091 46.7739 42.5383 46.684 42.3019C45.8943 35.972 48.9872 29.9243 51.4139 26.0244C53.384 27.3047 55.0458 28.8376 56.6796 30.6517C56.8873 30.8434 57.2129 30.9902 57.4484 30.9006C57.684 30.811 57.7568 30.6479 57.9475 30.4401L58.0203 30.2771C60.5578 32.6947 62.742 35.2467 64.6628 38.1695C64.8705 38.3611 65.0782 38.5527 65.4316 38.4183C65.6672 38.3287 65.9755 38.0761 66.0034 37.7948C66.0313 37.5136 66.0591 37.2324 66.1598 36.7882C68.1192 38.7491 69.9158 40.6366 71.4319 42.4956C71.6396 42.6872 71.9651 42.834 72.3185 42.6996C72.4363 42.6548 72.5541 42.61 72.6269 42.447C74.901 45.2354 76.2157 47.9828 76.6331 51.2068C76.723 51.4432 76.7679 51.5614 76.9307 51.6348C77.0935 51.7083 77.374 51.7368 77.6096 51.6472C77.7274 51.6024 77.7274 51.6024 77.8452 51.5576C78.9585 55.1935 78.6754 59.7665 78.386 63.2593C78.386 63.2593 78.431 63.3775 78.4759 63.4957C78.1675 63.7484 77.9769 63.9562 77.7863 64.164C77.6685 64.2088 77.5507 64.2536 77.5507 64.2536C75.9017 64.8809 74.4281 67.7417 74.0874 70.0362L73.4642 69.4614C71.5498 67.6187 69.6803 65.8941 68.0015 63.9618C69.2009 62.1525 70.0299 60.0781 70.6233 58.0934C71.071 56.4346 71.356 54.7025 71.3604 52.9418C71.3819 51.5805 71.2578 50.5452 71.1786 49.6281C71.0266 48.8741 71.0095 48.4746 71.0095 48.4746C70.9646 48.3564 70.9646 48.3564 70.8468 48.4012C70.729 48.446 70.729 48.446 70.7739 48.5642L70.7803 49.6443C70.7246 50.2068 70.7759 51.4051 70.6366 52.8112C70.4694 54.4985 70.0216 56.1572 69.529 57.6977C68.8906 59.5643 68.0895 61.3574 67.0807 62.9589C64.7167 59.9341 62.4533 56.4651 60.2907 52.5518C59.7682 51.5327 59.2458 50.5136 58.7233 49.4946C59.5136 48.3821 60.259 47.1514 60.7238 45.8921C61.1886 44.6328 61.5357 43.4183 61.6021 42.1752C61.7586 41.1685 61.7244 40.3697 61.7801 39.8072L61.7459 39.0084C61.7009 38.8901 61.7009 38.8901 61.5831 38.9349C61.4654 38.9797 61.4653 38.9798 61.5103 39.098L61.4267 39.9416C61.326 40.3859 61.2424 41.2295 60.9233 42.1628C60.302 44.4288 59.3553 46.5479 58.1559 48.3573C57.2737 46.3925 52.6102 36.259 52.208 30.5936C52.208 30.5936 52.1631 30.4753 52.1181 30.3571L51.9554 30.2837C51.9554 30.2837 51.8376 30.3285 51.8825 30.4467C51.2505 33.3934 52.2568 36.3934 53.291 39.1122C53.291 39.1122 54.0104 41.0035 54.1453 41.3582C52.6976 41.0969 51.6312 40.4201 51.008 39.8453C50.5926 39.462 50.3399 39.1522 50.1322 38.9606L49.8346 38.5326L49.6718 38.4592C49.554 38.504 49.599 38.6222 49.599 38.6222C49.599 38.6222 49.6439 38.7404 49.7788 39.095C49.9137 39.4496 50.1664 39.7595 50.509 40.3057C51.0144 40.9253 51.5926 41.382 52.2885 41.7938C52.9845 42.2056 53.7533 42.4544 54.5949 42.5402C55.0895 43.8405 56.5283 47.6232 58.4554 51.6261C58.1749 51.5975 57.8494 51.4507 57.5239 51.3039C56.9178 51.1285 56.3846 50.7901 55.8514 50.4516L55.6886 50.3782C54.6671 49.8196 53.7635 49.2162 52.742 48.6575C52.001 48.1275 51.35 47.8339 50.9346 47.4506L50.3564 46.994L50.2386 47.0388C50.2386 47.0388 50.2386 47.0388 50.1208 47.0836C50.1208 47.0836 50.048 47.2466 50.1658 47.2018C50.1658 47.2018 50.3735 47.3934 50.6262 47.7033C51.0416 48.0865 51.502 48.5879 52.243 49.118C53.0738 49.8844 54.0225 50.6061 55.0889 51.2829C55.6221 51.6213 56.3181 52.0331 56.9691 52.3268C57.7379 52.5756 58.344 52.751 59.0229 52.7634C61.6801 57.977 64.6565 62.2573 67.7166 65.6939C67.0377 65.6815 66.4038 65.7873 65.7699 65.8932L65.3715 65.9094C64.2215 66.0762 63.1443 66.08 62.1849 66.039C60.2211 65.8388 58.5207 65.2678 57.3086 64.9169C56.0516 64.4479 55.075 64.0075 54.3791 63.5956L53.3576 63.037L53.2398 63.0818C53.2398 63.0818 53.2398 63.0818 53.122 63.1266C53.122 63.1266 53.0492 63.2896 53.167 63.2448C53.167 63.2448 53.5374 63.5098 54.0707 63.8483C54.6488 64.3049 55.6703 64.8635 56.9723 65.4508C58.2744 66.038 59.9019 66.7721 62.1462 67.0009C63.1506 67.1601 64.3456 67.1115 65.5406 67.0629L65.8212 67.0915C66.8534 66.9694 67.9306 66.9656 68.935 67.1248C70.6417 68.776 72.2135 70.0725 73.8132 71.0877C73.7853 71.3689 73.8752 71.6054 73.8474 71.8866C71.7423 70.2517 67.5234 70.5033 64.5787 71.6234C63.1652 72.1611 62.0772 72.8455 61.5504 73.5872C59.3231 73.7578 56.3765 72.0371 54.7768 71.0218L55.0124 70.9322C55.2479 70.8426 55.3936 70.5166 55.4215 70.2353C55.4493 69.9541 55.2416 69.7625 55.0789 69.6891C51.8517 67.9398 49.6289 66.3497 47.8259 63.382L47.9437 63.3372L48.0615 63.2924C48.2971 63.2028 48.3699 63.0398 48.4427 62.8768C48.5155 62.7138 48.5434 62.4326 48.4535 62.1962C47.0938 59.3305 46.1154 56.0493 45.6531 52.707ZM89.1619 68.9029C88.6179 69.2451 88.0739 69.5874 87.3672 69.8562C86.7054 70.2432 85.9259 70.675 85.2641 71.0621C85.0285 71.1517 84.8828 71.4777 84.9728 71.7141C85.0177 71.8323 85.1077 72.0688 85.2704 72.1422C85.0348 72.2318 84.6086 72.5292 83.7841 72.8428L83.4307 72.9772C82.9596 73.1564 82.5334 73.4539 82.18 73.5883C81.9445 73.6779 81.7538 73.8857 81.5183 73.9753C81.2827 74.0649 81.0471 74.1545 80.8115 74.2441C78.8091 75.0058 76.9631 74.7608 75.8796 73.6845C75.9973 73.6397 76.1879 73.4319 76.098 73.1955C76.4064 72.9429 76.6699 72.572 76.8605 72.3642C77.4216 72.4214 77.9377 72.3604 78.4988 72.4176L78.7793 72.4462C79.4582 72.4586 80.2549 72.4262 80.9616 72.1574C81.1972 72.0678 81.4327 71.9782 81.6234 71.7703L81.6962 71.6073C81.6962 71.6073 81.6512 71.4891 81.4885 71.4157C80.8824 71.2403 80.2485 71.3461 79.6146 71.4519C79.2163 71.4681 78.9807 71.5577 78.5824 71.5739C78.4646 71.6187 78.3018 71.5453 78.0213 71.5167C79.1371 70.5511 80.2979 69.7036 81.5037 68.9743C83.2769 69.3823 84.8252 69.1993 85.6497 68.8857C85.8853 68.7961 86.0031 68.7513 86.1209 68.7065C86.3565 68.6169 86.4743 68.5721 86.5921 68.5273C86.8276 68.4377 86.9454 68.3929 86.9454 68.3929C87.0632 68.3481 87.0182 68.2299 87.0182 68.2299C86.9733 68.1116 86.9733 68.1117 86.8555 68.1565L86.4572 68.1727C86.1766 68.1441 85.941 68.2337 85.4249 68.2947C84.6283 68.3271 83.7866 68.2413 83.0628 68.1107C84.5041 67.2918 85.8727 66.6359 87.1234 66.0249C88.4919 65.369 89.507 64.8476 90.3315 64.534L91.9356 63.7885C92.0534 63.7437 92.0085 63.6255 92.0085 63.6255C91.9635 63.5073 91.9635 63.5073 91.8457 63.5521L90.5051 63.9267C89.7983 64.1955 88.8111 64.4358 87.6332 64.8838C87.2798 65.0182 87.0442 65.1078 86.6908 65.2422C85.1596 65.8247 83.0843 66.7494 80.8634 68.0001C79.7754 68.6845 78.6875 69.369 77.7623 70.1268C78.4627 68.7779 79.3708 67.6206 80.3967 66.4185C80.8507 65.8399 81.3498 65.3795 81.6582 65.1269L82.1572 64.6664C82.275 64.6216 82.23 64.5034 82.23 64.5034L82.0673 64.43L81.5233 64.7722C81.2149 65.0248 80.6709 65.3671 80.0541 65.8723C77.8952 67.6406 76.5951 69.8942 75.6484 72.0134C75.6034 71.8952 75.6763 71.7322 75.5863 71.4958C75.4964 71.2593 75.5243 70.9781 75.4793 70.8599C75.4901 70.1793 75.6186 69.4538 75.7921 68.8465C76.0663 67.7951 76.5033 66.817 76.9403 65.8389L76.8845 66.4014L76.9295 66.5196L77.0922 66.593C77.21 66.5482 78.5165 65.3747 78.6343 65.3299L78.8249 65.1221C79.0883 64.7512 79.3967 64.4986 79.7051 64.246C80.1313 63.9486 80.6753 63.6063 81.3821 63.3375C81.8532 63.1583 82.2066 63.0239 82.6777 62.8447C82.9133 62.7551 83.2667 62.6206 83.5023 62.531C83.5472 62.6492 83.665 62.6044 83.71 62.7226C83.8727 62.7961 84.0355 62.8695 84.2711 62.7799C84.3889 62.7351 84.5795 62.5272 84.6523 62.3642C84.798 62.0382 84.9886 61.8304 85.3419 61.696C86.6376 61.2031 89.1346 61.7418 90.139 61.901C91.9122 62.309 93.4777 62.5254 95.071 62.4606C94.527 62.8028 94.1458 63.2184 93.7645 63.6341L93.3833 64.0497C92.094 65.6226 91.0681 66.8247 89.3183 67.8962C89.0827 67.9858 89.0549 68.267 89.027 68.5483C88.9992 68.8295 89.1619 68.9029 89.1619 68.9029ZM66.3816 74.591C66.3816 74.591 66.2639 74.6358 66.3816 74.591C66.3088 74.754 66.3538 74.8722 66.3538 74.8722C66.3538 74.8722 67.6558 75.4595 70.08 76.1611C69.4182 76.5481 68.8742 76.8904 68.2125 77.2774C66.5355 78.1859 64.9315 78.9314 63.1646 79.6034C62.8112 79.7378 62.3401 79.917 61.9867 80.0515C60.4555 80.6339 59.0698 80.8903 58.3631 81.1591L57.0224 81.5338C56.9047 81.5786 56.9047 81.5786 56.9496 81.6968C56.9946 81.815 56.9946 81.815 57.1124 81.7702L58.3802 81.5586C59.2946 81.4814 60.5175 81.1515 62.1387 80.8055C63.2438 80.5205 64.4217 80.0724 65.4818 79.6692C65.7174 79.5796 65.9529 79.49 66.3063 79.3556C65.5438 80.1868 64.6186 80.9447 63.5306 81.6292C62.8689 82.0162 62.4427 82.3136 62.1343 82.5662L61.5903 82.9085C61.4725 82.9533 61.5175 83.0715 61.5175 83.0715C61.5624 83.1897 61.5624 83.1897 61.6802 83.1449L62.2692 82.9209C62.387 82.8761 62.6225 82.7865 62.7403 82.7416C63.0937 82.6072 63.4471 82.4728 63.9182 82.2936C65.8307 81.2955 67.6083 79.9428 68.9705 78.2069C68.9705 78.2069 69.0883 78.1621 69.2061 78.1173C69.6772 77.9381 72.9861 76.0029 73.8664 75.1268C73.817 76.7694 72.8531 78.4891 72.5169 79.0229C72.1078 79.7198 71.3732 80.2698 70.8013 80.8933C70.3023 81.3537 69.6855 81.8589 69.2314 82.4376C69.1136 82.4824 69.1136 82.4824 69.0408 82.6454C68.8331 82.4538 68.5076 82.307 68.1542 82.4414L68.0364 82.4862C67.184 83.0811 66.2867 83.5577 65.3444 83.9161C64.5198 84.2297 63.6504 84.4252 62.7809 84.6206L62.6631 84.6654C59.9647 85.0152 57.1592 84.7292 54.4716 84.3984C53.7927 84.386 53.1867 84.2106 52.5078 84.1982C53.977 83.0981 55.4462 81.998 56.2644 80.6043C57.4189 78.6767 59.3592 77.3975 61.2996 76.1181L62.2698 75.4785C62.5053 75.3889 62.5782 75.2259 62.606 74.9447C62.5611 74.8265 62.6789 74.7816 62.6339 74.6634C63.1051 74.4842 64.1652 74.081 65.2253 73.6778C66.0498 73.3641 66.7565 73.0953 67.1099 72.9609C68.8489 72.5701 71.7829 72.1306 73.2198 73.0725C73.5453 73.2193 73.798 73.5291 73.9329 73.8837C73.1983 74.4338 72.4637 74.9838 71.8019 75.3708C68.3733 74.51 66.3816 74.591 66.3816 74.591Z" fill="#509E2F"/>
</svg>
