<svg width="233" height="206" viewBox="0 0 233 206" fill="none" xmlns="http://www.w3.org/2000/svg">
<path d="M121.071 69.9354C116.347 72.1725 111.623 74.2779 103.487 74.2779C97.3197 74.2779 91.2833 72.8304 85.9031 69.8038C70.681 61.2504 62.4138 37.3009 81.8351 21.3784C82.4913 20.852 82.8849 20.4572 83.6723 20.0625C84.3284 19.7993 86.428 24.5366 92.2019 23.4838C91.677 24.0102 90.496 25.1945 89.1837 25.7209C87.609 26.2473 86.1656 26.2472 84.5908 25.8525C86.6905 29.1422 89.5774 30.4582 92.7268 30.195C98.632 29.8002 99.5506 24.2734 102.569 26.1157C103.881 26.9052 104.8 28.0895 106.112 28.7475C111.492 31.6425 116.347 29.6686 118.185 26.642C113.46 26.642 111.361 25.1945 109.392 23.0891H109.786C110.442 23.2207 110.705 23.2207 111.623 23.0891C112.936 23.0891 114.379 22.6943 115.56 22.1679C116.741 21.6416 117.922 20.7204 118.841 19.7993C119.103 19.4045 119.497 19.0098 119.759 18.615C127.37 22.6943 133.8 29.6686 136.162 38.0904C138.524 48.3545 132.882 63.3559 121.071 69.9354Z" fill="#D22730"/>
<path d="M82.36 15.72L81.9663 14.9304C83.6723 16.9043 86.1656 18.0886 88.7901 18.4834C91.4146 18.8782 94.0391 18.7466 96.6636 18.4834C96.2699 18.2202 95.8763 17.957 95.6138 17.5623C95.3514 17.1675 95.0889 16.9043 94.8264 16.5095C93.9078 15.3252 93.1205 14.1409 92.9893 11.9038C93.6454 12.9566 94.1703 13.8777 95.0889 14.7988C95.8762 15.5884 96.926 16.3779 98.107 16.5095C96.926 18.7466 97.5822 21.1152 99.813 21.6416C104.406 22.8259 105.456 21.1152 105.324 18.2202C105.324 17.957 105.062 16.7727 105.193 16.7727C107.687 14.6672 108.999 11.7723 109.655 8.61407C110.574 14.7988 109.261 16.1148 107.687 18.4834C108.868 18.7466 112.804 19.7993 117.135 17.1675C118.447 16.6411 119.759 15.72 120.809 14.6673C120.809 14.9304 120.678 15.062 120.678 15.3252C120.547 15.72 120.284 16.2463 120.022 16.6411C119.759 17.0359 119.497 17.2991 119.366 17.6938C114.904 23.4838 108.999 22.0363 105.718 21.51C108.868 24.405 110.049 26.5104 113.854 27.4316C114.773 27.6948 115.691 27.6948 116.741 27.6948C108.736 32.9584 103.356 22.4311 100.338 24.1418C98.8944 24.9313 97.7134 28.8791 92.0707 28.8791C89.9711 28.8791 87.8715 28.3527 86.1656 27.1684C86.6905 27.4316 87.3466 27.3 87.8715 27.1684C92.2019 26.1157 92.2019 24.9313 94.1703 23.4838C94.564 23.2207 95.3513 22.2995 96.0075 21.9048V21.7732C95.2201 21.9048 94.564 22.1679 93.7766 22.2995C88.5276 22.6943 84.4596 20.0625 82.36 15.72Z" fill="#D22730"/>
<path d="M99.4193 12.6934C98.7632 8.87725 96.0075 7.29816 95.8763 7.29816C95.8763 7.16657 96.0075 5.45589 97.5822 4.79793C97.8446 4.66634 98.1071 4.79794 98.2383 5.06112C98.632 6.24544 96.7948 7.56134 97.0573 7.56134C97.4509 7.56134 98.8944 6.7718 99.0256 5.85067C101.913 9.14044 103.619 12.825 104.275 17.2991C105.062 22.2995 98.8944 21.2468 98.107 19.2729C97.5821 17.1675 100.207 16.9043 99.4193 12.6934Z" fill="#D22730"/>
<path d="M115.035 16.7727C113.329 17.4307 111.23 17.957 109.392 17.6938C110.573 15.3252 110.442 15.4568 110.573 15.3252C112.542 15.8516 113.592 16.2463 115.035 16.7727Z" fill="#D22730"/>
<path d="M105.849 14.6673C105.587 14.9304 105.456 15.1936 105.193 15.4568C105.193 15.1936 105.062 14.9304 105.062 14.7988C105.062 14.6672 105.718 14.6673 105.849 14.6673Z" fill="#D22730"/>
<path d="M98.632 15.3252C98.632 15.5884 98.5008 15.8516 98.5008 15.9832C98.3696 15.9832 98.2383 16.1147 98.107 16.1147C97.8446 15.9832 97.5822 15.72 97.3197 15.4568C97.7134 15.4568 98.1071 15.3252 98.632 15.3252Z" fill="#D22730"/>
<path fill-rule="evenodd" clip-rule="evenodd" d="M121.728 18.0886C121.334 17.8254 120.94 17.6938 120.415 17.4307C120.415 17.4307 121.071 16.1148 121.071 15.9832C121.334 15.062 121.596 14.2725 121.465 13.2198C120.809 13.8777 120.022 14.5357 119.234 14.9304C118.841 15.1936 117.135 16.1147 117.135 16.1147C117.135 16.1147 113.198 14.5357 110.967 14.1409C111.361 11.7723 111.492 10.1932 109.786 6.24543C108.999 9.27202 108.211 11.3775 106.505 14.0093C105.981 13.8777 105.324 13.8777 104.8 13.8777C104.537 13.8777 104.275 10.3248 101.519 7.03499C100.732 5.98226 99.813 5.06111 98.7632 4.27157C97.8446 3.48202 96.5324 4.27158 95.8763 5.19271C95.4826 5.71908 95.0889 7.42975 95.0889 7.56134C95.0889 7.95611 95.2201 8.2193 95.4825 8.48248C96.926 9.27203 97.5822 10.4563 98.2383 11.9038C98.5008 12.5618 98.8944 13.4829 99.0256 14.1409C98.632 14.2725 96.6636 14.4041 96.1387 14.5357C95.6138 14.2725 95.0889 13.6145 94.6952 13.0882C94.0391 12.167 93.2518 11.2459 92.5956 10.3248C92.4644 10.8511 92.0707 12.6934 92.2019 13.7461C92.3331 14.2725 92.4644 14.7988 92.7268 15.3252C90.8897 15.72 89.1837 16.2463 87.4778 17.0359C87.2154 17.1675 86.0344 16.5095 85.7719 16.3779C85.1158 16.1148 84.5909 15.8516 84.066 15.4568C83.0162 14.7988 81.9663 14.1409 81.3102 13.0882C81.3102 14.1409 81.4414 15.062 81.7039 15.9832C82.0975 17.1675 82.6225 18.2202 83.1474 19.1413C79.0794 21.1152 66.8754 30.9845 69.2375 48.3545C72.5181 72.4357 100.6 82.9629 122.646 71.1197C141.411 60.0661 145.086 31.2477 121.728 18.0886ZM109.392 17.6938C111.23 17.957 113.329 17.4307 115.035 16.7727C113.592 16.2463 112.542 15.8516 110.573 15.3252C110.442 15.4568 110.573 15.3252 109.392 17.6938ZM105.193 15.4568C105.456 15.1936 105.587 14.9304 105.849 14.6673C105.718 14.6673 105.062 14.6672 105.062 14.7988C105.062 14.9304 105.193 15.1936 105.193 15.4568ZM95.8763 7.29816C96.0075 7.29816 98.7632 8.87725 99.4193 12.6934C100.207 16.9043 97.5821 17.1675 98.107 19.2729C98.8944 21.2468 105.062 22.2995 104.275 17.2991C103.619 12.825 101.913 9.14044 99.0256 5.85067C98.8944 6.7718 97.4509 7.56134 97.0573 7.56134C96.7948 7.56134 98.632 6.24544 98.2383 5.06112C98.1071 4.79794 97.8446 4.66634 97.5822 4.79793C96.0075 5.45589 95.8763 7.16657 95.8763 7.29816ZM98.5008 15.9832C98.5008 15.8516 98.632 15.5884 98.632 15.3252C98.1071 15.3252 97.7134 15.4568 97.3197 15.4568C97.5822 15.72 97.8446 15.9832 98.107 16.1147C98.2383 16.1147 98.3696 15.9832 98.5008 15.9832ZM95.4825 18.2202C95.2201 18.0886 93.7766 16.7727 93.383 16.3779C92.7268 16.6411 90.6273 17.2991 89.9711 17.4307C91.9395 17.8254 93.6454 17.957 95.4825 18.2202ZM81.9663 14.9304L82.36 15.72C84.4596 20.0625 88.5276 22.6943 93.7766 22.2995C94.564 22.1679 95.2201 21.9048 96.0075 21.7732V21.9048C95.3513 22.2995 94.564 23.2207 94.1703 23.4838C92.2019 24.9313 92.2019 26.1157 87.8715 27.1684C87.3466 27.3 86.6905 27.4316 86.1656 27.1684C87.8715 28.3527 89.9711 28.8791 92.0707 28.8791C97.7134 28.8791 98.8944 24.9313 100.338 24.1418C103.356 22.4311 108.736 32.9584 116.741 27.6948C115.691 27.6948 114.773 27.6948 113.854 27.4316C110.049 26.5104 108.868 24.405 105.718 21.51C108.999 22.0363 114.904 23.4838 119.366 17.6938C119.497 17.2991 119.759 17.0359 120.022 16.6411C120.284 16.2463 120.547 15.72 120.678 15.3252C120.678 15.062 120.809 14.9304 120.809 14.6673C119.759 15.72 118.447 16.6411 117.135 17.1675C112.804 19.7993 108.868 18.7466 107.687 18.4834C109.261 16.1148 110.574 14.7988 109.655 8.61407C108.999 11.7723 107.687 14.6672 105.193 16.7727C105.062 16.7727 105.324 17.957 105.324 18.2202C105.456 21.1152 104.406 22.8259 99.813 21.6416C97.5822 21.1152 96.926 18.7466 98.107 16.5095C96.926 16.3779 95.8762 15.5884 95.0889 14.7988C94.1703 13.8777 93.6454 12.9566 92.9893 11.9038C93.1205 14.1409 93.9078 15.3252 94.8264 16.5095C95.0889 16.9043 95.3514 17.1675 95.6138 17.5623C95.8763 17.957 96.2699 18.2202 96.6636 18.4834C94.0391 18.7466 91.4146 18.8782 88.7901 18.4834C86.1656 18.0886 83.6723 16.9043 81.9663 14.9304ZM103.487 74.2779C111.623 74.2779 116.347 72.1725 121.071 69.9354C132.882 63.3559 138.524 48.3545 136.162 38.0904C133.8 29.6686 127.37 22.6943 119.759 18.615C119.497 19.0098 119.103 19.4045 118.841 19.7993C117.922 20.7204 116.741 21.6416 115.56 22.1679C114.379 22.6943 112.936 23.0891 111.623 23.0891C110.705 23.2207 110.442 23.2207 109.786 23.0891H109.392C111.361 25.1945 113.46 26.642 118.185 26.642C116.347 29.6686 111.492 31.6425 106.112 28.7475C104.8 28.0895 103.881 26.9052 102.569 26.1157C99.5506 24.2734 98.632 29.8002 92.7268 30.195C89.5774 30.4582 86.6905 29.1422 84.5908 25.8525C86.1656 26.2472 87.609 26.2473 89.1837 25.7209C90.496 25.1945 91.677 24.0102 92.2019 23.4838C86.428 24.5366 84.3284 19.7993 83.6723 20.0625C82.8849 20.4572 82.4913 20.852 81.8351 21.3784C62.4138 37.3009 70.681 61.2504 85.9031 69.8038C91.2833 72.8304 97.3197 74.2779 103.487 74.2779Z" fill="#D22730"/>
<path d="M93.383 16.3779C93.7766 16.7727 95.2201 18.0886 95.4825 18.2202C93.6454 17.957 91.9395 17.8254 89.9711 17.4307C90.6273 17.2991 92.7268 16.6411 93.383 16.3779Z" fill="#D22730"/>
<path d="M117.791 14.1409C117.397 13.8777 117.003 13.7461 116.479 13.4829C116.479 13.4829 117.135 12.167 117.135 12.0354C117.397 11.1143 117.66 10.3247 117.528 9.272C116.872 9.92995 116.085 10.5879 115.298 10.9827C114.904 11.2459 113.198 12.167 113.198 12.167C113.198 12.167 109.261 10.5879 107.03 10.1931C107.424 7.8245 107.555 6.24541 105.849 2.29768C105.062 5.32427 104.275 7.42973 102.569 10.0615C102.044 9.92995 101.388 9.92995 100.863 9.92995C100.6 9.92995 100.338 6.377 97.5822 3.08723C96.7948 2.0345 95.8762 1.11336 94.8264 0.323815C93.9078 -0.46573 92.5956 0.323821 91.9395 1.24496C91.5458 1.77132 91.1521 3.482 91.1521 3.61359C91.1521 4.00836 91.2833 4.27155 91.5458 4.53473C92.9892 5.32428 93.6454 6.50859 94.3015 7.95609C94.564 8.61405 94.9576 9.53518 95.0889 10.1931C94.6952 10.3247 92.7268 10.4563 92.2019 10.5879C91.677 10.3247 91.1521 9.66677 90.7584 9.14041C90.1023 8.21928 89.315 7.29814 88.6589 6.377C88.5276 6.90337 88.1339 8.74564 88.2651 9.79837C88.3964 10.3247 88.5276 10.8511 88.7901 11.3775C86.9529 11.7722 85.247 12.2986 83.5411 13.0881C83.2786 13.2197 82.0976 12.5618 81.8351 12.4302C81.179 12.167 80.6541 11.9038 80.1292 11.509C79.0794 10.8511 78.0296 10.1931 77.3734 9.14041C77.3734 10.1931 77.5047 11.1143 77.7671 12.0354C78.1608 13.2197 78.6857 14.2725 79.2106 15.1936C75.1426 17.1675 62.9386 27.0368 65.3007 44.4068C68.5813 68.4879 96.6636 79.0152 118.709 67.172C137.475 56.1184 141.149 27.2999 117.791 14.1409ZM111.098 12.825C109.392 13.4829 107.293 14.0093 105.456 13.7461C106.637 11.3775 106.505 11.509 106.637 11.3775C108.605 11.9038 109.655 12.2986 111.098 12.825ZM101.913 10.7195C101.65 10.9827 101.519 11.2459 101.256 11.509C101.256 11.2459 101.125 10.9827 101.125 10.8511C101.125 10.7195 101.781 10.7195 101.913 10.7195ZM95.4825 8.74563C94.8264 4.9295 92.0707 3.35041 91.9395 3.35041C91.9395 3.21882 92.0707 1.50814 93.6454 0.850181C93.9079 0.71859 94.1703 0.850187 94.3015 1.11337C94.6952 2.29769 92.858 3.61359 93.1205 3.61359C93.5142 3.61359 94.9576 2.82405 95.0889 1.90291C97.9758 5.19268 99.6818 8.87723 100.338 13.3513C101.125 18.3518 94.9576 17.299 94.1703 15.3252C93.6454 13.2197 96.2699 12.9565 95.4825 8.74563ZM94.6952 11.3775C94.6952 11.6406 94.564 11.9038 94.564 12.0354C94.4328 12.0354 94.3015 12.167 94.1703 12.167C93.9078 12.0354 93.6454 11.7722 93.383 11.509C93.7766 11.509 94.1703 11.3775 94.6952 11.3775ZM89.4462 12.4302C89.8399 12.825 91.2833 14.1409 91.5458 14.2725C89.7086 14.0093 88.0027 13.8777 86.0344 13.4829C86.6905 13.3513 88.7901 12.6934 89.4462 12.4302ZM78.4232 11.7722C78.292 11.509 78.1608 11.2459 78.0296 10.9827C79.7355 12.9565 82.2288 14.1409 84.8533 14.5356C87.4778 14.9304 90.1023 14.7988 92.7268 14.5356C92.3331 14.2725 91.9395 14.0093 91.677 13.6145C91.4146 13.2197 91.1521 12.9565 90.8896 12.5618C89.9711 11.3775 89.1838 10.1931 89.0525 7.95609C89.7087 9.00882 90.2335 9.92995 91.1521 10.8511C91.9395 11.6406 92.9892 12.4302 94.1703 12.5618C92.9892 14.7988 93.6454 17.1675 95.8763 17.6938C100.469 18.8781 101.519 17.1675 101.388 14.2725C101.388 14.0093 101.125 12.825 101.256 12.825C103.75 10.7195 105.062 7.8245 105.718 4.66632C106.637 10.8511 105.324 12.167 103.75 14.5356C104.931 14.7988 108.868 15.8515 113.198 13.2197C114.51 12.6934 115.823 11.7722 116.872 10.7195C116.872 10.9827 116.741 11.1143 116.741 11.3775C116.61 11.7722 116.347 12.2986 116.085 12.6934C115.822 13.0881 115.56 13.3513 115.429 13.7461C110.967 19.5361 105.062 18.0886 101.781 17.5622C104.931 20.4572 106.112 22.5627 109.917 23.4838C110.836 23.747 111.754 23.747 112.804 23.747C104.8 29.0106 99.4193 18.4834 96.4011 20.194C94.9576 20.9836 93.7766 24.9313 88.1339 24.9313C86.0343 24.9313 83.9347 24.4049 82.2288 23.2206C82.7537 23.4838 83.4098 23.3522 83.9347 23.2206C88.2651 22.1679 88.2651 20.9836 90.2335 19.5361C90.6272 19.2729 91.4146 18.3518 92.0707 17.957C92.0707 17.957 92.0707 17.957 92.0707 17.8254C91.2833 17.957 90.6272 18.2202 89.8399 18.3518C84.5908 18.7465 80.5228 16.1147 78.4232 11.7722ZM117.135 65.9877C112.411 68.2247 107.687 70.3302 99.5506 70.3302C93.383 70.3302 87.3466 68.8827 81.9663 65.8561C66.7442 57.3027 58.477 33.3531 77.8984 17.4306C78.5545 16.9043 78.9481 16.5095 79.7355 16.1147C78.9481 16.3779 79.2106 16.3779 79.7355 16.1147C80.3916 15.8515 82.4912 20.5888 88.2651 19.5361C87.7402 20.0625 86.5592 21.2468 85.247 21.7731C83.6723 22.2995 82.2288 22.2995 80.6541 21.9047C82.7537 25.1945 85.6407 26.5104 88.7901 26.2472C94.6952 25.8525 95.6138 20.3256 98.632 22.1679C99.9442 22.9575 100.863 24.1418 102.175 24.7997C107.555 27.6947 112.411 25.7209 114.248 22.6943C109.524 22.6943 107.424 21.2468 105.456 19.1413C105.587 19.1413 105.718 19.1413 105.849 19.1413C106.505 19.2729 106.768 19.2729 107.687 19.1413C108.999 19.1413 110.442 18.7465 111.623 18.2202C112.804 17.6938 113.985 16.7727 114.904 15.8515C115.166 15.4568 115.56 15.062 115.822 14.6672C123.434 18.7465 129.864 25.7209 132.226 34.1427C134.588 44.4068 128.945 59.4081 117.135 65.9877Z" fill="#212721"/>
<path d="M98.5008 16.1147C98.8945 15.9831 99.2881 15.5884 99.4194 15.3252C100.6 13.2197 99.0257 9.00881 97.8447 6.77176C97.451 6.11381 97.0573 5.45585 96.6637 4.92949C96.27 4.40313 95.7451 3.74518 95.2202 3.3504C96.0076 4.53472 96.5325 5.85063 97.1886 7.16654C97.9759 9.00881 99.5506 13.2197 98.7632 14.9304C98.632 15.1936 98.5008 15.4568 98.2384 15.5884C97.9759 15.7199 97.7135 15.8515 97.3198 15.8515C96.6637 15.8515 96.0075 15.5884 95.3514 15.3252C95.8763 15.7199 96.5324 16.2463 97.3198 16.3779C97.5822 16.2463 98.1072 16.2463 98.5008 16.1147Z" fill="#212721"/>
<path d="M94.8264 19.2729C92.0707 21.5099 90.3647 22.2995 86.9529 23.2206C89.8398 24.2733 93.9078 22.1679 94.8264 19.2729Z" fill="#212721"/>
<path d="M90.2335 17.0359C91.1521 16.9043 91.9395 16.7727 92.7268 16.5095C91.8082 16.3779 91.0209 16.2463 90.2335 16.1147L87.8715 15.8516C87.8715 15.8516 83.4098 15.1936 83.0161 15.1936C83.6722 15.72 84.4596 16.1147 85.247 16.3779C86.6904 16.9043 88.3964 17.1675 90.2335 17.0359Z" fill="#212721"/>
<path d="M108.474 24.0102C107.162 23.3522 105.193 22.5627 102.7 20.7204C102.175 20.3256 101.519 19.7993 100.863 19.2729C101.781 22.2995 105.587 24.5365 108.474 24.0102Z" fill="#212721"/>
<path d="M107.03 17.299C107.818 17.1675 108.736 16.9043 109.524 16.5095C110.311 16.1147 110.967 15.5884 111.492 14.9304C110.705 15.1936 109.917 15.4568 109.13 15.5884C108.343 15.8516 107.555 15.9831 106.899 16.1147C106.112 16.2463 105.324 16.3779 104.537 16.3779C103.75 16.3779 102.962 16.3779 102.044 16.5095C102.831 16.9043 103.618 17.1675 104.406 17.299C105.324 17.4306 106.112 17.4306 107.03 17.299Z" fill="#212721"/>
<path d="M120.022 21.2468C121.334 22.6943 122.515 24.0102 123.565 25.5893C134.194 40.7222 125.271 53.4865 123.696 55.7236C118.972 61.382 112.279 65.0665 104.668 66.514C102.306 67.0404 99.9442 67.172 97.5821 67.172C92.858 67.172 88.0027 66.2508 83.541 64.4086C96.2699 72.4356 115.035 69.0143 124.09 57.4343C124.615 56.7763 125.008 56.2499 125.533 55.592C134.063 44.1436 130.52 26.2472 120.022 21.2468Z" fill="#212721"/>
<path d="M73.8304 51.7759C72.7806 49.9336 71.9933 48.0913 71.3371 46.1174C70.681 44.1436 70.1561 42.0381 69.8936 39.9327C68.4501 48.3545 73.9616 58.2238 81.7039 61.5136C80.1292 60.0661 75.93 55.592 73.8304 51.7759Z" fill="#212721"/>
<path d="M102.7 65.0665C115.166 64.1454 126.714 54.0129 125.402 40.3275C123.959 50.0652 118.71 61.1188 102.569 63.7506C99.2882 64.277 95.7451 64.277 92.3333 63.7506C95.6139 64.9349 99.2881 65.3297 102.7 65.0665Z" fill="#212721"/>
<path d="M105.324 60.9872C112.673 59.9345 117.135 54.8025 117.922 50.46C116.872 52.0391 115.691 53.4865 114.379 54.6709C111.623 57.0395 108.474 58.6186 105.062 59.6713C103.356 60.1977 101.519 60.5925 99.6816 60.8556C101.519 61.2504 103.487 61.2504 105.324 60.9872Z" fill="#212721"/>
<path d="M168.097 64.6777C172.818 60.8078 180.534 60.7545 184.975 64.177C189.774 58.7653 192.252 54.5176 199.251 50.4768C200.147 50.0473 201.12 49.7497 202.016 49.3202C202.149 49.244 202.281 49.1677 202.385 49.1956C202.781 48.9669 203.205 48.634 203.601 48.4053C204.261 48.0241 204.998 47.7749 205.699 48.0744C206.116 48.1861 206.525 48.7422 206.886 49.0621C207.607 49.702 208.169 50.5222 208.522 51.2866C208.875 52.0511 208.992 52.8638 208.977 53.7528C208.963 54.6418 208.656 55.7875 207.759 56.217C207.259 56.4178 206.738 56.2783 206.266 56.375C205.661 56.5479 205.057 56.7208 204.452 56.8937C203.584 57.2191 194.974 60.6051 197.834 67.8457C205.073 66.6598 212.069 70.5437 214.936 77.3398C215.582 77.8476 215.145 77.3956 216.748 78.4949C222.438 82.2523 223.169 87.0247 222.14 93.7814C220.329 103.454 208.475 125.617 206.192 129.136C200.173 138.685 192.086 146.788 181.617 142.532C175.461 144.678 169.192 142.663 165.558 137.894C161.384 137.222 156.893 135.237 153.841 131.629C152.586 130.065 149.628 124.026 149.787 113.017C150.08 70.6779 158.394 64.6453 168.097 64.6777ZM170.007 64.6314C173.043 64.5517 176.82 65.4522 179.277 67.1151C180.493 66.3248 182.57 65.6535 183.711 64.7311C180.436 61.956 173.885 62.6566 170.007 64.6314ZM206.489 55.5418C207.065 55.473 207.517 55.036 207.657 54.5152C207.979 52.4806 207.224 50.7155 205.705 49.3038C205.344 48.9839 204.719 48.8164 204.323 49.0452C204.683 49.3651 204.912 49.7612 205.245 50.1853C205.855 51.2417 206.201 52.4507 205.998 53.6242C205.624 52.5195 204.986 51.5672 204.293 50.8232C203.96 50.3991 203.599 50.0792 203.134 49.7313C199.541 51.894 196.805 51.2726 191.052 58.996C184.283 68.0101 183.924 66.0163 178.142 69.2668C179.635 69.1089 180.705 69.2838 181.85 69.5907C188.821 65.6541 191.275 58.1628 196.877 54.7524C197.405 54.4474 197.802 54.2187 198.066 54.0662C198.33 53.9137 198.462 53.8375 198.462 53.8375C198.462 53.8375 198.33 53.9137 198.066 54.0662C197.802 54.2187 197.405 54.4474 196.981 54.7803C192.053 58.5944 190.155 65.6765 183.621 70.0652C184.711 70.5804 185.953 71.3598 187.292 72.6116C189.518 69.3013 189.145 68.1965 192.882 62.1654C190.054 68.5518 190.128 70.3577 188.326 73.3352C188.715 73.551 188.999 73.7388 189.284 73.9267C190.731 71.8587 191.198 70.5326 191.888 68.3734C191.726 70.2277 191.62 71.8736 190.165 74.3861C193.539 75.9599 194.859 75.1974 197.526 75.2423C195.239 71.2806 195.104 68.4537 195.027 68.3216C195.762 69.7463 196.281 71.5597 199.144 75.4526C199.901 75.5438 200.63 75.7391 201.644 76.1224C187.057 60.1581 204.551 55.6922 206.489 55.5418ZM198.208 68.9505C198.858 70.6876 199.753 71.932 200.752 73.2042C204.523 72.8753 209.523 74.2148 213.409 76.3726C208.528 69.5949 204.217 67.77 198.208 68.9505ZM211.278 115.987C219.041 100.765 227.943 84.6204 212.637 77.1704C209.083 75.4367 205.903 74.8078 202.007 74.7684C202.596 75.4845 203.338 76.4647 203.9 77.2849C212.001 80.7952 211.253 91.0875 209.591 98.1213C203.559 123.965 186.079 140.044 183.445 141.124C198.921 146.275 209.357 119.826 211.278 115.987ZM166.428 135.895C184.283 161.329 214.018 96.1818 208.51 84.6596C206.037 79.3086 201.157 77.108 195.254 76.6426C191.21 77.5684 187.247 75.2786 184.577 72.3305C162.678 60.3234 154.456 116.836 166.428 135.895ZM151.388 115.79C152.261 122.945 152.229 132.648 163.998 135.801C155.438 120.671 160.034 93.1029 163.519 83.432C165.658 77.5309 170.187 71.0423 176.148 69.6256C176.864 69.0361 177.58 68.4466 178.268 67.9612C172.7 66.246 167.493 64.8506 162.454 67.4075C150.876 73.1236 150.721 110.365 151.388 115.79Z" fill="#509E2F"/>
<path d="M169.347 135.002C173.056 139.903 177.258 140.471 184.313 136.222C176.344 143.463 171.217 138.852 170.391 138.184C162.224 132.424 161.881 117.039 163.463 106.97C163.499 110.999 164.145 128.585 169.347 135.002Z" fill="#509E2F"/>
<path d="M173.194 77.3176C171.538 79.3298 169.881 83.0159 168.899 85.4317C166.475 91.145 165.169 97.2693 164.383 103.533C163.41 93.0027 167.953 81.048 172.292 76.5178C172.904 75.9004 173.488 75.3871 174.176 74.9018C176.873 73.1686 179.54 73.2135 181.171 74.2086C179.609 73.7901 178.087 74.0521 176.718 74.5784C175.218 75.1808 174.154 76.2353 173.194 77.3176Z" fill="#509E2F"/>
<path d="M157.583 109.748C157.511 112.519 157.57 115.214 157.733 117.937C157.815 119.299 158.001 120.688 158.215 121.973C158.401 123.362 158.614 124.647 158.932 125.961C159.568 128.587 160.308 131.241 161.52 133.798C156.868 127.417 155.699 117.615 156.618 109.601C156.927 106.782 157.444 104.018 158.35 101.47C157.937 104.262 157.656 106.977 157.583 109.748Z" fill="#509E2F"/>
<path d="M208.461 107.753C205.3 119.967 197.546 134.744 186.127 140.28C196.958 132.354 202.974 119.901 208.461 107.753Z" fill="#509E2F"/>
<path d="M173.306 134.389C174.028 135.029 174.805 135.46 175.742 135.711C176.68 135.962 177.701 135.901 178.75 135.736C177.853 136.165 176.776 136.435 175.679 136.364C174.582 136.293 173.492 135.778 172.638 135.214C168.169 131.896 166.465 122.844 167.7 117.817C167.854 122.658 169.726 131.085 173.306 134.389Z" fill="#509E2F"/>
<path d="M185.634 76.2976C189.661 77.9346 190.258 78.2062 195.32 78.8929C192.311 80.5424 187.416 79.2308 185.634 76.2976Z" fill="#509E2F"/>
<path d="M175.143 79.6259C175.115 79.73 169.516 92.2946 169.516 92.2946C169.449 90.0442 170.042 87.4126 171.045 85.3371C171.56 84.2473 172.18 83.1853 172.771 82.2276C173.467 81.2977 174.267 80.3958 175.143 79.6259Z" fill="#509E2F"/>
<path d="M158.086 131.203C155.144 128.852 153.531 123.62 154.849 119.955C155.263 121.74 154.725 124.164 158.086 131.203Z" fill="#509E2F"/>
<path d="M199.488 131.246C197.886 134.724 194.395 138.588 190.733 140.174C191.24 139.529 198.187 132.349 199.488 131.246Z" fill="#509E2F"/>
<path d="M204.471 75.9868C207.555 76.1433 210.822 79.3629 210.846 82.6065C208.856 79.6176 207.753 78.3175 204.471 75.9868Z" fill="#509E2F"/>
<path d="M175.322 68.9578C171.015 70.0362 167.685 72.0464 164.573 78.245C162.436 82.4722 161.084 86.6865 160.3 91.2765C160.236 87.3522 161.067 82.9984 163.128 78.6391C164.94 73.5433 169.523 68.5203 175.322 68.9578Z" fill="#509E2F"/>
<path d="M16.1915 91.3333C17.176 92.9336 18.2887 94.4681 19.3356 95.8744L19.859 96.5776C22.7396 100.606 25.419 103.928 28.3512 106.796C30.5036 109.092 33.7615 112.278 36.302 114.699C37.7742 113.781 38.8619 113.06 40.1436 112.401L40.4622 112.075C42.1178 110.252 43.711 108.623 44.9125 106.547C44.9712 106.031 44.8359 105.452 44.8946 104.936C44.6132 102.812 43.885 101.08 42.4465 99.2272L42.5088 99.0331C42.5088 99.0331 42.637 98.9672 42.7029 99.0954C44.3247 100.044 45.6386 102.285 45.9823 104.215C46.1105 104.149 46.1105 104.149 46.1728 103.955C46.5501 103.113 46.8616 102.143 47.3013 101.107C47.7374 99.7485 48.3675 98.4525 48.9976 97.1564C48.9976 97.1564 49.1258 97.0906 49.254 97.0247L49.3857 97.281C49.0191 99.0897 48.5866 100.77 47.96 102.389C48.2787 102.063 48.6632 101.865 48.9818 101.539C49.685 101.016 50.1941 100.43 50.7032 99.8445C51.3405 99.1929 51.9778 98.5413 52.7432 97.8238C52.7432 97.8238 52.8714 97.7579 52.9995 97.6921L53.1313 97.9484C52.3107 99.5044 51.1643 100.742 49.952 101.851L49.5052 102.242C48.7398 102.96 47.9743 103.677 47.2712 104.201C46.0109 106.793 44.4907 109.194 42.6447 111.277L43.4138 110.882L43.5419 110.816C43.5419 110.816 43.6042 110.622 43.7324 110.556L45.7173 109.374C49.3026 107.208 53.7814 104.257 57.6817 101.443C60.6118 98.3165 62.949 94.0368 63.5541 90.4852C63.5541 90.4852 63.6164 90.2912 63.6823 90.4193C63.6823 90.4193 63.8763 90.4816 63.7481 90.5475C63.7768 93.1252 62.78 96.23 61.2598 98.6316C64.197 96.1498 66.4898 93.6752 68.3945 91.076C68.3945 91.076 68.5227 91.0101 68.6509 90.9442L68.7826 91.2006C66.9581 95.2168 62.9955 98.2256 59.6079 100.777C59.8642 100.645 60.3146 100.576 60.6991 100.378C61.0837 100.18 61.534 100.111 61.9186 99.9133C63.907 99.0534 65.8919 97.8712 67.7486 96.7549L68.7081 96.0997C68.7081 96.0997 68.8363 96.0339 68.9022 96.162C68.9022 96.162 68.968 96.2902 69.0339 96.4184L68.9716 96.6124C66.7375 98.5708 64.0459 99.9542 61.3543 101.338C59.9444 102.062 58.5345 102.787 57.2528 103.446C54.7552 104.891 52.0672 106.597 48.7383 108.632C49.1228 108.434 49.5732 108.365 49.8295 108.233C51.243 107.83 52.5942 107.622 54.0735 107.348C55.1025 107.143 56.1973 107.067 57.1604 106.734C59.6028 106.126 62.1076 105.325 64.4182 104.462C65.1873 104.066 65.9563 103.671 66.6594 103.148C67.9412 102.489 69.2229 101.83 70.4387 101.043C71.9109 100.125 72.8632 98.825 74.0096 97.5877C75.0902 96.2222 76.3647 94.9191 77.8369 94.0004C77.8369 94.0004 77.9651 93.9345 78.031 94.0627L78.0969 94.1909L78.0346 94.3849C76.8846 95.3 75.8664 96.4715 74.9763 97.577C74.2767 98.4227 73.449 99.3341 72.6835 100.052C74.1557 99.1329 75.4998 98.2802 76.8438 97.4274C78.316 96.5087 79.7881 95.59 81.1322 94.7372C81.1322 94.7372 81.2603 94.6714 81.4544 94.7337C81.4544 94.7337 81.5202 94.8619 81.5861 94.99L81.5238 95.184C77.814 97.7388 74.1665 100.1 70.5812 102.266C69.8122 102.662 69.2372 103.119 68.4681 103.514C67.5709 103.975 66.7396 104.565 65.8424 105.026C65.7142 105.092 63.2131 106.215 61.5433 106.749C61.7373 106.812 61.9937 106.68 62.1219 106.614C62.4441 106.61 62.7004 106.479 62.7663 106.607C63.0885 106.603 63.4107 106.6 63.8611 106.53C64.3115 106.461 64.7619 106.391 65.2782 106.45C65.9226 106.443 66.567 106.436 67.4055 106.491C68.3722 106.48 69.4047 106.598 70.4337 106.393C73.9745 106.031 77.186 105.029 79.9399 103.451C81.0275 102.73 82.2434 101.943 83.2652 101.094C85.3747 99.524 87.4842 97.9538 89.8607 97.2184L90.0547 97.2807C90.1206 97.4089 89.9924 97.4747 89.9924 97.4747C86.9822 99.1839 84.1037 101.149 81.4228 103.499L93.3535 98.3398C93.4817 98.2739 93.4817 98.2739 93.5476 98.4021C93.6135 98.5302 93.4853 98.5961 93.4853 98.5961C88.1715 101.813 82.6565 104.324 76.6804 105.937C85.3073 105.068 92.6274 102.602 98.3809 98.3484C98.509 98.2825 98.5091 98.2825 98.5749 98.4107C98.6408 98.5389 98.5126 98.6047 98.5126 98.6047C96.2162 100.757 92.6933 102.73 89.8699 103.857C92.1878 103.638 95.1465 103.089 97.3948 102.42C97.523 102.354 97.5889 102.482 97.5889 102.482C97.6547 102.61 97.5266 102.676 97.5266 102.676C94.5163 104.385 91.0414 104.875 87.8886 105.361C86.6656 105.504 85.6367 105.708 84.4137 105.851C80.0379 106.48 75.6622 107.108 71.217 107.286C71.0888 107.352 70.8948 107.29 70.7666 107.356C71.1547 107.481 71.5428 107.605 71.9309 107.73C73.161 108.232 74.4535 108.54 75.6178 108.913C79.0448 109.907 81.886 110.391 84.5332 110.812C84.5332 110.812 84.7273 110.875 84.665 111.069L84.6027 111.263L84.4745 111.329L84.1523 111.332C81.571 111.039 78.8614 110.811 76.1484 110.261C76.6023 110.514 77.0563 110.767 77.4444 110.891C78.6123 111.587 79.8424 112.089 81.0725 112.591C81.7206 112.906 82.3686 113.221 83.1448 113.47L83.2106 113.599L83.1483 113.793L83.0202 113.858C80.1095 112.924 77.5174 111.664 75.0535 110.338C74.4055 110.023 73.8857 109.642 73.3035 109.455C71.1067 108.963 69.2285 108.146 67.8008 107.26L66.1897 107.278C62.323 107.321 58.2624 107.301 54.4029 107.989C52.345 108.398 49.9026 109.006 47.5919 109.869C48.6244 109.986 49.6569 110.104 50.5613 110.287C53.2744 110.837 55.9252 111.581 58.1878 112.201L58.3819 112.263C59.1581 112.512 60.1283 112.824 61.0327 113.007L61.3549 113.003C61.6771 113 61.937 113.19 62.2593 113.187C62.7755 113.245 63.2882 112.982 63.8668 112.846C64.1231 112.715 64.5735 112.645 64.8957 112.642C65.9247 112.437 66.9536 112.232 67.9203 112.221C69.0151 112.145 70.2381 112.002 71.4096 113.021L71.3473 113.215L71.2191 113.28C69.6009 112.654 67.5429 113.063 65.6132 113.407C65.485 113.473 65.291 113.411 65.1628 113.477C65.1628 113.477 65.291 113.411 65.3568 113.539C67.2902 113.517 69.0953 113.562 70.904 113.928C70.904 113.928 71.0981 113.991 71.0358 114.185L70.9735 114.379L70.8453 114.445C69.1683 114.334 67.5572 114.352 66.012 114.498C65.3676 114.506 64.7232 114.513 63.9506 114.586C63.6283 114.589 63.3061 114.593 62.9839 114.596C65.0561 115.476 67.0624 116.227 69.2592 116.718C69.8414 116.905 70.5517 117.026 71.1961 117.019C73.133 117.32 75.1322 117.426 76.3767 119.217L76.3144 119.411C76.3144 119.411 76.1862 119.477 76.1204 119.349C74.5608 118.206 72.6898 118.034 70.7529 117.733C70.5588 117.671 70.3648 117.608 70.2367 117.674C70.4966 117.865 70.9505 118.117 71.2104 118.308C71.8585 118.623 72.5065 118.938 73.1545 119.253C73.6085 119.506 73.9965 119.63 74.4505 119.883L74.5164 120.011L74.4541 120.205L74.3259 120.271C72.389 119.97 69.6065 118.97 68.1057 117.311C65.843 116.692 63.5145 115.944 61.4422 115.065C60.8601 114.878 60.4061 114.625 59.824 114.438L60.6037 115.01C62.3573 116.215 64.1109 117.42 65.6117 119.079L65.6776 119.207C65.7434 119.335 65.6153 119.401 65.4871 119.467L65.2931 119.405C63.4042 117.621 61.0684 116.229 58.7986 114.965C57.8248 114.331 56.7228 113.764 55.749 113.13C54.7788 112.818 53.8744 112.635 52.9042 112.324L52.1939 112.203C51.2895 112.019 50.5133 111.77 49.6089 111.587C50.645 112.026 51.553 112.532 52.5927 113.294C53.6324 114.056 54.6721 114.818 55.5836 115.645C55.5836 115.645 55.7117 115.58 55.7776 115.708C59.2046 116.701 61.6205 119.51 62.9931 121.235L62.9308 121.429L62.7368 121.367C61.3677 119.964 60.0023 118.883 58.3804 117.935C60.0094 119.528 61.3162 121.125 62.4289 122.659L62.3666 122.853C62.3666 122.853 62.2384 122.919 62.1725 122.791C60.8071 121.71 59.3098 120.373 57.9408 118.971C55.9201 116.931 53.7713 114.957 51.3697 113.436C51.699 114.077 52.0284 114.718 52.3578 115.359L52.4237 115.487C53.5471 117.988 54.7365 120.618 56.6254 122.401L56.5631 122.595C56.5631 122.595 56.4349 122.661 56.369 122.533C54.7436 121.262 53.6968 119.856 52.6463 118.127C52.317 117.486 51.9876 116.845 51.7241 116.333C51.1277 114.857 50.3371 113.319 49.1657 112.301C47.3534 111.612 45.6106 111.373 43.9372 111.585C42.9118 112.112 40.2825 113.302 37.5944 115.007C40.4607 117.747 43.1953 120.23 45.7322 122.329C49.6346 125.508 53.991 128.94 59.1235 132.621C60.489 133.702 63.3267 133.864 65.2564 133.52C65.9631 133.319 66.7358 133.246 67.2484 132.982C68.0175 132.587 68.8452 131.676 69.4166 130.896C70.1162 130.05 70.5559 129.014 71.1237 127.912L71.5669 127.198C72.0102 126.484 72.1971 125.902 72.8344 125.251C73.5339 124.405 74.4276 123.622 75.3212 122.838L75.453 123.095C75.0062 123.486 74.6252 124.006 74.2443 124.526C73.9915 124.98 73.6729 125.306 73.3542 125.632C72.6546 126.477 72.0868 127.579 71.713 128.743C71.3979 129.391 71.0829 130.039 70.7678 130.687C71.5332 129.97 72.2987 129.253 72.9983 128.407L73.317 128.081C73.8261 127.495 74.2693 126.781 74.7126 126.068C75.284 125.288 75.6613 124.446 76.4268 123.728C76.7454 123.402 77.1922 123.011 77.5767 122.813C77.8331 122.681 78.0236 122.422 78.2799 122.29C79.0454 121.572 79.9426 121.111 80.7116 120.716C80.7116 120.716 80.8398 120.65 80.9056 120.778L80.9715 120.906L80.9092 121.1C79.4406 122.341 77.1406 124.172 75.8109 126.313C75.6205 126.573 75.4959 126.961 75.3054 127.221C75.2431 127.415 75.0526 127.675 74.9903 127.869C75.4371 127.477 75.884 127.086 76.3308 126.694C77.4772 125.457 78.5577 124.091 79.6382 122.726L79.7664 122.66L79.8323 122.788C79.4585 123.952 79.0811 124.795 78.3816 125.64C78.0006 126.16 77.4256 126.618 76.9788 127.009C76.6601 127.335 76.2133 127.727 75.8947 128.052C74.6201 129.356 73.2797 130.531 71.9357 131.383C70.6611 132.687 69.1889 133.605 67.8413 134.136C68.0354 134.198 68.1636 134.132 68.3576 134.195C68.6798 134.191 69.002 134.187 69.3242 134.184C70.0968 134.111 71.1917 134.034 72.0266 133.767C74.6595 132.9 76.9666 131.714 78.882 130.082C80.7974 128.449 82.193 126.436 83.4497 123.521C83.7025 123.067 83.8894 122.485 84.014 122.097C84.6405 120.479 85.2048 119.055 86.4135 117.623L86.5417 117.558L86.6734 117.814C86.2337 118.85 85.7941 119.886 85.3544 120.922C84.9147 121.958 84.4128 123.188 83.9731 124.225C84.3541 123.705 86.3211 120.912 86.3211 120.912C88.5408 117.664 91.1415 113.897 95.1915 112.95C95.1915 112.95 95.3197 112.884 95.3855 113.012L95.4514 113.14C95.4514 113.14 95.3891 113.334 95.2609 113.4C91.6649 114.6 89.1888 117.979 86.7163 121.681C88.3131 120.374 89.7853 119.455 91.1988 119.053C91.1988 119.053 91.327 118.987 91.3928 119.115L91.4587 119.243L91.3964 119.437C87.6794 121.348 84.8739 124.086 82.7859 127.589C80.8153 130.06 78.5812 132.019 76.146 133.27C77.8158 132.736 79.4856 132.202 81.3459 131.408C81.8586 131.144 82.4372 131.009 82.8217 130.811C84.8066 129.629 86.3998 128 88.2493 126.24L88.5679 125.914C89.5239 124.936 90.3516 124.025 91.3734 123.176C94.1166 120.632 96.7424 119.12 99.7633 118.378C99.8915 118.312 99.9574 118.44 99.9574 118.44C100.023 118.568 99.8951 118.634 99.8951 118.634C97.7785 119.56 95.6654 120.808 93.4936 122.572C95.0317 121.782 96.8297 121.182 98.8217 120.644C98.8217 120.644 98.9499 120.578 99.0158 120.706L99.0816 120.834L99.0193 121.028C95.4892 122.357 92.3544 124.454 89.4759 126.419C89.1573 126.745 88.9668 127.005 88.6481 127.331C88.0108 127.982 87.3736 128.634 86.7363 129.286L87.1208 129.088C90.1346 127.701 93.1485 126.314 96.3599 125.312C96.9385 125.176 97.323 124.979 97.7734 124.909C99.938 122.501 103.402 121.044 107.141 121.067C107.141 121.067 107.335 121.129 107.401 121.258C107.466 121.386 107.338 121.452 107.21 121.517C104.636 121.868 102.325 122.732 99.8313 124.5C103.625 123.684 107.748 123.509 111.618 123.789C111.618 123.789 111.812 123.851 111.878 123.979C111.878 123.979 111.816 124.173 111.688 124.239C110.593 124.316 109.498 124.392 108.403 124.469C107.565 124.414 106.664 124.553 105.891 124.626C106.279 124.75 106.667 124.875 106.927 125.065C108.74 125.754 110.486 126.315 112.419 126.294C112.547 126.228 112.613 126.356 112.679 126.484C112.679 126.484 112.617 126.678 112.489 126.744C111.266 126.886 110.167 126.641 108.875 126.333C108.487 126.208 108.099 126.084 107.711 125.959C106.546 125.585 105.32 125.406 104.218 124.838C103.701 124.779 103.123 124.914 102.544 125.05C99.5857 125.598 96.5683 126.663 94.0013 127.658C93.8731 127.724 93.8731 127.724 93.7449 127.79C94.0671 127.786 94.5175 127.717 94.9056 127.841C96.0663 127.893 97.0988 128.01 97.9409 128.388C98.523 128.575 98.977 128.827 99.431 129.08C100.145 129.523 100.987 129.901 101.825 129.956L102.085 130.146L102.023 130.34L101.895 130.406C100.8 130.483 99.7639 130.043 98.856 129.538C98.208 129.223 97.4318 128.974 96.6556 128.724C92.91 128.057 90.0866 129.184 85.8534 131.036C83.7367 131.961 81.1697 132.957 78.1523 134.021C77.3174 134.289 76.4825 134.556 75.5817 134.694C77.7714 134.541 79.767 134.326 82.0848 134.107L82.213 134.041C83.751 133.25 85.6808 132.907 87.4824 132.629C87.9327 132.559 88.5113 132.424 88.9617 132.355C91.3418 131.941 93.5938 131.594 96.2338 131.372C96.2338 131.372 96.4279 131.434 96.4938 131.562C96.4938 131.562 96.4315 131.756 96.3033 131.822C93.3446 132.37 90.5141 132.853 87.6212 133.53C92.2605 133.414 95.8121 134.019 98.4736 135.729L98.5394 135.858L98.4772 136.052L98.349 136.117C94.922 135.124 91.7585 134.644 88.2141 134.683C89.8324 135.31 91.5201 136.387 92.6292 137.599C92.6951 137.727 92.6951 137.727 92.5669 137.793C92.5669 137.793 92.4387 137.859 92.3729 137.731C90.2312 136.401 87.7014 134.947 84.9919 134.719C84.0253 134.73 82.9963 134.934 82.0956 135.073C81.517 135.209 80.8726 135.216 80.294 135.351L79.5214 135.424C79.7813 135.615 79.9754 135.677 80.2353 135.867C80.4952 136.058 80.6892 136.12 80.9491 136.311C81.5972 136.626 82.1829 137.135 82.8309 137.45C83.3508 137.831 83.8047 138.084 84.3246 138.465L84.3905 138.593L84.2623 138.659C83.098 138.285 81.9337 137.911 80.7658 137.215C80.5718 137.153 80.3119 136.962 80.1178 136.9C79.404 136.457 78.6277 136.208 78.1702 135.633C73.6004 136.199 64.6334 135.461 64.6334 135.461C64.5053 135.526 64.1172 135.402 63.795 135.405C63.6009 135.343 63.4727 135.409 63.2787 135.347L64.2525 135.98C67.9537 138.453 71.6549 140.925 75.2866 142.948C86.3723 148.754 89.3346 148.528 93.1941 147.84C96.0175 146.713 98.1821 144.305 100.541 141.958C100.988 141.567 101.497 140.981 101.815 140.655C101.929 139.3 102.882 138.001 103.578 136.833L103.83 136.379C104.526 135.211 105.479 133.911 106.691 132.802L106.819 132.736L106.951 132.993C106.636 133.641 106.127 134.226 105.746 134.746C105.302 135.46 104.859 136.174 104.416 136.888C104.163 137.342 103.91 137.796 103.658 138.25C103.595 138.444 103.405 138.704 103.343 138.898C103.789 138.506 104.108 138.18 104.493 137.983C108.199 135.106 112.432 133.254 118.602 131.703L118.796 131.766C118.862 131.894 118.734 131.96 118.734 131.96C117.262 132.878 115.592 133.412 114.05 133.881C112.765 134.217 111.546 134.682 110.392 135.275C110.264 135.341 110.136 135.407 109.879 135.538C111.941 135.451 114.453 135.294 117.152 134.555C117.152 134.555 117.28 134.489 117.346 134.618L117.411 134.746L117.349 134.94C114.335 136.327 111.054 136.879 108.535 136.391C106.55 137.573 104.569 139.078 102.463 140.97C101.826 141.622 101.061 142.339 100.361 143.185C99.4051 144.162 98.515 145.268 97.4932 146.117C99.4194 145.451 101.342 144.463 103.202 143.669C104.356 143.076 105.575 142.611 106.795 142.147C110.131 140.756 114.239 139.293 118.106 139.25C118.806 138.404 120.219 138.002 121.314 137.925C122.987 137.713 124.664 137.823 126.667 138.252C126.667 138.252 126.861 138.315 126.733 138.38L126.671 138.574L126.542 138.64C125.188 138.526 123.642 138.673 122.097 138.819C121.325 138.892 120.746 139.027 120.233 139.29C123.781 139.573 126.956 141.021 129.676 142.215L129.742 142.343C129.679 142.537 129.679 142.537 129.485 142.475C124.894 141.108 119.981 139.744 114.642 140.706C114.514 140.772 114.32 140.71 114.063 140.841C114.517 141.094 115.033 141.153 115.487 141.406C115.941 141.658 116.589 141.973 117.106 142.032C118.27 142.406 119.691 142.648 120.983 142.956C121.499 143.015 122.081 143.202 122.47 143.326L122.535 143.454C122.535 143.454 122.601 143.582 122.473 143.648L122.345 143.714C120.346 143.608 118.797 143.431 117.31 143.061C116.212 142.816 115.176 142.376 114.14 141.936C113.492 141.621 112.91 141.434 112.262 141.119C109.112 141.928 106.227 143.249 103.341 144.57L100.968 145.627C102.784 146.638 104.849 146.873 106.72 147.046C107.742 146.197 109.481 146.113 110.576 146.036C112.121 145.89 113.67 146.066 115.222 146.565L115.288 146.693L115.226 146.887L115.098 146.953C113.677 146.711 112.194 146.663 110.777 146.743C110.005 146.816 109.298 147.017 108.719 147.152C111.557 147.314 114.589 147.538 117.118 148.993C117.118 148.993 117.184 149.121 117.25 149.249C117.316 149.377 117.188 149.443 117.188 149.443C117.188 149.443 116.932 149.575 116.866 149.447C113.501 148.26 110.147 148.039 106.471 147.822L104.794 147.712C105.186 148.159 105.705 148.539 106.291 149.049C106.745 149.301 107.199 149.554 107.781 149.741C108.235 149.994 108.623 150.118 109.077 150.371L109.143 150.499L109.081 150.693L108.953 150.759C107.148 150.715 104.299 149.586 103.505 147.726C102.279 147.546 100.858 147.304 99.8146 146.22C96.8631 147.413 93.4612 148.675 89.9826 148.843C89.8544 148.909 89.6604 148.846 89.6604 148.846C91.2787 149.473 92.6406 150.231 93.8084 150.927C96.4699 152.638 99.0656 154.22 105.177 153.186C105.305 153.12 105.239 152.992 105.433 153.054C106.462 152.849 107.359 152.388 108.451 151.989C109.542 151.591 110.761 151.126 111.919 150.855C113.72 150.577 115.588 150.428 117.653 150.663C117.653 150.663 117.847 150.725 117.784 150.919L117.722 151.113L117.594 151.179C115.272 151.076 113.149 151.357 110.9 152.027L110.772 152.092C112.255 152.14 113.742 152.511 114.778 152.95C114.778 152.95 114.844 153.079 114.909 153.207C114.975 153.335 114.847 153.401 114.847 153.401C114.847 153.401 114.719 153.467 114.591 153.532C112.46 153.169 110.329 152.806 108.143 153.282C107.308 153.549 106.601 153.75 105.957 153.757C104.8 154.028 103.514 154.364 102.225 154.379C101.453 154.452 100.874 154.587 100.358 154.528C102.818 155.532 105.407 156.47 107.67 157.09C108.64 157.401 109.61 157.713 110.58 158.024C111.093 157.761 112.894 157.483 115.6 157.388C116.168 156.286 117.509 155.111 118.728 154.647C119.882 154.054 121.105 153.911 122.331 154.091C122.331 154.091 122.525 154.153 122.591 154.282C122.657 154.41 122.595 154.604 122.401 154.541C120.855 154.688 119.636 155.152 118.614 156.001C118.23 156.199 117.911 156.525 117.721 156.785C117.53 157.045 117.274 157.176 116.955 157.502C122.048 157.639 126.83 158.746 130.59 160.702L130.656 160.831C130.722 160.959 130.594 161.025 130.594 161.025L130.465 161.09C123.868 158.972 118.445 158.195 112.971 158.578C114.458 158.948 115.816 159.384 117.236 159.626C122.084 160.861 127.126 162.159 131.852 164.104L131.918 164.232L131.856 164.427L131.728 164.492C130.241 164.122 128.755 163.752 127.202 163.254C124.357 162.447 121.644 161.897 118.931 161.347C120.169 162.494 121.534 163.574 122.834 164.527C123.354 164.908 124.002 165.223 124.521 165.604C125.429 166.109 126.143 166.552 126.923 167.124L126.989 167.252L126.927 167.446L126.798 167.512C123.181 166.779 119.407 163.533 117.317 161.043L117.251 160.915C113.89 160.05 110.723 159.247 107.552 158.122C108.075 158.825 108.727 159.463 109.185 160.038C110.02 159.771 111.187 160.467 111.901 160.91C112.161 161.1 112.355 161.163 112.549 161.225C114.105 162.046 115.533 162.932 116.836 164.207C116.836 164.207 116.836 164.207 116.902 164.335C116.902 164.335 116.902 164.335 116.84 164.529C116.712 164.595 116.712 164.595 116.646 164.466C115.083 163.001 112.491 161.741 110.228 161.122C112.508 163.352 115.045 165.451 117.967 167.352L118.033 167.48C118.099 167.608 117.97 167.674 117.97 167.674C117.97 167.674 117.842 167.74 117.648 167.678C113.046 165.344 109.078 162.037 105.806 157.562L105.74 157.433C102.829 156.499 99.6584 155.374 96.8723 154.051C95.5763 153.421 94.4084 152.725 93.3065 152.157C92.5926 151.714 91.6846 151.209 90.8426 150.831C92.7938 152.421 94.5545 154.271 96.2494 155.992C97.6843 157.523 99.1192 159.054 100.616 160.391C100.81 160.453 100.942 160.709 101.136 160.772C103.135 160.878 105.006 161.051 106.628 162C108.704 163.201 110.655 164.791 112.218 166.256L112.156 166.45L112.028 166.516C110.732 165.886 109.498 165.061 108.136 164.303C107.616 163.922 107.162 163.669 106.643 163.288C105.475 162.592 104.182 162.285 102.762 162.043C103.801 162.804 105.035 163.629 106.075 164.39C109.062 166.42 112.243 168.511 114.407 171.774L114.344 171.968C114.344 171.968 114.216 172.034 114.15 171.906C111.936 169.804 109.336 167.899 106.869 166.251L106.349 165.87C106.81 166.767 107.271 167.664 108.055 168.558C108.38 168.876 108.772 169.323 108.97 169.708C109.687 170.473 110.47 171.367 110.997 172.392L110.935 172.586C110.935 172.586 110.807 172.652 110.741 172.524C109.116 171.253 107.809 169.656 106.436 167.931C105.719 167.166 104.998 166.078 104.921 164.983L104.855 164.855C103.362 163.841 101.736 162.57 100.173 161.104C100.107 160.976 99.9133 160.914 99.8474 160.786L100.25 162.199C100.857 164.642 101.464 167.084 102.134 169.333C105.315 171.424 108.24 173.647 109.312 177.309L109.25 177.503L109.056 177.441L108.4 176.482C107.354 175.075 106.501 173.731 105.263 172.585C104.612 171.948 103.704 171.442 102.924 170.871L102.73 170.808C103.132 172.222 103.403 173.379 103.996 174.532L104.26 175.045C104.984 176.455 105.449 177.674 106.756 179.271L106.693 179.465C106.693 179.465 106.565 179.531 106.499 179.403C104.416 177.557 102.711 174.869 101.639 171.207C101.306 170.244 101.167 169.343 100.834 168.38C100.772 168.574 100.709 168.768 100.647 168.962C100.46 169.544 100.273 170.127 100.086 170.709C99.7199 172.517 99.4814 174.26 99.437 176.065C99.5029 176.194 99.3747 176.26 99.2465 176.325C99.2465 176.325 99.0524 176.263 98.9866 176.135C98.7711 174.139 98.8814 172.462 99.1857 170.848L99.248 170.654C99.4277 169.427 99.7321 167.812 100.494 166.773C99.8209 164.202 99.4078 161.822 99.1264 159.698C96.0661 156.896 93.9136 154.6 92.3505 153.135C87.8553 148.802 87.8553 148.802 86.4969 148.366C85.0104 147.996 82.0374 147.255 71.4644 141.185C71.7938 141.826 71.995 142.533 72.4561 143.43C73.4514 145.997 74.9078 149.461 77.7777 152.523C77.7777 152.523 77.9058 152.457 77.9717 152.586C78.8137 152.963 79.5899 153.212 80.3661 153.461C80.8824 153.52 81.3364 153.773 81.9185 153.96C83.3427 154.524 85.0927 155.407 86.6522 156.55L86.7181 156.678L86.6558 156.872L86.5277 156.938C85.7515 156.689 85.0376 156.245 84.1955 155.868C83.0935 155.3 81.9915 154.732 80.8931 154.487L80.505 154.362C80.1169 154.237 79.7947 154.241 79.4066 154.116C79.9265 154.497 80.384 155.072 80.9039 155.453C81.5555 156.091 82.207 156.728 82.8586 157.365C83.4443 157.874 83.9019 158.449 84.2936 158.896C87.1241 158.413 91.0745 160.11 92.8423 162.604L92.7801 162.798C92.7801 162.798 92.6519 162.864 92.586 162.736C92.3261 162.545 91.8721 162.292 91.6122 162.102C90.8324 161.53 89.9245 161.025 89.0166 160.519C87.9805 160.08 87.0761 159.896 86.0436 159.779C85.7214 159.783 85.4614 159.592 85.1392 159.596L85.2051 159.724C87.0281 161.379 88.917 163.163 90.4873 165.272L90.425 165.467C90.425 165.467 90.2968 165.532 90.2309 165.404C87.8916 163.69 85.871 161.65 83.8503 159.61C83.3928 159.035 82.8729 158.654 82.4154 158.079C82.9495 159.749 83.8682 161.221 84.7869 162.693C85.442 163.653 85.9032 164.55 86.496 165.703L86.4337 165.898L86.2397 165.835C83.9556 163.283 81.7996 160.664 81.3757 157.317L81.3721 156.995C81.1122 156.804 80.9805 156.548 80.6547 156.23C80.263 155.783 79.7432 155.402 79.4174 155.083C78.44 154.127 77.4003 153.365 76.5511 152.343C77.1475 153.819 77.6158 155.361 78.2122 156.837C78.944 158.891 79.5476 161.011 80.283 163.388C80.4111 163.322 80.477 163.45 80.477 163.45C83.208 165.611 85.7005 169.515 86.5783 173.115C86.6442 173.243 86.516 173.309 86.3878 173.374C86.3878 173.374 86.1938 173.312 86.1279 173.184C85.9303 172.799 85.6668 172.287 85.4692 171.902C84.8763 170.749 84.4775 169.657 83.7564 168.57C82.9695 167.354 81.9922 166.398 81.0771 165.248C81.0112 165.12 80.7513 164.929 80.6854 164.801C80.7513 164.929 80.7513 164.929 80.7513 164.929C80.956 165.958 81.5596 168.079 82.2398 171.294C82.8506 174.058 84.9994 176.032 87.0824 177.878C87.474 178.325 87.9939 178.706 88.3855 179.153L88.4514 179.281C88.5173 179.409 88.3891 179.475 88.261 179.541C88.261 179.541 88.1328 179.607 88.0669 179.479C86.5733 178.464 84.6879 177.003 83.3776 175.084C84.1022 176.494 84.761 177.775 85.6138 179.119C86.4666 180.463 87.3193 181.807 87.9817 183.411L87.9194 183.605L87.7253 183.543C83.49 179.401 81.9498 174.197 80.6001 168.734C80.2263 169.898 80.303 170.993 80.3831 172.41L80.4526 172.86C80.5292 173.955 80.928 175.046 81.1328 176.075C81.3999 176.91 81.4729 177.683 81.6118 178.584L81.5495 178.778L81.3555 178.715C80.3673 176.793 79.9542 174.413 79.607 172.161L79.5375 171.71C79.322 169.715 79.4982 168.166 80.1942 166.998L80.0624 166.742C79.5211 164.427 78.9798 162.113 78.1822 159.931C77.2492 157.17 76.115 153.702 74.5927 150.109C74.5304 150.303 74.534 150.626 74.5999 150.754C74.5003 153.397 74.0785 156.045 73.719 158.498C73.4183 160.435 72.9894 162.438 72.6227 164.246C73.472 165.268 74.0026 166.616 74.5367 168.285C74.6685 168.542 74.672 168.864 74.6756 169.186C74.6827 169.831 74.6899 170.475 74.8252 171.054C74.8324 171.698 74.7737 172.214 74.909 172.793C74.9126 173.115 74.9784 173.243 74.982 173.566L74.9197 173.76L74.7257 173.697C74.5281 173.313 74.4586 172.862 74.3891 172.412C74.3197 171.962 74.3161 171.639 74.3749 171.123C74.3054 170.673 74.43 170.285 74.3605 169.834C74.2947 169.706 74.2911 169.384 74.2252 169.256C74.0169 167.904 73.2299 166.689 72.7029 165.663L72.5232 166.89C72.4022 167.6 72.2811 168.31 72.032 169.087C71.5407 171.283 71.0495 173.48 71.1368 175.542C71.1404 175.864 71.2099 176.314 71.3416 176.571C71.3416 176.571 71.2793 176.765 71.1512 176.831L70.9571 176.768C70.8218 176.19 70.6206 175.483 70.5476 174.71C70.3249 172.07 70.9371 169.163 71.5494 166.256C71.7327 165.352 72.0442 164.382 72.0993 163.543C72.2827 162.639 72.3378 161.8 72.587 161.024C71.5064 162.39 70.5541 163.689 69.7994 165.373C68.7919 167.511 68.557 169.576 68.388 171.77L68.2634 172.158L68.0729 172.418C68.0729 172.418 67.8789 172.355 67.813 172.227C67.7471 172.099 67.8094 171.905 67.6777 171.649C67.2431 167.335 69.3755 162.026 72.6973 159.347C73.1849 156.828 73.669 153.987 73.7027 151.215C73.3912 152.185 72.8856 153.093 72.1861 153.939C71.8674 154.265 71.677 154.524 71.3583 154.85C69.087 159.258 66.1676 163.351 62.9777 166.287L62.8495 166.353L62.7836 166.225L62.8459 166.03C64.8824 163.688 66.4025 161.286 67.985 158.69C68.2378 158.236 68.5564 157.911 68.8092 157.457C67.8533 158.434 66.8973 159.411 66.3954 160.642C66.3954 160.642 66.2672 160.707 66.139 160.773L66.0073 160.517C66.3739 158.708 67.458 157.665 68.7326 156.362L69.3075 155.904C71.6039 153.752 72.6737 151.42 73.674 148.637C73.2538 145.613 71.1386 140.867 69.7696 139.464C69.7037 139.336 69.5096 139.274 69.4438 139.145L68.9898 138.893C59.9176 134.482 50.7616 128.332 42.364 120.819C41.1266 119.673 39.8235 118.398 38.2604 116.933C38.2675 117.578 38.2088 118.094 38.2124 118.416C38.3513 119.317 38.6148 119.83 39.2041 120.661C39.4017 121.046 39.7275 121.364 39.9251 121.749C40.6462 122.836 41.3013 123.796 42.0847 124.69C43.0656 125.968 44.3653 126.92 45.7307 128.001C46.5764 128.7 47.5502 129.334 48.4617 130.162C48.4617 130.162 48.4617 130.162 48.5276 130.29C48.5276 130.29 48.5276 130.29 48.5934 130.418L48.4653 130.484C46.005 129.48 43.7315 127.894 41.9049 125.916C41.9744 126.367 42.1756 127.073 43.5482 128.798C44.0058 129.373 44.5915 129.882 45.049 130.457C45.7006 131.095 46.4181 131.86 47.0074 132.691L46.9451 132.885C46.9451 132.885 46.8169 132.951 46.751 132.823C41.2819 127.857 40.7514 126.509 40.543 125.158L40.4736 124.707C40.5359 124.513 40.4041 124.257 40.3383 124.129C39.749 123.298 39.1597 122.466 38.8303 121.825C38.7644 121.697 38.6985 121.569 38.5668 121.313C38.435 121.056 38.3033 120.8 38.1715 120.544C38.241 120.994 38.2446 121.316 38.1858 121.833C38.4014 123.828 39.005 125.948 39.9967 128.193C41.1237 131.017 43.0162 133.122 46.0693 135.28C46.6515 135.467 47.2959 135.46 47.9404 135.452C48.7789 135.508 49.6173 135.563 50.3935 135.812C51.7518 136.248 53.1102 136.684 54.4062 137.314C54.8602 137.567 55.2483 137.692 55.6364 137.816L55.7022 137.944L55.6399 138.138L55.5118 138.204C54.9955 138.146 54.5415 137.893 54.0253 137.834C52.0848 137.211 50.1443 136.588 48.017 136.547L47.8229 136.485C50.0963 138.071 52.4979 139.591 54.6396 140.921L55.0935 141.174L55.2217 141.108C59.7328 141.058 64.4042 143.842 67.0106 146.391L66.9483 146.585C66.9483 146.585 66.8201 146.651 66.7542 146.523C65.3887 145.442 63.7011 144.365 61.6288 143.486C60.3328 142.856 58.9122 142.614 57.5539 142.178C57.3598 142.115 57.1658 142.053 57.0376 142.119C57.2317 142.181 57.4257 142.244 57.4916 142.372C61.2515 144.328 65.1432 146.541 66.9254 150.323L66.863 150.517L66.669 150.455C63.792 146.749 59.5781 144.54 55.4924 142.265C54.8444 141.95 54.1305 141.507 53.4824 141.192C55.115 143.107 57.0698 145.019 59.3468 146.927L59.4127 147.055L59.3504 147.249C59.3504 147.249 59.2222 147.315 59.1563 147.187C55.6527 145.099 52.9182 142.616 51.0809 139.671L50.561 139.291C49.913 138.975 49.3273 138.466 48.6793 138.151C47.7054 137.518 46.6035 136.95 45.6297 136.316C44.7217 135.81 43.4221 134.858 42.5729 133.836C43.1693 135.312 43.894 136.722 44.6186 138.132C45.0138 138.901 45.3432 139.542 45.7385 140.311L49.8263 148.58L50.0898 149.092C52.0374 150.36 53.9263 152.143 55.3684 154.319C55.8882 154.7 56.408 155.081 56.8656 155.656C59.0767 157.436 61.222 159.088 62.0304 162.237C62.0962 162.365 61.9681 162.431 61.8399 162.497C61.8399 162.497 61.6458 162.435 61.4518 162.372L60.8625 161.541C59.9438 160.069 59.0252 158.597 57.5315 157.582C57.2716 157.391 57.0117 157.201 56.7517 157.01C56.7517 157.01 56.6859 156.882 56.5577 156.948C57.8716 159.189 58.7387 161.822 59.2142 164.008C59.2142 164.008 59.1518 164.202 59.0237 164.268L58.8296 164.206L58.4967 163.243C57.6332 160.932 56.6415 158.687 55.2652 156.64C54.0208 154.849 52.5859 153.319 51.0227 151.853C52.0803 154.226 52.6839 156.347 52.8994 158.342C53.0419 159.565 52.9903 160.726 52.8729 161.758C52.8729 161.758 52.9388 161.887 53.0046 162.015C53.0741 162.465 53.2094 163.044 53.2789 163.494C53.3519 164.267 53.4249 165.039 53.498 165.812C53.5051 166.456 53.6405 167.035 53.6476 167.679C53.929 169.803 53.8187 171.48 53.4521 173.289C53.4521 173.289 53.3898 173.483 53.1957 173.421C53.1957 173.421 53.0017 173.358 53.064 173.164C53.1778 171.81 53.0976 170.393 52.948 168.525C52.8786 168.075 52.8091 167.624 52.7397 167.174C52.6702 166.724 52.6666 166.401 52.5972 165.951C52.4654 165.695 52.5277 165.501 52.5242 165.178C52.469 166.017 52.2198 166.793 52.1647 167.631C51.6148 170.345 51.1307 173.186 51.1628 176.086C51.1628 176.086 51.1006 176.28 50.9724 176.346C50.9724 176.346 50.7783 176.283 50.7125 176.155C50.4204 173.065 50.7727 169.967 51.319 166.932C51.6234 165.317 51.8618 163.574 51.9721 161.897C52.0896 160.865 52.013 159.77 51.8741 158.869C51.8046 158.419 51.7975 157.774 51.6621 157.196C51.4788 158.1 51.2296 158.876 50.9145 159.524C50.7899 159.913 50.7277 160.107 50.7312 160.429C50.6102 161.139 50.2951 161.787 50.046 162.563C49.302 165.214 48.4298 167.931 48.3961 170.703C48.3961 170.703 48.3338 170.897 48.2057 170.962C48.2057 170.962 48.2057 170.962 48.0116 170.9L47.9457 170.772C47.8548 168.388 48.2143 165.935 49.0206 163.09L49.2662 161.992C49.5777 161.022 49.761 160.117 50.0725 159.147L50.1971 158.759C50.626 156.756 50.9375 155.786 50.8609 154.691C50.7184 153.468 49.9938 152.058 48.5446 149.238C47.9517 148.085 47.1612 146.547 46.239 144.752L44.1932 140.457C44.2591 140.585 44.1968 140.779 44.3286 141.035C45.0481 147.795 44.2261 155.023 41.7342 162.784L41.606 162.85C41.606 162.85 41.5401 162.722 41.4742 162.594C42.3428 159.555 42.8233 156.392 43.1721 152.972C42.1681 155.432 40.9043 157.702 39.2524 159.847L39.1242 159.913L39.0583 159.785C43.8681 151.804 44.012 147.355 43.0075 138.15L42.9309 137.055C41.3463 133.657 40.157 131.027 39.0994 128.654C39.055 130.459 38.8825 132.33 38.644 134.073C38.7134 134.524 38.8452 134.78 38.9147 135.23C39.2476 136.194 39.5182 137.351 39.6607 138.574C39.6643 138.896 39.6679 139.218 39.6714 139.54C39.6342 141.99 39.4029 144.377 38.7212 146.834C38.7212 146.834 38.593 146.9 38.4649 146.966C38.4649 146.966 38.2708 146.903 38.3331 146.709L38.3295 146.387C38.5608 144 38.7921 141.613 38.6353 139.101C38.6976 138.907 38.5659 138.65 38.6282 138.456C38.5552 137.684 38.2881 136.849 38.1492 135.948C37.658 138.145 36.9104 140.473 36.0311 142.545C35.4847 145.581 34.682 148.748 33.8134 151.787L33.6888 152.175C33.6265 152.369 33.6265 152.369 33.4324 152.307C33.4324 152.307 33.1725 152.116 33.3007 152.05L33.6674 150.241C33.9094 148.821 34.2173 147.528 34.4593 146.108C33.8292 147.404 33.1332 148.572 32.3713 149.611C32.2431 149.677 32.2431 149.677 32.115 149.743L31.9832 149.487C35.3315 143.391 37.1933 136.925 37.6932 129.701C36.8138 131.773 35.6746 133.655 34.6012 135.665C33.7147 137.093 33.0223 138.583 32.2017 140.139C31.3188 141.889 30.4359 143.639 29.2967 145.521C29.2967 145.521 29.1685 145.586 29.0403 145.652L28.9086 145.396C29.6597 143.39 30.4144 141.706 31.235 140.15C31.3596 139.761 31.6124 139.307 31.737 138.919C31.7993 138.725 31.9275 138.659 31.9898 138.465C29.9533 140.808 27.6569 142.961 24.7161 145.12C24.588 145.186 24.588 145.186 24.5221 145.058C24.5221 145.058 24.5221 145.058 24.4562 144.93C24.4562 144.93 24.4562 144.93 24.5185 144.736C25.8554 143.239 27.2581 141.869 28.6609 140.5C29.9355 139.197 31.3382 137.828 32.6751 136.331C35.0301 133.662 36.3491 130.554 37.7304 127.252C37.7232 126.607 37.782 126.091 37.7748 125.446C37.6431 125.19 37.7054 124.996 37.5736 124.74C37.3724 124.033 37.0395 123.07 36.9664 122.297C35.028 127.668 28.5679 132.123 25.1144 134.546C25.1144 134.546 24.9862 134.612 24.9203 134.483L24.8544 134.355L24.9167 134.161C27.9821 131.614 31.3662 128.74 34.0328 125.101C32.6265 126.148 30.9602 127.004 29.6785 127.663C27.69 128.523 25.5698 129.127 22.7393 129.609L22.6734 129.481C22.6734 129.481 22.7358 129.287 22.8639 129.221C25.6286 128.61 28.2614 127.743 30.6308 126.364C31.6562 125.837 32.5499 125.053 33.3812 124.464C34.0844 123.941 34.6593 123.483 35.3625 122.96C36.0585 121.792 36.6263 120.69 37.1283 119.46C37.1799 118.299 37.3596 117.072 37.6711 116.102C36.2361 114.571 34.5413 112.85 32.9123 111.257C31.2833 109.663 29.7202 108.198 28.2853 106.667C25.2873 103.671 16.2681 92.4281 16.2022 92.2999C16.0704 92.0436 15.9387 91.7872 15.9351 91.465C15.8657 91.0146 15.9244 90.4983 16.1113 89.9162C16.3605 89.14 16.7414 88.6202 17.1918 88.5507C15.1446 89.9269 15.6645 90.3079 16.1915 91.3333ZM14.5324 92.8341C14.6606 92.7682 14.6606 92.7682 14.5324 92.8341C22.5119 103.316 30.8615 112.311 40.1707 120.65C41.6021 121.859 44.593 124.211 47.8438 126.753C46.2184 125.482 44.8529 124.401 44.2672 123.892C38.8017 119.248 33.7171 114.084 28.8266 108.982L27.7174 107.769C22.567 102.477 18.3797 96.8518 14.9649 91.1535C14.9026 91.3476 14.7744 91.4134 14.7121 91.6075C14.5875 91.9956 14.657 92.446 14.5324 92.8341Z" fill="#509E2F"/>
</svg>
