<svg width="244" height="230" viewBox="0 0 244 230" fill="none" xmlns="http://www.w3.org/2000/svg">
<path d="M215.384 73.2784L214.638 72.848C210.573 70.9965 206.717 69.929 202.876 69.698C202.771 69.306 202.523 69.1625 202.131 69.2675C197.74 68.5535 193.168 68.7283 188.256 69.2042C188.151 68.8122 187.85 68.4728 187.406 68.3817C183.159 67.4192 179.422 67.5801 175.242 67.65C175.385 67.4016 175.476 66.9571 175.371 66.5651C175.266 66.1732 174.965 65.8337 174.325 65.7952C170.928 65.6551 167.636 65.907 164.11 66.8519C162.738 67.2193 161.171 67.6392 159.656 68.2552C159.551 67.8632 159.002 67.3802 158.414 67.5377C157.631 67.7477 156.795 67.7616 156.011 67.9716C153.268 68.7065 150.827 69.7809 148.49 71.2472C147.224 72.0066 145.867 73.2105 144.705 74.3618C144.079 75.1598 143.205 75.8142 142.579 76.6121C142.292 77.1091 141.953 77.41 141.666 77.907C141.47 77.9595 141.523 78.1555 141.327 78.2079C141.078 78.0645 140.83 77.921 140.438 78.0259C140.242 78.0784 140.046 78.1309 139.903 78.3794C137.79 81.4661 136.122 84.6438 134.794 87.5205C134.737 84.1748 134.145 81.1825 133.267 78.6872C133.161 78.2953 132.665 78.0083 132.024 77.9698C131.299 72.9127 129.504 68.5625 125.878 63.6523C125.578 63.3128 125.081 63.0258 124.493 63.1833C124.297 63.2358 123.905 63.3408 123.814 63.7852C121.144 60.0895 118.632 56.9817 116.225 54.2659C115.924 53.9264 115.427 53.6394 114.839 53.7969C114.447 53.9019 114.304 54.1503 113.965 54.4513C113.821 54.6998 113.534 55.1967 113.391 55.4452C110.707 50.913 107.435 46.5383 104.072 42.6081C103.771 42.2686 103.275 41.9816 102.883 42.0866C102.491 42.1916 102.348 42.4401 102.204 42.6885L102.061 42.937C99.7968 39.9727 97.1934 37.3094 94.2508 34.947C94.0024 34.8035 93.5581 34.7125 93.1663 34.8175C92.9704 34.87 92.7745 34.9225 92.6311 35.1709C87.2833 41.8553 81.3378 51.0104 81.4693 61.688C78.7267 62.4229 78.9349 71.8196 79.2541 76.1453C79.0057 76.0018 78.7573 75.8583 78.3655 75.9633C77.7778 76.1207 77.491 76.6177 77.4527 77.2581C77.4084 83.3616 78.2911 89.0067 80.0099 94.6378L79.6181 94.7427C79.2263 94.8477 79.0829 95.0962 78.7436 95.3972C78.6002 95.6456 78.5093 96.0901 78.8102 96.4296C81.1693 102.099 84.8713 105.728 89.3569 109.148C89.161 109.2 89.0176 109.449 88.8217 109.501C88.6258 109.554 88.6783 109.75 88.6783 109.75C87.2545 109.921 85.8307 110.093 84.2635 110.513C83.4799 110.722 82.6963 110.932 81.9652 111.338C80.9857 111.601 80.0587 112.059 78.8833 112.374C76.5325 113.004 74.1817 113.634 72.4327 114.943C71.7017 115.349 71.0231 115.951 70.9322 116.395C70.7888 116.644 70.8413 116.84 71.1422 117.179C69.6276 117.795 63.2195 122.873 62.6843 123.227C60.1134 125.386 57.8959 128.081 55.8743 130.723L55.731 130.971C55.731 130.971 55.5876 131.22 55.7835 131.167L56.0319 131.311L57.4032 130.943L56.9205 131.493C54.6889 133.351 52.9016 135.3 51.2718 137.838C49.8379 140.322 48.4566 143.003 47.3378 146.664C47.1944 146.912 47.2994 147.304 47.4045 147.696C44.46 153.947 42.5476 160.131 41.6672 166.248C41.5763 166.692 41.6813 167.084 41.9297 167.228C42.1781 167.371 42.4266 167.515 42.6225 167.462C41.8046 171.463 41.2352 175.606 41.11 179.841C41.1626 180.037 41.2151 180.233 41.2151 180.233C41.2151 180.233 41.2151 180.233 41.3585 179.984C41.5544 179.932 43.0307 179.956 48.0091 180.513L48.4534 180.604C51.4585 180.849 54.6071 180.846 57.5981 180.254C57.4547 180.503 57.5073 180.699 57.8082 181.038C58.1091 181.378 58.4101 181.717 58.8019 181.612C61.702 181.465 64.5496 181.122 67.2922 180.387C70.6226 179.495 73.6519 178.263 76.7197 176.391C76.6288 176.835 76.7338 177.227 76.7863 177.423C77.0873 177.763 77.5316 177.854 77.9234 177.749C85.9553 175.597 92.5351 171.943 98.2505 166.631C98.5514 166.97 99.0482 167.257 99.6359 167.1C102.809 165.619 107.143 162.988 109.58 158.764C110.932 163.023 112.895 165.648 114.724 166.208C117.241 172.465 120.775 177.82 125.027 181.932C125.328 182.272 125.772 182.362 126.164 182.258C126.556 182.153 126.895 181.852 127.038 181.603C129.747 184.658 133.945 188.575 140.075 190.293C140.271 190.241 140.519 190.384 140.519 190.384C140.715 190.332 140.911 190.279 141.055 190.031C146.572 193.384 153.017 196.278 160.087 198.374C160.192 198.766 160.637 198.857 161.029 198.752C161.225 198.7 161.368 198.451 161.315 198.255C161.459 198.007 161.602 197.759 161.693 197.314C161.641 197.118 161.588 196.922 161.392 196.975C161.325 195.942 161.507 195.053 161.44 194.021C161.541 191.263 161.394 188.362 161.887 185.499C162.068 184.61 162.107 183.97 162.288 183.081C162.729 180.022 163.312 176.715 163.308 173.565C163.28 171.892 163.056 170.272 162.688 168.9C162.096 165.908 161.571 163.948 161.815 160.942C161.993 156.903 161.139 152.931 159.448 148.972C159.644 148.92 159.644 148.92 159.787 148.672C160.127 148.371 160.414 147.874 160.309 147.482C160.066 141.875 158.256 136.688 154.684 131.974C154.879 131.922 155.219 131.621 155.362 131.372C155.506 131.124 155.401 130.732 155.348 130.536C154.942 129.804 154.484 128.877 153.882 128.198C157.58 128.678 161.459 128.268 165.769 127.113C167.14 126.746 168.512 126.379 169.83 125.815C170.222 125.71 170.562 125.409 170.652 124.965C170.743 124.52 170.691 124.324 170.39 123.985C170.089 123.645 169.788 123.306 169.487 122.966C177.662 120.566 183.549 116.678 188.324 110.987C188.467 110.739 188.61 110.49 188.505 110.098C188.453 109.902 188.348 109.51 188.099 109.367C192.849 105.153 196.515 100.81 199.383 95.8408C199.526 95.5923 199.617 95.1478 199.369 95.0043C201.6 93.146 203.517 90.1118 205.199 87.7705L206.112 86.4757C206.451 86.1747 206.346 85.7827 206.241 85.3908C207.35 84.0434 208.263 82.7485 209.175 81.4536C209.606 80.7082 210.232 79.9103 210.714 79.3608C211.34 78.5629 212.162 77.7125 212.788 76.9146C213.61 76.0642 214.576 74.9653 215.345 73.9189C215.436 73.4744 215.436 73.4744 215.384 73.2784ZM203.628 85.0407C203.341 85.5377 202.767 86.5316 202.376 86.6366L202.428 86.8325L202.677 86.976L202.872 86.9236C201.83 89.3034 199.599 91.1616 197.563 92.9674C196.884 93.5694 196.01 94.2238 195.527 94.7733C195.384 95.0217 195.045 95.3227 194.901 95.5712L194.758 95.8196C194.758 95.8196 194.81 96.0156 195.006 95.9632L196.822 95.6867L196.339 96.2361C194.657 98.5774 192.975 100.919 190.796 102.973L190.169 103.771C186.504 108.114 184.325 110.168 183.986 110.469C183.986 110.469 183.986 110.469 183.79 110.522L183.594 110.574C183.594 110.574 183.646 110.77 183.699 110.966L185.137 111.631C183.87 112.391 182.657 113.346 181.443 114.301C177.553 117.024 173.859 119.694 169.354 120.902C168.766 121.059 168.178 121.216 167.591 121.374C167.199 121.479 167.055 121.727 166.912 121.976C166.769 122.224 166.874 122.616 166.926 122.812C167.227 123.152 167.28 123.348 167.581 123.687L167.633 123.883C166.849 124.093 166.262 124.251 165.478 124.461C161.756 125.458 157.681 125.92 152.468 126.056C150.911 124.163 149.119 122.962 147.185 122.01L145.25 121.058C144.805 120.967 144.505 120.628 144.008 120.341C143.21 119.715 142.269 119.337 141.328 118.959C141.863 118.605 142.097 117.912 142.331 117.219L142.279 117.023C143.01 116.617 143.937 116.159 144.668 115.753C146.13 114.941 147.788 114.077 149.499 113.408C149.891 113.303 150.034 113.055 150.125 112.61C150.072 112.414 150.02 112.218 149.967 112.022C150.698 111.616 151.43 111.21 152.161 110.804C156.814 112.498 161.649 113.303 166.47 113.272C168.142 113.244 169.566 113.073 170.598 113.006L172.021 112.835C172.217 112.782 172.217 112.782 172.165 112.586C172.112 112.39 172.112 112.39 171.916 112.443L170.44 112.418C169.604 112.432 168.271 112.159 166.546 111.991C162.208 111.473 158.209 110.654 154.053 109.247C154.588 108.894 155.749 107.742 157.446 106.237C158.803 105.034 160.108 103.634 160.499 103.529C160.499 103.529 160.695 103.476 160.643 103.28L160.59 103.084C158.159 101.845 156.08 101.142 153.166 100.452C155.503 98.986 157.787 97.3237 160.176 96.0534C165.77 98.1253 171.547 99.3083 177.399 99.2105C179.268 99.13 180.94 99.1021 181.919 98.8396L183.539 98.6157C183.735 98.5632 183.735 98.5632 183.682 98.3672C183.63 98.1712 183.63 98.1712 183.434 98.2237L181.762 98.2517C180.73 98.3181 179.253 98.2936 177.28 97.9821C172.106 97.478 167.218 96.477 162.369 94.8355C167.826 91.6929 173.336 88.7463 178.754 86.2441C178.754 86.2441 178.754 86.2441 178.807 86.4401L178.859 86.6361C182.82 88.0955 186.962 88.6661 191.038 88.2042C192.461 88.0327 193.493 87.9663 194.277 87.7563L195.452 87.4414C195.648 87.3889 195.648 87.3889 195.596 87.1929C195.543 86.9969 195.543 86.9969 195.347 87.0494L194.315 87.1159C193.675 87.0774 192.447 87.1963 191.167 87.1193C187.77 86.9792 184.464 86.3947 181.248 85.3657C189.305 81.7367 197.714 78.6431 206.138 76.386C206.53 76.281 206.673 76.0325 206.568 75.6406C206.463 75.2486 206.162 74.9091 205.574 75.0666C191.665 78.7935 178.568 83.9833 166.427 90.3875C169.113 86.3069 171.956 82.8142 175.636 79.3076C177.136 77.8552 178.298 76.7039 179.172 76.0494L180.333 74.8981C180.529 74.8456 180.477 74.6496 180.477 74.6496L180.228 74.5061L178.819 75.514C177.748 76.2209 176.535 77.1763 174.786 78.4851C169.983 82.5027 165.978 87.1467 162.771 92.4172C158.385 94.8529 154.247 97.4321 150.213 100.403C149.076 100.078 147.992 99.9483 146.907 99.8188C149.016 93.5823 151.922 87.9724 155.912 82.4919C157.451 80.3991 158.756 78.9993 159.382 78.2013L160.687 76.8015C160.687 76.8015 160.83 76.553 160.634 76.6055L160.386 76.462L158.833 77.7184C157.815 78.6213 156.51 80.0211 154.866 81.7219C150.379 86.9154 146.938 92.8788 144.738 99.5597C143.458 99.4827 142.177 99.4057 141.002 99.7207C140.806 99.7731 140.806 99.7731 140.61 99.8256C140.362 99.6821 140.113 99.5387 139.918 99.5912C138.886 99.6576 137.462 99.8291 136.09 100.197C135.111 100.459 134.131 100.721 133.204 101.18C133.386 100.291 133.62 99.598 133.802 98.7091C134.323 97.5192 134.648 96.3818 134.973 95.2444C136.613 90.3938 138.306 85.7392 140.887 81.2667C141.082 81.2142 141.082 81.2142 141.278 81.1617C141.866 81.0042 142.349 80.4548 142.779 79.7093C142.922 79.4609 143.066 79.2124 143.262 79.1599C146.444 75.3663 150.778 72.7346 156.068 71.3173C156.12 71.5133 156.173 71.7093 156.421 71.8528C156.722 72.1923 157.166 72.2833 157.558 72.1783C157.754 72.1258 157.754 72.1258 157.754 72.1258C159.412 71.2614 161.319 70.5405 163.278 70.0156C165.628 69.3857 168.032 68.9518 170.789 69.0533C170.645 69.3018 170.554 69.7463 170.855 70.0857C171.156 70.4252 171.405 70.5687 171.796 70.4637C175.179 69.7674 179.216 69.9459 184.051 70.751C183.712 71.0519 183.87 71.6399 183.922 71.8359C184.027 72.2279 184.524 72.5148 184.916 72.4099C189.278 71.451 193.994 71.0277 198.972 71.5842C199.077 71.9762 199.378 72.3157 200.018 72.3542C203.755 72.1933 207.309 72.9213 212.015 74.8112C210.371 76.5121 208.832 78.6049 207.437 80.4492L206.667 81.4956C206.184 82.045 205.898 82.542 205.415 83.0914C204.932 83.6409 204.45 84.1903 204.02 84.9357C203.914 84.5438 203.771 84.7923 203.628 85.0407ZM156.716 147.394C156.572 147.643 156.677 148.035 156.73 148.231C158.105 151.013 158.84 153.757 159.079 156.213C159.25 157.638 159.03 159.167 159.006 160.644C158.929 161.925 158.709 163.454 158.881 164.879C158.895 165.715 159.301 166.447 159.707 167.178C159.865 167.766 160.166 168.105 160.323 168.693C160.901 170.849 161.139 173.306 160.947 176.508C160.832 178.43 160.521 180.403 160.067 182.626C159.407 187.214 158.55 191.854 159.653 195.97C153.863 193.951 147.863 191.147 140.515 187.234C140.267 187.091 140.071 187.143 139.875 187.196C139.679 187.248 139.483 187.301 139.536 187.497C134.921 185.162 130.488 181.939 126.537 178.166C126.537 178.166 126.537 178.166 126.341 178.219C126.341 178.219 126.341 178.219 126.146 178.271L126.002 178.52C125.859 178.768 125.911 178.964 125.768 179.213C123.609 176.64 121.894 174.159 120.323 171.429C119.511 169.966 118.842 168.255 118.226 166.74C117.663 165.42 117.099 164.101 116.536 162.781C116.536 162.781 116.483 162.585 116.287 162.638C116.092 162.69 116.092 162.69 116.144 162.886L115.676 164.272C114.864 162.809 114.3 161.49 113.488 160.027L113.082 159.296C112.06 157.049 111.43 154.697 110.943 152.097C110.337 148.268 110.568 144.425 110.798 140.583L110.941 140.334C111.032 139.89 111.123 139.445 111.266 139.197C111.787 138.007 112.308 136.817 112.882 135.823C113.025 135.575 113.169 135.326 113.455 134.829C113.742 134.332 114.029 133.835 114.172 133.587C115.635 132.775 117.135 131.323 117.957 130.472C118.1 130.224 118.44 129.923 118.636 129.87C120.671 128.064 122.067 126.22 122.822 124.337C122.138 130.402 122.996 137.524 125.789 145.598C124.877 146.893 124.016 148.384 123.6 149.966C123.132 151.351 122.859 152.685 122.691 154.41C122.342 157.025 122.528 159.285 122.609 161.154L122.714 161.546C122.876 165.284 123.009 167.349 123.009 167.349C123.061 167.545 123.061 167.545 123.257 167.492C123.453 167.44 123.453 167.44 123.401 167.244C123.401 167.244 123.712 165.27 123.746 161.48L123.732 160.643C123.899 158.918 124.014 156.997 124.273 154.827C124.44 153.101 125.038 150.631 126.525 148.342C127.508 151.229 128.74 154.26 130.378 158.022C130.483 158.414 130.784 158.754 130.889 159.146L131.505 160.661C131.505 160.661 131.558 160.857 131.754 160.804C133.287 164.175 134.609 166.761 135.88 169.151C135.32 170.982 135.009 172.955 135.143 175.02C135.171 176.693 135.591 178.261 136.207 179.776C136.718 180.9 137.177 181.827 137.53 182.363C137.884 182.898 138.184 183.238 138.184 183.238L138.433 183.381C138.629 183.329 138.576 183.133 138.576 183.133L138.118 182.205C137.908 181.421 137.502 180.69 137.383 179.461C136.896 176.861 136.853 174.352 137.451 171.881C142.729 181.39 148.394 187.644 155.244 191.27C155.244 191.27 155.44 191.217 155.388 191.021C155.388 191.021 155.335 190.825 155.283 190.629C151.28 186.661 147.172 182.3 143.494 177.194C146.394 177.047 149.256 177.54 152.079 178.674C153.269 179.196 154.014 179.626 154.759 180.057L155.753 180.631L155.949 180.578C155.949 180.578 155.949 180.578 156.145 180.526C156.145 180.526 156.288 180.277 156.092 180.33C156.092 180.33 155.791 179.99 155.242 179.507C154.693 179.024 153.895 178.398 152.653 177.68C151.162 176.82 149.528 176.207 147.947 175.791C146.17 175.427 144.249 175.311 142.381 175.391C142.381 175.391 141.975 174.66 141.674 174.321C139.095 170.18 136.855 165.739 134.405 160.514C135.241 160.5 136.078 160.486 137.162 160.616C138.691 160.836 140.024 161.109 141.854 161.669C144.324 162.268 146.65 163.115 149.225 164.105C150.663 164.77 152.101 165.435 153.592 166.296L155.082 167.157C155.082 167.157 155.082 167.157 155.278 167.104L155.474 167.052L155.421 166.856C155.421 166.856 154.925 166.569 154.074 165.747C152.78 164.833 151.289 163.972 149.799 163.111C147.367 161.872 144.988 160.829 142.466 160.035C140.636 159.475 139.054 159.058 137.526 158.838C136.637 158.656 135.108 158.435 133.488 158.659C133.03 157.732 132.82 156.948 132.361 156.02C129.544 149.423 127.629 143.845 126.407 138.501C126.25 137.913 126.092 137.325 126.13 136.684C129.332 136.877 132.69 137.657 136.35 138.777C139.565 139.806 142.14 140.797 144.519 141.84L151.408 144.825C151.408 144.825 151.408 144.825 151.604 144.773L151.8 144.72C151.8 144.72 151.747 144.524 151.695 144.328L149.956 143.324C148.962 142.75 147.223 141.745 145.04 140.65C142.857 139.554 140.177 138.172 136.909 136.947C132.949 135.488 129.394 134.76 125.749 134.476C125.339 130.595 125.177 126.857 125.159 122.871L125.054 122.479C126.544 123.34 128.622 124.043 130.295 124.015C131.131 124.001 131.914 123.791 132.698 123.582C134.461 123.109 136.315 122.192 137.83 121.576L138.953 121.065L138.9 120.869C139.855 122.084 141.346 122.945 142.731 123.414C143.176 123.505 143.477 123.844 143.921 123.935C144.365 124.026 144.666 124.366 145.11 124.457C145.607 124.744 146.052 124.835 146.353 125.174C148.889 126.805 150.59 128.45 151.951 130.396C151.559 130.501 151.416 130.749 151.325 131.194C151.234 131.638 151.392 132.226 151.693 132.566C153.747 134.746 155.514 137.423 156.55 140.507C156.76 141.291 158.283 146.974 157.996 147.471C157.8 147.524 157.8 147.524 157.604 147.576C157.198 146.845 156.859 147.146 156.716 147.394ZM108.869 154.543L109.132 155.523C109.342 156.307 106.785 159.303 105.141 161.003C104.463 161.605 103.784 162.207 102.91 162.862C102.374 163.215 101.892 163.765 101.161 164.17L101.237 162.89L101.185 162.694C101.185 162.694 101.185 162.694 100.989 162.746C97.687 165.311 94.5284 167.628 91.1213 169.801C89.3724 171.11 87.3225 172.08 85.2726 173.049C84.8808 173.154 84.2931 173.311 83.3661 173.77C81.9948 174.137 80.676 174.701 79.8924 174.911C80.0358 174.662 80.1267 174.218 80.2701 173.969C80.361 173.525 80.4518 173.08 80.1509 172.741C79.85 172.401 79.3531 172.114 78.9613 172.219C78.7654 172.272 78.7654 172.272 78.5695 172.324C74.8757 174.995 70.776 176.933 66.2703 178.141C64.7031 178.56 62.8875 178.837 61.2677 179.061C61.5545 178.564 61.4495 178.172 61.096 177.636C60.7951 177.297 60.2983 177.01 59.9065 177.115C54.3687 178.389 48.7643 178.63 42.7015 177.944C43.586 174.976 43.9737 171.722 44.6098 168.61C44.6865 167.329 45.0116 166.192 45.0884 164.911C45.1792 164.467 45.0742 164.075 44.8258 163.931C44.5774 163.788 44.329 163.644 43.8847 163.553C44.2342 161.549 44.6831 159.585 45.2264 157.669C45.3225 157.33 45.4216 156.993 45.5235 156.657C46.62 153.047 48.0546 149.617 49.7936 146.426C49.8845 145.981 49.9754 145.537 49.6744 145.197C51.9928 139.745 54.2729 134.933 60.1599 131.045C60.4992 130.744 60.6426 130.495 60.7335 130.051C60.6285 129.659 60.5234 129.267 60.0266 128.98C63.9405 124.78 68.2604 121.312 73.4305 118.667C73.7698 118.366 74.1091 118.065 74.2 117.62C74.3433 117.372 74.2383 116.98 73.9899 116.836C74.1858 116.784 74.1858 116.784 74.3817 116.731C75.3087 116.273 76.2882 116.01 77.2152 115.552C79.5135 114.726 82.0077 113.848 84.8937 112.864L85.2855 112.759C86.6568 112.392 87.8847 112.273 89.3085 112.102C92.447 114.411 95.834 116.865 99.336 117.397C97.1427 118.615 90.1186 122.177 89.7026 123.759C89.5592 124.008 89.8076 124.151 89.8076 124.151C89.8601 124.347 90.056 124.295 90.1085 124.491C87.7335 126.597 85.0051 128.169 82.525 129.883C82.1332 129.988 81.7939 130.289 81.7031 130.734C81.6122 131.178 81.9131 131.518 82.3574 131.609C86.122 133.121 90.03 134.384 93.7279 134.864C91.0378 135.795 88.3477 136.725 85.7101 137.852C82.6383 136.575 79.1746 135.402 75.8685 134.818C72.5624 134.233 69.6622 134.38 67.8466 134.657C65.8351 134.986 64.2154 135.21 63.04 135.525L61.4728 135.944C61.2769 135.997 61.2769 135.997 61.3294 136.193C61.3819 136.389 61.3819 136.389 61.5778 136.336L63.8378 136.151C64.8698 136.084 66.2936 135.913 68.1617 135.833C70.0298 135.752 72.7866 135.854 75.7009 136.543C78.1709 137.142 80.6934 137.936 83.0726 138.979C77.654 141.481 72.288 144.179 67.4188 147.165C64.8862 148.683 62.6021 150.346 60.7097 151.903C58.2014 151.945 55.9415 152.13 54.1784 152.603C53.7866 152.708 53.1988 152.865 52.807 152.97C51.2398 153.39 49.921 153.954 48.6022 154.517C47.1401 155.329 46.3181 156.179 45.587 156.585C45.5656 156.61 45.5444 156.634 45.5235 156.657C45.0749 157.161 44.7651 157.436 44.7651 157.436C44.7651 157.436 44.6217 157.684 44.8176 157.632L45.066 157.775L45.2264 157.669L46.1364 157.068C46.8674 156.662 47.7419 156.008 49.0607 155.445C49.6484 155.287 50.3795 154.881 51.1631 154.671C52.1426 154.409 53.1221 154.146 54.35 154.027C55.3821 153.961 56.61 153.842 58.0338 153.67C52.8011 158.433 48.5621 163.77 45.4217 170.073C45.4217 170.073 45.4742 170.269 45.5267 170.465L45.7752 170.609L45.971 170.556C48.4086 166.332 51.5389 162.343 55.0227 158.888C56.8625 157.135 58.7548 155.578 60.6997 154.216L61.3782 153.614C63.8583 151.9 65.0721 150.944 65.6073 150.591C65.5972 152.904 64.9469 155.179 64.1391 156.866C63.3838 158.749 62.576 160.435 61.9116 161.874L61.3906 163.064C60.4394 164.999 59.8658 165.993 59.4357 166.738C59.0055 167.484 58.6662 167.785 58.4703 167.837C58.4703 167.837 58.3269 168.086 58.5228 168.033L58.7713 168.177C58.7713 168.177 59.3064 167.823 59.9325 167.025C60.7545 166.175 61.6673 164.88 62.3842 163.638L62.5276 163.389C63.3879 161.898 64.5875 160.107 65.6296 157.727C66.2415 156.092 66.7626 154.902 67.0352 153.569C67.3078 152.236 67.5279 150.706 67.3562 149.282C68.0873 148.876 68.8184 148.47 69.3535 148.117C75.3732 144.443 81.8847 141.85 88.2205 139.328C88.3424 139.279 88.4643 139.231 88.5861 139.182L90.1008 138.566C90.6017 142.003 90.6583 145.349 89.9313 148.904C89.4386 151.767 88.3582 154.787 86.9769 157.468C85.8298 159.456 84.7735 160.999 83.8607 162.294L82.6086 163.89C82.6086 163.89 82.4652 164.139 82.6611 164.086L82.9095 164.23C82.9095 164.23 83.5881 163.628 84.41 162.777C85.3754 161.678 86.68 160.278 88.023 158.238C89.7962 155.452 90.9291 152.628 91.7611 149.464C92.6315 145.66 92.8616 141.818 92.0598 138.041C94.1622 137.268 96.4079 136.246 98.4578 135.277C100.966 135.235 103.422 134.997 105.577 134.42C106.948 134.052 108.071 133.541 109.39 132.978C108.673 134.22 108.257 135.802 107.932 136.939L107.841 137.384C107.047 139.907 106.698 142.521 106.936 144.978C107.882 148.506 108.029 151.407 108.869 154.543ZM79.8601 79.974C80.1085 80.1175 80.5528 80.2085 80.7487 80.156C81.3364 79.9985 81.6232 79.5015 81.4656 78.9136C81.2798 76.6528 81.1465 74.5879 81.0656 72.7191C80.999 71.6867 81.736 65.8177 81.8127 64.5368C82.0611 64.6803 82.257 64.6278 82.4529 64.5753C82.8447 64.4703 83.3274 63.9209 83.2224 63.5289C83 53.2957 88.9455 44.1406 93.4713 38.3067C96.4139 40.6691 98.8214 43.3849 101.138 46.5452C101.439 46.8847 101.936 47.1716 102.327 47.0667C102.719 46.9617 102.863 46.7132 103.202 46.4122L103.345 46.1638C107.009 50.4335 110.085 54.8607 112.678 59.8373C112.979 60.1768 113.28 60.5163 113.868 60.3588C114.26 60.2538 114.795 59.9004 114.886 59.4559C114.977 59.0115 115.067 58.567 115.302 57.8741C118.115 61.3213 120.68 64.6251 122.801 67.8379C123.102 68.1774 123.598 68.4644 124.186 68.3069C124.382 68.2544 124.578 68.2019 124.721 67.9534C127.902 72.7726 129.554 77.3713 129.692 82.5858C129.797 82.9778 129.849 83.1738 130.098 83.3173C130.346 83.4608 130.791 83.5518 131.182 83.4468C131.378 83.3943 131.378 83.3943 131.574 83.3418C132.758 89.3263 131.552 96.5812 130.514 102.111C130.514 102.111 130.567 102.307 130.619 102.503C130.084 102.856 129.745 103.157 129.406 103.458C129.21 103.511 129.014 103.563 129.014 103.563C126.271 104.298 123.442 108.627 122.519 112.235L121.616 111.217C118.855 107.965 116.147 104.91 113.778 101.554C115.995 98.8592 117.663 95.6815 118.94 92.6088C119.929 90.033 120.67 87.3137 120.967 84.5035C121.226 82.3337 121.197 80.6608 121.222 79.1839C121.102 77.9555 121.141 77.3151 121.141 77.3151C121.088 77.1191 121.088 77.1191 120.892 77.1716C120.696 77.2241 120.696 77.2241 120.749 77.4201L120.581 79.1454C120.4 80.0343 120.285 81.9557 119.83 84.178C119.285 86.8447 118.295 89.4205 117.253 91.8003C115.924 94.677 114.347 97.4103 112.469 99.804C109.183 94.5929 106.131 88.6888 103.314 82.0918C102.645 80.3804 101.977 78.669 101.308 76.9577C102.756 75.3093 104.152 73.465 105.103 71.5297C106.054 69.5944 106.809 67.7116 107.12 65.7377C107.536 64.1559 107.613 62.875 107.795 61.9861L107.872 60.7052C107.819 60.5092 107.819 60.5092 107.623 60.5617C107.427 60.6142 107.427 60.6142 107.48 60.8101L107.207 62.1435C106.973 62.8365 106.7 64.1699 106.036 65.6082C104.669 69.1254 102.805 72.3556 100.587 75.0503C99.4986 71.7711 93.7019 54.8393 93.9905 45.7296C93.9905 45.7296 93.938 45.5336 93.8855 45.3376L93.6371 45.1941C93.6371 45.1941 93.4412 45.2466 93.4937 45.4426C91.9973 50.0447 93.1142 54.9968 94.322 59.5045C94.322 59.5045 95.1623 62.6402 95.3198 63.2282C93.0457 62.5772 91.4502 61.3243 90.5474 60.3058C89.9456 59.6269 89.5921 59.0914 89.2912 58.7519L88.8852 58.0205L88.6368 57.877C88.4409 57.9295 88.4934 58.1255 88.4934 58.1255C88.4934 58.1255 88.5459 58.3214 88.7035 58.9094C88.861 59.4973 89.2145 60.0328 89.6729 60.9602C90.3798 62.0312 91.2301 62.8536 92.2763 63.6236C93.3225 64.3935 94.512 64.915 95.845 65.188C96.4226 67.3439 98.103 73.6154 100.529 80.3174C100.084 80.2264 99.5876 79.9394 99.0908 79.6524C98.1496 79.2744 97.3519 78.6479 96.5541 78.0215L96.3057 77.878C94.7627 76.8211 93.4156 75.7116 91.8726 74.6547C90.7739 73.6887 89.7802 73.1147 89.1784 72.4358L88.3281 71.6133L88.1322 71.6658C88.1322 71.6658 88.1322 71.6658 87.9363 71.7183C87.9363 71.7183 87.7929 71.9668 87.9888 71.9143C87.9888 71.9143 88.2897 72.2538 88.6432 72.7892C89.245 73.4682 89.8994 74.3431 90.9981 75.3091C92.2018 76.667 93.6014 77.9724 95.197 79.2254C95.9947 79.8518 97.0409 80.6218 98.0346 81.1957C99.2241 81.7172 100.165 82.0952 101.25 82.2247C104.645 90.9776 108.704 98.2921 113.037 104.273C111.952 104.144 110.92 104.21 109.888 104.277L109.248 104.238C107.38 104.319 105.655 104.151 104.126 103.93C101.016 103.293 98.3884 102.107 96.5062 101.351C94.5713 100.399 93.0809 99.5376 92.0347 98.7677L90.4917 97.7107L90.2958 97.7632C90.2958 97.7632 90.2958 97.7632 90.0999 97.8157C90.0999 97.8157 89.9565 98.0642 90.1524 98.0117C90.1524 98.0117 90.7017 98.4947 91.4995 99.1211C92.3498 99.9436 93.8927 101.001 95.8801 102.148C97.8674 103.296 100.352 104.731 103.906 105.459C105.487 105.876 107.408 105.991 109.329 106.107L109.773 106.198C111.445 106.17 113.17 106.338 114.751 106.755C117.211 109.666 119.514 111.99 121.907 113.87C121.816 114.314 121.921 114.706 121.83 115.15C118.73 112.2 111.936 111.92 107.039 113.232C104.688 113.862 102.834 114.779 101.869 115.878C98.2756 115.79 93.8425 112.567 91.4492 110.688L91.841 110.583C92.2328 110.478 92.5196 109.981 92.6105 109.536C92.7014 109.092 92.4005 108.752 92.152 108.609C87.2746 105.295 83.9785 102.397 81.5812 97.3676L81.7771 97.3151L81.973 97.2626C82.3648 97.1576 82.5082 96.9091 82.6515 96.6606C82.7949 96.4122 82.8858 95.9677 82.7808 95.5757C81.0761 90.7811 80.0501 85.3845 79.8601 79.974ZM146.833 112.862C145.906 113.321 144.979 113.779 143.804 114.094C142.681 114.605 141.362 115.168 140.239 115.679C139.847 115.784 139.56 116.281 139.665 116.673C139.718 116.869 139.823 117.261 140.071 117.405C139.68 117.51 138.949 117.916 137.577 118.283L136.989 118.441C136.206 118.65 135.475 119.056 134.887 119.214C134.495 119.319 134.156 119.62 133.764 119.725C133.372 119.83 132.981 119.935 132.589 120.04C129.259 120.932 126.344 120.243 124.787 118.349C124.983 118.297 125.322 117.996 125.217 117.604C125.752 117.25 126.235 116.701 126.574 116.4C127.463 116.582 128.299 116.568 129.188 116.75L129.632 116.841C130.717 116.97 131.997 117.048 133.172 116.733C133.564 116.628 133.956 116.523 134.295 116.222L134.439 115.973C134.439 115.973 134.386 115.777 134.138 115.634C133.197 115.256 132.165 115.322 131.133 115.389C130.492 115.35 130.101 115.455 129.46 115.417C129.264 115.469 129.016 115.326 128.572 115.235C130.517 113.873 132.514 112.708 134.564 111.739C137.335 112.676 139.843 112.635 141.214 112.267C141.606 112.162 141.802 112.11 141.998 112.057C142.39 111.952 142.586 111.9 142.782 111.847C143.173 111.742 143.369 111.69 143.369 111.69C143.565 111.637 143.513 111.441 143.513 111.441C143.46 111.245 143.46 111.245 143.264 111.298L142.624 111.259C142.18 111.168 141.788 111.273 140.952 111.287C139.671 111.21 138.338 110.937 137.201 110.612C139.643 109.537 141.941 108.711 144.044 107.938C146.342 107.112 148.053 106.444 149.424 106.076L152.114 105.145C152.31 105.093 152.257 104.897 152.257 104.897C152.205 104.701 152.205 104.701 152.009 104.753L149.802 105.135C148.626 105.45 147.006 105.674 145.047 106.199C144.46 106.356 144.068 106.461 143.48 106.619C140.934 107.301 137.46 108.442 133.699 110.08C131.845 110.997 129.991 111.913 128.386 112.974C129.729 110.933 131.373 109.233 133.213 107.479C134.035 106.629 134.909 105.975 135.444 105.621L136.319 104.967C136.515 104.914 136.462 104.718 136.462 104.718L136.214 104.575L135.287 105.033C134.752 105.387 133.824 105.845 132.754 106.552C129.008 109.026 126.556 112.414 124.692 115.644C124.64 115.448 124.783 115.2 124.678 114.808C124.573 114.416 124.664 113.971 124.611 113.775C124.74 112.69 125.066 111.553 125.443 110.611C126.055 108.977 126.915 107.486 127.776 105.995L127.594 106.884L127.647 107.08L127.895 107.224C128.091 107.171 130.375 105.509 130.571 105.456L130.91 105.155C131.393 104.606 131.928 104.253 132.463 103.899C133.194 103.493 134.121 103.035 135.297 102.72C136.08 102.51 136.668 102.352 137.452 102.142C137.843 102.037 138.431 101.88 138.823 101.775C138.875 101.971 139.071 101.918 139.124 102.114C139.372 102.258 139.621 102.401 140.013 102.296C140.208 102.244 140.548 101.943 140.691 101.694C140.978 101.198 141.317 100.897 141.905 100.739C144.06 100.162 147.968 101.425 149.549 101.842C152.32 102.78 154.79 103.378 157.351 103.532C156.424 103.991 155.745 104.593 155.067 105.194L154.388 105.796C152.066 108.099 150.226 109.853 147.249 111.28C146.857 111.385 146.766 111.83 146.675 112.274C146.585 112.719 146.833 112.862 146.833 112.862ZM109.436 118.261C109.293 118.51 109.345 118.706 109.345 118.706C109.345 118.706 111.332 119.854 115.097 121.366C113.974 121.877 113.047 122.335 111.924 122.846C109.091 124.025 106.401 124.956 103.462 125.744C102.874 125.901 102.091 126.111 101.503 126.269C98.9565 126.951 96.6965 127.136 95.5211 127.451L93.3137 127.833C93.1178 127.885 93.1178 127.885 93.1703 128.081C93.2228 128.277 93.2228 128.277 93.4187 128.225L95.4828 128.092C96.9591 128.116 98.9706 127.787 101.622 127.497C103.438 127.221 105.397 126.696 107.16 126.223C107.552 126.118 107.944 126.013 108.531 125.856C107.174 127.06 105.569 128.12 103.715 129.037C102.592 129.548 101.861 129.954 101.326 130.307L100.399 130.766C100.203 130.818 100.255 131.014 100.255 131.014C100.308 131.21 100.308 131.21 100.504 131.158L101.483 130.895C101.679 130.843 102.071 130.738 102.267 130.685C102.854 130.528 103.442 130.37 104.226 130.16C107.451 128.876 110.519 127.004 112.985 124.452C112.985 124.452 113.18 124.4 113.376 124.348C114.16 124.138 119.774 121.583 121.328 120.327C120.978 122.941 119.153 125.531 118.526 126.328C117.757 127.375 116.491 128.134 115.473 129.037C114.598 129.692 113.528 130.399 112.706 131.249C112.51 131.301 112.51 131.301 112.367 131.55C112.066 131.21 111.569 130.923 110.981 131.081L110.785 131.133C109.323 131.945 107.809 132.561 106.241 132.981C104.87 133.349 103.446 133.52 102.022 133.691L101.826 133.744C97.45 133.866 93.0068 132.956 88.7596 131.994C87.6751 131.864 86.7339 131.486 85.6494 131.357C88.182 129.838 90.7145 128.319 92.2534 126.226C94.4184 123.336 97.7345 121.607 101.051 119.878L102.709 119.014C103.101 118.909 103.244 118.66 103.335 118.216C103.282 118.02 103.478 117.967 103.426 117.771C104.209 117.561 105.972 117.089 107.735 116.617C109.107 116.249 110.282 115.934 110.87 115.777C113.718 115.434 118.486 115.206 120.631 116.942C121.128 117.229 121.481 117.765 121.638 118.353C120.372 119.112 119.106 119.872 117.983 120.382C112.637 118.454 109.436 118.261 109.436 118.261Z" fill="#509E2F"/>
<path d="M79.8601 79.974C80.1085 80.1175 80.5528 80.2085 80.7487 80.156C81.3364 79.9985 81.6232 79.5015 81.4656 78.9136C81.2798 76.6528 81.1465 74.5879 81.0656 72.7191C80.999 71.6867 81.736 65.8177 81.8127 64.5368C82.0611 64.6803 82.257 64.6278 82.4529 64.5753C82.8447 64.4703 83.3274 63.9209 83.2224 63.5289C83 53.2957 88.9455 44.1406 93.4713 38.3067C96.4139 40.6691 98.8214 43.3849 101.138 46.5452C101.439 46.8847 101.936 47.1716 102.327 47.0667C102.719 46.9617 102.863 46.7132 103.202 46.4122L103.345 46.1638C107.009 50.4335 110.085 54.8607 112.678 59.8373C112.979 60.1768 113.28 60.5163 113.868 60.3588C114.26 60.2538 114.795 59.9004 114.886 59.4559C114.977 59.0115 115.067 58.567 115.302 57.8741C118.115 61.3213 120.68 64.6251 122.801 67.8379C123.102 68.1774 123.598 68.4644 124.186 68.3069C124.382 68.2544 124.578 68.2019 124.721 67.9534C127.902 72.7726 129.554 77.3713 129.692 82.5858C129.797 82.9778 129.849 83.1738 130.098 83.3173C130.346 83.4608 130.791 83.5518 131.182 83.4468L131.574 83.3418C132.758 89.3263 131.552 96.5812 130.514 102.111L130.619 102.503C130.084 102.856 129.745 103.157 129.406 103.458L129.014 103.563C126.271 104.298 123.442 108.627 122.519 112.235L121.616 111.217C118.855 107.965 116.147 104.91 113.778 101.554C115.995 98.8592 117.663 95.6815 118.94 92.6088C119.929 90.033 120.67 87.3137 120.967 84.5035C121.226 82.3337 121.197 80.6608 121.222 79.1839C121.102 77.9555 121.141 77.3151 121.141 77.3151C121.088 77.1191 121.088 77.1191 120.892 77.1716C120.696 77.2241 120.696 77.2241 120.749 77.4201L120.581 79.1454C120.4 80.0343 120.285 81.9557 119.83 84.178C119.285 86.8447 118.295 89.4205 117.253 91.8003C115.924 94.677 114.347 97.4103 112.469 99.804C109.183 94.5929 106.131 88.6888 103.314 82.0918L101.308 76.9577C102.756 75.3093 104.152 73.465 105.103 71.5297C106.054 69.5944 106.809 67.7116 107.12 65.7377C107.536 64.1559 107.613 62.875 107.795 61.9861L107.872 60.7052C107.819 60.5092 107.819 60.5092 107.623 60.5617C107.427 60.6142 107.427 60.6142 107.48 60.8101L107.207 62.1435C106.973 62.8365 106.7 64.1699 106.036 65.6082C104.669 69.1254 102.805 72.3556 100.587 75.0503C99.4986 71.7711 93.7019 54.8393 93.9905 45.7296L93.8855 45.3376L93.6371 45.1941C93.6371 45.1941 93.4412 45.2466 93.4937 45.4426C91.9973 50.0447 93.1142 54.9968 94.322 59.5045L95.3198 63.2282C93.0457 62.5772 91.4502 61.3243 90.5474 60.3058C89.9456 59.6269 89.5921 59.0914 89.2912 58.7519L88.8852 58.0205L88.6368 57.877C88.4409 57.9295 88.4934 58.1255 88.4934 58.1255L88.7035 58.9094C88.861 59.4973 89.2145 60.0328 89.6729 60.9602C90.3798 62.0312 91.2301 62.8536 92.2763 63.6236C93.3225 64.3935 94.512 64.915 95.845 65.188C96.4226 67.3439 98.103 73.6154 100.529 80.3174C100.084 80.2264 99.5876 79.9394 99.0908 79.6524C98.1496 79.2744 97.3519 78.6479 96.5541 78.0215L96.3057 77.878C94.7627 76.8211 93.4156 75.7116 91.8726 74.6547C90.7739 73.6887 89.7802 73.1147 89.1784 72.4358L88.3281 71.6133L88.1322 71.6658L87.9363 71.7183C87.9363 71.7183 87.7929 71.9668 87.9888 71.9143C87.9888 71.9143 88.2897 72.2538 88.6432 72.7892C89.245 73.4682 89.8994 74.3431 90.9981 75.3091C92.2018 76.667 93.6014 77.9724 95.197 79.2254C95.9947 79.8518 97.0409 80.6218 98.0346 81.1957C99.2241 81.7172 100.165 82.0952 101.25 82.2247C104.645 90.9776 108.704 98.2921 113.037 104.273C111.952 104.144 110.92 104.21 109.888 104.277L109.248 104.238C107.38 104.319 105.655 104.151 104.126 103.93C101.016 103.293 98.3884 102.107 96.5062 101.351C94.5713 100.399 93.0809 99.5376 92.0347 98.7677L90.4917 97.7107L90.2958 97.7632L90.0999 97.8157C90.0999 97.8157 89.9565 98.0642 90.1524 98.0117C90.1524 98.0117 90.7017 98.4947 91.4995 99.1211C92.3498 99.9436 93.8927 101.001 95.8801 102.148C97.8674 103.296 100.352 104.731 103.906 105.459C105.487 105.876 107.408 105.991 109.329 106.107L109.773 106.198C111.445 106.17 113.17 106.338 114.751 106.755C117.211 109.666 119.514 111.99 121.907 113.87C121.816 114.314 121.921 114.706 121.83 115.15C118.73 112.2 111.936 111.92 107.039 113.232C104.688 113.862 102.834 114.779 101.869 115.878C98.2756 115.79 93.8425 112.567 91.4492 110.688L91.841 110.583C92.2328 110.478 92.5196 109.981 92.6105 109.536C92.7014 109.092 92.4005 108.752 92.152 108.609C87.2746 105.295 83.9785 102.397 81.5812 97.3676L81.7771 97.3151L81.973 97.2626C82.3648 97.1576 82.5082 96.9091 82.6515 96.6606C82.7949 96.4122 82.8858 95.9677 82.7808 95.5757C81.0761 90.7811 80.0501 85.3845 79.8601 79.974Z" fill="#509E2F"/>
<path d="M156.716 147.394C156.572 147.643 156.677 148.035 156.73 148.231C158.105 151.013 158.84 153.757 159.079 156.213C159.25 157.638 159.03 159.167 159.006 160.644C158.929 161.925 158.709 163.454 158.881 164.879C158.895 165.715 159.301 166.447 159.707 167.178C159.865 167.766 160.166 168.105 160.323 168.693C160.901 170.849 161.139 173.306 160.947 176.508C160.832 178.43 160.521 180.403 160.067 182.626C159.407 187.214 158.55 191.854 159.653 195.97C153.863 193.951 147.863 191.147 140.515 187.234C140.267 187.091 140.071 187.143 139.875 187.196C139.679 187.248 139.483 187.301 139.536 187.497C134.921 185.162 130.488 181.939 126.537 178.166L126.341 178.219L126.146 178.271L126.002 178.52C125.859 178.768 125.911 178.964 125.768 179.213C123.609 176.64 121.894 174.159 120.323 171.429C119.511 169.966 118.842 168.255 118.226 166.74L116.536 162.781C116.536 162.781 116.483 162.585 116.287 162.638C116.092 162.69 116.092 162.69 116.144 162.886L115.676 164.272C114.864 162.809 114.3 161.49 113.488 160.027L113.082 159.296C112.06 157.049 111.43 154.697 110.943 152.097C110.337 148.268 110.568 144.425 110.798 140.583L110.941 140.334C111.032 139.89 111.123 139.445 111.266 139.197C111.787 138.007 112.308 136.817 112.882 135.823L113.455 134.829L114.172 133.587C115.635 132.775 117.135 131.323 117.957 130.472C118.1 130.224 118.44 129.923 118.636 129.87C120.671 128.064 122.067 126.22 122.822 124.337C122.138 130.402 122.996 137.524 125.789 145.598C124.877 146.893 124.016 148.384 123.6 149.966C123.132 151.351 122.859 152.685 122.691 154.41C122.342 157.025 122.528 159.285 122.609 161.154L122.714 161.546C122.876 165.284 123.009 167.349 123.009 167.349C123.061 167.545 123.061 167.545 123.257 167.492C123.453 167.44 123.453 167.44 123.401 167.244C123.401 167.244 123.712 165.27 123.746 161.48L123.732 160.643C123.899 158.918 124.014 156.997 124.273 154.827C124.44 153.101 125.038 150.631 126.525 148.342C127.508 151.229 128.74 154.26 130.378 158.022C130.483 158.414 130.784 158.754 130.889 159.146L131.505 160.661C131.505 160.661 131.558 160.857 131.754 160.804C133.287 164.175 134.609 166.761 135.88 169.151C135.32 170.982 135.009 172.955 135.143 175.02C135.171 176.693 135.591 178.261 136.207 179.776C136.718 180.9 137.177 181.827 137.53 182.363C137.884 182.898 138.184 183.238 138.184 183.238L138.433 183.381C138.629 183.329 138.576 183.133 138.576 183.133L138.118 182.205C137.908 181.421 137.502 180.69 137.383 179.461C136.896 176.861 136.853 174.352 137.451 171.881C142.729 181.39 148.394 187.644 155.244 191.27C155.244 191.27 155.44 191.217 155.388 191.021L155.283 190.629C151.28 186.661 147.172 182.3 143.494 177.194C146.394 177.047 149.256 177.54 152.079 178.674C153.269 179.196 154.014 179.626 154.759 180.057L155.753 180.631L155.949 180.578L156.145 180.526C156.145 180.526 156.288 180.277 156.092 180.33C156.092 180.33 155.791 179.99 155.242 179.507C154.693 179.024 153.895 178.398 152.653 177.68C151.162 176.82 149.528 176.207 147.947 175.791C146.17 175.427 144.249 175.311 142.381 175.391C142.381 175.391 141.975 174.66 141.674 174.321C139.095 170.18 136.855 165.739 134.405 160.514C135.241 160.5 136.078 160.486 137.162 160.616C138.691 160.836 140.024 161.109 141.854 161.669C144.324 162.268 146.65 163.115 149.225 164.105C150.663 164.77 152.101 165.435 153.592 166.296L155.082 167.157L155.278 167.104L155.474 167.052L155.421 166.856C155.421 166.856 154.925 166.569 154.074 165.747C152.78 164.833 151.289 163.972 149.799 163.111C147.367 161.872 144.988 160.829 142.466 160.035C140.636 159.475 139.054 159.058 137.526 158.838C136.637 158.656 135.108 158.435 133.488 158.659C133.03 157.732 132.82 156.948 132.361 156.02C129.544 149.423 127.629 143.845 126.407 138.501C126.25 137.913 126.092 137.325 126.13 136.684C129.332 136.877 132.69 137.657 136.35 138.777C139.565 139.806 142.14 140.797 144.519 141.84L151.408 144.825L151.604 144.773L151.8 144.72L151.695 144.328L149.956 143.324C148.962 142.75 147.223 141.745 145.04 140.65C142.857 139.554 140.177 138.172 136.909 136.947C132.949 135.488 129.394 134.76 125.749 134.476C125.339 130.595 125.177 126.857 125.159 122.871L125.054 122.479C126.544 123.34 128.622 124.043 130.295 124.015C131.131 124.001 131.914 123.791 132.698 123.582C134.461 123.109 136.315 122.192 137.83 121.576L138.953 121.065L138.9 120.869C139.855 122.084 141.346 122.945 142.731 123.414C143.176 123.505 143.477 123.844 143.921 123.935C144.365 124.026 144.666 124.366 145.11 124.457C145.607 124.744 146.052 124.835 146.353 125.174C148.889 126.805 150.59 128.45 151.951 130.396C151.559 130.501 151.416 130.749 151.325 131.194C151.234 131.638 151.392 132.226 151.693 132.566C153.747 134.746 155.514 137.423 156.55 140.507C156.76 141.291 158.283 146.974 157.996 147.471L157.604 147.576C157.198 146.845 156.859 147.146 156.716 147.394Z" fill="#509E2F"/>
<path d="M203.628 85.0407C203.341 85.5377 202.767 86.5316 202.376 86.6366L202.428 86.8325L202.677 86.976L202.872 86.9236C201.83 89.3034 199.599 91.1616 197.563 92.9674C196.884 93.5694 196.01 94.2238 195.527 94.7733C195.384 95.0217 195.045 95.3227 194.901 95.5712L194.758 95.8196C194.758 95.8196 194.81 96.0156 195.006 95.9632L196.822 95.6867L196.339 96.2361C194.657 98.5774 192.975 100.919 190.796 102.973L190.169 103.771C186.504 108.114 184.325 110.168 183.986 110.469L183.79 110.522L183.594 110.574L183.699 110.966L185.137 111.631C183.87 112.391 182.657 113.346 181.443 114.301C177.553 117.024 173.859 119.694 169.354 120.902L167.591 121.374C167.199 121.479 167.055 121.727 166.912 121.976C166.769 122.224 166.874 122.616 166.926 122.812C167.227 123.152 167.28 123.348 167.581 123.687L167.633 123.883L165.478 124.461C161.756 125.458 157.681 125.92 152.468 126.056C150.911 124.163 149.119 122.962 147.185 122.01L145.25 121.058C144.805 120.967 144.505 120.628 144.008 120.341C143.21 119.715 142.269 119.337 141.328 118.959C141.863 118.605 142.097 117.912 142.331 117.219L142.279 117.023C143.01 116.617 143.937 116.159 144.668 115.753C146.13 114.941 147.788 114.077 149.499 113.408C149.891 113.303 150.034 113.055 150.125 112.61L149.967 112.022L152.161 110.804C156.814 112.498 161.649 113.303 166.47 113.272C168.142 113.244 169.566 113.073 170.598 113.006L172.021 112.835C172.217 112.782 172.217 112.782 172.165 112.586C172.112 112.39 172.112 112.39 171.916 112.443L170.44 112.418C169.604 112.432 168.271 112.159 166.546 111.991C162.208 111.473 158.209 110.654 154.053 109.247C154.588 108.894 155.749 107.742 157.446 106.237C158.803 105.034 160.108 103.634 160.499 103.529C160.499 103.529 160.695 103.476 160.643 103.28L160.59 103.084C158.159 101.845 156.08 101.142 153.166 100.452C155.503 98.986 157.787 97.3237 160.176 96.0534C165.77 98.1253 171.547 99.3083 177.399 99.2105C179.268 99.13 180.94 99.1021 181.919 98.8396L183.539 98.6157C183.735 98.5632 183.735 98.5632 183.682 98.3672C183.63 98.1712 183.63 98.1712 183.434 98.2237L181.762 98.2517C180.73 98.3181 179.253 98.2936 177.28 97.9821C172.106 97.478 167.218 96.477 162.369 94.8355C167.826 91.6929 173.336 88.7463 178.754 86.2441L178.807 86.4401L178.859 86.6361C182.82 88.0955 186.962 88.6661 191.038 88.2042C192.461 88.0327 193.493 87.9663 194.277 87.7563L195.452 87.4414C195.648 87.3889 195.648 87.3889 195.596 87.1929C195.543 86.9969 195.543 86.9969 195.347 87.0494L194.315 87.1159C193.675 87.0774 192.447 87.1963 191.167 87.1193C187.77 86.9792 184.464 86.3947 181.248 85.3657C189.305 81.7367 197.714 78.6431 206.138 76.386C206.53 76.281 206.673 76.0325 206.568 75.6406C206.463 75.2486 206.162 74.9091 205.574 75.0666C191.665 78.7935 178.568 83.9833 166.427 90.3875C169.113 86.3069 171.956 82.8142 175.636 79.3076C177.136 77.8552 178.298 76.7039 179.172 76.0494L180.333 74.8981C180.529 74.8456 180.477 74.6496 180.477 74.6496L180.228 74.5061L178.819 75.514C177.748 76.2209 176.535 77.1763 174.786 78.4851C169.983 82.5027 165.978 87.1467 162.771 92.4172C158.385 94.8529 154.247 97.4321 150.213 100.403C149.076 100.078 147.992 99.9483 146.907 99.8188C149.016 93.5823 151.922 87.9724 155.912 82.4919C157.451 80.3991 158.756 78.9993 159.382 78.2013L160.687 76.8015C160.687 76.8015 160.83 76.553 160.634 76.6055L160.386 76.462L158.833 77.7184C157.815 78.6213 156.51 80.0211 154.866 81.7219C150.379 86.9154 146.938 92.8788 144.738 99.5597C143.458 99.4827 142.177 99.4057 141.002 99.7207L140.61 99.8256C140.362 99.6821 140.113 99.5387 139.918 99.5912C138.886 99.6576 137.462 99.8291 136.09 100.197C135.111 100.459 134.131 100.721 133.204 101.18C133.386 100.291 133.62 99.598 133.802 98.7091C134.323 97.5192 134.648 96.3818 134.973 95.2444C136.613 90.3938 138.306 85.7392 140.887 81.2667L141.278 81.1617C141.866 81.0042 142.349 80.4548 142.779 79.7093C142.922 79.4609 143.066 79.2124 143.262 79.1599C146.444 75.3663 150.778 72.7346 156.068 71.3173C156.12 71.5133 156.173 71.7093 156.421 71.8528C156.722 72.1923 157.166 72.2833 157.558 72.1783L157.754 72.1258C159.412 71.2614 161.319 70.5405 163.278 70.0156C165.628 69.3857 168.032 68.9518 170.789 69.0533C170.645 69.3018 170.554 69.7463 170.855 70.0857C171.156 70.4252 171.405 70.5687 171.796 70.4637C175.179 69.7674 179.216 69.9459 184.051 70.751C183.712 71.0519 183.87 71.6399 183.922 71.8359C184.027 72.2279 184.524 72.5148 184.916 72.4099C189.278 71.451 193.994 71.0277 198.972 71.5842C199.077 71.9762 199.378 72.3157 200.018 72.3542C203.755 72.1933 207.309 72.9213 212.015 74.8112C210.371 76.5121 208.832 78.6049 207.437 80.4492L206.667 81.4956C206.184 82.045 205.898 82.542 205.415 83.0914C204.932 83.6409 204.45 84.1903 204.02 84.9357C203.914 84.5438 203.771 84.7923 203.628 85.0407Z" fill="#509E2F"/>
<path d="M109.132 155.523L108.869 154.543C108.029 151.407 107.882 148.506 106.936 144.978C106.698 142.521 107.047 139.907 107.841 137.384L107.932 136.939C108.257 135.802 108.673 134.22 109.39 132.978C108.071 133.541 106.948 134.052 105.577 134.42C103.422 134.997 100.966 135.235 98.4578 135.277C96.4079 136.246 94.1622 137.268 92.0598 138.041C92.8616 141.818 92.6315 145.66 91.7611 149.464C90.9291 152.628 89.7962 155.452 88.023 158.238C86.68 160.278 85.3754 161.678 84.41 162.777C83.5881 163.628 82.9095 164.23 82.9095 164.23L82.6611 164.086C82.4652 164.139 82.6086 163.89 82.6086 163.89L83.8607 162.294C84.7735 160.999 85.8298 159.456 86.9769 157.468C88.3582 154.787 89.4386 151.767 89.9313 148.904C90.6583 145.349 90.6017 142.003 90.1008 138.566L88.5861 139.182L88.2205 139.328C81.8847 141.85 75.3732 144.443 69.3535 148.117C68.8184 148.47 68.0873 148.876 67.3562 149.282C67.5279 150.706 67.3078 152.236 67.0352 153.569C66.7626 154.902 66.2415 156.092 65.6296 157.727C64.5875 160.107 63.3879 161.898 62.5276 163.389L62.3842 163.638C61.6673 164.88 60.7545 166.175 59.9325 167.025C59.3064 167.823 58.7713 168.177 58.7713 168.177L58.5228 168.033C58.3269 168.086 58.4703 167.837 58.4703 167.837C58.6662 167.785 59.0055 167.484 59.4357 166.738C59.8658 165.993 60.4394 164.999 61.3906 163.064L61.9116 161.874C62.576 160.435 63.3838 158.749 64.1391 156.866C64.9469 155.179 65.5972 152.904 65.6073 150.591C65.0721 150.944 63.8583 151.9 61.3782 153.614L60.6997 154.216C58.7548 155.578 56.8625 157.135 55.0227 158.888C51.5389 162.343 48.4086 166.332 45.971 170.556L45.7752 170.609L45.5267 170.465L45.4217 170.073C48.5621 163.77 52.8011 158.433 58.0338 153.67C56.61 153.842 55.3821 153.961 54.35 154.027C53.1221 154.146 52.1426 154.409 51.1631 154.671C50.3795 154.881 49.6484 155.287 49.0607 155.445C47.7419 156.008 46.8674 156.662 46.1364 157.068L45.2264 157.669C44.6831 159.585 44.2342 161.549 43.8847 163.553C44.329 163.644 44.5774 163.788 44.8258 163.931C45.0742 164.075 45.1792 164.467 45.0884 164.911C45.0116 166.192 44.6865 167.329 44.6098 168.61C43.9737 171.722 43.586 174.976 42.7015 177.944C48.7643 178.63 54.3687 178.389 59.9065 177.115C60.2983 177.01 60.7951 177.297 61.096 177.636C61.4495 178.172 61.5545 178.564 61.2677 179.061C62.8875 178.837 64.7031 178.56 66.2703 178.141C70.776 176.933 74.8757 174.995 78.5695 172.324L78.9613 172.219C79.3531 172.114 79.85 172.401 80.1509 172.741C80.4518 173.08 80.361 173.525 80.2701 173.969C80.1267 174.218 80.0358 174.662 79.8924 174.911C80.676 174.701 81.9948 174.137 83.3661 173.77C84.2931 173.311 84.8808 173.154 85.2726 173.049C87.3225 172.08 89.3724 171.11 91.1213 169.801C94.5284 167.628 97.687 165.311 100.989 162.746L101.185 162.694L101.237 162.89L101.161 164.17C101.892 163.765 102.374 163.215 102.91 162.862C103.784 162.207 104.463 161.605 105.141 161.003C106.785 159.303 109.342 156.307 109.132 155.523Z" fill="#509E2F"/>
<path d="M49.6744 145.197C49.9754 145.537 49.8845 145.981 49.7936 146.426C48.0546 149.617 46.62 153.047 45.5235 156.657C45.5444 156.634 45.5656 156.61 45.587 156.585C46.3181 156.179 47.1401 155.329 48.6022 154.517C49.921 153.954 51.2398 153.39 52.807 152.97L54.1784 152.603C55.9415 152.13 58.2014 151.945 60.7097 151.903C62.6021 150.346 64.8862 148.683 67.4188 147.165C72.288 144.179 77.654 141.481 83.0726 138.979C80.6934 137.936 78.1709 137.142 75.7009 136.543C72.7866 135.854 70.0298 135.752 68.1617 135.833C66.2936 135.913 64.8698 136.084 63.8378 136.151L61.5778 136.336C61.3819 136.389 61.3819 136.389 61.3294 136.193C61.2769 135.997 61.2769 135.997 61.4728 135.944L63.04 135.525C64.2154 135.21 65.8351 134.986 67.8466 134.657C69.6622 134.38 72.5624 134.233 75.8685 134.818C79.1746 135.402 82.6383 136.575 85.7101 137.852C88.3477 136.725 91.0378 135.795 93.7279 134.864C90.03 134.384 86.122 133.121 82.3574 131.609C81.9131 131.518 81.6122 131.178 81.7031 130.734C81.7939 130.289 82.1332 129.988 82.525 129.883C85.0051 128.169 87.7335 126.597 90.1085 124.491C90.056 124.295 89.8601 124.347 89.8076 124.151C89.8076 124.151 89.5592 124.008 89.7026 123.759C90.1186 122.177 97.1427 118.615 99.336 117.397C95.834 116.865 92.447 114.411 89.3085 112.102C87.8847 112.273 86.6568 112.392 85.2855 112.759L84.8937 112.864C82.0077 113.848 79.5135 114.726 77.2152 115.552C76.2882 116.01 75.3087 116.273 74.3817 116.731L73.9899 116.836C74.2383 116.98 74.3433 117.372 74.2 117.62C74.1091 118.065 73.7698 118.366 73.4305 118.667C68.2604 121.312 63.9405 124.78 60.0266 128.98C60.5234 129.267 60.6285 129.659 60.7335 130.051C60.6426 130.495 60.4992 130.744 60.1599 131.045C54.2729 134.933 51.9928 139.745 49.6744 145.197Z" fill="#509E2F"/>
<path d="M109.436 118.261C109.293 118.51 109.345 118.706 109.345 118.706C109.345 118.706 111.332 119.854 115.097 121.366C113.974 121.877 113.047 122.335 111.924 122.846C109.091 124.025 106.401 124.956 103.462 125.744L101.503 126.269C98.9565 126.951 96.6965 127.136 95.5211 127.451L93.3137 127.833C93.1178 127.885 93.1178 127.885 93.1703 128.081C93.2228 128.277 93.2228 128.277 93.4187 128.225L95.4828 128.092C96.9591 128.116 98.9706 127.787 101.622 127.497C103.438 127.221 105.397 126.696 107.16 126.223L108.531 125.856C107.174 127.06 105.569 128.12 103.715 129.037C102.592 129.548 101.861 129.954 101.326 130.307L100.399 130.766C100.203 130.818 100.255 131.014 100.255 131.014C100.308 131.21 100.308 131.21 100.504 131.158L101.483 130.895L102.267 130.685L104.226 130.16C107.451 128.876 110.519 127.004 112.985 124.452L113.376 124.348C114.16 124.138 119.774 121.583 121.328 120.327C120.978 122.941 119.153 125.531 118.526 126.328C117.757 127.375 116.491 128.134 115.473 129.037C114.598 129.692 113.528 130.399 112.706 131.249C112.51 131.301 112.51 131.301 112.367 131.55C112.066 131.21 111.569 130.923 110.981 131.081L110.785 131.133C109.323 131.945 107.809 132.561 106.241 132.981C104.87 133.349 103.446 133.52 102.022 133.691L101.826 133.744C97.45 133.866 93.0068 132.956 88.7596 131.994C87.6751 131.864 86.7339 131.486 85.6494 131.357C88.182 129.838 90.7145 128.319 92.2534 126.226C94.4184 123.336 97.7345 121.607 101.051 119.878L102.709 119.014C103.101 118.909 103.244 118.66 103.335 118.216C103.282 118.02 103.478 117.967 103.426 117.771L107.735 116.617L110.87 115.777C113.718 115.434 118.486 115.206 120.631 116.942C121.128 117.229 121.481 117.765 121.638 118.353C120.372 119.112 119.106 119.872 117.983 120.382C112.637 118.454 109.436 118.261 109.436 118.261Z" fill="#509E2F"/>
<path d="M146.833 112.862C145.906 113.321 144.979 113.779 143.804 114.094C142.681 114.605 141.362 115.168 140.239 115.679C139.847 115.784 139.56 116.281 139.665 116.673C139.718 116.869 139.823 117.261 140.071 117.405C139.68 117.51 138.949 117.916 137.577 118.283L136.989 118.441C136.206 118.65 135.475 119.056 134.887 119.214C134.495 119.319 134.156 119.62 133.764 119.725L132.589 120.04C129.259 120.932 126.344 120.243 124.787 118.349C124.983 118.297 125.322 117.996 125.217 117.604C125.752 117.25 126.235 116.701 126.574 116.4C127.463 116.582 128.299 116.568 129.188 116.75L129.632 116.841C130.717 116.97 131.997 117.048 133.172 116.733C133.564 116.628 133.956 116.523 134.295 116.222L134.439 115.973C134.439 115.973 134.386 115.777 134.138 115.634C133.197 115.256 132.165 115.322 131.133 115.389C130.492 115.35 130.101 115.455 129.46 115.417C129.264 115.469 129.016 115.326 128.572 115.235C130.517 113.873 132.514 112.708 134.564 111.739C137.335 112.676 139.843 112.635 141.214 112.267L141.998 112.057L142.782 111.847L143.369 111.69C143.565 111.637 143.513 111.441 143.513 111.441C143.46 111.245 143.46 111.245 143.264 111.298L142.624 111.259C142.18 111.168 141.788 111.273 140.952 111.287C139.671 111.21 138.338 110.937 137.201 110.612C139.643 109.537 141.941 108.711 144.044 107.938C146.342 107.112 148.053 106.444 149.424 106.076L152.114 105.145C152.31 105.093 152.257 104.897 152.257 104.897C152.205 104.701 152.205 104.701 152.009 104.753L149.802 105.135C148.626 105.45 147.006 105.674 145.047 106.199L143.48 106.619C140.934 107.301 137.46 108.442 133.699 110.08C131.845 110.997 129.991 111.913 128.386 112.974C129.729 110.933 131.373 109.233 133.213 107.479C134.035 106.629 134.909 105.975 135.444 105.621L136.319 104.967C136.515 104.914 136.462 104.718 136.462 104.718L136.214 104.575L135.287 105.033C134.752 105.387 133.824 105.845 132.754 106.552C129.008 109.026 126.556 112.414 124.692 115.644C124.64 115.448 124.783 115.2 124.678 114.808C124.573 114.416 124.664 113.971 124.611 113.775C124.74 112.69 125.066 111.553 125.443 110.611C126.055 108.977 126.915 107.486 127.776 105.995L127.594 106.884L127.647 107.08L127.895 107.224C128.091 107.171 130.375 105.509 130.571 105.456L130.91 105.155C131.393 104.606 131.928 104.253 132.463 103.899C133.194 103.493 134.121 103.035 135.297 102.72L137.452 102.142L138.823 101.775C138.875 101.971 139.071 101.918 139.124 102.114C139.372 102.258 139.621 102.401 140.013 102.296C140.208 102.244 140.548 101.943 140.691 101.694C140.978 101.198 141.317 100.897 141.905 100.739C144.06 100.162 147.968 101.425 149.549 101.842C152.32 102.78 154.79 103.378 157.351 103.532C156.424 103.991 155.745 104.593 155.067 105.194L154.388 105.796C152.066 108.099 150.226 109.853 147.249 111.28C146.857 111.385 146.766 111.83 146.675 112.274C146.585 112.719 146.833 112.862 146.833 112.862Z" fill="#509E2F"/>
<path d="M207.931 68.9736L207.186 68.5432C203.12 66.6917 199.265 65.6242 195.424 65.3932C195.319 65.0012 195.07 64.8577 194.678 64.9627C190.288 64.2487 185.715 64.4235 180.804 64.8994C180.699 64.5074 180.398 64.1679 179.953 64.0769C175.706 63.1144 171.97 63.2753 167.789 63.3452C167.933 63.0968 168.024 62.6523 167.919 62.2603C167.814 61.8684 167.513 61.5289 166.872 61.4904C163.475 61.3503 160.183 61.6022 156.657 62.5471C155.286 62.9145 153.719 63.3344 152.204 63.9503C152.099 63.5584 151.55 63.0754 150.962 63.2329C150.178 63.4428 149.342 63.4568 148.559 63.6668C145.816 64.4017 143.374 65.476 141.038 66.9424C139.771 67.7018 138.414 68.9056 137.253 70.057C136.627 70.8549 135.753 71.5094 135.126 72.3073C134.84 72.8042 134.5 73.1052 134.214 73.6022C134.018 73.6546 134.07 73.8506 133.874 73.9031C133.626 73.7596 133.378 73.6161 132.986 73.7211C132.79 73.7736 132.594 73.8261 132.451 74.0746C130.338 77.1613 128.67 80.339 127.341 83.2157C127.285 79.87 126.693 76.8777 125.814 74.3824C125.709 73.9904 125.212 73.7035 124.572 73.665C123.847 68.6079 122.051 64.2577 118.426 59.3475C118.125 59.008 117.628 58.721 117.041 58.8785C116.845 58.931 116.453 59.036 116.362 59.4804C113.692 55.7847 111.18 52.6769 108.772 49.9611C108.471 49.6216 107.974 49.3346 107.387 49.4921C106.995 49.5971 106.852 49.8455 106.512 50.1465C106.369 50.395 106.082 50.8919 105.939 51.1404C103.255 46.6082 99.9826 42.2335 96.6199 38.3033C96.319 37.9638 95.8222 37.6768 95.4304 37.7818C95.0386 37.8868 94.8952 38.1352 94.7518 38.3837L94.6084 38.6322C92.3444 35.6679 89.741 33.0045 86.7984 30.6422C86.55 30.4987 86.1057 30.4077 85.7139 30.5127C85.518 30.5652 85.3221 30.6177 85.1787 30.8661C79.8309 37.5505 73.8854 46.7056 74.0169 57.3832C71.2743 58.1181 71.4825 67.5148 71.8017 71.8405C71.5533 71.697 71.3049 71.5535 70.9131 71.6584C70.3254 71.8159 70.0386 72.3129 70.0003 72.9533C69.956 79.0568 70.8387 84.7019 72.5575 90.3329L72.1657 90.4379C71.7739 90.5429 71.6305 90.7914 71.2912 91.0923C71.1478 91.3408 71.0569 91.7853 71.3579 92.1248C73.7169 97.7943 77.4189 101.424 81.9045 104.843C81.7086 104.895 81.5652 105.144 81.3693 105.196C81.1734 105.249 81.2259 105.445 81.2259 105.445C79.8021 105.616 78.3783 105.788 76.8111 106.208C76.0275 106.418 75.2439 106.628 74.5128 107.034C73.5333 107.296 72.6063 107.755 71.4309 108.069C69.0801 108.699 66.7293 109.329 64.9804 110.638C64.2493 111.044 63.5707 111.646 63.4798 112.09C63.3364 112.339 63.3889 112.535 63.6899 112.874C62.1752 113.49 55.7671 118.568 55.2319 118.922C52.661 121.081 50.4435 123.776 48.4219 126.418L48.2786 126.666C48.2786 126.666 48.1352 126.915 48.3311 126.862L48.5795 127.006L49.9508 126.638L49.4681 127.188C47.2365 129.046 45.4492 130.995 43.8194 133.533C42.3856 136.018 41.0042 138.698 39.8854 142.359C39.742 142.607 39.847 142.999 39.9521 143.391C37.0076 149.642 35.0952 155.826 34.2148 161.943C34.1239 162.388 34.2289 162.78 34.4773 162.923C34.7258 163.067 34.9742 163.21 35.1701 163.158C34.3522 167.158 33.7828 171.301 33.6577 175.536C33.7102 175.732 33.7627 175.928 33.7627 175.928C33.7627 175.928 33.7627 175.928 33.9061 175.68C34.102 175.627 35.5783 175.652 40.5567 176.208L41.001 176.299C44.0062 176.544 47.1547 176.541 50.1457 175.949C50.0023 176.198 50.0549 176.394 50.3558 176.733C50.6567 177.073 50.9577 177.412 51.3495 177.307C54.2496 177.16 57.0972 176.817 59.8399 176.083C63.1702 175.19 66.1995 173.958 69.2673 172.086C69.1764 172.531 69.2814 172.923 69.3339 173.119C69.6349 173.458 70.0792 173.549 70.471 173.444C78.5029 171.292 85.0827 167.638 90.7981 162.326C91.099 162.665 91.5958 162.952 92.1835 162.795C95.3563 161.315 99.6903 158.683 102.128 154.459C103.479 158.718 105.442 161.343 107.272 161.903C109.789 168.16 113.323 173.515 117.574 177.627C117.875 177.967 118.32 178.058 118.711 177.953C119.103 177.848 119.442 177.547 119.586 177.298C122.294 180.354 126.493 184.27 132.623 185.988C132.819 185.936 133.067 186.079 133.067 186.079C133.263 186.027 133.459 185.974 133.602 185.726C139.12 189.079 145.564 191.973 152.635 194.07C152.74 194.462 153.184 194.553 153.576 194.448C153.772 194.395 153.916 194.147 153.863 193.951C154.006 193.702 154.15 193.454 154.241 193.009C154.188 192.813 154.136 192.617 153.94 192.67C153.873 191.637 154.055 190.748 153.988 189.716C154.089 186.958 153.942 184.057 154.434 181.194C154.616 180.305 154.654 179.665 154.836 178.776C155.276 175.717 155.86 172.41 155.856 169.26C155.827 167.587 155.603 165.967 155.236 164.595C154.644 161.603 154.119 159.643 154.363 156.637C154.541 152.598 153.686 148.626 151.996 144.668C152.192 144.615 152.192 144.615 152.335 144.367C152.674 144.066 152.961 143.569 152.856 143.177C152.614 137.57 150.804 132.384 147.231 127.669C147.427 127.617 147.766 127.316 147.91 127.068C148.053 126.819 147.948 126.427 147.896 126.231C147.49 125.5 147.031 124.572 146.429 123.893C150.127 124.373 154.007 123.963 158.317 122.809C159.688 122.441 161.059 122.074 162.378 121.51C162.77 121.405 163.109 121.104 163.2 120.66C163.291 120.215 163.238 120.019 162.937 119.68C162.637 119.341 162.336 119.001 162.035 118.662C170.21 116.261 176.097 112.373 180.871 106.682C181.015 106.434 181.158 106.185 181.053 105.794C181.001 105.598 180.895 105.206 180.647 105.062C185.397 100.849 189.063 96.5055 191.93 91.5359C192.074 91.2875 192.165 90.843 191.916 90.6995C194.148 88.8412 196.064 85.807 197.747 83.4657L198.659 82.1709C198.999 81.8699 198.894 81.4779 198.789 81.0859C199.897 79.7386 200.81 78.4437 201.723 77.1488C202.153 76.4034 202.779 75.6055 203.262 75.056C203.888 74.2581 204.71 73.4077 205.336 72.6098C206.158 71.7594 207.123 70.6605 207.893 69.6141C207.984 69.1696 207.984 69.1696 207.931 68.9736ZM196.175 80.7359C195.889 81.2329 195.315 82.2268 194.923 82.3318L194.976 82.5277L195.224 82.6712L195.42 82.6188C194.378 84.9985 192.146 86.8568 190.111 88.6626C189.432 89.2646 188.558 89.919 188.075 90.4684C187.931 90.7169 187.592 91.0179 187.449 91.2663L187.305 91.5148C187.305 91.5148 187.358 91.7108 187.554 91.6583L189.369 91.3819L188.887 91.9313C187.204 94.2726 185.522 96.6139 183.343 98.6681L182.717 99.4661C179.052 103.809 176.872 105.863 176.533 106.164C176.533 106.164 176.533 106.164 176.337 106.217L176.141 106.269C176.141 106.269 176.194 106.465 176.246 106.661L177.684 107.326C176.418 108.086 175.204 109.041 173.991 109.997C170.101 112.719 166.407 115.389 161.901 116.597C161.314 116.754 160.726 116.912 160.138 117.069C159.746 117.174 159.603 117.423 159.46 117.671C159.316 117.92 159.421 118.312 159.474 118.507C159.775 118.847 159.827 119.043 160.128 119.382L160.181 119.578C159.397 119.788 158.809 119.946 158.026 120.156C154.304 121.153 150.228 121.615 145.016 121.751C143.458 119.858 141.667 118.658 139.732 117.706L137.797 116.754C137.353 116.663 137.052 116.323 136.555 116.036C135.758 115.41 134.816 115.032 133.875 114.654C134.41 114.3 134.645 113.607 134.879 112.914L134.826 112.718C135.558 112.312 136.485 111.854 137.216 111.448C138.678 110.636 140.336 109.772 142.046 109.103C142.438 108.998 142.582 108.75 142.672 108.305C142.62 108.11 142.567 107.914 142.515 107.718C143.246 107.312 143.977 106.906 144.708 106.5C149.361 108.194 154.196 108.999 159.017 108.967C160.689 108.939 162.113 108.768 163.145 108.701L164.569 108.53C164.765 108.477 164.765 108.477 164.712 108.281C164.66 108.085 164.66 108.085 164.464 108.138L162.988 108.113C162.152 108.127 160.819 107.854 159.094 107.686C154.756 107.168 150.757 106.349 146.601 104.942C147.136 104.589 148.297 103.437 149.993 101.933C151.351 100.729 152.655 99.3289 153.047 99.224C153.047 99.224 153.243 99.1715 153.19 98.9755L153.138 98.7795C150.706 97.5406 148.628 96.8371 145.714 96.1475C148.05 94.6812 150.335 93.0189 152.724 91.7486C158.318 93.8205 164.094 95.0035 169.947 94.9057C171.815 94.8252 173.487 94.7973 174.467 94.5348L176.087 94.3108C176.282 94.2584 176.282 94.2584 176.23 94.0624C176.177 93.8664 176.177 93.8664 175.982 93.9189L174.309 93.9468C173.277 94.0133 171.801 93.9888 169.828 93.6773C164.654 93.1732 159.766 92.1722 154.917 90.5307C160.374 87.3881 165.883 84.4414 171.302 81.9393C171.302 81.9393 171.302 81.9393 171.354 82.1353L171.407 82.3313C175.367 83.7907 179.51 84.3612 183.585 83.8994C185.009 83.7279 186.041 83.6615 186.825 83.4515L188 83.1366C188.196 83.0841 188.196 83.084 188.143 82.8881C188.091 82.6921 188.091 82.6921 187.895 82.7446L186.863 82.8111C186.223 82.7725 184.995 82.8915 183.714 82.8145C180.317 82.6744 177.011 82.0899 173.796 81.0609C181.852 77.4319 190.262 74.3383 198.686 72.0812C199.077 71.9762 199.221 71.7277 199.116 71.3357C199.011 70.9438 198.71 70.6043 198.122 70.7618C184.213 74.4887 171.116 79.6785 158.974 86.0827C161.66 82.0021 164.504 78.5094 168.183 75.0028C169.684 73.5504 170.845 72.3991 171.72 71.7446L172.881 70.5932C173.077 70.5407 173.024 70.3448 173.024 70.3448L172.776 70.2013L171.366 71.2092C170.296 71.9161 169.082 72.8715 167.333 74.1803C162.531 78.1979 158.526 82.8419 155.319 88.1124C150.932 90.5481 146.794 93.1273 142.761 96.0985C141.624 95.773 140.54 95.6435 139.455 95.514C141.563 89.2775 144.469 83.6675 148.46 78.1871C149.999 76.0943 151.304 74.6944 151.93 73.8965L153.234 72.4967C153.234 72.4967 153.378 72.2482 153.182 72.3007L152.933 72.1572L151.38 73.4136C150.362 74.3165 149.058 75.7163 147.414 77.4171C142.926 82.6106 139.485 88.574 137.286 95.2549C136.005 95.1779 134.725 95.1009 133.55 95.4158C133.354 95.4683 133.354 95.4683 133.158 95.5208C132.909 95.3773 132.661 95.2338 132.465 95.2863C131.433 95.3528 130.009 95.5243 128.638 95.8917C127.659 96.1542 126.679 96.4166 125.752 96.875C125.934 95.9861 126.168 95.2932 126.35 94.4043C126.871 93.2144 127.196 92.077 127.521 90.9396C129.161 86.089 130.853 81.4344 133.434 76.9619C133.63 76.9094 133.63 76.9094 133.826 76.8569C134.414 76.6994 134.896 76.15 135.326 75.4045C135.47 75.1561 135.613 74.9076 135.809 74.8551C138.992 71.0615 143.326 68.4298 148.615 67.0125C148.668 67.2085 148.72 67.4045 148.969 67.548C149.27 67.8874 149.714 67.9785 150.106 67.8735C150.302 67.821 150.302 67.821 150.302 67.821C151.96 66.9566 153.866 66.2357 155.825 65.7108C158.176 65.0809 160.579 64.647 163.336 64.7485C163.193 64.997 163.102 65.4415 163.403 65.7809C163.704 66.1204 163.952 66.2639 164.344 66.1589C167.727 65.4626 171.764 65.6411 176.599 66.4462C176.26 66.7471 176.417 67.3351 176.47 67.5311C176.575 67.923 177.072 68.21 177.463 68.1051C181.826 67.1462 186.541 66.7229 191.52 67.2794C191.625 67.6714 191.926 68.0109 192.566 68.0494C196.302 67.8885 199.857 68.6165 204.563 70.5064C202.919 72.2073 201.38 74.3001 199.984 76.1444L199.215 77.1908C198.732 77.7402 198.445 78.2372 197.963 78.7866C197.48 79.3361 196.997 79.8855 196.567 80.6309C196.462 80.239 196.319 80.4874 196.175 80.7359ZM149.263 143.089C149.12 143.338 149.225 143.73 149.277 143.926C150.653 146.708 151.388 149.452 151.626 151.909C151.798 153.333 151.578 154.862 151.554 156.339C151.477 157.62 151.257 159.149 151.429 160.574C151.443 161.41 151.849 162.142 152.255 162.873C152.412 163.461 152.713 163.801 152.871 164.389C153.448 166.544 153.687 169.001 153.495 172.203C153.38 174.125 153.069 176.099 152.615 178.321C151.954 182.909 151.098 187.55 152.201 191.665C146.411 189.646 140.41 186.842 133.063 182.93C132.814 182.786 132.619 182.839 132.423 182.891C132.227 182.944 132.031 182.996 132.083 183.192C127.468 180.858 123.035 177.634 119.085 173.862C119.085 173.862 119.085 173.862 118.889 173.914C118.889 173.914 118.889 173.914 118.693 173.967L118.55 174.215C118.406 174.464 118.459 174.659 118.315 174.908C116.156 172.336 114.442 169.854 112.87 167.124C112.059 165.662 111.39 163.95 110.774 162.435C110.211 161.115 109.647 159.796 109.084 158.477C109.084 158.477 109.031 158.281 108.835 158.333C108.639 158.386 108.639 158.386 108.692 158.582L108.223 159.967C107.411 158.505 106.848 157.185 106.036 155.722L105.63 154.991C104.608 152.744 103.978 150.392 103.491 147.792C102.885 143.963 103.115 140.121 103.345 136.278L103.489 136.029C103.58 135.585 103.67 135.14 103.814 134.892C104.335 133.702 104.856 132.512 105.429 131.518C105.573 131.27 105.716 131.021 106.003 130.524C106.29 130.027 106.577 129.53 106.72 129.282C108.182 128.47 109.683 127.018 110.505 126.167C110.648 125.919 110.987 125.618 111.183 125.565C113.219 123.76 114.614 121.915 115.37 120.032C114.685 126.097 115.544 133.219 118.337 141.293C117.424 142.588 116.564 144.079 116.148 145.661C115.679 147.047 115.407 148.38 115.239 150.105C114.89 152.72 115.076 154.981 115.156 156.849L115.261 157.241C115.423 160.979 115.556 163.044 115.556 163.044C115.609 163.24 115.609 163.24 115.805 163.187C116.001 163.135 116.001 163.135 115.948 162.939C115.948 162.939 116.259 160.965 116.293 157.175L116.279 156.338C116.447 154.613 116.562 152.692 116.82 150.522C116.988 148.797 117.586 146.326 119.072 144.037C120.056 146.924 121.288 149.955 122.926 153.717C123.031 154.109 123.332 154.449 123.437 154.841L124.053 156.356C124.053 156.356 124.105 156.552 124.301 156.5C125.834 159.87 127.157 162.456 128.427 164.846C127.868 166.677 127.557 168.651 127.69 170.716C127.719 172.388 128.139 173.956 128.755 175.472C129.266 176.595 129.724 177.522 130.078 178.058C130.431 178.593 130.732 178.933 130.732 178.933L130.981 179.076C131.176 179.024 131.124 178.828 131.124 178.828L130.665 177.9C130.455 177.117 130.049 176.385 129.93 175.157C129.443 172.556 129.401 170.047 129.999 167.576C135.276 177.085 140.941 183.339 147.792 186.965C147.792 186.965 147.988 186.913 147.935 186.717C147.935 186.717 147.883 186.521 147.83 186.325C143.827 182.356 139.719 177.995 136.042 172.889C138.942 172.742 141.803 173.236 144.627 174.37C145.816 174.891 146.562 175.322 147.307 175.752L148.301 176.326L148.497 176.273C148.497 176.273 148.497 176.273 148.692 176.221C148.692 176.221 148.836 175.973 148.64 176.025C148.64 176.025 148.339 175.686 147.79 175.203C147.24 174.72 146.443 174.093 145.2 173.376C143.71 172.515 142.076 171.902 140.495 171.486C138.717 171.122 136.797 171.006 134.929 171.087C134.929 171.087 134.523 170.355 134.222 170.016C131.643 165.875 129.403 161.434 126.953 156.209C127.789 156.195 128.625 156.181 129.71 156.311C131.239 156.531 132.571 156.804 134.401 157.364C136.871 157.963 139.198 158.81 141.773 159.8C143.211 160.465 144.649 161.13 146.139 161.991L147.63 162.852C147.63 162.852 147.63 162.852 147.826 162.8L148.022 162.747L147.969 162.551C147.969 162.551 147.472 162.264 146.622 161.442C145.327 160.528 143.837 159.667 142.346 158.806C139.915 157.567 137.536 156.524 135.013 155.73C133.183 155.17 131.602 154.753 130.073 154.533C129.185 154.351 127.656 154.13 126.036 154.354C125.578 153.427 125.367 152.643 124.909 151.716C122.091 145.118 120.177 139.54 118.955 134.196C118.797 133.608 118.64 133.02 118.678 132.379C121.879 132.572 125.238 133.353 128.897 134.473C132.113 135.502 134.688 136.492 137.067 137.535L143.956 140.52C143.956 140.52 143.956 140.52 144.152 140.468L144.347 140.415C144.347 140.415 144.295 140.219 144.242 140.023L142.504 139.019C141.51 138.445 139.771 137.441 137.588 136.345C135.405 135.25 132.724 133.867 129.457 132.642C125.496 131.183 121.942 130.455 118.296 130.171C117.886 126.29 117.725 122.552 117.706 118.566L117.601 118.174C119.092 119.035 121.17 119.739 122.842 119.711C123.678 119.697 124.462 119.487 125.246 119.277C127.009 118.804 128.863 117.887 130.377 117.271L131.5 116.761L131.448 116.565C132.403 117.779 133.894 118.64 135.279 119.109C135.723 119.2 136.024 119.539 136.469 119.63C136.913 119.721 137.214 120.061 137.658 120.152C138.155 120.439 138.599 120.53 138.9 120.869C141.437 122.5 143.137 124.145 144.499 126.091C144.107 126.196 143.963 126.445 143.873 126.889C143.782 127.333 143.939 127.921 144.24 128.261C146.294 130.441 148.061 133.119 149.097 136.202C149.308 136.986 150.83 142.669 150.544 143.166C150.348 143.219 150.348 143.219 150.152 143.271C149.746 142.54 149.407 142.841 149.263 143.089ZM101.417 150.238L101.679 151.218C101.89 152.002 99.3328 154.998 97.6889 156.699C97.0103 157.3 96.3317 157.902 95.4572 158.557C94.922 158.91 94.4394 159.46 93.7083 159.866L93.785 158.585L93.7325 158.389C93.7325 158.389 93.7325 158.389 93.5366 158.441C90.2346 161.006 87.076 163.323 83.6689 165.496C81.92 166.805 79.8701 167.775 77.8202 168.744C77.4284 168.849 76.8407 169.007 75.9138 169.465C74.5424 169.832 73.2237 170.396 72.4401 170.606C72.5834 170.357 72.6743 169.913 72.8177 169.664C72.9086 169.22 72.9994 168.775 72.6985 168.436C72.3976 168.097 71.9007 167.81 71.5089 167.915C71.313 167.967 71.313 167.967 71.1172 168.02C67.4233 170.69 63.3236 172.628 58.8179 173.836C57.2507 174.256 55.4351 174.532 53.8154 174.756C54.1021 174.259 53.9971 173.867 53.6436 173.332C53.3427 172.992 52.8459 172.705 52.4541 172.81C46.9163 174.084 41.3119 174.325 35.2491 173.639C36.1336 170.672 36.5213 167.417 37.1574 164.306C37.2341 163.025 37.5592 161.887 37.636 160.606C37.7268 160.162 37.6218 159.77 37.3734 159.626C37.125 159.483 36.8766 159.339 36.4323 159.248C37.5086 153.078 39.526 147.287 42.3413 142.121C42.4321 141.677 42.523 141.232 42.2221 140.893C44.5404 135.44 46.8205 130.628 52.7075 126.74C53.0468 126.439 53.1902 126.191 53.2811 125.746C53.1761 125.354 53.071 124.962 52.5742 124.675C56.4881 120.476 60.808 117.007 65.9781 114.362C66.3174 114.061 66.6567 113.76 66.7476 113.315C66.891 113.067 66.7859 112.675 66.5375 112.531C66.7334 112.479 66.7334 112.479 66.9293 112.427C67.8563 111.968 68.8358 111.706 69.7628 111.247C72.0611 110.421 74.5553 109.543 77.4413 108.56L77.8331 108.455C79.2044 108.087 80.4323 107.968 81.8561 107.797C84.9946 110.107 88.3816 112.56 91.8836 113.092C89.6903 114.31 82.6662 117.872 82.2502 119.454C82.1068 119.703 82.3552 119.846 82.3552 119.846C82.4077 120.042 82.6036 119.99 82.6561 120.186C80.2811 122.292 77.5527 123.864 75.0726 125.579C74.6808 125.684 74.3415 125.985 74.2507 126.429C74.1598 126.873 74.4607 127.213 74.905 127.304C78.6696 128.816 82.5776 130.079 86.2755 130.559C83.5854 131.49 80.8953 132.421 78.2577 133.548C75.1859 132.27 71.7222 131.098 68.4161 130.513C65.11 129.928 62.2099 130.075 60.3942 130.352C58.3827 130.681 56.763 130.905 55.5876 131.22L54.0204 131.64C53.8245 131.692 53.8245 131.692 53.877 131.888C53.9295 132.084 53.9295 132.084 54.1254 132.032L56.3854 131.846C57.4174 131.78 58.8412 131.608 60.7093 131.528C62.5774 131.447 65.3342 131.549 68.2485 132.238C70.7185 132.837 73.241 133.631 75.6202 134.674C70.2016 137.177 64.8356 139.875 59.9664 142.86C57.4338 144.379 55.1497 146.041 53.2573 147.598C50.749 147.64 48.4891 147.826 46.726 148.298C46.3342 148.403 45.7464 148.561 45.3546 148.666C43.7874 149.085 42.4686 149.649 41.1499 150.212C39.6877 151.024 38.8657 151.875 38.1346 152.281C37.652 152.83 37.3127 153.131 37.3127 153.131C37.3127 153.131 37.1693 153.379 37.3652 153.327L37.6136 153.47L38.684 152.764C39.4151 152.358 40.2895 151.703 41.6083 151.14C42.196 150.982 42.9271 150.576 43.7107 150.366C44.6902 150.104 45.6697 149.841 46.8976 149.722C47.9297 149.656 49.1576 149.537 50.5814 149.366C45.3487 154.129 41.1097 159.466 37.9693 165.768C37.9693 165.768 38.0218 165.964 38.0743 166.16L38.3228 166.304L38.5186 166.251C40.9562 162.027 44.0865 158.038 47.5703 154.584C49.4101 152.83 51.3024 151.273 53.2473 149.912L53.9258 149.31C56.4059 147.595 57.6197 146.639 58.1549 146.286C58.1448 148.599 57.4945 150.874 56.6867 152.561C55.9314 154.444 55.1236 156.131 54.4592 157.569L53.9382 158.759C52.987 160.694 52.4135 161.688 51.9833 162.434C51.5531 163.179 51.2138 163.48 51.0179 163.532C51.0179 163.532 50.8745 163.781 51.0704 163.728L51.3189 163.872C51.3189 163.872 51.8541 163.518 52.4801 162.721C53.3021 161.87 54.2149 160.575 54.9319 159.333L55.0752 159.084C55.9355 157.594 57.1351 155.802 58.1772 153.422C58.7891 151.788 59.3102 150.598 59.5828 149.264C59.8554 147.931 60.0755 146.402 59.9038 144.977C60.6349 144.571 61.366 144.165 61.9012 143.812C68.0366 140.067 74.6831 137.446 81.1337 134.877L82.6484 134.262C83.1493 137.698 83.2059 141.044 82.479 144.6C81.9862 147.462 80.9058 150.483 79.5245 153.163C78.3774 155.151 77.3211 156.695 76.4083 157.989L75.1562 159.585C75.1562 159.585 75.0128 159.834 75.2087 159.781L75.4571 159.925C75.4571 159.925 76.1357 159.323 76.9576 158.472C77.923 157.374 79.2276 155.974 80.5706 153.933C82.3438 151.148 83.4767 148.323 84.3087 145.16C85.1791 141.355 85.4092 137.513 84.6074 133.737C86.7098 132.963 88.9555 131.941 91.0054 130.972C93.5138 130.93 95.9696 130.692 98.1245 130.115C99.4958 129.747 100.619 129.236 101.937 128.673C101.221 129.915 100.805 131.497 100.479 132.635L100.389 133.079C99.5949 135.602 99.2456 138.217 99.4839 140.673C100.429 144.201 100.577 147.102 101.417 150.238ZM72.4077 75.6692C72.6561 75.8126 73.1004 75.9036 73.2963 75.8512C73.884 75.6937 74.1708 75.1967 74.0133 74.6088C73.8274 72.348 73.6941 70.2831 73.6132 68.4143C73.5466 67.3819 74.2836 61.5129 74.3603 60.232C74.6087 60.3755 74.8046 60.323 75.0005 60.2705C75.3923 60.1655 75.875 59.6161 75.77 59.2241C75.5476 48.9909 81.4931 39.8358 86.0189 34.0019C88.9615 36.3643 91.369 39.0801 93.6855 42.2404C93.9865 42.5799 94.4833 42.8668 94.8751 42.7619C95.2669 42.6569 95.4103 42.4084 95.7496 42.1074L95.893 41.8589C99.5566 46.1287 102.633 50.5559 105.226 55.5325C105.527 55.872 105.828 56.2115 106.415 56.054C106.807 55.949 107.342 55.5956 107.433 55.1511C107.524 54.7066 107.615 54.2622 107.849 53.5692C110.663 57.0165 113.228 60.3203 115.348 63.5331C115.649 63.8726 116.146 64.1596 116.734 64.0021C116.93 63.9496 117.126 63.8971 117.269 63.6486C120.45 68.4678 122.102 73.0664 122.239 78.281C122.345 78.673 122.397 78.869 122.645 79.0125C122.894 79.156 123.338 79.247 123.73 79.142C123.926 79.0895 123.926 79.0895 124.122 79.037C125.305 85.0215 124.1 92.2764 123.062 97.8059C123.062 97.8059 123.114 98.0019 123.167 98.1979C122.632 98.5514 122.292 98.8523 121.953 99.1533C121.757 99.2058 121.561 99.2583 121.561 99.2583C118.819 99.9932 115.989 104.322 115.067 107.93L114.164 106.912C111.403 103.661 108.694 100.605 106.325 97.2491C108.543 94.5544 110.211 91.3767 111.487 88.304C112.477 85.7282 113.218 83.0089 113.515 80.1987C113.773 78.0288 113.745 76.356 113.769 74.8791C113.65 73.6507 113.688 73.0103 113.688 73.0103C113.636 72.8143 113.636 72.8143 113.44 72.8668C113.244 72.9193 113.244 72.9193 113.297 73.1153L113.129 74.8406C112.947 75.7295 112.832 77.6509 112.378 79.8732C111.833 82.5399 110.843 85.1157 109.801 87.4955C108.472 90.3722 106.895 93.1054 105.017 95.4992C101.731 90.2881 98.6789 84.384 95.8614 77.787C95.1929 76.0756 94.5244 74.3642 93.8558 72.6529C95.3039 71.0045 96.6994 69.1602 97.6506 67.2249C98.6018 65.2896 99.357 63.4068 99.668 61.4329C100.084 59.8511 100.161 58.5702 100.342 57.6813L100.419 56.4003C100.367 56.2044 100.367 56.2044 100.171 56.2569C99.9749 56.3093 99.9749 56.3093 100.027 56.5053L99.7548 57.8387C99.5205 58.5317 99.2479 59.865 98.5835 61.3034C97.2163 64.8206 95.3523 68.0508 93.1348 70.7455C92.0462 67.4662 86.2495 50.5345 86.5381 41.4248C86.5381 41.4248 86.4856 41.2288 86.4331 41.0328L86.1847 40.8893C86.1847 40.8893 85.9888 40.9418 86.0413 41.1378C84.5449 45.7399 85.6618 50.692 86.8697 55.1997C86.8697 55.1997 87.7099 58.3354 87.8674 58.9234C85.5933 58.2724 83.9978 57.0195 83.095 56.001C82.4932 55.3221 82.1397 54.7866 81.8388 54.4471L81.4328 53.7157L81.1844 53.5722C80.9885 53.6247 81.041 53.8206 81.041 53.8206C81.041 53.8206 81.0935 54.0166 81.2511 54.6046C81.4086 55.1925 81.7621 55.728 82.2205 56.6554C82.9274 57.7264 83.7777 58.5488 84.8239 59.3188C85.8701 60.0887 87.0596 60.6102 88.3926 60.8832C88.9702 63.0391 90.6506 69.3106 93.0763 76.0126C92.632 75.9216 92.1352 75.6346 91.6384 75.3476C90.6972 74.9696 89.8995 74.3431 89.1017 73.7167L88.8533 73.5732C87.3103 72.5162 85.9632 71.4068 84.4202 70.3499C83.3215 69.3839 82.3279 68.8099 81.726 68.131L80.8757 67.3085L80.6798 67.361C80.6798 67.361 80.6798 67.361 80.4839 67.4135C80.4839 67.4135 80.3405 67.662 80.5364 67.6095C80.5364 67.6095 80.8374 67.949 81.1908 68.4844C81.7927 69.1634 82.447 70.0383 83.5457 71.0043C84.7494 72.3622 86.149 73.6676 87.7446 74.9205C88.5423 75.547 89.5885 76.317 90.5822 76.8909C91.7717 77.4124 92.7129 77.7904 93.7974 77.9199C97.1925 86.6728 101.252 93.9873 105.584 99.9684C104.5 99.8389 103.468 99.9053 102.436 99.9718L101.796 99.9333C99.9274 100.014 98.2026 99.8457 96.6738 99.6252C93.5636 98.9882 90.936 97.8017 89.0538 97.0458C87.119 96.0938 85.6285 95.2328 84.5823 94.4629L83.0393 93.4059L82.8434 93.4584C82.8434 93.4584 82.8434 93.4584 82.6475 93.5109C82.6475 93.5109 82.5041 93.7594 82.7 93.7069C82.7 93.7069 83.2493 94.1899 84.0471 94.8163C84.8974 95.6388 86.4404 96.6957 88.4277 97.8437C90.415 98.9916 92.8992 100.427 96.4537 101.155C98.035 101.571 99.9557 101.687 101.876 101.802L102.321 101.893C103.993 101.865 105.718 102.033 107.299 102.45C109.759 105.362 112.061 107.685 114.455 109.565C114.364 110.009 114.469 110.401 114.378 110.846C111.278 107.895 104.484 107.615 99.5863 108.928C97.2355 109.557 95.3815 110.474 94.4161 111.573C90.8232 111.486 86.3901 108.262 83.9969 106.383L84.3886 106.278C84.7804 106.173 85.0672 105.676 85.1581 105.231C85.249 104.787 84.9481 104.448 84.6996 104.304C79.8222 100.99 76.5262 98.0919 74.1288 93.0628L74.3247 93.0103L74.5206 92.9578C74.9124 92.8528 75.0558 92.6043 75.1992 92.3558C75.3425 92.1074 75.4334 91.6629 75.3284 91.2709C73.6237 86.4763 72.5977 81.0797 72.4077 75.6692ZM139.381 108.557C138.454 109.016 137.527 109.474 136.351 109.789C135.228 110.3 133.909 110.864 132.787 111.375C132.395 111.479 132.108 111.976 132.213 112.368C132.266 112.564 132.371 112.956 132.619 113.1C132.227 113.205 131.496 113.611 130.125 113.978L129.537 114.136C128.754 114.346 128.022 114.752 127.435 114.909C127.043 115.014 126.704 115.315 126.312 115.42C125.92 115.525 125.528 115.63 125.136 115.735C121.806 116.627 118.892 115.938 117.335 114.044C117.531 113.992 117.87 113.691 117.765 113.299C118.3 112.946 118.783 112.396 119.122 112.095C120.011 112.277 120.847 112.263 121.735 112.445L122.18 112.536C123.264 112.666 124.545 112.743 125.72 112.428C126.112 112.323 126.504 112.218 126.843 111.917L126.986 111.668C126.986 111.668 126.934 111.472 126.685 111.329C125.744 110.951 124.712 111.017 123.68 111.084C123.04 111.045 122.648 111.15 122.008 111.112C121.812 111.164 121.564 111.021 121.119 110.93C123.064 109.568 125.062 108.403 127.111 107.434C129.882 108.372 132.391 108.33 133.762 107.962C134.154 107.857 134.35 107.805 134.546 107.752C134.937 107.647 135.133 107.595 135.329 107.542C135.721 107.437 135.917 107.385 135.917 107.385C136.113 107.332 136.06 107.136 136.06 107.136C136.008 106.94 136.008 106.94 135.812 106.993L135.172 106.954C134.727 106.863 134.336 106.968 133.499 106.982C132.219 106.905 130.886 106.632 129.749 106.307C132.191 105.232 134.489 104.407 136.591 103.633C138.89 102.807 140.6 102.139 141.972 101.772L144.662 100.841C144.858 100.788 144.805 100.592 144.805 100.592C144.753 100.396 144.753 100.396 144.557 100.449L142.349 100.83C141.174 101.145 139.554 101.369 137.595 101.894C137.007 102.051 136.616 102.156 136.028 102.314C133.481 102.996 130.007 104.137 126.247 105.775C124.393 106.692 122.539 107.609 120.933 108.669C122.276 106.629 123.92 104.928 125.76 103.175C126.582 102.324 127.457 101.67 127.992 101.316L128.866 100.662C129.062 100.609 129.01 100.413 129.01 100.413L128.761 100.27L127.834 100.728C127.299 101.082 126.372 101.54 125.302 102.247C121.555 104.721 119.104 108.109 117.24 111.339C117.187 111.143 117.331 110.895 117.226 110.503C117.12 110.111 117.211 109.666 117.159 109.47C117.288 108.385 117.613 107.248 117.991 106.307C118.603 104.672 119.463 103.181 120.323 101.691L120.142 102.579L120.194 102.775L120.443 102.919C120.638 102.866 122.923 101.204 123.119 101.152L123.458 100.851C123.94 100.301 124.476 99.9478 125.011 99.5943C125.742 99.1884 126.669 98.7299 127.844 98.415C128.628 98.205 129.216 98.0475 129.999 97.8376C130.391 97.7326 130.979 97.5751 131.371 97.4701C131.423 97.6661 131.619 97.6136 131.671 97.8096C131.92 97.9531 132.168 98.0966 132.56 97.9916C132.756 97.9391 133.095 97.6381 133.239 97.3897C133.525 96.8927 133.865 96.5918 134.452 96.4343C136.607 95.8569 140.515 97.1204 142.097 97.5369C144.868 98.4749 147.338 99.0733 149.898 99.2274C148.971 99.6858 148.293 100.288 147.614 100.89L146.936 101.492C144.613 103.794 142.773 105.548 139.797 106.976C139.405 107.081 139.314 107.525 139.223 107.969C139.132 108.414 139.381 108.557 139.381 108.557ZM101.984 113.957C101.984 113.957 101.788 114.009 101.984 113.957C101.84 114.205 101.893 114.401 101.893 114.401C101.893 114.401 103.88 115.549 107.645 117.061C106.522 117.572 105.595 118.03 104.472 118.541C101.638 119.721 98.9483 120.652 96.0098 121.439C95.4221 121.596 94.6385 121.806 94.0508 121.964C91.5041 122.646 89.2441 122.832 88.0687 123.147L85.8613 123.528C85.6654 123.58 85.6654 123.58 85.7179 123.776C85.7705 123.972 85.7704 123.972 85.9663 123.92L88.0304 123.787C89.5067 123.812 91.5182 123.483 94.17 123.192C95.9856 122.916 97.9446 122.391 99.7077 121.918C100.1 121.813 100.491 121.708 101.079 121.551C99.7219 122.755 98.1163 123.815 96.2623 124.732C95.1394 125.243 94.4083 125.649 93.8731 126.002L92.9462 126.461C92.7503 126.513 92.8028 126.709 92.8028 126.709C92.8553 126.905 92.8553 126.905 93.0512 126.853L94.0307 126.59C94.2266 126.538 94.6184 126.433 94.8143 126.38C95.402 126.223 95.9897 126.066 96.7733 125.856C99.9986 124.571 103.066 122.699 105.532 120.148C105.532 120.148 105.728 120.095 105.924 120.043C106.708 119.833 112.322 117.278 113.875 116.022C113.526 118.636 111.7 121.226 111.074 122.024C110.305 123.07 109.038 123.829 108.02 124.732C107.146 125.387 106.076 126.094 105.254 126.944C105.058 126.997 105.058 126.997 104.914 127.245C104.613 126.906 104.117 126.619 103.529 126.776L103.333 126.829C101.871 127.641 100.356 128.256 98.7889 128.676C97.4176 129.044 95.9938 129.215 94.57 129.387L94.3741 129.439C89.9976 129.562 85.5545 128.652 81.3072 127.689C80.2227 127.56 79.2815 127.182 78.197 127.052C80.7296 125.533 83.2621 124.014 84.801 121.922C86.966 119.031 90.2821 117.302 93.5983 115.573L95.2563 114.709C95.6481 114.604 95.7915 114.355 95.8824 113.911C95.8299 113.715 96.0258 113.663 95.9733 113.467C96.7569 113.257 98.52 112.784 100.283 112.312C101.654 111.944 102.83 111.629 103.418 111.472C106.265 111.129 111.033 110.902 113.178 112.637C113.675 112.924 114.029 113.46 114.186 114.048C112.92 114.807 111.654 115.567 110.531 116.078C105.185 114.149 101.984 113.957 101.984 113.957Z" fill="#212721"/>
</svg>
