<svg width="191" height="231" viewBox="0 0 191 231" fill="none" xmlns="http://www.w3.org/2000/svg">
<path d="M160.893 49.9695L160.284 49.6949C157.002 48.5811 153.945 48.0568 150.964 48.178C150.852 47.8832 150.649 47.7917 150.356 47.9034C146.913 47.6942 143.402 48.1863 139.652 48.9375C139.54 48.6427 139.281 48.4038 138.931 48.3681C135.58 47.9556 132.712 48.3716 129.494 48.752C129.585 48.5487 129.619 48.1981 129.507 47.9033C129.395 47.6085 129.136 47.3695 128.639 47.3897C126.009 47.5466 123.491 47.9983 120.847 49.004C119.819 49.395 118.644 49.842 117.525 50.4363C117.413 50.1415 116.951 49.8111 116.51 49.9787C115.922 50.2022 115.279 50.2782 114.691 50.5017C112.635 51.2839 110.838 52.305 109.152 53.6209C108.236 54.3068 107.286 55.3433 106.482 56.324C106.062 56.9897 105.44 57.5639 105.021 58.2295C104.839 58.6361 104.602 58.8952 104.42 59.3018C104.273 59.3576 104.329 59.505 104.182 59.5609C103.979 59.4694 103.776 59.3778 103.483 59.4896C103.336 59.5454 103.189 59.6013 103.098 59.8046C101.715 62.3556 100.681 64.9422 99.8849 67.2698C99.5753 64.6878 98.8812 62.4209 98.0054 60.5606C97.8933 60.2658 97.4874 60.0827 96.9907 60.1029C96.0296 56.2502 94.2994 53.0276 91.1139 49.5149C90.8549 49.2759 90.4489 49.0929 90.0083 49.2605C89.8614 49.3163 89.5677 49.4281 89.5329 49.7787C87.1805 47.1302 84.9962 44.924 82.9241 43.0125C82.6651 42.7735 82.2592 42.5905 81.8185 42.7581C81.5248 42.8698 81.434 43.0731 81.1963 43.3322C81.1055 43.5355 80.9238 43.942 80.833 44.1453C78.4032 40.8513 75.5327 37.7249 72.6274 34.9492C72.3684 34.7103 71.9625 34.5272 71.6687 34.639C71.375 34.7507 71.2842 34.954 71.1934 35.1573L71.1025 35.3605C69.1212 33.2458 66.9022 31.3902 64.4455 29.7937C64.2426 29.7021 63.8928 29.6665 63.599 29.7782C63.4521 29.8341 63.3052 29.89 63.2144 30.0932C59.6222 35.6778 55.7655 43.2191 56.7155 51.4629C54.6592 52.2451 55.5665 59.4928 56.1564 62.8117C55.9535 62.7202 55.7505 62.6286 55.4568 62.7404C55.0161 62.908 54.8345 63.3145 54.8558 63.8126C55.3068 68.5342 56.436 72.8291 58.2089 77.0479L57.9151 77.1596C57.6214 77.2714 57.5305 77.4746 57.2929 77.7338C57.202 77.9371 57.1673 78.2877 57.4263 78.5267C59.6959 82.7253 62.8388 85.2418 66.5692 87.5349C66.4223 87.5908 66.3316 87.794 66.1847 87.8499C66.0378 87.9058 66.0939 88.0532 66.0939 88.0532C65.0096 88.2969 63.9254 88.5405 62.7504 88.9875C62.1628 89.211 61.5753 89.4345 61.0439 89.8053C60.3095 90.0847 59.6311 90.5114 58.7499 90.8467C56.9873 91.5171 55.2248 92.1875 53.9802 93.3358C53.4488 93.7067 52.9734 94.225 52.9386 94.5756C52.8478 94.7789 52.9039 94.9263 53.1629 95.1652C52.0439 95.7596 47.5064 100.185 47.1219 100.5C45.3112 102.37 43.8155 104.626 42.4668 106.827L42.376 107.03C42.376 107.03 42.2852 107.233 42.432 107.177L42.635 107.269L43.6631 106.878L43.3346 107.34C41.7616 108.951 40.5384 110.597 39.4834 112.686C38.5753 114.718 37.7232 116.899 37.1515 119.816C37.0607 120.019 37.1728 120.314 37.2849 120.609C35.5114 125.67 34.5282 130.6 34.3356 135.398C34.3008 135.748 34.4129 136.043 34.6159 136.135C34.8188 136.226 35.0218 136.318 35.1687 136.262C34.856 139.418 34.7462 142.665 34.9863 145.949C35.0424 146.096 35.0984 146.244 35.0984 146.244C35.0984 146.244 35.0984 146.244 35.1893 146.04C35.3361 145.984 36.4764 145.888 40.3593 145.93L40.7091 145.965C43.0458 145.92 45.4732 145.672 47.7325 144.981C47.6417 145.184 47.6978 145.332 47.9568 145.571C48.2158 145.81 48.4748 146.049 48.7686 145.937C50.9931 145.597 53.1615 145.11 55.2179 144.327C57.7148 143.378 59.9528 142.189 62.1694 140.502C62.1346 140.853 62.2468 141.148 62.3028 141.295C62.5619 141.534 62.9117 141.57 63.2054 141.458C69.2275 139.167 74.0106 135.829 77.9953 131.277C78.2543 131.516 78.6602 131.699 79.1008 131.531C81.4296 130.139 84.5622 127.766 86.106 124.311C87.4864 127.498 89.2087 129.374 90.6641 129.664C93.1018 134.304 96.2527 138.168 99.8576 141.015C100.117 141.254 100.466 141.289 100.76 141.178C101.054 141.066 101.292 140.807 101.382 140.604C103.714 142.754 107.262 145.454 112.125 146.304C112.272 146.248 112.475 146.339 112.475 146.339C112.622 146.283 112.769 146.227 112.86 146.024C117.381 148.185 122.58 149.92 128.198 150.988C128.31 151.283 128.66 151.319 128.954 151.207C129.101 151.151 129.192 150.948 129.136 150.801C129.227 150.597 129.317 150.394 129.352 150.043C129.296 149.896 129.24 149.749 129.093 149.804C128.96 149.012 129.029 148.31 128.896 147.517C128.754 145.378 128.41 143.146 128.562 140.895C128.632 140.194 128.611 139.696 128.68 138.994C128.776 136.595 128.963 133.993 128.71 131.559C128.555 130.268 128.254 129.033 127.861 128.001C127.167 125.734 126.606 124.26 126.556 121.917C126.372 118.781 125.397 115.777 123.779 112.849C123.926 112.793 123.926 112.793 124.017 112.59C124.255 112.331 124.436 111.924 124.324 111.63C123.691 107.315 121.884 103.446 118.754 100.081C118.901 100.025 119.139 99.7661 119.23 99.5629C119.321 99.3596 119.208 99.0648 119.152 98.9174C118.781 98.3837 118.354 97.7025 117.836 97.2246C120.725 97.3067 123.684 96.6874 126.916 95.4583C127.944 95.0672 128.972 94.6761 129.944 94.1376C130.238 94.0259 130.476 93.7667 130.51 93.4161C130.545 93.0654 130.489 92.918 130.23 92.679C129.971 92.4401 129.712 92.2012 129.453 91.9622C135.566 89.4683 139.796 86.0032 143.025 81.2317C143.116 81.0284 143.207 80.8252 143.095 80.5304C143.038 80.383 142.926 80.0882 142.723 79.9966C146.051 76.3687 148.532 72.7252 150.348 68.6598C150.439 68.4565 150.474 68.1058 150.271 68.0143C151.844 66.4036 153.081 63.9085 154.192 61.9673L154.793 60.8951C155.03 60.6359 154.918 60.3411 154.806 60.0463C155.554 58.9182 156.155 57.846 156.756 56.7738C157.028 56.164 157.448 55.4983 157.776 55.0359C158.195 54.3702 158.762 53.6486 159.181 52.9829C159.747 52.2614 160.404 51.3366 160.914 50.4676C160.949 50.1169 160.949 50.1169 160.893 49.9695ZM152.763 59.9797C152.582 60.3863 152.218 61.1994 151.925 61.3111L151.981 61.4585L152.184 61.55L152.331 61.4942C151.716 63.4152 150.143 65.0259 148.717 66.5807C148.242 67.099 147.619 67.6731 147.291 68.1355C147.2 68.3388 146.962 68.5979 146.872 68.8012L146.781 69.0045C146.781 69.0045 146.837 69.1519 146.984 69.096L148.362 68.7406L148.033 69.203C146.922 71.1442 145.811 73.0854 144.294 74.8435L143.875 75.5092C141.394 79.1526 139.877 80.9107 139.639 81.1699C139.639 81.1699 139.639 81.1699 139.492 81.2258L139.345 81.2816C139.345 81.2816 139.401 81.429 139.457 81.5764L140.619 81.9782C139.703 82.6641 138.843 83.4974 137.983 84.3307C135.2 86.739 132.564 89.0915 129.186 90.3765C128.745 90.5441 128.305 90.7117 127.864 90.8793C127.57 90.991 127.479 91.1943 127.389 91.3976C127.298 91.6008 127.41 91.8957 127.466 92.0431C127.725 92.282 127.781 92.4294 128.04 92.6683L128.096 92.8157C127.509 93.0392 127.068 93.2068 126.481 93.4303C123.69 94.4918 120.584 95.167 116.576 95.6793C115.225 94.3372 113.748 93.5491 112.18 92.9642L110.613 92.3793C110.263 92.3437 110.004 92.1047 109.598 91.9217C108.933 91.4997 108.177 91.2809 107.422 91.0622C107.806 90.7472 107.932 90.1932 108.057 89.6393L108.001 89.4919C108.533 89.121 109.211 88.6943 109.743 88.3234C110.805 87.5816 112.015 86.784 113.281 86.1338C113.575 86.0221 113.666 85.8188 113.7 85.4681C113.644 85.3207 113.588 85.1733 113.532 85.0259C114.064 84.655 114.595 84.2841 115.127 83.9132C118.849 84.8595 122.641 85.1044 126.356 84.7038C127.643 84.5517 128.727 84.308 129.518 84.1761L130.602 83.9324C130.749 83.8765 130.749 83.8765 130.693 83.7291C130.637 83.5817 130.637 83.5817 130.49 83.6376L129.349 83.7339C128.706 83.8099 127.656 83.703 126.313 83.7077C122.927 83.6459 119.779 83.3249 116.462 82.5617C116.846 82.2467 117.65 81.266 118.839 79.9703C119.79 78.9337 120.684 77.7498 120.978 77.638C120.978 77.638 121.125 77.5821 121.069 77.4347L121.013 77.2873C119.039 76.5194 117.381 76.1378 115.079 75.8323C116.764 74.5164 118.393 73.0531 120.135 71.8846C124.613 73.0495 129.161 73.5132 133.666 72.9807C135.1 72.7727 136.387 72.6205 137.121 72.3412L138.353 72.0416C138.499 71.9857 138.499 71.9858 138.443 71.8384C138.387 71.691 138.387 71.6909 138.24 71.7468L136.953 71.899C136.163 72.0309 135.022 72.1272 133.476 72.0404C129.447 72.0546 125.598 71.6623 121.729 70.7719C125.687 67.9166 129.701 65.2087 133.68 62.8515C133.68 62.8515 133.68 62.8515 133.736 62.9989L133.792 63.1464C136.962 63.9654 140.201 64.0831 143.307 63.4079C144.391 63.1643 145.182 63.0323 145.769 62.8088L146.65 62.4736C146.797 62.4178 146.797 62.4178 146.741 62.2704C146.685 62.123 146.685 62.1229 146.538 62.1788L145.748 62.3108C145.251 62.331 144.314 62.5188 143.32 62.5592C140.69 62.7161 138.094 62.5223 135.533 61.9778C141.457 58.5437 147.695 55.4958 154.011 53.0934C154.305 52.9817 154.396 52.7784 154.283 52.4836C154.171 52.1888 153.912 51.9499 153.472 52.1175C143.043 56.0842 133.357 61.1184 124.504 67.0168C126.251 63.6527 128.166 60.7308 130.724 57.7329C131.766 56.493 132.57 55.5123 133.192 54.9382L133.996 53.9575C134.143 53.9016 134.087 53.7542 134.087 53.7542L133.884 53.6627L132.877 54.5518C132.108 55.1819 131.248 56.0151 130.003 57.1634C126.619 60.644 123.901 64.5466 121.847 68.8712C118.658 71.0964 115.672 73.4132 112.799 76.0248C111.896 75.862 111.049 75.8465 110.203 75.8311C111.333 70.8456 113.128 66.282 115.769 61.734C116.789 59.9961 117.684 58.8121 118.104 58.1464L118.998 56.9625C118.998 56.9625 119.089 56.7592 118.942 56.8151L118.739 56.7235L117.642 57.816C116.928 58.5934 116.034 59.7773 114.901 61.2204C111.854 65.5854 109.675 70.4639 108.51 75.8001C107.516 75.8405 106.523 75.881 105.642 76.2162C105.495 76.272 105.495 76.272 105.348 76.3279C105.145 76.2364 104.942 76.1448 104.795 76.2007C104.005 76.3327 102.92 76.5763 101.892 76.9674C101.158 77.2468 100.423 77.5261 99.7452 77.9528C99.8147 77.2515 99.9402 76.6976 100.01 75.9962C100.317 75.0357 100.477 74.1311 100.637 73.2265C101.516 69.3489 102.451 65.6186 104.086 61.9598C104.233 61.9039 104.233 61.9039 104.38 61.848C104.82 61.6804 105.149 61.218 105.421 60.6082C105.512 60.4049 105.603 60.2016 105.75 60.1458C107.902 56.9648 111.035 54.5921 115.001 53.0836C115.057 53.231 115.113 53.3784 115.316 53.47C115.575 53.7089 115.925 53.7446 116.219 53.6328C116.365 53.5769 116.365 53.577 116.365 53.577C117.575 52.7793 118.988 52.0732 120.457 51.5145C122.219 50.8441 124.038 50.3211 126.172 50.1844C126.081 50.3877 126.046 50.7383 126.305 50.9773C126.564 51.2162 126.767 51.3078 127.061 51.196C129.614 50.3936 132.741 50.2166 136.533 50.4615C136.295 50.7206 136.463 51.1628 136.52 51.3102C136.632 51.605 137.038 51.7881 137.331 51.6763C140.619 50.5946 144.221 49.8993 148.104 49.9409C148.216 50.2357 148.475 50.4746 148.972 50.4544C151.84 50.0384 154.639 50.3237 158.417 51.4174C157.285 52.8605 156.265 54.5984 155.335 56.133L154.825 57.002C154.497 57.4644 154.315 57.8709 153.986 58.3334C153.658 58.7958 153.329 59.2582 153.057 59.868C152.945 59.5732 152.854 59.7765 152.763 59.9797ZM121.547 111.842C121.456 112.046 121.568 112.341 121.624 112.488C122.906 114.531 123.691 116.595 124.07 118.476C124.315 119.563 124.267 120.763 124.366 121.906C124.409 122.902 124.36 124.102 124.606 125.19C124.683 125.835 125.055 126.369 125.426 126.902C125.594 127.345 125.853 127.584 126.021 128.026C126.638 129.647 127.017 131.528 127.124 134.018C127.188 135.512 127.105 137.063 126.931 138.816C126.786 142.414 126.495 146.068 127.672 149.164C123.047 148.055 118.198 146.356 112.222 143.905C112.019 143.813 111.872 143.869 111.725 143.925C111.578 143.981 111.431 144.037 111.487 144.184C107.743 142.74 104.069 140.594 100.723 137.986C100.723 137.986 100.723 137.986 100.576 138.042C100.576 138.042 100.576 138.042 100.429 138.098L100.338 138.301C100.248 138.504 100.304 138.652 100.213 138.855C98.3437 137.035 96.8244 135.251 95.3958 133.263C94.6535 132.196 94.0021 130.925 93.4066 129.802C92.8673 128.826 92.3279 127.85 91.7886 126.874C91.7886 126.874 91.7325 126.726 91.5856 126.782C91.4387 126.838 91.4387 126.838 91.4948 126.985L91.2437 128.093C90.5014 127.026 89.962 126.05 89.2197 124.982L88.8486 124.449C87.882 122.792 87.2092 121.023 86.6272 119.051C85.8557 116.138 85.7277 113.15 85.5998 110.161L85.6906 109.958C85.7253 109.607 85.7601 109.257 85.8509 109.053C86.1581 108.093 86.4653 107.132 86.8285 106.319C86.9193 106.116 87.0101 105.913 87.1918 105.506C87.3734 105.1 87.555 104.693 87.6458 104.49C88.7087 103.748 89.7503 102.508 90.3165 101.787C90.4073 101.583 90.645 101.324 90.7919 101.268C92.218 99.7136 93.1475 98.179 93.5802 96.6645C93.5344 101.406 94.7624 106.845 97.5579 112.868C96.957 113.94 96.4121 115.16 96.217 116.415C95.9659 117.523 95.8617 118.575 95.8696 119.922C95.808 121.97 96.131 123.703 96.3419 125.142L96.454 125.437C96.8757 128.313 97.1426 129.899 97.1426 129.899C97.1987 130.046 97.1987 130.046 97.3456 129.991C97.4924 129.935 97.4924 129.935 97.4364 129.787C97.4364 129.787 97.5193 128.237 97.2445 125.305L97.1671 124.659C97.1592 123.312 97.0952 121.818 97.122 120.121C97.1141 118.774 97.3787 116.817 98.3429 114.932C99.3308 117.087 100.522 119.334 102.084 122.114C102.196 122.409 102.455 122.648 102.567 122.943L103.162 124.066C103.162 124.066 103.218 124.213 103.365 124.157C104.815 126.643 106.041 128.539 107.21 130.288C106.924 131.746 106.841 133.296 107.108 134.882C107.263 136.173 107.712 137.352 108.307 138.476C108.79 139.304 109.218 139.985 109.533 140.372C109.848 140.758 110.107 140.997 110.107 140.997L110.31 141.089C110.457 141.033 110.401 140.885 110.401 140.885L109.973 140.204C109.749 139.615 109.378 139.081 109.188 138.141C108.606 136.168 108.374 134.232 108.639 132.275C113.464 139.214 118.329 143.606 123.899 145.875C123.899 145.875 124.046 145.819 123.99 145.671C123.99 145.671 123.934 145.524 123.878 145.376C120.476 142.621 116.962 139.571 113.72 135.911C115.945 135.571 118.191 135.729 120.458 136.385C121.417 136.695 122.025 136.97 122.634 137.244L123.446 137.61L123.593 137.555C123.593 137.555 123.593 137.555 123.74 137.499C123.74 137.499 123.831 137.295 123.684 137.351C123.684 137.351 123.425 137.112 122.963 136.782C122.501 136.451 121.836 136.029 120.821 135.572C119.603 135.023 118.295 134.677 117.043 134.478C115.643 134.335 114.153 134.396 112.719 134.604C112.719 134.604 112.348 134.07 112.089 133.831C109.771 130.832 107.691 127.574 105.387 123.726C106.03 123.65 106.674 123.574 107.521 123.589C108.717 123.64 109.766 123.747 111.222 124.038C113.174 124.307 115.035 124.78 117.099 125.345C118.261 125.747 119.423 126.149 120.64 126.698L121.858 127.247C121.858 127.247 121.858 127.247 122.005 127.191L122.152 127.135L122.096 126.988C122.096 126.988 121.69 126.805 120.969 126.236C119.898 125.63 118.68 125.081 117.463 124.532C115.489 123.764 113.572 123.144 111.564 122.726C110.108 122.436 108.856 122.238 107.66 122.187C106.96 122.115 105.763 122.064 104.532 122.364C104.105 121.683 103.881 121.093 103.454 120.412C100.757 115.532 98.8372 111.369 97.4702 107.333C97.302 106.891 97.1338 106.449 97.1125 105.951C99.596 105.85 102.248 106.191 105.159 106.771C107.719 107.316 109.784 107.88 111.701 108.501L117.25 110.271C117.25 110.271 117.25 110.271 117.397 110.215L117.544 110.159C117.544 110.159 117.488 110.012 117.432 109.864L116.011 109.224C115.199 108.857 113.779 108.217 112.008 107.54C110.238 106.864 108.061 106.004 105.444 105.313C102.275 104.494 99.476 104.208 96.6426 104.274C96.018 101.305 95.5963 98.4286 95.2654 95.3486L95.1533 95.0538C96.3709 95.603 98.0293 95.9846 99.3164 95.8325C99.96 95.7564 100.548 95.5329 101.135 95.3095C102.457 94.8067 103.814 93.9532 104.933 93.3588L105.758 92.8762L105.702 92.7288C106.535 93.593 107.753 94.1422 108.858 94.3966C109.208 94.4323 109.467 94.6712 109.817 94.7068C110.167 94.7425 110.426 94.9815 110.775 95.0171C111.181 95.2002 111.531 95.2359 111.79 95.4748C113.876 96.5375 115.318 97.6763 116.522 99.0743C116.228 99.186 116.137 99.3893 116.103 99.74C116.068 100.091 116.236 100.533 116.495 100.772C118.252 102.297 119.828 104.229 120.872 106.531C121.096 107.121 122.722 111.395 122.54 111.802C122.393 111.858 122.393 111.858 122.246 111.914C121.875 111.38 121.638 111.639 121.547 111.842ZM85.2224 121.104L85.5027 121.841C85.727 122.43 83.9937 124.945 82.8613 126.389C82.3859 126.907 81.9105 127.425 81.2882 127.999C80.9037 128.314 80.5752 128.777 80.0437 129.148L80.001 128.151L79.945 128.004C79.945 128.004 79.945 128.004 79.7981 128.06C77.4559 130.301 75.2046 132.338 72.7503 134.284C71.5057 135.432 70.0022 136.342 68.4986 137.251C68.2049 137.363 67.7642 137.53 67.0859 137.957C66.0577 138.348 65.0857 138.887 64.4981 139.11C64.5889 138.907 64.6237 138.556 64.7145 138.353C64.7493 138.002 64.784 137.652 64.525 137.413C64.266 137.174 63.8601 136.991 63.5663 137.102C63.4194 137.158 63.4194 137.158 63.2725 137.214C60.6366 139.567 57.6295 141.385 54.2513 142.67C53.0763 143.117 51.6983 143.473 50.4672 143.772C50.6488 143.366 50.5366 143.071 50.2215 142.685C49.9625 142.446 49.5566 142.263 49.2629 142.374C45.0942 143.791 40.792 144.415 36.0626 144.358C36.5088 141.995 36.5491 139.449 36.7923 136.994C36.7496 135.998 36.9099 135.093 36.8673 134.097C36.902 133.746 36.7899 133.452 36.5869 133.36C36.384 133.269 36.181 133.177 35.8312 133.141C36.1708 128.288 37.266 123.653 39.0262 119.44C39.0609 119.089 39.0957 118.739 38.8367 118.5C40.1909 114.104 41.5665 110.206 45.7968 106.741C46.0345 106.482 46.1253 106.279 46.1601 105.928C46.048 105.633 45.9358 105.338 45.5299 105.155C48.214 101.603 51.2693 98.5852 55.0455 96.1364C55.2832 95.8773 55.5209 95.6182 55.5556 95.2675C55.6465 95.0642 55.5343 94.7694 55.3314 94.6779C55.4783 94.622 55.4782 94.622 55.6251 94.5661C56.3035 94.1394 57.0379 93.86 57.7162 93.4333C59.4227 92.6155 61.2761 91.7418 63.4232 90.7563L63.7169 90.6446C64.7451 90.2535 65.6824 90.0657 66.7667 89.822C69.3702 91.3626 72.1768 92.9948 74.9193 93.1327C73.325 94.2453 68.1921 97.5476 67.997 98.8029C67.9062 99.0061 68.1092 99.0977 68.1092 99.0977C68.1652 99.2451 68.3121 99.1892 68.3682 99.3366C66.7043 101.151 64.7254 102.578 62.9494 104.097C62.6557 104.209 62.418 104.468 62.3832 104.819C62.3485 105.17 62.6075 105.409 62.9573 105.444C65.9802 106.319 69.0939 106.991 71.9834 107.073C69.9831 108.002 67.9829 108.932 66.0387 110.009C63.5686 109.261 60.8047 108.625 58.209 108.431C55.6133 108.238 53.3888 108.578 52.0108 108.933C50.4859 109.344 49.2549 109.644 48.3736 109.979L47.1985 110.426C47.0516 110.482 47.0517 110.482 47.1077 110.629C47.1638 110.777 47.1638 110.777 47.3107 110.721L49.0385 110.401C49.829 110.269 50.9132 110.025 52.3472 109.817C53.7813 109.609 55.915 109.473 58.2169 109.778C60.169 110.048 62.1772 110.465 64.0945 111.086C60.1153 113.443 56.1922 115.948 52.675 118.635C50.8429 120.007 49.2138 121.471 47.8785 122.822C45.9477 123.05 44.2199 123.37 42.898 123.873C42.6043 123.985 42.1636 124.152 41.8698 124.264C40.6948 124.711 39.7227 125.249 38.7506 125.788C37.6877 126.53 37.1215 127.251 36.5901 127.622C36.2616 128.085 36.0239 128.344 36.0239 128.344C36.0239 128.344 35.9331 128.547 36.0799 128.491L36.2829 128.583L37.052 127.953C37.5835 127.582 38.2058 127.008 39.1778 126.469C39.6185 126.301 40.1499 125.931 40.7374 125.707C41.4718 125.428 42.2062 125.148 43.1436 124.961C43.9341 124.829 44.8714 124.641 45.9556 124.397C42.2995 128.488 39.455 132.944 37.5346 138.062C37.5346 138.062 37.5906 138.209 37.6467 138.356L37.8497 138.448L37.9965 138.392C39.5403 134.936 41.6369 131.608 44.0486 128.666C45.3278 127.167 46.6632 125.815 48.0546 124.611L48.53 124.093C50.306 122.574 51.1659 121.74 51.5505 121.425C51.7266 123.214 51.406 125.024 50.9172 126.391C50.4845 127.905 49.9957 129.272 49.5977 130.436L49.2905 131.396C48.7109 132.967 48.3476 133.78 48.0752 134.39C47.8027 134.999 47.565 135.259 47.4182 135.314C47.4182 135.314 47.3274 135.518 47.4742 135.462L47.6772 135.553C47.6772 135.553 48.0618 135.238 48.4811 134.573C49.0473 133.851 49.6482 132.779 50.1023 131.763L50.1931 131.559C50.738 130.34 51.5205 128.861 52.1349 126.94C52.4768 125.629 52.784 124.668 52.8882 123.616C52.9925 122.564 53.0406 121.365 52.795 120.277C53.3265 119.906 53.8579 119.535 54.2425 119.22C58.6757 115.847 63.5923 113.302 68.3619 110.813L69.4809 110.218C70.1403 112.836 70.4498 115.418 70.1719 118.223C70.0195 120.475 69.4265 122.894 68.5744 125.074C67.8479 126.7 67.1561 127.975 66.5552 129.048L65.7166 130.379C65.7166 130.379 65.6258 130.582 65.7726 130.526L65.9756 130.618C65.9756 130.618 66.451 130.1 67.0172 129.378C67.6742 128.453 68.5689 127.269 69.4423 125.587C70.5881 123.295 71.2372 121.024 71.6272 118.513C71.996 115.505 71.8681 112.516 70.9497 109.66C72.5093 108.898 74.1597 107.932 75.6632 107.023C77.594 106.795 79.4687 106.419 81.0844 105.805C82.1125 105.413 82.9378 104.931 83.9098 104.392C83.4558 105.409 83.2607 106.664 83.1004 107.569L83.0657 107.919C82.6543 109.932 82.5927 111.98 82.9718 113.861C83.981 116.514 84.3253 118.745 85.2224 121.104ZM56.928 65.7241C57.1309 65.8156 57.4807 65.8513 57.6276 65.7954C58.0683 65.6278 58.2499 65.2213 58.0817 64.779C57.7587 63.0459 57.4918 61.4601 57.2809 60.0217C57.1475 59.2289 57.2493 54.6344 57.2067 53.6383C57.4096 53.7298 57.5565 53.674 57.7034 53.6181C57.9971 53.5063 58.3256 53.0439 58.2135 52.7491C57.2287 44.856 61.0855 37.3147 64.1115 32.4517C66.5682 34.0481 68.6403 35.9596 70.6777 38.2218C70.9367 38.4607 71.3426 38.6438 71.6364 38.5321C71.9302 38.4203 72.021 38.2171 72.2587 37.9579L72.3495 37.7546C75.5137 40.7693 78.2373 43.9515 80.6325 47.5962C80.8915 47.8351 81.1505 48.0741 81.5911 47.9064C81.8849 47.7947 82.2694 47.4797 82.3042 47.129C82.3389 46.7784 82.3737 46.4277 82.4992 45.8737C84.9425 48.319 87.1829 50.6727 89.0734 52.9907C89.3324 53.2296 89.7382 53.4127 90.1789 53.2451C90.3258 53.1892 90.4727 53.1334 90.5635 52.9301C93.3992 56.4071 95.0386 59.8331 95.559 63.8533C95.6712 64.1481 95.7272 64.2955 95.9302 64.3871C96.1331 64.4786 96.483 64.5143 96.7767 64.4025C96.9236 64.3467 96.9236 64.3467 97.0705 64.2908C98.4587 68.8246 98.1058 74.5269 97.7449 78.8824C97.7449 78.8824 97.801 79.0298 97.857 79.1772C97.4725 79.4922 97.2348 79.7514 96.9971 80.0105C96.8502 80.0664 96.7033 80.1223 96.7033 80.1223C94.647 80.9044 92.8095 84.4718 92.3846 87.333L91.6076 86.6162C89.2204 84.3184 86.8892 82.168 84.7958 79.7584C86.2914 77.5022 87.3251 74.9156 88.065 72.4406C88.6233 70.3723 88.9787 68.2123 88.9842 66.0168C89.011 64.3192 88.8562 63.0283 88.7575 61.8847C88.568 60.9445 88.5467 60.4464 88.5467 60.4464C88.4906 60.299 88.4906 60.299 88.3437 60.3548C88.1968 60.4107 88.1968 60.4107 88.2529 60.5581L88.2608 61.9049C88.1913 62.6063 88.2553 64.1005 88.0816 65.8539C87.8731 67.9579 87.3148 70.0263 86.7004 71.9473C85.9044 74.2748 84.9055 76.5108 83.6476 78.5078C80.6997 74.736 77.8774 70.4102 75.1806 65.5305C74.5291 64.2597 73.8776 62.9889 73.2261 61.7182C74.2116 60.331 75.1411 58.7963 75.7207 57.226C76.3003 55.6557 76.733 54.1413 76.8159 52.5912C77.011 51.3359 76.9684 50.3397 77.0378 49.6384L76.9952 48.6422C76.9391 48.4948 76.9391 48.4948 76.7923 48.5507C76.6454 48.6066 76.6454 48.6066 76.7014 48.754L76.5972 49.806C76.4716 50.3599 76.3674 51.412 75.9694 52.5757C75.1947 55.4013 74.0142 58.0438 72.5186 60.3C71.4185 57.8501 65.6033 45.2139 65.1018 38.1492C65.1018 38.1492 65.0457 38.0018 64.9897 37.8544L64.7867 37.7629C64.7867 37.7629 64.6398 37.8188 64.6959 37.9662C63.9078 41.6405 65.1627 45.3815 66.4522 48.7717C66.4522 48.7717 67.3493 51.1302 67.5175 51.5724C65.7123 51.2466 64.3825 50.4026 63.6054 49.6858C63.0874 49.208 62.7723 48.8216 62.5133 48.5827L62.1421 48.0489L61.9392 47.9574C61.7923 48.0133 61.8484 48.1607 61.8484 48.1607C61.8484 48.1607 61.9044 48.3081 62.0726 48.7503C62.2408 49.1925 62.5559 49.5788 62.9831 50.26C63.6133 51.0327 64.3343 51.6021 65.2022 52.1156C66.07 52.6291 67.0287 52.9394 68.0782 53.0464C68.6949 54.6678 70.4891 59.3847 72.8921 64.3762C72.5423 64.3405 72.1364 64.1574 71.7305 63.9744C70.9748 63.7556 70.3098 63.3336 69.6449 62.9116L69.442 62.8201C68.1682 62.1235 67.0414 61.371 65.7676 60.6744C64.8437 60.0135 64.0319 59.6474 63.5139 59.1695L62.7929 58.6001L62.646 58.6559C62.646 58.6559 62.646 58.656 62.4991 58.7118C62.4991 58.7118 62.4083 58.9151 62.5552 58.8592C62.5552 58.8592 62.8142 59.0982 63.1293 59.4845C63.6473 59.9624 64.2214 60.5876 65.1453 61.2486C66.1814 62.2043 67.3643 63.1042 68.6942 63.9482C69.3591 64.3702 70.2269 64.8837 71.0387 65.2499C71.9974 65.5601 72.7531 65.7789 73.5997 65.7943C76.9132 72.2955 80.6247 77.6329 84.4404 81.9183C83.5939 81.9029 82.8034 82.0348 82.013 82.1667L81.5162 82.187C80.0822 82.395 78.739 82.3997 77.5426 82.3486C75.0938 82.0989 72.9735 81.3869 71.4621 80.9494C69.8946 80.3645 68.6769 79.8153 67.809 79.3018L66.5352 78.6052L66.3884 78.6611C66.3884 78.6611 66.3884 78.6611 66.2415 78.7169C66.2415 78.7169 66.1507 78.9202 66.2975 78.8643C66.2975 78.8643 66.7595 79.1948 67.4244 79.6168C68.1454 80.1862 69.4191 80.8828 71.0427 81.6151C72.6663 82.3474 74.6958 83.2627 77.4944 83.548C78.7469 83.7465 80.237 83.6859 81.7271 83.6253L82.0769 83.661C83.3641 83.5088 84.7073 83.5041 85.9598 83.7026C88.088 85.7615 90.048 87.3782 92.0427 88.6442C92.0079 88.9949 92.1201 89.2897 92.0853 89.6403C89.4604 87.6017 84.1996 87.9155 80.5276 89.3122C78.765 89.9826 77.4084 90.8361 76.7514 91.7609C73.9741 91.9737 70.2997 89.828 68.3049 88.562L68.5987 88.4502C68.8925 88.3385 69.0741 87.932 69.1088 87.5813C69.1436 87.2306 68.8846 86.9917 68.6816 86.9001C64.6574 84.7188 61.8856 82.736 59.6374 79.0355L59.7843 78.9796L59.9312 78.9237C60.2249 78.812 60.3157 78.6087 60.4066 78.4054C60.4974 78.2022 60.5321 77.8515 60.42 77.5567C58.7245 73.9834 57.5045 69.8918 56.928 65.7241ZM111.182 85.9198C110.504 86.3465 109.825 86.7733 108.944 87.1085C108.119 87.5911 107.147 88.1296 106.322 88.6122C106.028 88.724 105.846 89.1305 105.958 89.4253C106.014 89.5727 106.127 89.8675 106.33 89.9591C106.036 90.0708 105.504 90.4417 104.476 90.8327L104.036 91.0003C103.448 91.2238 102.917 91.5947 102.476 91.7623C102.182 91.8741 101.944 92.1332 101.651 92.2449C101.357 92.3567 101.063 92.4684 100.769 92.5802C98.2725 93.5299 95.9706 93.2244 94.6194 91.8823C94.7663 91.8264 95.004 91.5673 94.8918 91.2725C95.2764 90.9575 95.6049 90.4951 95.8426 90.2359C96.5423 90.3073 97.1859 90.2312 97.8855 90.3025L98.2354 90.3382C99.0819 90.3536 100.075 90.3132 100.957 89.978C101.25 89.8663 101.544 89.7546 101.782 89.4954L101.873 89.2921C101.873 89.2921 101.817 89.1447 101.614 89.0532C100.858 88.8345 100.067 88.9664 99.2769 89.0983C98.7802 89.1186 98.4865 89.2303 97.9897 89.2505C97.8429 89.3064 97.6399 89.2148 97.2901 89.1792C98.6815 87.975 100.129 86.9182 101.633 86.0089C103.844 86.5177 105.774 86.2894 106.803 85.8984C107.096 85.7866 107.243 85.7307 107.39 85.6749C107.684 85.5631 107.831 85.5073 107.978 85.4514C108.271 85.3397 108.418 85.2838 108.418 85.2838C108.565 85.2279 108.509 85.0805 108.509 85.0805C108.453 84.9331 108.453 84.9331 108.306 84.989L107.809 85.0092C107.46 84.9735 107.166 85.0853 106.522 85.1613C105.529 85.2018 104.479 85.0948 103.577 84.9319C105.374 83.9108 107.081 83.093 108.64 82.331C110.347 81.5132 111.612 80.863 112.641 80.4719L114.641 79.5423C114.788 79.4864 114.732 79.339 114.732 79.339C114.676 79.1916 114.676 79.1916 114.529 79.2475L112.857 79.7146C111.976 80.0499 110.745 80.3494 109.276 80.9081C108.835 81.0757 108.541 81.1875 108.101 81.3551C106.191 82.0814 103.604 83.2344 100.834 84.794C99.4775 85.6475 98.1208 86.501 96.9671 87.446C97.8405 85.764 98.9729 84.3209 100.252 82.8219C100.818 82.1003 101.441 81.5262 101.825 81.2112L102.447 80.637C102.594 80.5811 102.538 80.4338 102.538 80.4338L102.335 80.3422L101.657 80.769C101.272 81.084 100.594 81.5107 99.8249 82.1407C97.1329 84.3458 95.5117 87.1559 94.3312 89.7985C94.2751 89.6511 94.3659 89.4478 94.2538 89.153C94.1417 88.8582 94.1764 88.5075 94.1203 88.3601C94.1338 87.5114 94.294 86.6067 94.5104 85.8495C94.8523 84.5384 95.3972 83.3187 95.9421 82.0991L95.8726 82.8004L95.9287 82.9479L96.1316 83.0394C96.2785 82.9835 97.9076 81.5202 98.0545 81.4643L98.2922 81.2052C98.6207 80.7428 99.0052 80.4278 99.3898 80.1128C99.9213 79.7419 100.6 79.3151 101.481 78.9799C102.068 78.7564 102.509 78.5888 103.097 78.3654C103.39 78.2536 103.831 78.086 104.125 77.9743C104.181 78.1217 104.328 78.0658 104.384 78.2132C104.587 78.3047 104.79 78.3963 105.083 78.2846C105.23 78.2287 105.468 77.9695 105.559 77.7663C105.74 77.3597 105.978 77.1006 106.419 76.933C108.034 76.3184 111.148 76.9901 112.401 77.1886C114.612 77.6974 116.564 77.9672 118.551 77.8864C117.872 78.3132 117.397 78.8315 116.921 79.3497L116.446 79.868C114.838 81.8294 113.559 83.3284 111.377 84.6645C111.083 84.7762 111.049 85.1269 111.014 85.4776C110.979 85.8283 111.182 85.9198 111.182 85.9198ZM82.7758 93.0127C82.7758 93.0127 82.629 93.0686 82.7758 93.0127C82.685 93.216 82.7411 93.3634 82.7411 93.3634C82.7411 93.3634 84.3647 94.0956 87.3876 94.9706C86.5624 95.4532 85.884 95.8799 85.0588 96.3626C82.9677 97.4954 80.9675 98.425 78.7643 99.263C78.3237 99.4306 77.7361 99.6541 77.2955 99.8217C75.3861 100.548 73.6582 100.868 72.777 101.203L71.1052 101.67C70.9583 101.726 70.9583 101.726 71.0144 101.873C71.0705 102.021 71.0705 102.021 71.2173 101.965L72.7983 101.701C73.9386 101.605 75.4634 101.193 77.485 100.762C78.863 100.407 80.3318 99.8479 81.6537 99.345C81.9475 99.2333 82.2412 99.1216 82.6819 98.954C81.7311 99.9905 80.5774 100.936 79.2207 101.789C78.3955 102.272 77.8641 102.643 77.4795 102.958L76.8012 103.384C76.6543 103.44 76.7104 103.588 76.7104 103.588C76.7664 103.735 76.7664 103.735 76.9133 103.679L77.6477 103.4C77.7946 103.344 78.0883 103.232 78.2352 103.176C78.6759 103.009 79.1165 102.841 79.704 102.618C82.0889 101.373 84.3055 99.6862 86.004 97.5216C86.004 97.5216 86.1509 97.4657 86.2978 97.4098C86.8853 97.1863 91.0114 94.7733 92.109 93.6808C92.0475 95.729 90.8456 97.8735 90.4263 98.5392C89.9161 99.4081 89.0001 100.094 88.287 100.871C87.6648 101.446 86.8956 102.076 86.3294 102.797C86.1825 102.853 86.1825 102.853 86.0917 103.056C85.8327 102.817 85.4268 102.634 84.9862 102.802L84.8393 102.858C83.7764 103.6 82.6574 104.194 81.4824 104.641C80.4542 105.032 79.37 105.276 78.2858 105.519L78.1389 105.575C74.7741 106.011 71.2758 105.655 67.9244 105.242C67.0779 105.227 66.3221 105.008 65.4756 104.993C67.3077 103.621 69.1397 102.249 70.16 100.511C71.5995 98.1075 74.0191 96.5122 76.4387 94.917L77.6485 94.1194C77.9422 94.0076 78.033 93.8044 78.0678 93.4537C78.0117 93.3063 78.1586 93.2504 78.1025 93.103C78.69 92.8795 80.012 92.3767 81.3339 91.8739C82.362 91.4828 83.2433 91.1476 83.684 90.98C85.8524 90.4926 89.511 89.9447 91.3028 91.1191C91.7087 91.3022 92.0238 91.6885 92.192 92.1307C91.2759 92.8166 90.3599 93.5025 89.5347 93.9851C85.2594 92.9117 82.7758 93.0127 82.7758 93.0127Z" fill="#509E2F"/>
<path d="M167.293 159.517C167.255 157.579 167.474 156.946 168.775 154.358C169.053 153.847 169.331 153.335 169.641 152.733C171.651 148.973 173.661 145.213 174.798 141.049C175.146 139.752 176.968 131.268 174.328 131.873C173.448 132.075 172.836 132.673 172.255 133.181C171.827 133.539 171.549 134.051 171.361 134.593C171.173 135.136 171.319 135.592 171.222 136.166C171.174 137.769 171.028 139.947 170.586 141.515C170.426 142.27 169.306 147.554 163.418 154.327L163.296 154.386C160.371 153.475 154.575 152.077 148.993 155.918C148.169 156.544 147.494 157.323 146.969 158.255L146.906 158.436C141.337 163.7 126.914 181.089 113.811 188.809C105.522 193.738 94.9374 195.645 85.4274 196.203C64.696 196.117 58.3336 191.383 55.8258 193.655C53.0119 196.226 65.7122 202.545 69.7473 204.347C76.6139 207.331 122.28 226.375 163.618 173.942C163.955 173.552 164.501 173.437 164.807 173.138C169.043 167.92 167.732 160.884 167.293 159.517ZM171.629 134.99C171.542 134.656 172.001 134.207 172.154 134.058C172.645 133.518 173.225 133.011 173.956 132.656C174.078 132.597 174.078 132.597 174.168 132.628C174.29 132.569 174.502 132.541 174.592 132.572C174.982 132.91 172.415 135.059 172.415 135.059C172.172 135.178 171.716 135.324 171.629 134.99ZM162.417 173.02C157.343 182.708 122.467 217.933 80.2489 207.07C67.8793 203.599 56.7896 196.723 56.452 194.479C56.6361 191.606 88.3778 205.528 114.583 190.089C129.119 181.447 139.362 167.067 146.214 160.729L148.137 159.268C150.245 157.566 157.717 155.291 156.559 163.904C156.326 165.747 155.909 167.831 155.624 168.947C155.499 169.309 155.888 169.647 156.253 169.469C158.963 168.078 166.41 165.287 162.417 173.02ZM165.565 170.362C165.409 170.815 165.162 171.236 164.946 171.566C164.699 171.987 164.24 172.436 164.084 172.888C167.812 161.823 157.29 168.815 157.06 167.723C157.321 163.458 159.15 159.635 155.602 157.597C153.167 156.147 151.038 157.031 148.457 157.758C151.497 153.949 159.004 153.913 163.098 155.837C164.475 154.49 169.672 150.01 171.459 141.919C171.904 140.047 172.078 138.082 172.161 136.086C173.222 135.946 174.078 135.23 174.603 134.297C174.589 135.508 176.071 138.249 169.783 150.859C165.721 159.378 166.01 157.958 165.352 157.224C166.368 161.019 167.492 165.966 165.565 170.362Z" fill="#D22730"/>
<path d="M162.417 173.02C157.343 182.708 122.467 217.933 80.2489 207.07C67.8793 203.599 56.7896 196.723 56.452 194.479C56.6361 191.606 88.3778 205.528 114.583 190.089C129.119 181.447 139.362 167.067 146.214 160.729L148.137 159.268C150.245 157.566 157.717 155.291 156.559 163.904C156.326 165.747 155.909 167.831 155.624 168.947C155.499 169.309 155.888 169.647 156.253 169.469C158.963 168.078 166.41 165.287 162.417 173.02Z" fill="#D22730"/>
<path d="M165.565 170.362C165.409 170.815 165.162 171.236 164.946 171.566C164.699 171.987 164.24 172.436 164.084 172.888C167.812 161.823 157.29 168.815 157.06 167.723C157.321 163.458 159.15 159.635 155.602 157.597C153.167 156.147 151.038 157.031 148.457 157.758C151.497 153.949 159.004 153.913 163.098 155.837C164.475 154.49 169.672 150.01 171.459 141.919C171.904 140.047 172.078 138.082 172.161 136.086C173.222 135.946 174.078 135.23 174.603 134.297C174.589 135.508 176.071 138.249 169.783 150.859C165.721 159.378 166.01 157.958 165.352 157.224C166.368 161.019 167.492 165.966 165.565 170.362Z" fill="#D22730"/>
<path d="M171.629 134.99C171.542 134.656 172.001 134.207 172.154 134.058C172.645 133.518 173.225 133.011 173.956 132.656C174.078 132.597 174.078 132.597 174.168 132.628C174.29 132.569 174.502 132.541 174.592 132.572C174.982 132.91 172.415 135.059 172.415 135.059C172.172 135.178 171.716 135.324 171.629 134.99Z" fill="#D22730"/>
<path d="M165.519 155.864C165.481 153.927 165.7 153.294 167 150.706C167.279 150.194 167.557 149.683 167.866 149.081C169.877 145.321 171.887 141.561 173.024 137.397C173.372 136.099 175.194 127.615 172.554 128.221C171.674 128.423 171.062 129.021 170.481 129.529C170.053 129.887 169.775 130.398 169.587 130.941C169.399 131.484 169.545 131.939 169.448 132.513C169.399 134.117 169.253 136.294 168.812 137.863C168.652 138.618 167.532 143.902 161.644 150.675L161.522 150.734C158.596 149.823 152.801 148.425 147.219 152.266C146.394 152.892 145.72 153.671 145.194 154.603L145.132 154.784C139.563 160.047 125.139 177.437 112.037 185.157C103.748 190.086 93.1633 191.993 83.6533 192.55C62.9218 192.465 56.5594 187.731 54.0516 190.003C51.2378 192.574 63.938 198.893 67.9731 200.694C74.8397 203.678 120.506 222.723 161.843 170.29C162.181 169.9 162.727 169.785 163.033 169.486C167.269 164.268 165.957 157.231 165.519 155.864ZM169.855 131.338C169.768 131.004 170.227 130.555 170.38 130.405C170.87 129.866 171.451 129.358 172.182 129.003C172.303 128.944 172.303 128.944 172.394 128.976C172.516 128.916 172.728 128.889 172.818 128.92C173.208 129.257 170.641 131.407 170.641 131.407C170.397 131.525 169.942 131.672 169.855 131.338ZM160.643 169.368C155.569 179.056 120.693 214.281 78.4747 203.417C66.1051 199.947 55.0154 193.071 54.6778 190.827C54.862 187.954 86.6037 201.876 112.809 186.437C127.345 177.795 137.588 163.415 144.44 157.076L146.363 155.615C148.471 153.914 155.943 151.639 154.785 160.251C154.552 162.095 154.135 164.179 153.85 165.295C153.724 165.657 154.114 165.994 154.479 165.817C157.189 164.425 164.636 161.635 160.643 169.368ZM163.791 166.71C163.635 167.162 163.388 167.583 163.172 167.914C162.925 168.335 162.466 168.783 162.309 169.236C166.037 158.171 155.516 165.163 155.286 164.071C155.547 159.806 157.376 155.983 153.828 153.945C151.393 152.495 149.264 153.378 146.683 154.106C149.723 150.297 157.229 150.261 161.324 152.185C162.701 150.838 167.898 146.358 169.685 138.267C170.13 136.395 170.304 134.43 170.387 132.433C171.448 132.294 172.304 131.577 172.829 130.645C172.815 131.856 174.297 134.597 168.009 147.206C163.947 155.725 164.235 154.306 163.578 153.572C164.594 157.367 165.718 162.313 163.791 166.71Z" fill="#212721"/>
<path d="M160.201 168.304C157.537 171.027 152.636 176.117 147.134 180.897C139.214 187.979 131.196 193.003 126.814 195.132C89.8011 213.414 63.3986 195.769 58.946 193.418C59.9061 194.156 60.9567 194.924 61.9481 195.571C90.0237 212.478 122.265 203.887 146.136 183.488C146.717 182.98 147.297 182.472 147.969 181.996C149.283 180.83 152.219 178.2 155.93 173.915C158.108 171.427 159.37 169.535 158.88 170.074C159.401 169.445 159.801 168.874 160.201 168.304Z" fill="#212721"/>
<path d="M123.857 194.311C126.988 193.166 130.062 191.597 132.988 189.875C135.913 188.153 138.72 186.188 141.377 184.069C147.61 178.935 154.726 170.662 156.514 167.838C154.89 169.605 146.316 178.284 140.542 182.97C137.975 185.12 135.29 187.026 132.514 188.902C129.708 190.867 126.782 192.589 123.857 194.311Z" fill="#212721"/>
<path d="M98.2877 201.767C106.465 201.255 114.542 198.987 120.96 196.245C106.81 200.26 93.1502 203.736 69.6807 196.931C69.712 196.84 81.0834 202.902 98.2877 201.767Z" fill="#212721"/>
<path d="M147.561 175.272C149.582 173.237 151.791 170.659 153.091 168.071C151.039 170.197 142.403 179.057 140.236 180.636C142.824 179.304 145.572 177.217 147.561 175.272Z" fill="#212721"/>
<path d="M144.635 158.562C129.55 175.52 128.952 174.908 123.195 180.714C130.667 175.805 139.633 167.161 144.635 158.562Z" fill="#212721"/>
<path d="M158.434 161.413C158.542 159.931 158.294 157.719 157.369 156.589C158.263 160.443 156.667 162.422 156.538 163.086C159.091 162.147 161.832 160.665 162.953 163.281C163.248 163.889 163.3 164.616 163.443 165.375C164.702 161.152 161.686 160.209 158.434 161.413Z" fill="#212721"/>
</svg>
