<svg width="131" height="185" viewBox="0 0 131 185" fill="none" xmlns="http://www.w3.org/2000/svg">
<path d="M74.1561 11.645C61.7677 4.45936 49.7464 9.18116 45.3947 16.1834C42.6703 20.5818 43.5544 25.4307 43.751 25.5448C43.7302 25.467 43.0986 24.9692 43.1194 25.047L42.312 24.513C42.2345 24.5338 35.3701 19.3697 24.9637 25.1595C-4.95924 42.0983 17.7231 86.4617 40.2583 58.9964C45.0461 62.299 45.6655 64.3008 47.9899 63.678C52.8143 62.4686 56.8739 56.5452 56.5739 51.7066C59.1483 52.0172 61.3417 50.5958 62.7127 48.8944C63.2641 48.1631 63.5264 47.5925 63.6904 46.965C63.8245 46.8457 63.9378 46.6486 63.9944 46.55C87.1515 55.1856 97.4582 25.1607 74.1561 11.645ZM36.3305 61.3828C30.3372 66.9073 23.2989 67.2924 17.9153 63.3157C11.793 57.2024 8.45808 44.7562 17.5994 32.3853C28.925 19.1791 48.2605 19.7509 47.4879 39.8009C47.0784 46.3304 40.956 56.6417 36.3305 61.3828ZM55.2422 50.1458C54.9279 57.6503 49.7837 63.8643 46.1041 61.5987C44.5699 59.5919 42.7793 58.4876 41.3402 57.4559C43.3492 54.4164 45.9068 49.3956 47.01 45.7651C47.2066 45.8791 49.5455 47.17 53.5739 48.2583C55.0995 48.6833 55.2214 50.068 55.2422 50.1458ZM55.2003 35.7334C59.2047 37.6618 63.3456 42.8887 62.2274 46.7734C61.7145 48.5783 59.3363 50.5495 56.1271 50.659C56.0437 50.3479 56.0587 50.0937 55.9961 49.8604C55.8443 48.9839 54.906 47.6513 53.732 47.2989C51.8549 46.8014 50.5885 46.7238 48.8962 45.6765C48.357 44.9039 47.9728 44.0897 47.666 43.2548C47.9374 42.0983 48.1879 40.8639 48.2835 39.6711C48.4058 38.8879 48.4298 38.0477 48.4747 37.2854C49.9408 36.559 51.3445 35.5993 54.6371 35.8009C53.3023 35.1581 51.6843 35.008 50.1914 35.3246C50.1705 35.2469 50.1705 35.2469 50.0722 35.1898C51.6041 33.7789 53.0376 32.3109 54.212 30.4955L50.6983 33.1878C45.3888 15.8515 76.1299 20.8708 74.4044 37.6744C74.3596 38.4368 72.2574 46.0868 64.7696 44.1746C64.8054 43.9983 64.8412 43.8219 64.9336 43.547C65.0111 43.5263 65.032 43.6041 65.1094 43.5833C65.8901 43.7076 66.7274 43.7334 67.5797 43.505C69.6924 43.0223 72.1391 41.6163 72.5269 39.3447C70.0381 42.7629 66.239 42.5303 65.3808 42.4267C65.3808 42.4267 65.3033 42.4475 65.2825 42.3697C65.533 41.1353 65.8253 40.0565 66.0608 39.0763C66.2158 39.0348 66.2933 39.014 66.4274 38.8947C67.238 38.5108 67.986 37.8935 68.3407 37.0481C69.1486 35.4143 68.9791 33.5421 68.2315 31.9916C67.4838 30.441 66.024 29.3315 64.4418 29.0051C65.8183 29.8035 66.8699 30.939 67.4209 32.3755C67.686 33.0548 67.7961 33.7757 67.8287 34.5173C67.8405 35.1811 67.7182 35.9643 67.3784 36.5556C67.1727 37.0275 66.8478 37.3647 66.4246 37.6449C66.6811 36.7424 66.7885 36.2134 66.6752 36.4105C68.0289 31.5456 61.5103 26.1221 56.1879 28.8822C63.5302 28.0821 67.4354 34.2892 65.137 39.6573C64.5766 40.9747 64.0936 42.2714 63.7298 43.7029C62.7293 39.969 58.752 36.2824 55.2003 35.7334ZM71.7984 46.5433C69.3282 46.6216 66.7746 46.3887 64.4058 45.6061L64.549 44.9007C78.279 48.7254 80.6043 27.3423 63.868 21.9053C53.6898 18.6296 46.4446 25.9903 50.0069 33.7066C49.7954 33.8467 49.4555 34.438 49.3214 34.5573C47.3047 31.6793 48.2376 30.5123 45.7292 27.3492C44.7134 26.0373 42.5221 16.6196 51.6173 11.5146C66.4372 3.29154 86.1698 15.2625 85.8416 32.9423C85.6374 41.1677 79.7365 46.4173 71.7984 46.5433Z" fill="#FFEDBF"/>
<path d="M71.7984 46.5433C69.3282 46.6216 66.7746 46.3887 64.4058 45.6061L64.549 44.9007C78.279 48.7254 80.6043 27.3423 63.868 21.9053C53.6898 18.6296 46.4446 25.9903 50.0069 33.7066C49.7954 33.8467 49.4555 34.438 49.3214 34.5573C47.3047 31.6793 48.2376 30.5123 45.7292 27.3492C44.7134 26.0373 42.5221 16.6196 51.6173 11.5146C66.4372 3.29154 86.1698 15.2625 85.8416 32.9423C85.6374 41.1677 79.7365 46.4173 71.7984 46.5433Z" fill="#FFEDBF"/>
<path d="M55.2003 35.7334C59.2047 37.6618 63.3456 42.8887 62.2274 46.7734C61.7145 48.5783 59.3363 50.5495 56.1271 50.659C56.0437 50.3479 56.0587 50.0937 55.9961 49.8604C55.8443 48.9839 54.906 47.6513 53.732 47.2989C51.8549 46.8014 50.5885 46.7238 48.8962 45.6765C48.357 44.9039 47.9728 44.0897 47.666 43.2548C47.9374 42.0983 48.1879 40.8639 48.2835 39.6711C48.4058 38.8879 48.4298 38.0477 48.4747 37.2854C49.9408 36.559 51.3445 35.5993 54.6371 35.8009C53.3023 35.1581 51.6843 35.008 50.1914 35.3246C50.1705 35.2469 50.1705 35.2469 50.0722 35.1898C51.6041 33.7789 53.0376 32.3109 54.212 30.4955L50.6983 33.1878C45.3888 15.8515 76.1299 20.8708 74.4044 37.6744C74.3596 38.4368 72.2574 46.0868 64.7696 44.1746C64.8054 43.9983 64.8412 43.8219 64.9336 43.547C65.0111 43.5263 65.032 43.6041 65.1094 43.5833C65.8901 43.7076 66.7274 43.7334 67.5797 43.505C69.6924 43.0223 72.1391 41.6163 72.5269 39.3447C70.0381 42.7629 66.239 42.5303 65.3808 42.4267C65.3808 42.4267 65.3033 42.4475 65.2825 42.3697C65.533 41.1353 65.8253 40.0565 66.0608 39.0763C66.2158 39.0348 66.2933 39.014 66.4274 38.8947C67.238 38.5108 67.986 37.8935 68.3407 37.0481C69.1486 35.4143 68.9791 33.5421 68.2315 31.9916C67.4838 30.441 66.024 29.3315 64.4418 29.0051C65.8183 29.8035 66.8699 30.939 67.4209 32.3755C67.686 33.0548 67.7961 33.7757 67.8287 34.5173C67.8405 35.1811 67.7182 35.9643 67.3784 36.5556C67.1727 37.0275 66.8478 37.3647 66.4246 37.6449C66.6811 36.7424 66.7885 36.2134 66.6752 36.4105C68.0289 31.5456 61.5103 26.1221 56.1879 28.8822C63.5302 28.0821 67.4354 34.2892 65.137 39.6573C64.5766 40.9747 64.0936 42.2714 63.7298 43.7029C62.7293 39.969 58.752 36.2824 55.2003 35.7334Z" fill="#FFEDBF"/>
<path d="M36.3305 61.3828C30.3372 66.9073 23.2989 67.2924 17.9153 63.3157C11.793 57.2024 8.45808 44.7562 17.5994 32.3853C28.925 19.1791 48.2605 19.7509 47.4879 39.8009C47.0784 46.3304 40.956 56.6417 36.3305 61.3828Z" fill="#FFEDBF"/>
<path d="M55.2422 50.1458C54.9279 57.6503 49.7837 63.8643 46.1041 61.5987C44.5699 59.5919 42.7793 58.4876 41.3402 57.4559C43.3492 54.4164 45.9068 49.3956 47.01 45.7651C47.2066 45.8791 49.5455 47.17 53.5739 48.2583C55.0995 48.6833 55.2214 50.068 55.2422 50.1458Z" fill="#FFEDBF"/>
<path d="M71.2064 9.93412C58.818 2.74851 46.7967 7.47032 42.4449 14.4725C39.7206 18.871 40.6047 23.7199 40.8013 23.8339C40.7805 23.7561 40.1488 23.2584 40.1697 23.3362L39.3623 22.8022C39.2848 22.8229 32.4204 17.6588 22.014 23.4487C-7.90895 40.3875 14.7734 84.7509 37.3086 57.2855C42.0964 60.5882 42.7158 62.5899 45.0402 61.9671C49.8646 60.7578 53.9242 54.8344 53.6242 49.9957C56.1986 50.3064 58.392 48.8849 59.763 47.1836C60.3144 46.4522 60.5767 45.8817 60.7407 45.2541C60.8748 45.1348 60.9881 44.9377 61.0447 44.8392C84.2018 53.4748 94.5085 23.4499 71.2064 9.93412ZM33.3808 59.6719C27.3875 65.1964 20.3492 65.5816 14.9656 61.6049C8.84334 55.4916 5.50837 43.0454 14.6497 30.6745C25.9752 17.4682 45.3108 18.0401 44.5382 38.09C44.1287 44.6195 38.0063 54.9309 33.3808 59.6719ZM52.2925 48.4349C51.9782 55.9394 46.834 62.1535 43.1544 59.8878C41.6202 57.8811 39.8296 56.7768 38.3905 55.745C40.3995 52.7055 42.9571 47.6848 44.0603 44.0542C44.2569 44.1683 46.5958 45.4592 50.6242 46.5475C52.1498 46.9725 52.2717 48.3571 52.2925 48.4349ZM52.2506 34.0225C56.255 35.951 60.3958 41.1779 59.2777 45.0625C58.7648 46.8674 56.3866 48.8386 53.1774 48.9482C53.094 48.637 53.109 48.3829 53.0464 48.1495C52.8946 47.2731 51.9563 45.9404 50.7823 45.588C48.9052 45.0905 47.6388 45.013 45.9465 43.9657C45.4073 43.1931 45.0231 42.3789 44.7163 41.544C44.9877 40.3874 45.2382 39.153 45.3338 37.9602C45.4561 37.1771 45.4801 36.3369 45.525 35.5745C46.9911 34.8482 48.3948 33.8884 51.6874 34.0901C50.3526 33.4472 48.7346 33.2972 47.2417 33.6138C47.2208 33.536 47.2208 33.536 47.1225 33.479C48.6544 32.068 50.0879 30.6001 51.2623 28.7847L47.7486 31.477C42.439 14.1406 73.1802 19.16 71.4547 35.9635C71.4099 36.7259 69.3077 44.376 61.8199 42.4637C61.8557 42.2874 61.8915 42.1111 61.9839 41.8362C62.0614 41.8154 62.0823 41.8932 62.1597 41.8725C62.9404 41.9968 63.7777 42.0225 64.63 41.7942C66.7427 41.3114 69.1894 39.9055 69.5772 37.6339C67.0884 41.0521 63.2893 40.8194 62.4311 40.7159C62.4311 40.7159 62.3536 40.7366 62.3328 40.6588C62.5833 39.4245 62.8755 38.3457 63.1111 37.3655C63.2661 37.3239 63.3436 37.3032 63.4777 37.1839C64.2882 36.7999 65.0363 36.1826 65.391 35.3372C66.1989 33.7034 66.0294 31.8312 65.2817 30.2807C64.5341 28.7302 63.0743 27.6206 61.4921 27.2942C62.8686 28.0926 63.9202 29.2282 64.4712 30.6646C64.7362 31.344 64.8464 32.0648 64.879 32.8065C64.8908 33.4703 64.7685 34.2534 64.4287 34.8447C64.223 35.3167 63.8981 35.6539 63.4749 35.934C63.7314 35.0316 63.8387 34.5025 63.7255 34.6996C65.0792 29.8347 58.5605 24.4113 53.2382 27.1714C60.5804 26.3713 64.4857 32.5783 62.1873 37.9465C61.6269 39.2639 61.1439 40.5605 60.7801 41.992C59.7796 38.2581 55.8023 34.5716 52.2506 34.0225ZM68.8487 44.8324C66.3785 44.9107 63.8249 44.6779 61.4561 43.8952L61.5993 43.1899C75.3293 47.0145 77.6546 25.6314 60.9183 20.1944C50.7401 16.9188 43.4949 24.2794 47.0572 31.9958C46.8456 32.1358 46.5058 32.7271 46.3717 32.8464C44.355 29.9685 45.2879 28.8014 42.7795 25.6383C41.7637 24.3264 39.5724 14.9087 48.6676 9.80373C63.4875 1.5807 83.2201 13.5517 82.8919 31.2315C82.6877 39.4568 76.7868 44.7064 68.8487 44.8324Z" fill="#212721"/>
<path d="M37.5663 49.8796C28.8777 63.6299 18.395 62.937 13.7032 56.2737C18.1948 65.9088 35.5789 65.0859 42.2701 40.7821C40.7885 43.9304 39.2862 47.0009 37.5663 49.8796Z" fill="#212721"/>
<path d="M70.1609 23.3873C68.3376 21.5414 66.112 20.0534 63.5883 19.3122C65.9063 20.5254 67.8429 22.1742 69.4903 23.9838C75.2728 30.6884 75.7595 40.5628 69.6832 43.6083C76.2448 42.6839 77.8889 31.1547 70.1609 23.3873Z" fill="#212721"/>
<path d="M74.5674 27.1257C75.3091 28.3443 75.8751 29.5266 76.3069 30.8283C77.5665 34.9095 76.8566 38.7682 74.5645 42.3005C77.7325 39.8675 79.122 34.8263 77.1383 30.5221C76.6081 29.1634 75.7115 27.9864 74.5674 27.1257Z" fill="#212721"/>
<path d="M45.0052 27.1263C46.0463 21.0946 50.448 17.9976 56.1601 18.5514C50.5169 16.395 43.5969 21.2507 45.0052 27.1263Z" fill="#212721"/>
<path d="M38.7062 25.3124C42.3048 30.6846 42.5753 33.8636 42.1572 38.8114C43.9518 34.662 43.0025 28.3299 38.7062 25.3124Z" fill="#212721"/>
<path d="M39.7286 55.4699C42.515 53.4726 44.697 49.2195 44.653 45.6463C40.9356 54.3961 41.1594 52.752 39.7286 55.4699Z" fill="#212721"/>
<path d="M57.7075 28.9753C59.9599 30.873 61.2974 32.7657 62.0745 35.9758C62.8438 33.2684 60.6753 29.5141 57.7075 28.9753Z" fill="#212721"/>
<path d="M27.0644 163.124C22.0765 158.598 22.5396 152.043 24.9644 145.812C29.4398 134.675 36.6706 130.318 37.2225 129.792C43.3722 125.41 50.2826 123.93 56.118 125.203L56.5707 125.277C56.8725 125.327 57.1495 125.527 57.4513 125.577C58.181 125.852 58.8859 126.277 59.2394 126.952C58.5613 127.303 58.1603 127.854 57.9102 128.429C57.536 129.755 58.0176 131.532 58.9499 132.457C59.9069 133.232 61.7198 134.457 62.9249 133.731C63.4272 133.505 63.175 133.155 63.3755 132.88C63.6009 132.454 63.8014 132.179 64.0267 131.753C64.128 132.079 64.2541 132.254 64.5063 132.604C64.8349 133.429 65.0127 134.23 65.1905 135.03C65.2669 135.506 65.3434 135.981 65.4447 136.306C65.3951 136.606 65.4964 136.932 65.4467 137.232C66.5483 157.772 37.898 173.551 27.0644 163.124Z" fill="#509E2F"/>
<path d="M72.618 94.7693C72.1405 94.8446 71.7891 95.095 71.4129 95.4955C71.0367 95.8961 70.6357 96.4467 70.5364 97.0473C69.7633 99.8499 72.4092 102.601 74.067 101.949C74.8959 101.623 75.2205 100.597 75.8737 100.397C77.7981 106.576 72.0907 117.663 66.0671 122.22C63.0304 124.648 61.6992 125.199 60.9199 125.225C60.6181 125.175 59.9132 124.75 58.7309 124.401C58.8818 124.425 59.0575 124.3 59.2084 124.325C68.7791 120.817 72.8267 109.456 72.8225 107.604C72.4484 108.931 66.7637 118.942 58.7268 122.549C57.7221 123 56.4653 123.101 55.3346 123.377C53.0711 123.003 50.3053 122.854 46.7623 123.657L45.8569 123.507C39.1926 122.56 35.9163 118.934 34.7298 116.733C34.8083 118.134 35.3643 119.46 36.2718 120.535C38.4402 123.361 40.9558 124.085 42.8679 124.71C41.5367 125.261 40.2323 126.588 35.726 123.838C33.6114 122.563 32.1479 120.162 31.6146 117.761C27.9085 101.725 53.9254 77.4913 72.618 94.7693Z" fill="#509E2F"/>
<path d="M26.8083 138.405C23.3397 138.757 22.5356 138.933 20.4995 139.059C16.7539 139.211 14.0398 139.688 14.5876 137.311C15.0858 135.234 18.0191 131.554 19.3483 130.077C21.6056 127.674 25.8721 124.369 31.0957 121.839C31.9784 123.065 33.0615 124.015 34.3204 124.84C32.6626 125.491 31.0047 126.143 29.3221 126.944C26.2834 128.447 23.346 130.275 20.8117 132.479C23.8504 130.976 26.8643 129.623 29.8533 128.42C32.0135 127.543 34.2997 126.841 36.435 126.115C37.1647 126.389 37.7435 126.639 38.4732 126.914C37.9461 127.29 37.4437 127.515 37.0675 127.916C36.59 127.991 36.0877 128.216 35.7611 128.317C32.4703 129.47 29.1546 130.772 25.9402 132.401C22.7259 134.029 19.7885 135.857 16.9524 138.01C20.142 136.532 23.4576 135.229 26.6224 133.901C28.6316 132.999 30.7669 132.273 32.7514 131.521C30.8703 133.524 28.9644 135.676 26.8083 138.405Z" fill="#509E2F"/>
<path d="M57.5334 173.865C58.1618 173.815 58.9907 173.489 59.5179 173.113C61.4506 171.736 75.3789 160.62 77.9795 143.004C78.1532 141.953 78.2049 142.579 78.9388 133.446C79.0876 132.545 78.9037 128.968 78.8768 128.192C78.9244 126.966 78.9968 125.59 79.22 124.239C79.5177 122.437 80.1172 120.685 80.8428 119.109C80.14 119.61 79.4619 119.96 78.6082 120.436C78.3353 122.088 77.7855 123.539 76.8077 124.766C76.6072 125.041 76.5824 125.191 76.3819 125.466C75.9561 126.167 75.5798 126.568 75.0279 127.093C74.6765 127.344 74.476 127.619 74.1494 127.719L73.4466 128.22L71.1624 129.848C70.811 130.098 70.4596 130.349 70.0833 130.749C69.7071 131.15 69.1552 131.675 68.7542 132.226C68.1526 133.052 67.5511 133.878 66.9247 134.854C67.2286 135.83 67.3816 136.78 67.3836 137.706C69.087 134.903 71.0673 132.3 73.2998 130.047C71.3959 133.125 69.6182 136.379 68.0161 139.507C67.766 140.083 67.5407 140.508 67.2906 141.084C67.1502 142.701 66.8243 144.185 66.2994 145.616C66.8392 144.391 67.5231 143.248 68.2228 142.009C69.4755 140.057 70.7034 138.255 72.2331 136.502C72.2331 136.502 69.2047 142.634 66.7799 148.865C64.2042 155.072 62.2569 161.228 62.2569 161.228C62.3024 159.076 62.6745 156.824 63.1975 154.597C63.7205 152.37 64.3944 150.168 65.1944 148.141C65.244 147.84 65.4198 147.715 65.4694 147.415C64.5185 149.417 63.4415 151.244 62.2136 153.046L60.1919 159.652C59.1438 163.181 58.4224 166.609 57.6761 170.187C57.4922 166.609 57.7858 162.956 58.532 159.378C58.6809 158.477 58.9558 157.752 59.1046 156.851C58.1517 157.927 57.0478 158.979 55.944 160.03C55.2742 164.084 55.3796 166.26 56.1423 170.088C56.4462 171.064 56.5743 172.164 57.0291 173.165C57.1304 173.49 57.2564 173.665 57.5334 173.865Z" fill="#509E2F"/>
<path d="M97.6064 173.392C91.7296 176.122 82.9465 172.049 77.9711 161.819C77.1876 159.993 76.5551 158.192 75.9722 156.091C75.997 155.941 76.6482 154.814 77.473 152.637C77.5515 154.038 77.8058 155.314 78.2109 156.615C78.7938 158.716 79.6785 160.867 80.7637 162.743C81.8489 164.619 83.4117 166.42 85.0488 167.77C86.8368 169.145 88.8502 170.094 90.9131 170.744C93.1518 171.268 95.3636 171.016 97.2468 169.939C92.7983 170.593 89.3773 169.719 86.0265 166.543C84.5403 165.218 83.2546 163.617 82.3203 161.767C81.3611 160.066 80.6026 158.09 79.9948 156.138C79.1329 152.911 78.8993 149.634 79.1433 146.281L79.5898 143.579L79.6642 143.128C80.5862 139.425 82.1118 135.821 84.3422 132.642C82.6865 134.22 81.132 136.122 80.0054 138.249C80.0529 137.023 80.1253 135.647 80.1728 134.421C82.0994 130.267 84.2038 126.913 91.3912 125.633C91.141 126.208 91.1679 126.984 90.6408 127.36C88.3566 128.987 90.3989 131.638 92.6872 131.862C93.9191 131.911 95.3765 131.535 95.5997 130.184C95.823 128.833 95.8457 127.757 96.2447 126.281C115.336 130.823 112.525 166.603 97.6064 173.392Z" fill="#509E2F"/>
<path d="M97.2725 90.9772C99.4988 85.947 102.201 79.9157 106.207 72.5576C106.333 72.7327 106.333 72.7327 106.484 72.7576C106.635 72.7826 106.61 72.9327 106.761 72.9576L106.887 73.1327L107.038 73.1576C107.97 74.0828 109.278 74.6075 110.384 74.4818C110.058 74.582 108.148 74.8834 99.1887 93.4531C95.1846 101.737 95.0109 102.788 94.7422 106.291C94.5519 111.195 97.5574 117.398 94.1155 129.785C93.1605 129.935 93.3363 129.81 92.7327 129.71C92.5818 129.685 92.28 129.636 91.5751 129.211C91.5999 129.06 93.7042 125.707 94.0165 119.126C94.1591 115.448 93.6982 111.671 92.5593 108.244C92.458 107.918 92.0053 107.844 91.8048 108.119C91.2529 108.645 90.7009 109.17 90.1242 109.846C89.2209 110.622 88.1418 111.524 87.2385 112.3L82.42 116.131C81.3658 116.882 80.2868 117.783 79.2325 118.534L78.3788 119.01C77.3742 119.461 76.4956 120.087 75.6419 120.563C73.9097 121.665 72.1526 122.917 70.3708 124.319C66.9579 127.148 62.9456 131.729 62.3193 132.705C62.1932 132.53 62.0423 132.505 61.9162 132.33C61.3622 131.93 60.9839 131.405 60.7566 130.905C60.5292 130.404 60.3266 129.754 60.124 129.103C60.1488 128.953 60.1489 128.953 60.0228 128.778C68.6303 121.718 73.5521 119.138 80.1028 114.205C83.6665 111.401 94.18 102.188 97.2725 90.9772Z" fill="#509E2F"/>
<path fill-rule="evenodd" clip-rule="evenodd" d="M66.2994 145.616C66.1631 145.926 66.0359 146.241 65.92 146.564C66.0564 146.25 66.1828 145.935 66.2994 145.616Z" fill="#509E2F"/>
<path d="M105.358 177.141C104.93 176.916 104.653 176.716 104.401 176.365L104.275 176.19C103.872 175.815 103.469 175.44 103.241 174.94C103.014 174.44 102.787 173.939 102.886 173.339C102.935 173.039 102.859 172.563 102.909 172.263L102.933 172.113C112.266 163.476 116.128 136.352 102.33 126.978C103.07 120.622 98.8473 120.85 98.9943 96.5056C99.2196 96.0802 99.2941 95.6298 99.3437 95.3295L100.168 93.1523C100.619 92.3014 100.944 91.2754 101.394 90.4245C101.595 90.1491 101.644 89.8489 101.845 89.5735C101.62 89.999 101.545 90.4494 101.295 91.025C100.72 92.6266 100.448 94.278 100.175 95.9295C99.0169 106.689 103.498 120.847 103.928 121.998C105.877 128.027 119.204 140.254 112.839 160.948C110.495 169.507 105.155 176.49 105.358 177.141Z" fill="#509E2F"/>
<path d="M72.372 97.1963C73.3766 96.7454 80.132 93.3889 95.5134 91.3035C95.2384 92.0292 94.9883 92.6048 94.8643 93.3555C85.9137 93.1104 73.3063 99.0473 73.3849 100.448C73.234 100.423 71.4707 98.8982 72.372 97.1963Z" fill="#509E2F"/>
<path d="M72.0162 118.113C73.0684 116.436 74.9971 113.207 75.8735 111.656C77.1035 110.779 76.4503 110.98 84.8903 107.748C75.5324 116.535 73.2689 116.161 72.0162 118.113Z" fill="#509E2F"/>
<path d="M107.083 71.0059C107.484 70.4553 108.642 70.955 109.221 71.2049C110.052 71.8049 110.581 72.355 110.709 73.4558C110.531 72.6553 105.63 73.2335 107.083 71.0059Z" fill="#509E2F"/>
<path fill-rule="evenodd" clip-rule="evenodd" d="M116.711 149.712C116.589 140.13 110.537 131.727 105.412 122.397C102.979 113.667 99.4842 101.985 102.277 91.6499C102.701 90.0234 103.774 86.3449 111.215 75.0818C111.592 74.6812 112.168 74.0054 112.04 72.9046C111.685 71.3035 109.77 69.7534 107.734 69.8797C107.433 69.8298 107.257 69.955 106.955 69.9051C104.592 70.1316 99.7676 82.4441 96.2637 89.5767C93.5765 90.8292 82.6167 91.486 74.805 94.668C74.5777 94.1677 66.237 85.5406 53.948 87.6743C48.9973 88.5528 44.4517 90.7322 40.3856 93.7619C36.4705 96.8165 33.1858 100.746 31.3357 105.376C29.7605 109.28 28.5202 116.787 30.4136 120.338C17.8042 125.35 -0.00211278 144.925 25.4792 139.882C10.9451 161.232 33.5591 178.232 53.9616 161.708C53.5667 165.035 53.8003 168.313 54.687 171.39C55.1687 173.166 56.2559 175.968 58.6682 175.441C59.1458 175.365 69.1837 167.153 74.3681 158.293C77.2867 170.651 91.0598 180.176 100.85 173.465C100.701 174.366 101.937 176.267 103.549 177.767C105.162 179.267 105.637 178.266 106.714 176.439C106.964 175.864 107.365 175.313 107.615 174.737C113.054 167.153 116.808 159.445 116.711 149.712ZM109.221 71.2049C108.642 70.955 107.484 70.4553 107.083 71.0059C105.63 73.2335 110.531 72.6553 110.709 73.4558C110.581 72.355 110.052 71.8049 109.221 71.2049ZM106.207 72.5576C102.201 79.9157 99.4988 85.947 97.2725 90.9772C94.18 102.188 83.6665 111.401 80.1028 114.205C73.5521 119.138 68.6303 121.718 60.0228 128.778C60.1489 128.953 60.1488 128.953 60.124 129.103C60.3266 129.754 60.5292 130.404 60.7566 130.905C60.9839 131.405 61.3622 131.93 61.9162 132.33C62.0423 132.505 62.1932 132.53 62.3193 132.705C62.9456 131.729 66.9579 127.148 70.3708 124.319C72.1526 122.917 73.9097 121.665 75.6419 120.563C76.4956 120.087 77.3742 119.461 78.3788 119.01L79.2325 118.534C80.2868 117.783 81.3658 116.882 82.42 116.131L87.2385 112.3C88.1418 111.524 89.2209 110.622 90.1242 109.846C90.7009 109.17 91.2529 108.645 91.8048 108.119C92.0053 107.844 92.458 107.918 92.5593 108.244C93.6982 111.671 94.1591 115.448 94.0165 119.126C93.7042 125.707 91.5999 129.06 91.5751 129.211C92.28 129.636 92.5818 129.685 92.7327 129.71C93.3363 129.81 93.1605 129.935 94.1155 129.785C97.5574 117.398 94.5519 111.195 94.7422 106.291C95.0109 102.788 95.1846 101.737 99.1887 93.4531C108.148 74.8834 110.058 74.582 110.384 74.4818C109.278 74.6075 107.97 74.0828 107.038 73.1576L106.887 73.1327L106.761 72.9576C106.61 72.9327 106.635 72.7826 106.484 72.7576C106.333 72.7327 106.333 72.7327 106.207 72.5576ZM100.393 126.503C101.012 121.824 97.2288 116.572 97.6672 98.9083C95.7675 103.838 95.7137 102.287 96.5714 114.922C96.7533 117.573 97.0158 122.552 96.5941 125.105C96.5941 125.105 98.9837 125.654 100.393 126.503ZM80.4664 130.768C84.7268 124.686 92.0671 124.357 92.2428 124.231C92.6666 122.605 92.9395 120.953 93.0615 119.277C93.1545 115.899 92.7701 112.597 91.9081 109.37C88.4209 112.649 88.2224 113.85 82.2484 118.107C81.6489 119.859 80.7001 122.787 80.5285 124.763C80.3569 126.74 80.4871 128.767 80.4664 130.768ZM74.2962 125.893C75.7514 124.591 76.7788 123.064 77.5292 121.337C77.1778 121.588 76.8264 121.838 76.4997 121.938C74.7675 123.04 73.1613 124.317 71.5552 125.594C69.949 126.871 68.3181 128.298 66.9889 129.775C66.4618 130.151 66.0608 130.701 65.6845 131.102C65.9119 131.602 66.1393 132.102 66.2158 132.578L67.3444 131.376C67.5449 131.101 67.8964 130.85 68.2478 130.6C68.624 130.199 69.1511 129.824 69.703 129.298C70.6064 128.522 71.5097 127.746 72.3882 127.12C72.7148 127.02 72.9153 126.744 73.2419 126.644L73.9448 126.143L74.2962 125.893ZM75.8735 111.656C74.9971 113.207 73.0684 116.436 72.0162 118.113C73.2689 116.161 75.5324 116.535 84.8903 107.748C76.4503 110.98 77.1035 110.779 75.8735 111.656ZM83.958 106.822C85.1136 106.396 86.143 105.795 87.1972 105.044C90.4075 101.564 93.3904 97.5847 94.2131 94.4817C88.1565 95.486 82.8791 96.4648 76.6261 99.5958C77.209 101.697 78.6456 103.323 76.5722 109.303C77.2254 109.103 78.0296 108.927 78.5319 108.702C80.3406 108.075 82.2754 107.624 83.958 106.822ZM95.5134 91.3035C80.132 93.3889 73.3766 96.7454 72.372 97.1963C71.4707 98.8982 73.234 100.423 73.3849 100.448C73.3063 99.0473 85.9137 93.1104 94.8643 93.3555C94.9883 92.6048 95.2384 92.0292 95.5134 91.3035ZM71.4129 95.4955C71.7891 95.095 72.1405 94.8446 72.618 94.7693C53.9254 77.4913 27.9085 101.725 31.6146 117.761C32.1479 120.162 33.6114 122.563 35.726 123.838C40.2323 126.588 41.5367 125.261 42.8679 124.71C40.9558 124.085 38.4402 123.361 36.2718 120.535C35.3643 119.46 34.8083 118.134 34.7298 116.733C35.9163 118.934 39.1926 122.56 45.8569 123.507L46.7623 123.657C50.3053 122.854 53.0711 123.003 55.3346 123.377C56.4653 123.101 57.7221 123 58.7268 122.549C66.7637 118.942 72.4484 108.931 72.8225 107.604C72.8267 109.456 68.7791 120.817 59.2084 124.325C59.0575 124.3 58.8818 124.425 58.7309 124.401C59.9132 124.75 60.6181 125.175 60.9199 125.225C61.6992 125.199 63.0304 124.648 66.0671 122.22C72.0907 117.663 77.7981 106.576 75.8737 100.397C75.2205 100.597 74.8959 101.623 74.067 101.949C72.4092 102.601 69.7633 99.8499 70.5364 97.0473C70.6357 96.4467 71.0367 95.8961 71.4129 95.4955ZM20.4995 139.059C22.5356 138.933 23.3397 138.757 26.8083 138.405C28.9644 135.676 30.8703 133.524 32.7514 131.521C30.7669 132.273 28.6316 132.999 26.6224 133.901C23.4576 135.229 20.142 136.532 16.9524 138.01C19.7885 135.857 22.7259 134.029 25.9402 132.401C29.1546 130.772 32.4703 129.47 35.7611 128.317C36.0877 128.216 36.59 127.991 37.0675 127.916C37.4437 127.515 37.9461 127.29 38.4732 126.914C37.7435 126.639 37.1647 126.389 36.435 126.115C34.2997 126.841 32.0135 127.543 29.8533 128.42C26.8643 129.623 23.8504 130.976 20.8117 132.479C23.346 130.275 26.2834 128.447 29.3221 126.944C31.0047 126.143 32.6626 125.491 34.3204 124.84C33.0615 124.015 31.9784 123.065 31.0957 121.839C25.8721 124.369 21.6056 127.674 19.3483 130.077C18.0191 131.554 15.0858 135.234 14.5876 137.311C14.0398 139.688 16.7539 139.211 20.4995 139.059ZM24.9644 145.812C22.5396 152.043 22.0765 158.598 27.0644 163.124C37.898 173.551 66.5483 157.772 65.4467 137.232C65.4964 136.932 65.3951 136.606 65.4447 136.306C65.3434 135.981 65.2669 135.506 65.1905 135.03C65.0127 134.23 64.8349 133.429 64.5063 132.604C64.2541 132.254 64.128 132.079 64.0267 131.753C63.8014 132.179 63.6009 132.454 63.3755 132.88C63.175 133.155 63.4272 133.505 62.9249 133.731C61.7198 134.457 59.9069 133.232 58.9499 132.457C58.0176 131.532 57.536 129.755 57.9102 128.429C58.1603 127.854 58.5613 127.303 59.2394 126.952C58.8859 126.277 58.181 125.852 57.4513 125.577C57.1495 125.527 56.8725 125.327 56.5707 125.277L56.118 125.203C50.2826 123.93 43.3722 125.41 37.2225 129.792C36.6706 130.318 29.4398 134.675 24.9644 145.812ZM59.5179 173.113C58.9907 173.489 58.1618 173.815 57.5334 173.865C57.2564 173.665 57.1304 173.49 57.0291 173.165C56.5743 172.164 56.4462 171.064 56.1423 170.088C55.3796 166.26 55.2742 164.084 55.944 160.03C57.0478 158.979 58.1517 157.927 59.1046 156.851C58.9558 157.752 58.6809 158.477 58.532 159.378C57.7858 162.956 57.4922 166.609 57.6761 170.187C58.4224 166.609 59.1438 163.181 60.1919 159.652L62.2136 153.046C63.4415 151.244 64.5185 149.417 65.4694 147.415C65.4198 147.715 65.244 147.84 65.1944 148.141C64.3944 150.168 63.7205 152.37 63.1975 154.597C62.6745 156.824 62.3024 159.076 62.2569 161.228C62.2569 161.228 64.2042 155.072 66.7799 148.865C69.2047 142.634 72.2331 136.502 72.2331 136.502C70.7034 138.255 69.4755 140.057 68.2228 142.009C67.5231 143.248 66.8392 144.391 66.2994 145.616C66.1828 145.935 66.0564 146.25 65.92 146.564C66.0359 146.241 66.1631 145.926 66.2994 145.616C66.8243 144.185 67.1502 142.701 67.2906 141.084C67.5407 140.508 67.766 140.083 68.0161 139.507C69.6182 136.379 71.3959 133.125 73.2998 130.047C71.0673 132.3 69.087 134.903 67.3836 137.706C67.3816 136.78 67.2286 135.83 66.9247 134.854C67.5511 133.878 68.1526 133.052 68.7542 132.226C69.1552 131.675 69.7071 131.15 70.0833 130.749C70.4596 130.349 70.811 130.098 71.1624 129.848L73.4466 128.22L74.1494 127.719C74.476 127.619 74.6765 127.344 75.0279 127.093C75.5798 126.568 75.9561 126.167 76.3819 125.466C76.5824 125.191 76.6072 125.041 76.8077 124.766C77.7855 123.539 78.3353 122.088 78.6082 120.436C79.4619 119.96 80.14 119.61 80.8428 119.109C80.1172 120.685 79.5177 122.437 79.22 124.239C78.9968 125.59 78.9244 126.966 78.8768 128.192C78.9037 128.968 79.0876 132.545 78.9388 133.446C78.2049 142.579 78.1532 141.953 77.9795 143.004C75.3789 160.62 61.4506 171.736 59.5179 173.113ZM77.9711 161.819C82.9465 172.049 91.7296 176.122 97.6064 173.392C112.525 166.603 115.336 130.823 96.2447 126.281C95.8457 127.757 95.823 128.833 95.5997 130.184C95.3765 131.535 93.9191 131.911 92.6872 131.862C90.3989 131.638 88.3566 128.987 90.6408 127.36C91.1679 126.984 91.141 126.208 91.3912 125.633C84.2038 126.913 82.0994 130.267 80.1728 134.421C80.1253 135.647 80.0529 137.023 80.0054 138.249C81.132 136.122 82.6865 134.22 84.3422 132.642C82.1118 135.821 80.5862 139.425 79.6642 143.128L79.5898 143.579L79.1433 146.281C78.8993 149.634 79.1329 152.911 79.9948 156.138C80.6026 158.09 81.3611 160.066 82.3203 161.767C83.2546 163.617 84.5403 165.218 86.0265 166.543C89.3773 169.719 92.7983 170.593 97.2468 169.939C95.3636 171.016 93.1518 171.268 90.9131 170.744C88.8502 170.094 86.8368 169.145 85.0488 167.77C83.4117 166.42 81.8489 164.619 80.7637 162.743C79.6785 160.867 78.7938 158.716 78.2109 156.615C77.8058 155.314 77.5515 154.038 77.473 152.637C76.6482 154.814 75.997 155.941 75.9722 156.091C76.5551 158.192 77.1876 159.993 77.9711 161.819ZM104.401 176.365C104.653 176.716 104.93 176.916 105.358 177.141C105.155 176.49 110.495 169.507 112.839 160.948C119.204 140.254 105.877 128.027 103.928 121.998C103.498 120.847 99.0169 106.689 100.175 95.9295C100.448 94.278 100.72 92.6266 101.295 91.025C101.545 90.4494 101.62 89.999 101.845 89.5735C101.644 89.8489 101.595 90.1491 101.394 90.4245C100.944 91.2754 100.619 92.3014 100.168 93.1523L99.3437 95.3295C99.2941 95.6298 99.2196 96.0802 98.9943 96.5056C98.8473 120.85 103.07 120.622 102.33 126.978C116.128 136.352 112.266 163.476 102.933 172.113L102.909 172.263C102.859 172.563 102.935 173.039 102.886 173.339C102.787 173.939 103.014 174.44 103.241 174.94C103.469 175.44 103.872 175.815 104.275 176.19L104.401 176.365Z" fill="#509E2F"/>
<path d="M112.928 144.46C112.806 134.878 106.754 126.475 101.63 117.145C99.1968 108.415 95.7015 96.7327 98.4942 86.3979C98.918 84.7714 99.9909 81.0929 107.433 69.8298C107.809 69.4293 108.386 68.7534 108.257 67.6526C107.902 66.0515 105.988 64.5014 103.952 64.6277C103.65 64.5778 103.474 64.703 103.172 64.6531C100.81 64.8797 95.9849 77.1921 92.481 84.3247C89.7938 85.5773 78.834 86.234 71.0223 89.416C70.7949 88.9157 62.4543 80.2887 50.1653 82.4224C45.2146 83.3009 40.669 85.4802 36.6029 88.5099C32.6878 91.5645 29.4031 95.4945 27.553 100.124C25.9778 104.028 24.7375 111.535 26.6309 115.086C14.0215 120.098 -3.78483 139.673 21.6965 134.63C7.16239 155.98 29.7763 172.98 50.1789 156.456C49.784 159.784 50.0176 163.061 50.9043 166.138C51.3859 167.914 52.4732 170.716 54.8855 170.189C55.363 170.113 65.401 161.901 70.5854 153.041C73.504 165.399 87.2771 174.924 97.067 168.213C96.9181 169.114 98.1542 171.015 99.7666 172.515C101.379 174.015 101.854 173.014 102.931 171.187C103.181 170.612 103.582 170.061 103.833 169.485C109.271 161.901 113.025 154.193 112.928 144.46ZM103.3 65.7539C103.702 65.2033 104.859 65.703 105.438 65.9529C106.269 66.5529 106.798 67.103 106.926 68.2038C106.748 67.4033 101.847 67.9815 103.3 65.7539ZM93.4898 85.7253C95.7161 80.695 98.4179 74.6637 102.424 67.3057C102.55 67.4807 102.55 67.4807 102.701 67.5057C102.852 67.5306 102.827 67.6807 102.978 67.7057L103.104 67.8807C103.104 67.8807 103.104 67.8807 103.255 67.9057C104.187 68.8309 105.496 69.3555 106.602 69.2298C106.275 69.3301 104.365 69.6314 95.4059 88.2011C91.4019 96.4849 91.2282 97.5359 90.9595 101.039C90.7692 105.943 93.7747 112.146 90.3328 124.533C89.3778 124.683 89.5535 124.558 88.9499 124.458C88.799 124.433 88.4972 124.384 87.7924 123.959C87.8172 123.808 89.9215 120.455 90.2337 113.874C90.3764 110.196 89.9155 106.419 88.7766 102.992C88.6753 102.666 88.2226 102.592 88.0221 102.867C87.4702 103.393 86.9182 103.918 86.3415 104.594C85.4381 105.37 84.3591 106.272 83.4558 107.048C81.8496 108.325 80.2435 109.602 78.6373 110.879C77.5831 111.63 76.504 112.531 75.4498 113.282L74.5961 113.758C73.5915 114.209 72.7129 114.835 71.8592 115.311C70.127 116.413 68.3699 117.665 66.588 119.067C63.1752 121.896 59.1629 126.477 58.5365 127.453C58.4105 127.278 58.2596 127.253 58.1335 127.078C57.5795 126.678 57.2012 126.153 56.9738 125.653C56.7465 125.152 56.5439 124.502 56.3413 123.851C56.3661 123.701 56.3661 123.701 56.24 123.526C64.8476 116.466 69.7694 113.886 76.3201 108.953C79.8838 106.149 90.3972 96.9359 93.4898 85.7253ZM93.8845 93.6563C93.446 111.32 97.2288 116.572 96.6107 121.251C95.2009 120.402 92.8114 119.853 92.8114 119.853C93.2331 117.3 92.9706 112.322 92.7887 109.67C91.931 97.0351 91.9848 98.5862 93.8845 93.6563ZM88.4601 118.979C88.4601 118.979 88.3092 118.954 88.4601 118.979C88.2844 119.105 80.9441 119.434 76.6837 125.516C76.7044 123.515 76.5742 121.488 76.7458 119.511C76.9174 117.535 77.8662 114.607 78.4657 112.855C84.4397 108.598 84.6382 107.397 88.1254 104.118C88.9874 107.345 89.3718 110.647 89.2787 114.025C89.1568 115.701 88.8839 117.353 88.4601 118.979ZM73.7465 116.085C72.9961 117.812 71.9687 119.339 70.5135 120.641C70.3377 120.766 70.3377 120.766 70.162 120.891C69.9863 121.016 69.6349 121.267 69.4592 121.392C69.1326 121.492 68.9321 121.768 68.6055 121.868C67.727 122.494 66.8236 123.27 65.9203 124.046C65.3684 124.572 64.8413 124.947 64.465 125.348C64.1136 125.598 63.7622 125.849 63.5617 126.124C63.1855 126.525 62.8093 126.925 62.433 127.326C62.3566 126.85 62.1292 126.35 61.9018 125.85C62.278 125.449 62.6791 124.899 63.2062 124.523C64.5353 123.046 66.1663 121.619 67.7725 120.342C69.3786 119.065 70.9848 117.788 72.717 116.686C73.0436 116.586 73.3951 116.336 73.7465 116.085ZM68.2335 112.861C69.2857 111.184 71.2143 107.955 72.0908 106.404C73.3208 105.527 72.6676 105.728 81.1076 102.496C71.7497 111.283 69.4862 110.909 68.2335 112.861ZM83.4145 99.7921C82.3603 100.543 81.3308 101.144 80.1753 101.57C78.4927 102.372 76.5579 102.823 74.7492 103.45C74.2469 103.675 73.4427 103.851 72.7895 104.051C74.8629 98.0706 73.4263 96.4451 72.8434 94.3438C79.0964 91.2128 84.3738 90.234 90.4304 89.2298C89.6077 92.3327 86.6248 96.3125 83.4145 99.7921ZM68.5893 91.9444C69.5939 91.4934 76.3493 88.1369 91.7306 86.0515C91.4557 86.7772 91.2056 87.3528 91.0816 88.1035C82.131 87.8584 69.5236 93.7953 69.6021 95.1963C69.4512 95.1714 67.688 93.6462 68.5893 91.9444ZM68.8353 89.5173C68.3578 89.5926 68.0064 89.843 67.6302 90.2436C67.254 90.6441 66.8529 91.1947 66.7537 91.7953C65.9806 94.5979 68.6265 97.3486 70.2843 96.6971C71.1132 96.3714 71.4377 95.3454 72.091 95.1449C74.0154 101.324 68.3079 112.411 62.2843 116.968C59.2477 119.396 57.9165 119.947 57.1372 119.973C56.8354 119.923 56.1305 119.498 54.9482 119.149C55.099 119.173 55.2748 119.048 55.4257 119.073C64.9964 115.565 69.0439 104.204 69.0398 102.352C68.6657 103.679 62.981 113.69 54.944 117.297C53.9394 117.748 52.6826 117.849 51.5519 118.125C49.2884 117.751 46.5226 117.602 42.9796 118.405C42.6778 118.355 42.376 118.305 42.0742 118.255C35.4099 117.308 32.1335 113.682 30.947 111.481C31.0256 112.882 31.5816 114.208 32.4891 115.283C34.6574 118.109 37.1731 118.833 39.0852 119.458C37.7539 120.009 36.4496 121.336 31.9433 118.586C29.8287 117.311 28.3652 114.91 27.8319 112.509C24.1258 96.4733 50.1427 72.2393 68.8353 89.5173ZM23.0256 133.153C19.557 133.505 18.7529 133.681 16.7168 133.807C12.9712 133.959 10.2571 134.436 10.8049 132.059C11.3031 129.982 14.2364 126.302 15.5655 124.825C17.8229 122.422 22.0894 119.117 27.313 116.587C28.1956 117.813 29.2788 118.763 30.5377 119.588C28.8798 120.239 27.222 120.891 25.5394 121.692C22.5007 123.195 19.5633 125.023 17.029 127.227C20.0677 125.724 23.0816 124.371 26.0706 123.168C28.2307 122.291 30.517 121.589 32.6523 120.863C33.382 121.137 33.9608 121.387 34.6905 121.662C34.1633 122.038 33.661 122.263 33.2848 122.664C32.8073 122.739 32.305 122.964 31.9784 123.065C28.6876 124.218 25.3719 125.52 22.1575 127.149C18.9431 128.777 16.0058 130.605 13.1697 132.758C16.3592 131.28 19.6749 129.977 22.8397 128.649C24.8489 127.747 26.9842 127.021 28.9687 126.269C27.0876 128.272 25.1817 130.424 23.0256 133.153ZM23.2817 157.872C18.2938 153.346 18.7569 146.791 21.1817 140.56C25.6571 129.423 32.8879 125.066 33.4398 124.54C39.5895 120.158 46.4999 118.678 52.3353 119.951C52.4862 119.976 52.6371 120.001 52.788 120.025C53.0898 120.075 53.3668 120.275 53.6686 120.325C54.3983 120.6 55.1032 121.025 55.4566 121.7C54.7786 122.051 54.3776 122.602 54.1275 123.177C53.7533 124.503 54.2349 126.28 55.1672 127.205C56.1242 127.98 57.9371 129.205 59.1422 128.479C59.6445 128.253 59.3923 127.903 59.5928 127.628C59.8182 127.202 60.0187 126.927 60.244 126.501C60.3453 126.827 60.4714 127.002 60.7236 127.352C61.0522 128.177 61.23 128.978 61.4077 129.778C61.4842 130.254 61.5607 130.729 61.662 131.054C61.6124 131.354 61.7136 131.68 61.664 131.98C62.7656 152.52 34.1153 168.299 23.2817 157.872ZM55.7351 167.861C55.208 168.237 54.3791 168.563 53.7507 168.613C53.4737 168.413 53.3476 168.238 53.2464 167.913C52.7916 166.912 52.6634 165.812 52.3596 164.836C51.5969 161.008 51.4915 158.832 52.1613 154.778C53.2651 153.727 54.369 152.675 55.3219 151.599C55.1731 152.5 54.8982 153.225 54.7493 154.126C54.003 157.704 53.7095 161.358 53.8934 164.935C54.6397 161.357 55.3611 157.929 56.4092 154.4C57.0831 152.198 57.757 149.996 58.4309 147.794C59.6588 145.992 60.7358 144.165 61.6867 142.163C61.637 142.463 61.4613 142.588 61.4117 142.889C60.6117 144.916 59.9378 147.118 59.4148 149.345C58.8918 151.572 58.5197 153.824 58.4742 155.976C58.4742 155.976 60.4215 149.82 62.9972 143.613C65.422 137.382 68.4504 131.25 68.4504 131.25C66.9207 133.003 65.6928 134.805 64.4401 136.757C63.5636 138.309 62.712 139.71 62.1373 141.312C62.8877 139.585 63.3363 137.808 63.5079 135.832C63.758 135.256 63.9833 134.831 64.2334 134.255C65.8355 131.127 67.6132 127.873 69.5171 124.795C67.2846 127.048 65.3042 129.651 63.6009 132.454C63.5989 131.528 63.4459 130.578 63.142 129.602C63.7684 128.626 64.3699 127.8 64.9715 126.974C65.3725 126.423 65.9244 125.898 66.3006 125.497C66.6769 125.097 67.0283 124.846 67.3797 124.596C68.0825 124.095 68.961 123.469 69.6638 122.968C69.8395 122.843 70.191 122.593 70.3667 122.467C70.6933 122.367 70.8938 122.092 71.2452 121.841C71.7971 121.316 72.1733 120.915 72.5992 120.214C72.7997 119.939 72.8245 119.789 73.025 119.514C74.0028 118.287 74.5526 116.836 74.8255 115.184C75.6792 114.708 76.3572 114.358 77.0601 113.857C76.3345 115.433 75.735 117.185 75.4373 118.987C75.2141 120.338 75.1417 121.714 75.0941 122.94C75.121 123.716 75.3049 127.293 75.1561 128.194C74.4222 137.327 74.3705 136.701 74.1968 137.752C71.5962 155.368 57.6679 166.484 55.7351 167.861ZM93.8237 168.14C87.9469 170.871 79.1638 166.797 74.1883 156.567C73.4049 154.741 72.7724 152.94 72.1895 150.839C72.2143 150.689 72.8655 149.562 73.6903 147.385C73.7688 148.786 74.0231 150.062 74.4282 151.363C75.0111 153.464 75.8958 155.615 76.981 157.491C78.0662 159.367 79.6289 161.168 81.2661 162.518C83.0541 163.893 85.0674 164.842 87.1304 165.492C89.3691 166.016 91.5809 165.764 93.464 164.687C89.0156 165.341 85.5946 164.467 82.2438 161.291C80.7576 159.966 79.4719 158.365 78.5375 156.515C77.5784 154.814 76.8198 152.838 76.2121 150.886C75.3502 147.659 75.1166 144.382 75.3606 141.029C75.5094 140.128 75.6583 139.228 75.8071 138.327C75.8319 138.177 75.8567 138.027 75.8815 137.876C76.8035 134.173 78.3291 130.569 80.5595 127.39C78.9037 128.968 77.3493 130.87 76.2227 132.997C76.2702 131.771 76.3426 130.395 76.3901 129.169C78.3167 125.015 80.4211 121.661 87.6084 120.381C87.3583 120.957 87.3852 121.732 86.8581 122.108C84.5739 123.735 86.6162 126.386 88.9044 126.61C90.1364 126.659 91.5937 126.283 91.817 124.932C92.0403 123.581 92.063 122.505 92.462 121.029C111.554 125.571 108.742 161.351 93.8237 168.14ZM101.575 171.889C101.147 171.664 100.87 171.464 100.618 171.113C100.618 171.113 100.618 171.113 100.492 170.938C100.089 170.563 99.686 170.188 99.4586 169.688C99.2312 169.188 99.0038 168.687 99.1031 168.087C99.1527 167.787 99.0762 167.311 99.1258 167.011L99.1506 166.861C108.484 158.224 112.345 131.1 98.5475 121.726C99.2876 115.37 95.0646 115.598 95.2116 91.2536C95.4369 90.8282 95.5114 90.3778 95.561 90.0775C95.8359 89.3518 96.1108 88.626 96.3857 87.9003C96.8364 87.0494 97.1609 86.0234 97.6116 85.1725C97.8121 84.8971 97.8617 84.5969 98.0622 84.3215C97.8369 84.747 97.7625 85.1974 97.5123 85.773C96.9377 87.3746 96.6648 89.0261 96.3919 90.6775C95.2342 101.437 99.7155 115.595 100.145 116.746C102.095 122.775 115.421 135.002 109.056 155.697C106.712 164.255 101.373 171.238 101.575 171.889Z" fill="#212721"/>
<path d="M51.8142 145.621C49.1311 148.725 45.7431 151.404 42.1525 153.433C40.4202 154.535 38.4358 155.286 36.4762 155.888C34.5165 156.49 32.4804 156.616 30.5187 156.292C28.5571 155.968 26.6946 155.043 25.2084 153.718C23.7221 152.393 22.6617 150.367 22.5315 148.34C22.1842 150.442 23.0441 152.743 24.456 154.519C25.8926 156.144 27.9824 157.569 30.2459 157.943C32.4845 158.467 34.8473 158.241 36.933 157.814C39.1944 157.263 41.2036 156.361 43.0868 155.284C46.8531 153.13 50.2907 150.151 53.0235 146.746C55.6053 143.317 57.5319 139.163 57.7986 134.734C56.6761 138.713 54.6731 142.392 51.8142 145.621Z" fill="#212721"/>
<path d="M80.2326 150.008C79.6497 147.907 79.3686 145.856 79.4141 143.704C79.3087 141.527 79.5051 139.401 79.7015 137.274C78.7506 139.276 78.2276 141.503 78.1821 143.655C77.9609 145.932 78.2172 148.133 78.7753 150.385C79.3582 152.486 80.2429 154.637 81.8056 156.438C83.2174 158.213 85.332 159.488 87.4198 159.987C85.4313 158.887 83.9698 157.412 82.7089 155.661C81.448 153.911 80.6646 152.085 80.2326 150.008Z" fill="#212721"/>
<path d="M90.4195 129.637C91.3745 129.486 92.2034 129.16 92.9063 128.659C93.6091 128.159 94.2106 127.333 94.3595 126.432C93.6566 126.933 92.9786 127.283 92.3254 127.484C91.6722 127.684 91.019 127.885 90.2397 127.91C89.6113 127.961 88.832 127.986 88.0775 127.862C87.323 127.737 86.5933 127.462 85.8636 127.187C86.1923 128.013 86.8724 128.588 87.7281 129.038C88.5839 129.488 89.4893 129.637 90.4195 129.637Z" fill="#212721"/>
<path d="M67.0472 99.4011C67.8782 100.001 69.0853 100.201 70.0652 99.8998C71.0202 99.7491 71.8987 99.1231 72.5002 98.2971C71.6713 98.6229 70.7411 98.6234 69.9618 98.6489C69.2073 98.5242 68.4528 98.3995 67.8989 97.9995C67.3449 97.5995 66.8157 97.0494 66.4374 96.5242C66.084 95.8489 65.7305 95.1735 65.5775 94.2229C64.976 95.0489 64.9533 96.1247 65.2571 97.1003C65.4349 97.9008 66.0405 98.9263 67.0472 99.4011Z" fill="#212721"/>
<path d="M53.286 129.207C53.9909 129.632 55.0224 129.957 55.8513 129.631C55.1464 129.206 54.5924 128.806 54.2142 128.281C53.8359 127.756 53.4576 127.231 53.255 126.58C53.0525 125.93 53.0008 125.305 53.1 124.704C53.1993 124.103 53.3233 123.353 53.7491 122.652C52.9202 122.978 52.3435 123.654 51.9177 124.354C51.6179 125.23 51.4691 126.131 51.7729 127.107C51.9507 127.907 52.5811 128.782 53.286 129.207Z" fill="#212721"/>
<path d="M28.3213 151.764C30.1342 152.989 32.3728 153.513 34.5846 153.262C36.7965 153.011 38.9318 152.284 40.7901 151.357C42.7994 150.455 44.7321 149.078 46.0861 147.451C47.591 145.849 48.668 144.022 49.8958 142.22C48.1388 143.472 46.6587 144.924 45.0526 146.201C43.4464 147.477 41.8651 148.604 40.0315 149.381C38.1732 150.308 36.3396 151.084 34.4048 151.536C32.4452 152.137 30.4091 152.264 28.3213 151.764Z" fill="#212721"/>
<path d="M103.213 150.721C103.736 148.494 103.957 146.217 104.002 144.065C103.922 141.738 103.665 139.537 102.932 137.411C102.349 135.309 101.313 133.133 100.052 131.382C100.786 133.509 101.369 135.61 101.65 137.662C102.082 139.738 102.338 141.94 102.293 144.091C102.398 146.268 102.202 148.395 102.005 150.521C101.658 152.623 101.311 154.725 100.637 156.927C101.865 155.125 102.69 152.948 103.213 150.721Z" fill="#212721"/>
<path d="M46.2437 116.476C47.7775 116.576 49.3609 116.375 50.9691 116.023C52.4264 115.647 53.9333 114.971 55.2894 114.27C56.6702 113.418 57.7741 112.367 58.7518 111.14C57.3958 111.841 56.0397 112.543 54.7085 113.094C53.3773 113.645 51.92 114.021 50.6136 114.422C49.1562 114.798 47.7237 115.024 46.316 115.1C44.9083 115.176 43.3498 115.227 41.816 115.128C43.2257 115.978 44.7099 116.377 46.2437 116.476Z" fill="#212721"/>
<path d="M41.839 91.5343C43.596 90.2823 45.6301 89.2303 47.6393 88.3284C49.6485 87.4266 51.7839 86.6998 54.0205 86.2982C51.7074 86.2244 49.3447 86.451 47.2094 87.1778C44.9231 87.8796 42.8891 88.9316 40.9811 90.1587C39.0483 91.5359 37.3926 93.113 35.8629 94.8653C34.4841 96.6425 33.2066 98.7449 32.5575 100.797C33.8102 98.8446 35.3151 97.2425 36.82 95.6404C38.3 94.1884 40.1067 92.6361 41.839 91.5343Z" fill="#212721"/>
<path d="M41.9873 124.41C43.1428 123.984 44.2735 123.708 45.4043 123.432C46.535 123.157 47.8166 122.906 48.9473 122.63C47.7897 122.13 46.4068 122.056 45.15 122.157C43.8932 122.257 42.6116 122.508 41.3052 122.909C40.1497 123.335 38.9693 123.911 37.9399 124.512C36.8857 125.264 35.8314 126.015 35.0542 126.966C36.2097 126.54 37.3652 126.114 38.5208 125.688C39.6763 125.262 40.8318 124.836 41.9873 124.41Z" fill="#212721"/>
</svg>
