<svg width="24" height="24" viewBox="0 0 24 24" fill="none" xmlns="http://www.w3.org/2000/svg">
<path fill-rule="evenodd" clip-rule="evenodd" d="M5.31884 4.424C3.77558 5.182 2.64535 6.986 2.64535 9.137C2.64535 11.334 3.48256 13.028 4.6807 14.48C5.66954 15.676 6.86581 16.668 8.03233 17.634C8.30954 17.864 8.58488 18.093 8.85558 18.322C9.34488 18.737 9.78116 19.1 10.2026 19.365C10.623 19.629 10.9616 19.75 11.25 19.75C11.5384 19.75 11.877 19.63 12.2974 19.365C12.7188 19.1 13.1551 18.737 13.6444 18.322C13.9142 18.092 14.1905 17.864 14.4677 17.634C15.6342 16.668 16.8305 15.676 17.8193 14.48C19.0184 13.028 19.8547 11.334 19.8547 9.137C19.8547 6.987 18.7244 5.182 17.1812 4.424C15.6816 3.687 13.6667 3.882 11.7523 6.021C11.6872 6.09359 11.6092 6.15132 11.5229 6.19076C11.4366 6.23019 11.3438 6.25052 11.25 6.25052C11.1562 6.25052 11.0634 6.23019 10.9771 6.19076C10.8908 6.15132 10.8128 6.09359 10.7477 6.021C8.83326 3.882 6.81837 3.687 5.31884 4.424ZM11.25 4.46C9.0993 2.39 6.69093 2.1 4.73837 3.059C2.67884 4.074 1.25 6.426 1.25 9.138C1.25 11.803 2.28256 13.837 3.63791 15.477C4.72256 16.79 6.05 17.889 7.22302 18.859C7.48907 19.079 7.74674 19.293 7.9914 19.501C8.4686 19.905 8.98023 20.335 9.49837 20.661C10.0165 20.986 10.6081 21.251 11.25 21.251C11.8919 21.251 12.4835 20.986 13.0016 20.661C13.5207 20.335 14.0314 19.905 14.5086 19.501C14.7634 19.2852 15.0195 19.0712 15.277 18.859C16.4491 17.889 17.7774 16.789 18.8621 15.477C20.2174 13.837 21.25 11.803 21.25 9.138C21.25 6.426 19.8221 4.074 17.7616 3.061C15.8091 2.101 13.4007 2.391 11.25 4.46Z" fill="black"/>
</svg>
