<svg width="16" height="16" viewBox="0 0 16 16" fill="none" xmlns="http://www.w3.org/2000/svg">
<path fill-rule="evenodd" clip-rule="evenodd" d="M15.9807 10.8275C14.2187 13.7688 10.9741 15.4941 7.55035 15.3103C3.35724 15.1227 2.51586 13.4234 2.67586 12.0855C2.72856 11.6037 2.91062 11.1452 3.20276 10.7586C3.23893 10.709 3.27956 10.6628 3.32414 10.6206C3.59216 10.3502 3.9273 10.156 4.29517 10.0579C5.10345 9.84271 5.99724 10.1103 6.81931 10.4413C8.75862 11.2193 10.6538 11.6855 12.9269 11.4317C13.0924 11.4124 13.2579 11.3903 13.4262 11.36C14.2457 11.2258 15.0436 10.9827 15.7986 10.6372C15.8527 10.6103 15.918 10.6217 15.9597 10.6654C16.0015 10.709 16.01 10.7747 15.9807 10.8275Z" fill="#C03A2B"/>
<path fill-rule="evenodd" clip-rule="evenodd" d="M7.59893 14.4827H7.58624C5.59672 14.3941 4.22071 13.9233 3.71257 13.1586C3.46549 12.7854 3.41999 12.3139 3.59119 11.9004C3.62353 11.8054 3.70483 11.7355 3.80352 11.7178C3.90222 11.7001 4.00277 11.7373 4.06613 11.815C4.1295 11.8927 4.14569 11.9987 4.10844 12.0918C3.99856 12.34 4.02257 12.627 4.17216 12.8535C4.57464 13.4604 5.82734 13.8535 7.61106 13.9329C7.76342 13.9363 7.88421 14.0625 7.88086 14.2148C7.87751 14.3672 7.75128 14.488 7.59893 14.4846V14.4827Z" fill="#E64C3C"/>
<path fill-rule="evenodd" clip-rule="evenodd" d="M3.20275 10.7587C2.91062 11.1453 2.72855 11.6038 2.67586 12.0856C1.73932 11.713 0.890189 11.1504 0.182065 10.4331C-0.0767548 10.1386 -0.0500354 9.69049 0.241958 9.42876C0.533952 9.16702 0.982267 9.18928 1.24689 9.47866C1.806 10.0274 2.46782 10.4605 3.19448 10.7532L3.20275 10.7587Z" fill="#24AE5F"/>
<path fill-rule="evenodd" clip-rule="evenodd" d="M13.4262 11.36C13.258 11.3903 13.0924 11.4124 12.9269 11.4317C10.6538 11.6855 8.75864 11.2193 6.81933 10.4413C5.99726 10.1103 5.10347 9.84273 4.29519 10.0579C4.05492 8.95611 3.99174 7.50231 4.81768 6.31362C4.88819 6.21726 5.01271 6.17721 5.12618 6.21438C5.23966 6.25156 5.31633 6.35752 5.31616 6.47693C5.30678 7.19997 5.48968 8.1379 6.50761 8.1379C8.16278 8.1379 7.05933 5.10342 6.78347 4.27583C6.42195 3.01988 6.83574 1.66891 7.83864 0.830865C7.92852 0.756633 8.05536 0.74691 8.15551 0.806576C8.25565 0.866242 8.30748 0.982416 8.28499 1.0968C8.05299 2.27197 7.76195 4.55169 8.99037 4.55169C9.5603 4.55169 9.76995 4.15969 9.8003 3.64493C9.81 3.53443 9.88494 3.44049 9.99052 3.40648C10.0961 3.37247 10.2118 3.40501 10.2842 3.48907C10.7595 3.99644 10.9832 4.68977 10.8938 5.37928C10.618 7.31031 10.0662 8.41376 10.8938 8.68962C11.5206 8.89845 12.0248 8.0728 12.0635 7.17018C12.0671 7.05831 12.138 6.95973 12.2429 6.92066C12.3478 6.88158 12.4659 6.90975 12.5418 6.99197C13.6321 8.16708 13.9735 9.85329 13.4262 11.36Z" fill="#F29C1F"/>
</svg>
