<svg width="16" height="16" viewBox="0 0 16 16" fill="none" xmlns="http://www.w3.org/2000/svg">
<g clip-path="url(#clip0)">
<path d="M12.2587 7.07157C11.6086 7.37357 10.8894 7.42814 10.2227 7.25455L9.12585 8.43229C8.96472 8.60526 8.67847 8.48941 8.67847 8.25113V6.29105C8.65198 6.26029 8.62573 6.22904 8.6001 6.19706C8.5769 6.168 8.54053 6.15372 8.50415 6.15995C8.34009 6.18766 8.17188 6.20267 8.00012 6.20267C7.87512 6.20267 7.75208 6.19449 7.6311 6.1796C7.59644 6.17533 7.5625 6.18924 7.54016 6.21671C7.47095 6.30191 7.39771 6.38199 7.32166 6.45792V8.25113C7.32166 8.48941 7.0354 8.60538 6.87427 8.43229L5.80615 7.28519C5.14441 7.42728 4.44006 7.34671 3.80908 7.02835C3.77502 7.01114 3.73523 7.01432 3.7052 7.03556L5.69226 9.16935C6.17847 9.69156 6.44934 10.3832 6.44934 11.1022V15.4317C6.44934 15.6167 6.59692 15.7668 6.77893 15.7668H9.18616C9.36816 15.7668 9.51575 15.6167 9.51575 15.4317V11.1399C9.51575 10.4209 9.78662 9.72916 10.2728 9.20707L12.2599 7.07328C12.2582 7.07084 12.2604 7.07401 12.2587 7.07157Z" fill="#A9EA8B"/>
<path d="M7.51178 15.4317V11.1023C7.51178 10.3832 7.24078 9.69155 6.7547 9.16946L5.06097 7.35061C4.63385 7.33511 4.20685 7.22915 3.80902 7.02834C3.77496 7.01113 3.73517 7.01431 3.70526 7.03567L5.6922 9.16946C6.17841 9.69155 6.4494 10.3833 6.4494 11.1023V15.4317C6.4494 15.6168 6.59686 15.7669 6.77899 15.7669H7.84137C7.65936 15.7669 7.51178 15.6168 7.51178 15.4317Z" fill="#99DD76"/>
<path d="M6.66499 13.0645C6.57466 13.0645 6.48799 13.0134 6.44673 12.9264C6.08759 12.1691 5.29048 12.025 5.28242 12.0237C5.15095 12.0012 5.06257 11.8765 5.08503 11.745C5.10749 11.6135 5.23213 11.5252 5.36372 11.5476C5.40656 11.5549 6.41767 11.7379 6.88301 12.7194C6.94013 12.84 6.88887 12.9839 6.76838 13.041C6.73493 13.0569 6.69966 13.0645 6.66499 13.0645Z" fill="#99DD76"/>
<path d="M14.0485 3.72341C14.004 3.72036 13.9668 3.68972 13.9555 3.64651C13.5643 2.14089 12.08 1.126 10.4802 1.39175C10.4437 1.39773 10.4073 1.38394 10.384 1.35525C9.15914 -0.152564 6.86788 -0.161109 5.63168 1.33596C5.60946 1.36294 5.5754 1.37661 5.54073 1.37234C3.98556 1.18386 2.58224 2.18813 2.20175 3.64053C2.18978 3.6863 2.14889 3.71767 2.10165 3.71755C2.1014 3.71755 2.10116 3.71755 2.10092 3.71755C0.907678 3.71755 -0.0531371 4.71218 0.00228287 5.91763C0.0887087 7.79751 2.4443 8.62576 3.68698 7.19558C3.71737 7.16067 3.76754 7.152 3.80892 7.17263C5.06722 7.79714 6.61739 7.49148 7.54012 6.37429C7.56234 6.34731 7.5964 6.33364 7.63107 6.33791C7.75204 6.35256 7.87509 6.36062 7.99996 6.36062C8.17159 6.36062 8.33981 6.34585 8.50375 6.31863C8.54025 6.31252 8.57662 6.32644 8.59994 6.355C9.49227 7.45351 10.9922 7.78445 12.2414 7.22292C12.2812 7.20498 12.3281 7.21316 12.3576 7.24514C13.6461 8.63686 15.974 7.72829 15.9997 5.84792C16.0151 4.72463 15.1486 3.8008 14.0485 3.72341Z" fill="#6FD844"/>
<path d="M1.0024 5.91757C0.946985 4.71225 1.9078 3.7175 3.10104 3.7175H3.10189C3.14913 3.71762 3.19003 3.68625 3.20199 3.64048C3.58236 2.18808 4.98568 1.18393 6.54086 1.37229C6.57552 1.37644 6.60958 1.36289 6.6318 1.33591C7.12972 0.733005 7.79879 0.374485 8.50045 0.259495C7.4681 0.090183 6.36459 0.448459 5.63168 1.33591C5.60946 1.36289 5.5754 1.37656 5.54073 1.37229C3.98556 1.18381 2.58224 2.18808 2.20187 3.64048C2.18978 3.68625 2.14901 3.71762 2.10177 3.7175C2.10153 3.7175 2.10116 3.7175 2.10092 3.7175C0.9078 3.7175 -0.0531373 4.71225 0.0022826 5.91757C0.0674681 7.33505 1.42281 8.15439 2.61837 7.85861C1.77072 7.65415 1.04952 6.94211 1.0024 5.91757Z" fill="#5FBF32"/>
<path d="M9.60028 6.35499C9.57697 6.32643 9.54059 6.31251 9.50409 6.31861C9.34015 6.34584 9.17206 6.36061 9.00031 6.36061C8.87543 6.36061 8.75238 6.35255 8.63141 6.3379C8.61652 6.33607 8.60187 6.33815 8.58795 6.34266C8.59235 6.34645 8.5965 6.35048 8.60016 6.35499C9.31793 7.23866 10.4288 7.62501 11.4861 7.45033C10.7687 7.33229 10.0922 6.96058 9.60028 6.35499Z" fill="#5FBF32"/>
</g>
<defs>
<clipPath id="clip0">
<rect width="16" height="16" fill="white"/>
</clipPath>
</defs>
</svg>
