<svg width="16" height="16" viewBox="0 0 16 16" fill="none" xmlns="http://www.w3.org/2000/svg">
<g clip-path="url(#clip0)">
<path d="M10.733 12.5851C9.72785 12.5604 9.08943 12.0758 8.72199 11.6339C8.39277 11.2382 8.24824 10.6938 8.081 10.0636C7.84822 9.18677 7.55842 8.09546 6.64985 7.0907C5.74897 6.0946 4.63496 5.66077 3.65205 5.2782C2.20112 4.71326 1.61225 4.43262 1.61225 3.14624C1.61225 3.00562 1.61274 2.70081 1.87251 2.34985C0.720286 3.11035 -0.0175064 4.06897 0.000315835 5.12244C0.0464584 7.86414 2.88874 7.35901 4.58442 9.23425C6.37763 11.2173 4.97053 13.1461 8.60334 14.5564C10.5119 15.2974 13.7093 14.3173 15.3126 10.3585C15.273 10.4086 12.8513 12.637 10.733 12.5851Z" fill="#EA3942"/>
<path d="M16.0001 7.48778C16.0001 10.8037 13.2098 14.2157 9.60846 13.4918C5.77741 12.7218 7.27814 10.3013 5.48492 8.31835C3.78912 6.44298 0.764221 7.15929 0.764221 4.20665C0.764221 1.53148 5.39496 0.81713 9.60846 1.48376C13.095 2.03539 16.0001 4.17186 16.0001 7.48778Z" fill="#F3E8D7"/>
<path d="M13.6754 3.09839C14.2914 3.95447 14.6501 4.97327 14.6501 6.13782C14.6501 9.45374 11.8598 12.8657 8.25845 12.1418C7.71475 12.0326 7.27847 11.89 6.92496 11.7202C7.28348 12.5087 7.94083 13.1567 9.60843 13.4918C13.2097 14.2157 16 10.8037 16 7.48779C16 5.6311 15.0891 4.14429 13.6754 3.09839Z" fill="#E5D6C1"/>
<path d="M10.5779 12.4034C10.0398 12.4266 9.50112 12.3367 9.00661 12.1157C8.67177 11.9662 8.35512 11.7555 8.14065 11.458C7.90725 11.1345 7.81154 10.735 7.71169 10.3488C7.49929 9.5271 7.23879 8.70105 6.75344 8.00489C6.03664 6.97656 4.89113 6.32373 3.71462 5.89124C3.30031 5.73901 2.87026 5.60608 2.51137 5.34888C2.15261 5.0918 1.87038 4.67676 1.90639 4.23682C1.95266 3.67151 2.48366 3.27527 3.00161 3.04394C4.42824 2.40674 6.07888 2.31372 7.61843 2.42969C9.18801 2.54785 10.8655 2.83533 12.2592 3.59888C13.6356 4.35303 14.6571 5.65527 14.7946 7.24036C14.9297 8.79981 14.2049 10.4825 12.9942 11.4761C12.3169 12.0317 11.4483 12.3657 10.5779 12.4034Z" fill="#FC4E51"/>
<path d="M14.7946 7.24036C14.6731 5.83813 13.8595 4.65771 12.7207 3.88184C13.1091 4.46704 13.3615 5.13867 13.4249 5.87061C13.56 7.43005 12.8353 9.11279 11.6246 10.1063C10.9474 10.662 10.0787 10.9961 9.20834 11.0337C8.74448 11.0538 8.28024 10.9894 7.84421 10.8298C7.91489 11.0533 8.00412 11.2687 8.14072 11.458C8.35519 11.7555 8.67184 11.9661 9.00668 12.1157C9.50107 12.3367 10.0399 12.4266 10.578 12.4033C11.4483 12.3657 12.317 12.0317 12.9942 11.476C14.2049 10.4824 14.9298 8.79968 14.7946 7.24036Z" fill="#EA3942"/>
<path d="M7.49554 4.59973C7.49554 5.15601 7.04449 5.60706 6.4881 5.60706C5.93182 5.60706 5.48077 5.15601 5.48077 4.59973C5.48077 4.04333 5.93182 3.59229 6.4881 3.59229C7.04449 3.59229 7.49554 4.04333 7.49554 4.59973Z" fill="#F3E8D7"/>
<path d="M2.49008 3.71451C2.33334 3.71402 2.20322 3.71891 2.09628 3.72745C1.99582 3.87223 1.92807 4.03421 1.90891 4.21341C1.98703 4.21183 2.08359 4.20877 2.20261 4.2045C3.34287 4.18924 4.62485 4.41251 5.23691 4.53495C5.32211 4.55374 5.40317 4.57059 5.48093 4.58609C5.48325 4.41349 5.5289 4.2515 5.60751 4.11026C5.52805 4.09244 5.44492 4.07498 5.35812 4.05802C4.78708 3.94217 3.61752 3.73429 2.49008 3.71451Z" fill="#912C2C"/>
<path d="M13.1873 11.3075C13.0304 11.2017 12.8134 11.0427 12.6763 10.7999C12.5441 10.5657 12.4537 10.2594 12.3348 9.87146C12.1736 9.34521 11.9729 8.69019 11.5822 7.88989C11.2093 7.12622 10.5166 6.47852 9.79968 5.96838C10.3365 5.65527 11.6277 5.06897 13.6593 5.14819C13.6593 5.14819 13.8198 5.15454 14.028 5.16028C13.9078 4.9884 13.7762 4.82397 13.6337 4.66846C13.4158 4.65637 13.2098 4.65002 13.2098 4.65002C11.0463 4.66504 9.76794 5.38635 9.35156 5.66785C8.7052 5.25879 8.08972 4.96631 7.72363 4.80627C7.64062 4.77234 7.56262 4.74194 7.48877 4.71423C7.47009 4.87952 7.41162 5.03259 7.32288 5.1637C7.39368 5.19788 7.46887 5.2323 7.54834 5.26672C8.36609 5.62964 10.4379 6.66443 11.1412 8.1051C11.515 8.87085 11.7093 9.50537 11.8656 10.0151C11.985 10.4048 12.088 10.74 12.2368 11.02C12.3512 11.2354 12.5135 11.4213 12.7086 11.5676C12.7343 11.5869 12.7624 11.6079 12.7922 11.6301C12.8611 11.5807 12.9288 11.5297 12.9943 11.476C13.0602 11.422 13.1243 11.3655 13.1873 11.3075Z" fill="#912C2C"/>
</g>
<defs>
<clipPath id="clip0">
<rect width="16" height="16" fill="white"/>
</clipPath>
</defs>
</svg>
