<svg width="16" height="16" viewBox="0 0 16 16" fill="none" xmlns="http://www.w3.org/2000/svg">
<g clip-path="url(#clip0)">
<path d="M5.23916 11.0337C5.1382 11.0362 5.04599 11.0374 4.9641 11.038C4.96473 10.9562 4.96598 10.8639 4.96848 10.763C4.97779 10.4153 4.61413 10.1763 4.29616 10.3282C4.2821 10.3351 2.85838 10.9984 0.562932 10.5392C0.273281 10.4813 0.00219727 10.703 0.00219727 10.999C0.00219727 11.9882 0.326323 12.8568 0.891433 13.3816C1.48602 13.9337 2.06794 14.5156 2.62052 15.1107C3.14531 15.6758 4.01392 16 5.00317 16C5.30017 16 5.52065 15.7277 5.46295 15.4392C5.0038 13.1438 5.66705 11.7201 5.67393 11.7063C5.82677 11.3885 5.5881 11.0237 5.23916 11.0337Z" fill="#4880FA"/>
<path d="M5.67399 11.7063C5.66711 11.7201 5.00385 13.1438 5.46301 15.4393C5.5208 15.7283 5.29976 16 5.00323 16C4.01397 16 3.14537 15.6759 2.62058 15.1108C2.34458 14.8135 2.06078 14.5191 1.77197 14.2303L4.96416 11.0381C5.04605 11.0375 5.13826 11.0362 5.23921 11.0337C5.58759 11.0237 5.82711 11.388 5.67399 11.7063Z" fill="#365FDE"/>
<path d="M7.60602 13.9938C7.5748 13.9426 6.84019 12.7245 6.74557 11.353C6.72885 11.1109 6.8997 10.896 7.13937 10.8577C8.79766 10.5929 10.1668 10.0775 11.2089 9.32576C11.5184 9.10244 11.952 9.3242 11.952 9.706C11.952 10.3499 11.8075 11.0379 11.5342 11.6956C10.7622 13.5526 8.22314 14.1798 8.11544 14.2056C7.91893 14.2526 7.71261 14.1685 7.60602 13.9938Z" fill="#F2D131"/>
<path d="M5.37811 9.02989C4.89921 8.39139 3.31958 8.40815 2.80392 8.46447C2.52546 8.49454 2.28375 8.27649 2.28375 7.99844C2.28375 7.94271 2.28744 6.61686 2.60797 5.20652C2.94732 3.71338 3.65505 2.08881 5.16113 1.78757C6.63786 1.49226 7.51788 1.91897 7.99619 2.32892C8.52548 2.78261 8.68773 3.31011 8.70449 3.36875C8.74712 3.51791 8.71317 3.67853 8.61387 3.79771C6.18196 6.716 6.7291 7.57129 6.18852 8.92275C6.05281 9.26184 5.59728 9.32211 5.37811 9.02989ZM7.80437 3.63146H7.80468H7.80437Z" fill="#FAF17D"/>
<path d="M12.5885 9.38124C11.1992 10.7705 9.22789 11.4736 7.28748 11.7836C6.40428 11.9241 5.39352 12.0009 4.47725 11.9674C4.23792 11.9535 4.04873 11.7633 4.03497 11.5251C4.03435 11.5129 4.01841 11.2185 4.03154 10.7381C4.10052 8.16416 4.79984 5.23568 6.6211 3.41383C9.59256 0.442341 14.412 -0.734763 15.5397 0.462595C16.7324 1.70387 15.5446 6.42447 12.5885 9.38124Z" fill="#93C5EC"/>
<path d="M12.5885 9.38126C11.1991 10.7705 9.22783 11.4736 7.28742 11.7836C6.40422 11.9241 5.39346 12.0009 4.47719 11.9674C4.3581 11.9605 4.25058 11.9099 4.17181 11.8305L15.5397 0.462646C16.7323 1.70389 15.5445 6.42449 12.5885 9.38126Z" fill="#6AA6FB"/>
<path d="M15.5396 0.462617C15.011 -0.098742 13.8549 -0.0381053 13.0928 0.0769171C11.8985 0.257577 10.602 0.729232 9.53558 1.2934C9.53558 1.2934 9.63842 2.86684 11.3806 4.60874C13.1225 6.35095 14.7135 6.46847 14.7135 6.46847C15.4877 4.99881 15.889 3.54697 15.9781 2.47488C16.0325 1.81913 15.9997 0.94146 15.5396 0.462617Z" fill="#6AA6FB"/>
<path d="M15.9781 2.47485C15.889 3.54725 15.4877 4.99878 14.7135 6.46844C14.7135 6.46844 13.1266 6.35123 11.3872 4.61496L15.5396 0.462585C15.9997 0.941429 16.0325 1.8191 15.9781 2.47485Z" fill="#4880FA"/>
<path d="M12.7548 2.96628C12.3479 2.96628 12.1242 2.47418 12.4231 2.16581C12.6347 1.96039 12.9523 1.99718 13.1173 2.20022C13.3671 2.50619 13.1496 2.96628 12.7548 2.96628Z" fill="#25429A"/>
</g>
<defs>
<clipPath id="clip0">
<rect width="16" height="16" fill="white"/>
</clipPath>
</defs>
</svg>
