<svg width="22" height="23" viewBox="0 0 22 23" fill="none" xmlns="http://www.w3.org/2000/svg">
<path fill-rule="evenodd" clip-rule="evenodd" d="M9.16663 2.83341C8.61434 2.83341 8.16663 3.28113 8.16663 3.83341C8.16663 4.3857 8.61434 4.83341 9.16663 4.83341H14.1666C14.7189 4.83341 15.1666 4.3857 15.1666 3.83341C15.1666 3.28113 14.7189 2.83341 14.1666 2.83341H9.16663ZM11.6666 20.5001C15.6916 20.5001 18.9583 17.2334 18.9583 13.2084C18.9583 9.18342 15.6916 5.91675 11.6666 5.91675C7.64163 5.91675 4.37496 9.18342 4.37496 13.2084C4.37496 17.2334 7.64163 20.5001 11.6666 20.5001Z" fill="#509E2F"/>
<path d="M17.2917 11.5417C17.2917 15.5667 14.025 18.8333 10 18.8333C5.97504 18.8333 2.70837 15.5667 2.70837 11.5417C2.70837 7.51667 5.97504 4.25 10 4.25C14.025 4.25 17.2917 7.51667 17.2917 11.5417Z" stroke="#212721" stroke-width="2" stroke-linecap="round" stroke-linejoin="round"/>
<path d="M10 7.16675V11.3334" stroke="#212721" stroke-width="2" stroke-linecap="round" stroke-linejoin="round"/>
<path d="M7.5 2.16675H12.5" stroke="#212721" stroke-width="2" stroke-miterlimit="10" stroke-linecap="round" stroke-linejoin="round"/>
</svg>
