<svg width="59" height="29" viewBox="0 0 59 29" fill="none" xmlns="http://www.w3.org/2000/svg">
<path d="M3.6586 28.0177C2.78921 28.0177 2.10258 27.9337 1.59783 27.766C1.03706 27.6259 0.658611 27.3743 0.462497 27.0105C0.266364 26.6467 0.140089 26.3107 0.0840457 26.003C0.028002 25.6112 0 25.1637 0 24.66V3.67405C0 3.19838 0.028002 2.76465 0.0840457 2.37291C0.112068 2.12107 0.238342 1.79929 0.462497 1.40759C0.658611 1.04382 1.03706 0.777983 1.59783 0.610087C2.21465 0.470214 2.92971 0.400238 3.74264 0.400238C4.49955 0.400238 5.15818 0.484165 5.71895 0.65208C6.25178 0.819976 6.60205 0.987872 6.77022 1.15573L7.02277 1.40759L16.5684 12.656L26.1141 1.40759C26.591 0.736049 27.7262 0.400238 29.5201 0.400238C30.3056 0.400238 31.0064 0.470214 31.6231 0.610087C32.1836 0.777983 32.5621 1.04382 32.7585 1.40759C33.0107 1.85529 33.1508 2.20506 33.1789 2.45688C33.2069 2.65274 33.221 3.08643 33.221 3.75797V24.744C33.221 25.1918 33.193 25.6112 33.1371 26.003C33.0809 26.3107 32.9548 26.6467 32.7585 27.0105C32.5621 27.3743 32.1836 27.6259 31.6231 27.766C31.0625 27.9337 30.3474 28.0177 29.4783 28.0177C28.7776 28.0177 28.175 27.9479 27.6702 27.8078C27.1375 27.6679 26.7733 27.5138 26.5767 27.3462C26.3526 27.1781 26.1703 26.9263 26.0301 26.5905C25.89 26.2267 25.8198 25.9332 25.8198 25.7095C25.7917 25.5694 25.778 25.2197 25.778 24.66V11.9844C24.9927 12.852 23.9693 14.0971 22.7081 15.7199C21.4744 17.3149 20.4793 18.5321 19.7223 19.3716C19.6944 19.4275 19.6383 19.4974 19.5543 19.5814C19.4701 19.6653 19.4138 19.7352 19.3857 19.7913C19.2737 19.9312 18.9376 20.1549 18.3767 20.4628C17.8159 20.7705 17.2133 20.9246 16.5684 20.9246C15.9236 20.9246 15.3628 20.7846 14.8862 20.5048C14.3259 20.2529 13.9474 20.0011 13.7508 19.7493L13.4146 19.3296C12.5176 18.2943 11.4099 16.9511 10.0926 15.3002C9.61597 14.7127 9.15345 14.153 8.70467 13.6214C8.28395 13.0898 7.96154 12.6979 7.73745 12.4462C7.54141 12.1664 7.42936 12.0125 7.4013 11.9844V24.744C7.4013 25.3874 7.38698 25.8074 7.35911 26.003C7.33105 26.2267 7.19094 26.5625 6.93839 27.0105C6.74216 27.3743 6.36383 27.6259 5.803 27.766C5.24266 27.9337 4.52757 28.0177 3.6586 28.0177Z" fill="#009246"/>
<path d="M53.2133 28.418C52.7937 28.418 52.4023 28.3058 52.039 28.0817C51.6752 27.8857 51.4239 27.6472 51.2837 27.367C51.2282 27.283 51.0043 26.9045 50.6126 26.2322L47.958 21.86L34.7879 24.7607L34.1586 25.9377L33.5297 27.0309C33.306 27.283 33.0542 27.5071 32.775 27.7034C32.4112 27.9555 32.1392 28.0817 31.629 28.2565C30.9341 28.4318 28.7809 28.502 27.8019 28.0817C26.1802 27.3809 26.0164 26.6245 26.0164 25.6998C26.0164 25.3072 26.9726 23.9759 27.4481 23.0792L38.7724 1.93376C39.052 1.40127 39.5275 0.924839 40.1984 0.504453C40.8134 0.168151 41.4708 0 42.1696 0C43.6796 0 44.7983 0.658593 45.5251 1.9758L56.8497 23.0792C57.3247 23.9759 58.0365 24.9149 58.0365 25.3072C58.0365 26.2601 57.2256 27.087 55.604 27.7873C54.6534 28.2077 53.8563 28.418 53.2133 28.418ZM45.3156 16.9414L42.1278 11.0561L38.1011 18.6651L45.3156 16.9414Z" fill="#D22730"/>
</svg>
