<svg width="1201" height="288" viewBox="0 0 1201 288" fill="none" xmlns="http://www.w3.org/2000/svg">
<g clip-path="url(#clip0_1080_457)">
<path fill-rule="evenodd" clip-rule="evenodd" d="M66.306 25.5723C43.9443 25.5723 25.8165 43.7001 25.8165 66.0619V219.496C25.8165 241.858 43.9443 259.985 66.306 259.985H364.558C386.92 259.985 405.048 241.858 405.048 219.496V66.0619C405.048 43.7001 386.92 25.5723 364.558 25.5723H66.306ZM0.244141 66.0619C0.244141 29.5769 29.8211 0 66.306 0H364.558C401.043 0 430.62 29.5769 430.62 66.0619V219.496C430.62 255.981 401.043 285.558 364.558 285.558H66.306C29.8211 285.558 0.244141 255.981 0.244141 219.496V66.0619Z" fill="#009246"/>
<path d="M88.2381 212.129C83.8077 212.129 80.3086 211.701 77.7364 210.846C74.8787 210.132 72.9501 208.85 71.9507 206.996C70.9512 205.142 70.3077 203.43 70.0221 201.862C69.7365 199.865 69.5938 197.585 69.5938 195.018V88.073C69.5938 85.649 69.7365 83.4387 70.0221 81.4424C70.1649 80.159 70.8084 78.5192 71.9507 76.5231C72.9501 74.6693 74.8787 73.3146 77.7364 72.459C80.8797 71.7462 84.5237 71.3896 88.6664 71.3896C92.5236 71.3896 95.88 71.8173 98.7377 72.673C101.453 73.5286 103.238 74.3842 104.095 75.2396L105.382 76.5231L154.027 133.845L202.672 76.5231C205.102 73.1009 210.887 71.3896 220.029 71.3896C224.032 71.3896 227.603 71.7462 230.746 72.459C233.602 73.3146 235.531 74.6693 236.532 76.5231C237.817 78.8046 238.531 80.587 238.674 81.8703C238.817 82.8684 238.889 85.0785 238.889 88.5007V195.446C238.889 197.728 238.746 199.865 238.461 201.862C238.175 203.43 237.532 205.142 236.532 206.996C235.531 208.85 233.602 210.132 230.746 210.846C227.889 211.701 224.245 212.129 219.816 212.129C216.245 212.129 213.174 211.773 210.602 211.059C207.887 210.346 206.031 209.561 205.029 208.707C203.887 207.85 202.958 206.567 202.244 204.856C201.53 203.002 201.172 201.506 201.172 200.366C201.029 199.652 200.959 197.87 200.959 195.018V130.423C196.957 134.844 191.742 141.189 185.315 149.459C179.028 157.587 173.957 163.79 170.099 168.068C169.957 168.353 169.671 168.709 169.243 169.137C168.814 169.565 168.527 169.921 168.384 170.207C167.813 170.92 166.1 172.06 163.242 173.629C160.384 175.197 157.313 175.982 154.027 175.982C150.741 175.982 147.883 175.269 145.454 173.843C142.599 172.559 140.67 171.276 139.668 169.993L137.955 167.854C133.384 162.578 127.739 155.733 121.026 147.32C118.597 144.326 116.24 141.474 113.953 138.765C111.809 136.056 110.166 134.059 109.024 132.776C108.025 131.35 107.454 130.566 107.311 130.423V195.446C107.311 198.725 107.238 200.865 107.096 201.862C106.953 203.002 106.239 204.713 104.952 206.996C103.952 208.85 102.024 210.132 99.166 210.846C96.3105 211.701 92.6664 212.129 88.2381 212.129Z" fill="#009246"/>
<path d="M340.77 214.169C338.632 214.169 336.637 213.597 334.786 212.455C332.932 211.456 331.651 210.241 330.937 208.813C330.654 208.385 329.513 206.456 327.517 203.03L313.989 180.749L246.874 195.531L243.667 201.529L240.462 207.1C239.322 208.385 238.039 209.527 236.616 210.527C234.762 211.812 233.376 212.455 230.776 213.346C227.235 214.239 216.262 214.597 211.273 212.455C203.009 208.884 202.174 205.029 202.174 200.317C202.174 198.316 207.047 191.532 209.47 186.962L267.179 79.2046C268.604 76.491 271.027 74.0631 274.446 71.9208C277.58 70.207 280.93 69.3501 284.491 69.3501C292.186 69.3501 297.887 72.7063 301.591 79.4188L359.301 186.962C361.722 191.532 365.349 196.317 365.349 198.316C365.349 203.172 361.217 207.386 352.953 210.955C348.109 213.097 344.047 214.169 340.77 214.169ZM300.523 155.684L284.278 125.692L263.758 164.468L300.523 155.684Z" fill="#D22730"/>
<path d="M562.8 65.9805H504.557V218.108H540.198V172.035H562.8C595.833 172.035 618.218 149.651 618.218 119.008C618.218 88.3649 595.833 65.9805 562.8 65.9805ZM558.671 139.436H540.198V98.5792H558.671C573.666 98.5792 581.707 106.62 581.707 119.008C581.707 131.395 573.666 139.436 558.671 139.436Z" fill="#D22730"/>
<path d="M653.585 218.108H689.227V65.9805H653.585V218.108Z" fill="#D22730"/>
<path d="M768.411 186.161L833.174 92.7114V65.9805H728.423V97.9272H788.84L724.077 191.377V218.108H836.868V186.161H768.411Z" fill="#D22730"/>
<path d="M905.767 186.161L970.53 92.7114V65.9805H865.779V97.9272H926.196L861.433 191.377V218.108H974.224V186.161H905.767Z" fill="#D22730"/>
<path d="M1109.19 218.108H1147.66L1088.33 65.9805H1052.9L993.79 218.108H1031.6L1042.25 190.725H1098.54L1109.19 218.108ZM1070.51 111.619L1088.33 159.865H1052.47L1070.51 111.619Z" fill="#D22730"/>
</g>
<defs>
<clipPath id="clip0_1080_457">
<rect width="1200.84" height="287.015" fill="white"/>
</clipPath>
</defs>
</svg>
