<svg width="27" height="16" viewBox="0 0 27 16" fill="none" xmlns="http://www.w3.org/2000/svg">
<path d="M17.2805 1.70312H10.3368V14.2823H17.2805V1.70312Z" fill="#FF5F00"/>
<path d="M10.7777 7.99999C10.7766 6.78852 11.049 5.59268 11.5741 4.503C12.0992 3.41331 12.8633 2.45835 13.8087 1.7104C12.638 0.782765 11.2321 0.205884 9.75154 0.0456901C8.27102 -0.114504 6.77566 0.148449 5.43637 0.804505C4.09708 1.46056 2.96791 2.48325 2.17792 3.75566C1.38793 5.02808 0.968994 6.49889 0.968994 7.99999C0.968994 9.50108 1.38793 10.9719 2.17792 12.2443C2.96791 13.5167 4.09708 14.5394 5.43637 15.1955C6.77566 15.8515 8.27102 16.1145 9.75154 15.9543C11.2321 15.7941 12.638 15.2172 13.8087 14.2896C12.8634 13.5416 12.0992 12.5867 11.5741 11.497C11.049 10.4073 10.7766 9.21145 10.7777 7.99999Z" fill="#EB001B"/>
<path d="M26.648 7.99999C26.6481 9.50106 26.2292 10.9719 25.4392 12.2443C24.6493 13.5167 23.5202 14.5394 22.1809 15.1954C20.8416 15.8515 19.3463 16.1145 17.8658 15.9543C16.3853 15.7941 14.9794 15.2172 13.8087 14.2896C14.7532 13.5409 15.5168 12.5857 16.0418 11.4962C16.5669 10.4067 16.8397 9.21126 16.8397 7.99999C16.8397 6.78871 16.5669 5.59325 16.0418 4.50374C15.5168 3.41422 14.7532 2.45911 13.8087 1.7104C14.9794 0.782762 16.3853 0.20588 17.8658 0.0456881C19.3463 -0.114504 20.8416 0.148461 22.1809 0.804523C23.5202 1.46059 24.6493 2.48327 25.4392 3.75569C26.2292 5.02811 26.6481 6.49891 26.648 7.99999Z" fill="#F79E1B"/>
<path d="M25.8909 12.9511V12.6936H25.9939V12.6411H25.7316V12.6936H25.8346V12.9511H25.8909ZM26.4002 12.9511V12.6406H26.3198L26.2273 12.8542L26.1348 12.6406H26.0543V12.9511H26.1111V12.7169L26.1979 12.9189H26.2567L26.3435 12.7164V12.9511H26.4002Z" fill="#F79E1B"/>
</svg>
