<svg width="68" height="69" viewBox="0 0 68 69" fill="none" xmlns="http://www.w3.org/2000/svg">
<path d="M28.0508 27.6818V24.9334C28.0508 18.5584 33.1791 12.2968 39.5541 11.7018C47.1475 10.9651 53.5508 16.9434 53.5508 24.3951V28.3051" stroke="#509E2F" stroke-width="5" stroke-miterlimit="10" stroke-linecap="round" stroke-linejoin="round"/>
<path d="M32.3008 66.5834H49.3008C60.6908 66.5834 62.7308 62.0217 63.3258 56.4684L65.4508 39.4684C66.2158 32.5551 64.2324 26.9167 52.1341 26.9167H29.4674C17.3691 26.9167 15.3858 32.5551 16.1508 39.4684L18.2758 56.4684C18.8708 62.0217 20.9108 66.5834 32.3008 66.5834Z" fill="#509E2F" stroke="#509E2F" stroke-width="3" stroke-miterlimit="10" stroke-linecap="round" stroke-linejoin="round"/>
<path d="M21.25 20.8817V18.1334C21.25 11.7584 26.3783 5.49672 32.7533 4.90172C40.3467 4.16505 46.75 10.1434 46.75 17.5951V21.505" stroke="#212721" stroke-width="3" stroke-miterlimit="10" stroke-linecap="round" stroke-linejoin="round"/>
<path d="M25.5 61.4833H42.5C53.89 61.4833 55.93 56.9217 56.525 51.3683L58.65 34.3683C59.415 27.455 57.4317 21.8167 45.3333 21.8167H22.6667C10.5683 21.8167 8.585 27.455 9.35 34.3683L11.475 51.3683C12.07 56.9217 14.11 61.4833 25.5 61.4833Z" stroke="#212721" stroke-width="3" stroke-miterlimit="10" stroke-linecap="round" stroke-linejoin="round"/>
<path d="M43.904 33.1501H43.9295" stroke="#212721" stroke-width="3" stroke-linecap="round" stroke-linejoin="round"/>
<path d="M24.0681 33.1501H24.0935" stroke="#212721" stroke-width="3" stroke-linecap="round" stroke-linejoin="round"/>
<path d="M41.6496 51C41.6496 46.2967 38.2326 42.5 33.9996 42.5C29.7666 42.5 26.3496 46.2967 26.3496 51" stroke="#1D1F1C" stroke-width="2" stroke-miterlimit="10" stroke-linecap="round" stroke-linejoin="round"/>
</svg>
