<svg width="100" height="100" viewBox="0 0 100 100" fill="none" xmlns="http://www.w3.org/2000/svg">
<path d="M36.8057 82.0137L49.7223 92.0137C51.389 93.6804 55.139 94.5137 57.639 94.5137H73.4723C78.4723 94.5137 83.889 90.7637 85.139 85.7637L95.139 55.347C97.2223 49.5137 93.4723 44.5137 87.2223 44.5137H70.5557C68.0557 44.5137 65.9723 42.4304 66.389 39.5137L68.4723 26.1804C69.3057 22.4304 66.8057 18.2637 63.0557 17.0137C59.7223 15.7637 55.5557 17.4304 53.889 19.9304L36.8057 45.347" fill="#509E2F"/>
<path d="M15.5557 82.014V41.1806C15.5557 35.3473 18.0557 33.264 23.889 33.264H28.0557C33.889 33.264 36.8057 35.3473 36.8057 41.1806V82.0137C36.8057 87.847 33.889 89.9306 28.0557 89.9306H23.889C18.0557 89.9306 15.5557 87.8473 15.5557 82.014Z" fill="#509E2F"/>
<path d="M31.1665 76.4582L44.0832 86.4582C45.7498 88.1248 49.4998 88.9582 51.9998 88.9582H67.8332C72.8332 88.9582 78.2498 85.2082 79.4998 80.2082L89.4998 49.7915C91.5832 43.9582 87.8332 38.9582 81.5832 38.9582H64.9165C62.4165 38.9582 60.3332 36.8748 60.7498 33.9582L62.8332 20.6248C63.6665 16.8748 61.1665 12.7082 57.4165 11.4582C54.0832 10.2082 49.9165 11.8748 48.2498 14.3748L31.1665 39.7915" stroke="#212721" stroke-width="3" stroke-miterlimit="10"/>
<path d="M9.9165 76.4584V35.625C9.9165 29.7917 12.4165 27.7084 18.2498 27.7084H22.4165C28.2498 27.7084 30.7498 29.7917 30.7498 35.625V76.4584C30.7498 82.2917 28.2498 84.375 22.4165 84.375H18.2498C12.4165 84.375 9.9165 82.2917 9.9165 76.4584Z" stroke="#212721" stroke-width="3" stroke-linecap="round" stroke-linejoin="round"/>
</svg>
