<svg width="100" height="100" viewBox="0 0 100 100" fill="none" xmlns="http://www.w3.org/2000/svg">
<path d="M43.25 92H65.75C84.5 92 92 84.5 92 65.75V43.25C92 24.5 84.5 17 65.75 17H43.25C24.5 17 17 24.5 17 43.25V65.75C17 84.5 24.5 92 43.25 92Z" fill="#509E2F" stroke="#509E2F" stroke-width="3" stroke-linecap="round" stroke-linejoin="round"/>
<path d="M34.25 83H56.75C75.5 83 83 75.5 83 56.75V34.25C83 15.5 75.5 8 56.75 8H34.25C15.5 8 8 15.5 8 34.25V56.75C8 75.5 15.5 83 34.25 83Z" stroke="#1D1F1C" stroke-width="3" stroke-linecap="round" stroke-linejoin="round"/>
<path d="M27 34C30.5714 30 36.3929 30 40 34" stroke="#1D1F1C" stroke-width="3" stroke-miterlimit="10" stroke-linecap="round" stroke-linejoin="round"/>
<path d="M51 34C54.5714 30 60.3929 30 64 34" stroke="#1D1F1C" stroke-width="3" stroke-miterlimit="10" stroke-linecap="round" stroke-linejoin="round"/>
<path d="M32.4 67H59.6C61.4889 67 63 65.4444 63 63.5C63 53.8167 55.4067 46 46 46C36.5933 46 29 53.8167 29 63.5C29 65.4444 30.5111 67 32.4 67Z" stroke="#1D1F1C" stroke-width="3" stroke-miterlimit="10" stroke-linecap="round" stroke-linejoin="round"/>
</svg>
