<svg width="68" height="68" viewBox="0 0 68 68" fill="none" xmlns="http://www.w3.org/2000/svg">
<path d="M38.757 60.9617C37.7937 61.3017 36.207 61.3017 35.2437 60.9617C27.027 58.1567 8.66699 46.455 8.66699 26.6217C8.66699 17.8667 15.722 10.7833 24.4203 10.7833C29.577 10.7833 34.1387 13.2767 37.0003 17.13C39.862 13.2767 44.452 10.7833 49.5803 10.7833C58.2787 10.7833 65.3337 17.8667 65.3337 26.6217C65.3337 46.455 46.9737 58.1567 38.757 60.9617Z" fill="#509E2F" stroke="#509E2F" stroke-width="3" stroke-linecap="round" stroke-linejoin="round"/>
<path d="M32.757 55.9617C31.7937 56.3017 30.207 56.3017 29.2437 55.9617C21.027 53.1567 2.66699 41.455 2.66699 21.6217C2.66699 12.8667 9.72199 5.78333 18.4203 5.78333C23.577 5.78333 28.1387 8.27666 31.0003 12.13C33.862 8.27666 38.452 5.78333 43.5803 5.78333C52.2787 5.78333 59.3337 12.8667 59.3337 21.6217C59.3337 41.455 40.9737 53.1567 32.757 55.9617Z" stroke="#212721" stroke-width="3" stroke-linecap="round" stroke-linejoin="round"/>
<path d="M40.904 23.15H40.9295" stroke="#212721" stroke-width="3" stroke-linecap="round" stroke-linejoin="round"/>
<path d="M21.0681 23.15H21.0935" stroke="#212721" stroke-width="3" stroke-linecap="round" stroke-linejoin="round"/>
<path d="M38.6496 41C38.6496 36.2967 35.2326 32.5 30.9996 32.5C26.7666 32.5 23.3496 36.2967 23.3496 41" stroke="#1D1F1C" stroke-width="2" stroke-miterlimit="10" stroke-linecap="round" stroke-linejoin="round"/>
</svg>
