<svg width="87" height="12" viewBox="0 0 87 12" fill="none" xmlns="http://www.w3.org/2000/svg">
<path fill-rule="evenodd" clip-rule="evenodd" d="M58.6868 0C55.3774 0 52.6868 2.69053 52.6868 6C52.6868 9.30947 55.3774 12 58.6868 12C61.9963 12 64.6868 9.30947 64.6868 6C64.6995 2.69053 62.0089 0 58.6868 0ZM58.6868 10.1179C56.4005 10.1179 54.5437 8.26105 54.5437 6C54.5437 3.72632 56.4005 1.88211 58.6868 1.88211C60.9605 1.88211 62.8047 3.73895 62.8047 6C62.8047 8.28632 60.9732 10.1179 58.6868 10.1179Z" fill="#1E1E1E"/>
<path fill-rule="evenodd" clip-rule="evenodd" d="M79.6029 2.18539V5.06539H84.6303V6.94749H79.6029V9.81486H85.3756V11.697H77.7461V0.315918H85.3756V2.18539H79.6029Z" fill="#1E1E1E"/>
<path fill-rule="evenodd" clip-rule="evenodd" d="M75.3734 0.303223V11.7095H73.6176L68.426 3.94112V11.7095H66.5312V0.303223H68.2239L68.4386 0.593749L73.4912 8.02112V0.303223H75.3734Z" fill="#1E1E1E"/>
<path fill-rule="evenodd" clip-rule="evenodd" d="M51.7766 0.303223V2.19796H48.164V11.7095H46.2692V2.19796H42.6566V0.303223H51.7766Z" fill="#1E1E1E"/>
<path fill-rule="evenodd" clip-rule="evenodd" d="M41.7487 8.5896C41.7108 9.61276 41.2308 10.5096 40.4097 11.1538C39.6266 11.7349 38.6287 12.0128 37.5676 12.0128C37.5045 12.0128 37.4161 12.0128 37.315 12.0001C36.1655 11.9622 35.1298 11.5833 34.3466 10.8633C33.7024 10.2822 33.2856 9.46118 33.1719 8.5517V8.51381V7.79381H35.0034L35.054 8.40012C35.1298 8.84223 35.3445 9.24644 35.6729 9.5496C36.0771 9.91591 36.6455 10.118 37.4287 10.1559C38.2119 10.1812 38.8308 10.0043 39.2476 9.71381C39.6519 9.42328 39.854 9.01907 39.8666 8.56434V8.5517C39.8919 8.0717 39.7024 7.70539 39.1971 7.36434C38.7298 7.04855 38.0729 6.84644 37.454 6.65697C37.4161 6.64434 37.3782 6.63171 37.3403 6.61907L36.9992 6.51802L36.7592 6.44223C36.1908 6.26539 35.4077 6.02539 34.7634 5.57065C33.9298 5.00223 33.475 4.20644 33.5129 3.20855C33.5382 2.23592 34.0056 1.37697 34.8266 0.808551C35.5971 0.265394 36.6455 -0.0125005 37.7319 0.0253942C39.475 0.101184 40.915 0.972762 41.5213 2.46329V2.47592L41.7108 3.05697L39.9297 3.5496L39.7529 3.13276C39.4498 2.40013 38.6919 1.9075 37.6687 1.8696C36.8855 1.85697 36.3171 2.02118 35.9508 2.27381C35.5845 2.53908 35.4077 2.8675 35.395 3.28434C35.395 3.44855 35.4329 3.5875 35.5087 3.70118C35.5845 3.8275 35.7361 3.96644 35.9761 4.11802C36.4561 4.40855 37.1382 4.62329 37.8076 4.82539L37.9845 4.87592H37.9971C38.0224 4.88855 38.0476 4.88855 38.0729 4.90118C38.7298 5.10329 39.614 5.38118 40.3466 5.87381C41.2813 6.49276 41.7992 7.44013 41.7487 8.5896Z" fill="#1E1E1E"/>
<path fill-rule="evenodd" clip-rule="evenodd" d="M25.943 0.303223H22.1914V11.7095H25.943C29.1009 11.7095 31.6903 9.14533 31.6903 6.0127C31.6777 2.86743 29.1009 0.303223 25.943 0.303223ZM25.943 9.82744H24.0735V2.18533H25.943C28.0903 2.18533 29.8082 3.90322 29.8082 6.0127C29.8082 8.1348 28.0777 9.82744 25.943 9.82744Z" fill="#1E1E1E"/>
<path fill-rule="evenodd" clip-rule="evenodd" d="M14.2249 2.18539V5.06539H19.2397V6.94749H14.2249V9.81486H19.9849V11.697H12.3555V0.315918H19.9849V2.18539H14.2249Z" fill="#1E1E1E"/>
<path fill-rule="evenodd" clip-rule="evenodd" d="M10.397 11.697H8.1738L5.74854 7.71809H2.75485L1.64327 5.86125H6.26643C7.27696 5.86125 8.12327 5.04019 8.12327 4.0044C8.11064 2.98125 7.27696 2.16019 6.26643 2.16019H1.15064L0.0390625 0.328613H6.2538C8.28748 0.328613 9.92959 1.97072 9.92959 4.0044C9.92959 5.46967 9.07064 6.78335 7.78222 7.37704L10.397 11.697Z" fill="#1E1E1E"/>
<path d="M0.378906 9.42285H2.65259V11.0776V11.6965H0.378906V9.42285Z" fill="#E70000"/>
</svg>