<svg width="65" height="55" viewBox="0 0 65 55" fill="none" xmlns="http://www.w3.org/2000/svg">
<path d="M58.5071 27.6061C56.6951 28.4891 54.8832 29.3202 51.7625 29.3202C49.3969 29.3202 47.0815 28.7488 45.0179 27.5541C39.1793 24.1778 36.0083 14.724 43.4576 8.4388C43.7092 8.23103 43.8602 8.07519 44.1622 7.91936C44.4139 7.81547 45.2192 9.68545 47.4339 9.2699C47.2325 9.47768 46.7795 9.94517 46.2762 10.1529C45.6722 10.3607 45.1186 10.3607 44.5146 10.2049C45.3199 11.5035 46.4272 12.0229 47.6352 11.919C49.9002 11.7632 50.2525 9.58157 51.4102 10.3088C51.9135 10.6204 52.2659 11.0879 52.7692 11.3477C54.8328 12.4904 56.6952 11.7113 57.3998 10.5166C55.5878 10.5166 54.7825 9.94517 54.0275 9.11407H54.1785C54.4302 9.16601 54.5308 9.16601 54.8832 9.11407C55.3865 9.11407 55.9402 8.95824 56.3932 8.75047C56.8462 8.54269 57.2992 8.17908 57.6515 7.81548C57.7522 7.65965 57.9031 7.50381 58.0038 7.34798C60.9231 8.95824 63.3894 11.7113 64.2954 15.0357C65.2014 19.0873 63.0371 25.0089 58.5071 27.6061Z" fill="#D22730"/>
<path d="M43.6589 6.20522L43.5079 5.89356C44.1622 6.67272 45.1186 7.14021 46.1252 7.29604C47.1319 7.45187 48.1385 7.39993 49.1452 7.29604C48.9942 7.19215 48.8432 7.08827 48.7425 6.93243C48.6419 6.7766 48.5412 6.67271 48.4405 6.51688C48.0882 6.04939 47.7862 5.58189 47.7359 4.69885C47.9875 5.1144 48.1889 5.47801 48.5412 5.84161C48.8432 6.15327 49.2459 6.46494 49.6989 6.51688C49.2459 7.39993 49.4975 8.33492 50.3532 8.54269C52.1149 9.01018 52.5175 8.33492 52.4672 7.19215C52.4672 7.08827 52.3665 6.62077 52.4168 6.62077C53.3732 5.78967 53.8765 4.64691 54.1282 3.40026C54.4805 5.84161 53.9772 6.36105 53.3732 7.29604C53.8262 7.39993 55.3362 7.81548 56.9971 6.7766C57.5005 6.56883 58.0038 6.20522 58.4065 5.78967C58.4065 5.89356 58.3561 5.9455 58.3561 6.04939C58.3058 6.20522 58.2051 6.41299 58.1045 6.56883C58.0038 6.72466 57.9031 6.82855 57.8528 6.98438C56.1415 9.2699 53.8765 8.69852 52.6182 8.49075C53.8262 9.63351 54.2792 10.4646 55.7388 10.8282C56.0911 10.9321 56.4435 10.9321 56.8461 10.9321C53.7758 13.0099 51.7122 8.85435 50.5545 9.52962C50.0009 9.84128 49.5479 11.3996 47.3835 11.3996C46.5782 11.3996 45.7729 11.1918 45.1186 10.7243C45.3199 10.8282 45.5716 10.7763 45.7729 10.7243C47.4339 10.3088 47.4339 9.84128 48.1889 9.2699C48.3399 9.16602 48.6419 8.80241 48.8935 8.64658V8.59463C48.5915 8.64658 48.3399 8.75047 48.0379 8.80241C46.0245 8.95824 44.4642 7.91936 43.6589 6.20522Z" fill="#D22730"/>
<path d="M50.2022 5.01051C49.9505 3.50414 48.8935 2.88082 48.8432 2.88082C48.8432 2.82887 48.8935 2.15361 49.4975 1.89389C49.5982 1.84194 49.6989 1.89389 49.7492 1.99778C49.9002 2.46527 49.1955 2.9847 49.2962 2.9847C49.4472 2.9847 50.0009 2.67304 50.0512 2.30944C51.1585 3.60803 51.8128 5.06246 52.0645 6.82854C52.3665 8.80241 50.0009 8.38686 49.6989 7.6077C49.4975 6.7766 50.5042 6.67271 50.2022 5.01051Z" fill="#D22730"/>
<path d="M56.1918 6.62077C55.5375 6.88049 54.7322 7.08826 54.0275 6.98438C54.4805 6.04939 54.4302 6.10133 54.4805 6.04939C55.2355 6.25716 55.6382 6.41299 56.1918 6.62077Z" fill="#D22730"/>
<path d="M52.6685 5.78967C52.5678 5.89356 52.5175 5.99744 52.4168 6.10133C52.4168 5.99744 52.3665 5.89356 52.3665 5.84161C52.3665 5.78967 52.6182 5.78967 52.6685 5.78967Z" fill="#D22730"/>
<path d="M49.9002 6.04939C49.9002 6.15328 49.8499 6.25716 49.8499 6.30911C49.7995 6.30911 49.7492 6.36105 49.6989 6.36105C49.5982 6.30911 49.4975 6.20522 49.3969 6.10133C49.5479 6.10133 49.6989 6.04939 49.9002 6.04939Z" fill="#D22730"/>
<path fill-rule="evenodd" clip-rule="evenodd" d="M58.7588 7.14021C58.6078 7.03632 58.4568 6.98437 58.2555 6.88049C58.2555 6.88049 58.5071 6.36105 58.5071 6.30911C58.6078 5.9455 58.7085 5.63384 58.6582 5.21829C58.4065 5.47801 58.1045 5.73773 57.8025 5.89356C57.6515 5.99745 56.9971 6.36105 56.9971 6.36105C56.9971 6.36105 55.4872 5.73772 54.6315 5.58189C54.7825 4.64691 54.8328 4.02358 54.1785 2.46527C53.8765 3.65997 53.5745 4.49107 52.9202 5.52995C52.7188 5.47801 52.4672 5.47801 52.2659 5.47801C52.1652 5.47801 52.0645 4.07553 51.0075 2.77693C50.7055 2.36138 50.3532 1.99777 49.9505 1.68611C49.5982 1.37445 49.0949 1.68611 48.8432 2.04972C48.6922 2.25749 48.5412 2.93276 48.5412 2.9847C48.5412 3.14054 48.5915 3.24443 48.6922 3.34831C49.2459 3.65998 49.4975 4.12747 49.7492 4.69885C49.8499 4.95857 50.0009 5.32217 50.0512 5.58189C49.9002 5.63384 49.1452 5.68578 48.9439 5.73773C48.7425 5.63384 48.5412 5.37412 48.3902 5.16635C48.1385 4.80274 47.8366 4.43913 47.5849 4.07553C47.5346 4.2833 47.3835 5.01051 47.4339 5.42606C47.4842 5.63384 47.5345 5.84161 47.6352 6.04939C46.9305 6.20522 46.2762 6.413 45.6219 6.72466C45.5212 6.7766 45.0682 6.51688 44.9676 6.46494C44.7159 6.36105 44.5146 6.25716 44.3132 6.10133C43.9106 5.84161 43.5079 5.5819 43.2562 5.16635C43.2562 5.5819 43.3066 5.9455 43.4072 6.30911C43.5582 6.7766 43.7596 7.19215 43.9609 7.55576C42.4006 8.33491 37.7196 12.2307 38.6256 19.0873C39.8839 28.593 50.6552 32.7485 59.1111 28.0735C66.3088 23.7103 67.7181 12.3346 58.7588 7.14021ZM54.0275 6.98438C54.7322 7.08826 55.5375 6.88049 56.1918 6.62077C55.6382 6.41299 55.2355 6.25716 54.4805 6.04939C54.4302 6.10133 54.4805 6.04939 54.0275 6.98438ZM52.4168 6.10133C52.5175 5.99744 52.5678 5.89356 52.6685 5.78967C52.6182 5.78967 52.3665 5.78967 52.3665 5.84161C52.3665 5.89356 52.4168 5.99744 52.4168 6.10133ZM48.8432 2.88082C48.8935 2.88082 49.9505 3.50414 50.2022 5.01051C50.5042 6.67271 49.4975 6.7766 49.6989 7.6077C50.0009 8.38686 52.3665 8.80241 52.0645 6.82854C51.8128 5.06246 51.1585 3.60803 50.0512 2.30944C50.0009 2.67304 49.4472 2.9847 49.2962 2.9847C49.1955 2.9847 49.9002 2.46527 49.7492 1.99778C49.6989 1.89389 49.5982 1.84194 49.4975 1.89389C48.8935 2.15361 48.8432 2.82887 48.8432 2.88082ZM49.8499 6.30911C49.8499 6.25716 49.9002 6.15328 49.9002 6.04939C49.6989 6.04939 49.5479 6.10133 49.3969 6.10133C49.4975 6.20522 49.5982 6.30911 49.6989 6.36105C49.7492 6.36105 49.7995 6.30911 49.8499 6.30911ZM48.6922 7.19215C48.5915 7.14021 48.0379 6.62077 47.8869 6.46494C47.6352 6.56883 46.8299 6.82854 46.5782 6.88049C47.3332 7.03632 47.9875 7.08827 48.6922 7.19215ZM43.5079 5.89356L43.6589 6.20522C44.4642 7.91936 46.0245 8.95824 48.0379 8.80241C48.3399 8.75047 48.5915 8.64658 48.8935 8.59463V8.64658C48.6419 8.80241 48.3399 9.16602 48.1889 9.2699C47.4339 9.84128 47.4339 10.3088 45.7729 10.7243C45.5716 10.7763 45.3199 10.8282 45.1186 10.7243C45.7729 11.1918 46.5782 11.3996 47.3835 11.3996C49.5479 11.3996 50.0009 9.84128 50.5545 9.52962C51.7122 8.85435 53.7758 13.0099 56.8461 10.9321C56.4435 10.9321 56.0911 10.9321 55.7388 10.8282C54.2792 10.4646 53.8262 9.63351 52.6182 8.49075C53.8765 8.69852 56.1415 9.2699 57.8528 6.98438C57.9031 6.82855 58.0038 6.72466 58.1045 6.56883C58.2051 6.41299 58.3058 6.20522 58.3561 6.04939C58.3561 5.9455 58.4065 5.89356 58.4065 5.78967C58.0038 6.20522 57.5005 6.56883 56.9971 6.7766C55.3362 7.81548 53.8262 7.39993 53.3732 7.29604C53.9772 6.36105 54.4805 5.84161 54.1282 3.40026C53.8765 4.64691 53.3732 5.78967 52.4168 6.62077C52.3665 6.62077 52.4672 7.08827 52.4672 7.19215C52.5175 8.33492 52.1149 9.01018 50.3532 8.54269C49.4975 8.33492 49.2459 7.39993 49.6989 6.51688C49.2459 6.46494 48.8432 6.15327 48.5412 5.84161C48.1889 5.47801 47.9875 5.1144 47.7359 4.69885C47.7862 5.58189 48.0882 6.04939 48.4405 6.51688C48.5412 6.67271 48.6419 6.7766 48.7425 6.93243C48.8432 7.08827 48.9942 7.19215 49.1452 7.29604C48.1385 7.39993 47.1319 7.45187 46.1252 7.29604C45.1186 7.14021 44.1622 6.67272 43.5079 5.89356ZM51.7625 29.3202C54.8832 29.3202 56.6951 28.4891 58.5071 27.6061C63.0371 25.0089 65.2014 19.0873 64.2954 15.0357C63.3894 11.7113 60.9231 8.95824 58.0038 7.34798C57.9031 7.50381 57.7522 7.65965 57.6515 7.81548C57.2992 8.17908 56.8462 8.54269 56.3932 8.75047C55.9402 8.95824 55.3865 9.11407 54.8832 9.11407C54.5308 9.16601 54.4302 9.16601 54.1785 9.11407H54.0275C54.7825 9.94517 55.5878 10.5166 57.3998 10.5166C56.6952 11.7113 54.8328 12.4904 52.7692 11.3477C52.2659 11.0879 51.9135 10.6204 51.4102 10.3088C50.2525 9.58157 49.9002 11.7632 47.6352 11.919C46.4272 12.0229 45.3199 11.5035 44.5146 10.2049C45.1186 10.3607 45.6722 10.3607 46.2762 10.1529C46.7795 9.94517 47.2325 9.47768 47.4339 9.2699C45.2192 9.68545 44.4139 7.81547 44.1622 7.91936C43.8602 8.07519 43.7092 8.23103 43.4576 8.4388C36.0083 14.724 39.1793 24.1778 45.0179 27.5541C47.0815 28.7488 49.3969 29.3202 51.7625 29.3202Z" fill="#D22730"/>
<path d="M47.8869 6.46494C48.0379 6.62077 48.5915 7.14021 48.6922 7.19215C47.9875 7.08827 47.3332 7.03632 46.5782 6.88049C46.8299 6.82854 47.6352 6.56883 47.8869 6.46494Z" fill="#D22730"/>
<path d="M57.2488 5.58192C57.0978 5.47803 56.9468 5.42609 56.7455 5.3222C56.7455 5.3222 56.9971 4.80276 56.9971 4.75082C57.0978 4.38721 57.1985 4.07555 57.1481 3.66C56.8965 3.91972 56.5945 4.17944 56.2925 4.33527C56.1415 4.43916 55.4871 4.80276 55.4871 4.80276C55.4871 4.80276 53.9772 4.17944 53.1215 4.0236C53.2725 3.08862 53.3228 2.46529 52.6685 0.906978C52.3665 2.10169 52.0645 2.93279 51.4102 3.97166C51.2088 3.91972 50.9572 3.91972 50.7558 3.91972C50.6552 3.91972 50.5545 2.51724 49.4975 1.21864C49.1955 0.803094 48.8432 0.439484 48.4405 0.127822C48.0882 -0.183841 47.5849 0.127824 47.3332 0.491431C47.1822 0.699206 47.0312 1.37447 47.0312 1.42642C47.0312 1.58225 47.0815 1.68614 47.1822 1.79002C47.7358 2.10169 47.9875 2.56918 48.2392 3.14056C48.3399 3.40028 48.4908 3.76389 48.5412 4.0236C48.3902 4.07555 47.6352 4.12749 47.4338 4.17944C47.2325 4.07555 47.0312 3.81583 46.8802 3.60806C46.6285 3.24445 46.3265 2.88084 46.0749 2.51724C46.0245 2.72501 45.8735 3.45223 45.9239 3.86778C45.9742 4.07555 46.0245 4.28332 46.1252 4.4911C45.4205 4.64693 44.7662 4.85471 44.1119 5.16637C44.0112 5.21831 43.5582 4.95859 43.4576 4.90665C43.2059 4.80276 43.0046 4.69887 42.8032 4.54304C42.4006 4.28332 41.9979 4.02361 41.7462 3.60806C41.7462 4.02361 41.7965 4.38721 41.8972 4.75082C42.0482 5.21831 42.2496 5.63386 42.4509 5.99747C40.8906 6.77663 36.2096 10.6724 37.1156 17.529C38.3739 27.0347 49.1452 31.1902 57.6011 26.5153C64.7987 22.152 66.2081 10.7763 57.2488 5.58192ZM54.6818 5.06248C54.0275 5.3222 53.2222 5.52998 52.5175 5.42609C52.9705 4.4911 52.9201 4.54304 52.9705 4.4911C53.7255 4.69887 54.1282 4.8547 54.6818 5.06248ZM51.1585 4.23138C51.0578 4.33527 51.0075 4.43915 50.9068 4.54304C50.9068 4.43915 50.8565 4.33527 50.8565 4.28332C50.8565 4.23138 51.1082 4.23138 51.1585 4.23138ZM48.6922 3.45222C48.4405 1.94585 47.3835 1.32253 47.3332 1.32253C47.3332 1.27059 47.3835 0.595317 47.9875 0.335598C48.0882 0.283654 48.1889 0.3356 48.2392 0.439488C48.3902 0.906982 47.6855 1.42642 47.7862 1.42642C47.9372 1.42642 48.4908 1.11476 48.5412 0.751149C49.6485 2.04974 50.3028 3.50417 50.5545 5.27026C50.8565 7.24412 48.4908 6.82857 48.1888 6.04941C47.9875 5.21831 48.9942 5.11442 48.6922 3.45222ZM48.3902 4.4911C48.3902 4.59499 48.3399 4.69887 48.3399 4.75082C48.2895 4.75082 48.2392 4.80276 48.1888 4.80276C48.0882 4.75082 47.9875 4.64693 47.8869 4.54304C48.0379 4.54304 48.1889 4.4911 48.3902 4.4911ZM46.3769 4.90665C46.5279 5.06248 47.0815 5.58192 47.1822 5.63386C46.4775 5.52998 45.8232 5.47803 45.0682 5.3222C45.3199 5.27026 46.1252 5.01054 46.3769 4.90665ZM42.1489 4.64693C42.0985 4.54304 42.0482 4.43916 41.9979 4.33527C42.6522 5.11443 43.6086 5.58192 44.6152 5.73775C45.6219 5.89358 46.6285 5.84164 47.6352 5.73775C47.4842 5.63386 47.3332 5.52998 47.2325 5.37415C47.1319 5.21831 47.0312 5.11443 46.9305 4.95859C46.5782 4.4911 46.2762 4.02361 46.2259 3.14056C46.4775 3.55611 46.6789 3.91972 47.0312 4.28332C47.3332 4.59499 47.7358 4.90665 48.1888 4.95859C47.7358 5.84164 47.9875 6.77663 48.8432 6.9844C50.6049 7.4519 51.0075 6.77663 50.9572 5.63386C50.9572 5.52998 50.8565 5.06248 50.9068 5.06248C51.8632 4.23138 52.3665 3.08862 52.6182 1.84197C52.9705 4.28332 52.4672 4.80276 51.8632 5.73775C52.3162 5.84164 53.8261 6.25719 55.4871 5.21831C55.9905 5.01054 56.4938 4.64693 56.8965 4.23138C56.8965 4.33527 56.8461 4.38721 56.8461 4.4911C56.7958 4.64693 56.6951 4.85471 56.5945 5.01054C56.4938 5.16637 56.3931 5.27026 56.3428 5.42609C54.6315 7.71161 52.3665 7.14023 51.1082 6.93246C52.3162 8.07522 52.7691 8.90632 54.2288 9.26993C54.5811 9.37382 54.9335 9.37381 55.3361 9.37381C52.2658 11.4516 50.2022 7.29606 49.0445 7.97133C48.4908 8.283 48.0379 9.84131 45.8735 9.84131C45.0682 9.84131 44.2629 9.63353 43.6086 9.16604C43.8099 9.26993 44.0615 9.21798 44.2629 9.16604C45.9239 8.75049 45.9239 8.283 46.6789 7.71162C46.8299 7.60773 47.1319 7.24412 47.3835 7.08829C47.3835 7.08829 47.3835 7.08829 47.3835 7.03634C47.0815 7.08829 46.8299 7.19218 46.5279 7.24412C44.5145 7.39995 42.9542 6.36108 42.1489 4.64693ZM56.9971 26.0478C55.1851 26.9308 53.3732 27.7619 50.2525 27.7619C47.8869 27.7619 45.5715 27.1905 43.5079 25.9958C37.6692 22.6195 34.4983 13.1657 41.9476 6.88051C42.1992 6.67274 42.3502 6.51691 42.6522 6.36107C42.3502 6.46496 42.4509 6.46496 42.6522 6.36107C42.9039 6.25719 43.7092 8.12716 45.9239 7.71162C45.7225 7.91939 45.2695 8.38688 44.7662 8.59466C44.1622 8.80243 43.6085 8.80243 43.0045 8.6466C43.8099 9.94519 44.9172 10.4646 46.1252 10.3607C48.3902 10.2049 48.7425 8.02328 49.9002 8.75049C50.4035 9.06215 50.7558 9.52965 51.2592 9.78937C53.3228 10.9321 55.1852 10.153 55.8898 8.95826C54.0778 8.95826 53.2725 8.38688 52.5175 7.55578C52.5678 7.55578 52.6182 7.55578 52.6685 7.55578C52.9202 7.60773 53.0208 7.60773 53.3732 7.55578C53.8765 7.55578 54.4302 7.39995 54.8832 7.19218C55.3362 6.9844 55.7892 6.62079 56.1415 6.25719C56.2422 6.10136 56.3931 5.94552 56.4938 5.78969C59.4131 7.39995 61.8794 10.153 62.7854 13.4774C63.6914 17.529 61.5271 23.4506 56.9971 26.0478Z" fill="#212721"/>
<path d="M49.8499 6.36105C50.0009 6.30911 50.1519 6.15328 50.2022 6.04939C50.6552 5.21829 50.0512 3.55609 49.5982 2.67305C49.4472 2.41333 49.2962 2.15361 49.1452 1.94583C48.9942 1.73806 48.7929 1.47834 48.5916 1.32251C48.8936 1.79 49.0949 2.30944 49.3465 2.82888C49.6485 3.55609 50.2525 5.21829 49.9505 5.89356C49.9002 5.99745 49.8499 6.10134 49.7492 6.15328C49.6485 6.20523 49.5479 6.25717 49.3969 6.25717C49.1452 6.25717 48.8935 6.15328 48.6419 6.04939C48.8432 6.20522 49.0949 6.413 49.3969 6.46494C49.4975 6.413 49.6989 6.413 49.8499 6.36105Z" fill="#212721"/>
<path d="M48.4404 7.60773C47.3834 8.49077 46.7291 8.80243 45.4204 9.16604C46.5277 9.58159 48.0881 8.75049 48.4404 7.60773Z" fill="#212721"/>
<path d="M46.679 6.72471C47.0313 6.67277 47.3333 6.62082 47.6353 6.51694C47.283 6.46499 46.981 6.41305 46.679 6.3611L45.773 6.25722C45.773 6.25722 44.0616 5.9975 43.9106 5.9975C44.1623 6.20527 44.4643 6.3611 44.7663 6.46499C45.32 6.67277 45.9743 6.77666 46.679 6.72471Z" fill="#212721"/>
<path d="M53.6752 9.4777C53.1718 9.21798 52.4168 8.90632 51.4605 8.17911C51.2592 8.02328 51.0075 7.8155 50.7559 7.60773C51.1082 8.80243 52.5678 9.68548 53.6752 9.4777Z" fill="#212721"/>
<path d="M53.1214 6.82854C53.4234 6.7766 53.7757 6.67271 54.0777 6.51688C54.3797 6.36105 54.6314 6.15327 54.8327 5.89355C54.5307 5.99744 54.2287 6.10133 53.9267 6.15327C53.6247 6.25716 53.3227 6.3091 53.0711 6.36105C52.7691 6.41299 52.4671 6.46494 52.1651 6.46494C51.8631 6.46494 51.5611 6.46494 51.2087 6.51688C51.5107 6.67271 51.8128 6.7766 52.1148 6.82854C52.4671 6.88048 52.7691 6.88048 53.1214 6.82854Z" fill="#212721"/>
<path d="M58.1044 8.3869C58.6077 8.95828 59.0607 9.47772 59.4634 10.101C63.5404 16.0746 60.1177 21.1131 59.5137 21.9962C57.7017 24.2298 55.1347 25.6842 52.2154 26.2556C51.3094 26.4633 50.4034 26.5153 49.4975 26.5153C47.6855 26.5153 45.8231 26.1517 44.1118 25.4245C48.9941 28.593 56.1918 27.2425 59.6647 22.6714C59.8661 22.4117 60.017 22.2039 60.2184 21.9442C63.49 17.4251 62.131 10.3608 58.1044 8.3869Z" fill="#212721"/>
<path d="M40.3871 20.4378C39.9845 19.7106 39.6825 18.9834 39.4308 18.2042C39.1792 17.4251 38.9778 16.594 38.8771 15.7629C38.3235 19.0873 40.4375 22.9831 43.4071 24.2817C42.8031 23.7103 41.1925 21.9442 40.3871 20.4378Z" fill="#212721"/>
<path d="M51.4604 25.6842C56.2421 25.3206 60.6714 21.3209 60.1681 15.9188C59.6144 19.7626 57.6011 24.1259 51.4101 25.1647C50.1518 25.3725 48.7928 25.3725 47.4841 25.1647C48.7425 25.6322 50.1518 25.7881 51.4604 25.6842Z" fill="#212721"/>
<path d="M52.467 24.0739C55.2857 23.6583 56.997 21.6325 57.299 19.9184C56.8964 20.5417 56.4434 21.1131 55.94 21.5806C54.883 22.5156 53.6751 23.1389 52.3664 23.5545C51.7121 23.7622 51.0074 23.9181 50.3027 24.022C51.0074 24.1778 51.7624 24.1778 52.467 24.0739Z" fill="#212721"/>
<path d="M22.4849 44.314C22.2732 44.6203 21.8698 44.9234 21.4019 44.6647C20.9341 44.4061 20.7384 43.7536 20.4217 43.2761C20.3644 43.1719 20.3812 43.0541 20.3239 42.9498C19.9595 41.7928 19.639 40.666 19.1401 39.6101C18.1592 37.3803 16.8154 35.6758 15.1492 34.7183C14.5501 34.369 14.4292 34.544 14.3687 34.6315C14.2477 34.8066 14.2548 35.2641 14.2484 35.6477C14.2452 35.8394 14.2858 36.0615 14.2388 36.223C14.2356 36.4147 14.1719 36.694 14.0207 36.9128C13.93 37.0441 13.8392 37.1754 13.6912 37.2025C13.4692 37.243 13.2774 37.2398 13.0284 37.1324C12.3552 36.7965 11.8732 35.6228 11.5931 34.718C11.4515 34.3615 11.3839 33.9915 11.2861 33.6652C11.2153 33.487 11.2185 33.2952 11.1477 33.117L11.1342 33.0429C11.0936 32.8209 10.9687 32.3467 10.7634 32.2695C10.7197 32.2392 10.6894 32.283 10.6154 32.2965C10.5852 32.3403 10.5685 32.458 10.5382 32.5018C10.5215 32.6196 10.5215 32.6195 10.5215 32.6195L10.4308 32.7509L10.3098 32.9259C10.2493 33.0134 10.1013 33.0405 9.95331 33.0675C9.378 33.0579 8.90943 31.9581 8.6835 31.3494C8.66999 31.2754 8.6127 31.1711 8.59918 31.0971C8.41381 30.7104 8.30245 30.3101 8.11708 29.9234C7.84739 29.2844 7.62147 28.6756 7.29129 28.1242C6.63095 27.0212 5.79235 25.9891 4.96727 25.0309L4.66414 24.6275C4.5631 24.493 4.46205 24.3585 4.31724 24.1938C3.97035 23.7601 3.54945 23.3399 3.35056 22.8792C3.236 22.6707 3.25273 22.5529 3.34345 22.4216C3.40393 22.3341 3.46441 22.2466 3.56866 22.1893L3.62915 22.1018C3.79388 21.9569 3.98885 21.7684 4.21086 21.7278C4.43288 21.6873 4.5912 21.926 4.70577 22.1345C4.79329 22.1949 4.8068 22.269 4.85056 22.2992C5.09641 22.5984 5.37251 22.8539 5.63508 23.0353C6.20398 23.4285 6.83339 23.7341 7.50974 23.8782C8.09857 23.9618 8.73115 24.0757 9.52847 24.0447C9.67648 24.0177 9.86827 24.0208 10.0163 23.9938C10.3123 23.9397 10.6521 23.9159 10.9751 24.0098C11.2847 24.0297 11.4597 24.1507 11.6618 24.4197L11.6618 24.4198C11.7191 24.524 11.7764 24.6282 11.7899 24.7022C11.8169 24.8502 11.8304 24.9242 11.9617 25.0149C12.0493 25.0754 12.241 25.0786 12.389 25.0516C12.463 25.0381 12.5068 25.0683 12.5808 25.0548C13.0081 25.0914 13.4521 25.0103 13.8659 24.9729C14.0139 24.9459 14.1317 24.9626 14.2797 24.9356C14.9592 24.8879 15.7701 24.931 16.7257 25.1387L16.8435 25.1554C17.3583 25.2526 18.0784 25.4269 18.3951 25.9044C18.5669 26.2171 18.5773 26.4829 18.426 26.7017C18.1841 27.0518 17.4576 27.261 16.9396 27.3556L16.9394 27.3556C16.5257 27.393 16.1119 27.4304 15.6847 27.3937C15.2574 27.3571 14.6216 27.435 14.3661 27.7111C14.2754 27.8424 14.2889 27.9164 14.3025 27.9904C14.4003 28.3166 15.2955 28.6119 15.5748 28.6756C16.7795 28.9908 18.1083 28.9393 19.2757 28.8407L19.3934 28.8574L20.4128 28.7859C21.4321 28.7144 22.4817 28.5991 23.5281 28.6756L23.6458 28.6923C24.4129 28.7051 25.6073 28.7546 26.173 29.3395C26.5064 29.6992 26.5875 30.1432 26.3455 30.4933C26.2548 30.6246 26.1506 30.6819 26.0464 30.7392L26.0464 30.7392C25.7336 30.911 25.3501 30.9046 25.0843 30.9149C24.9665 30.8982 24.8925 30.9117 24.7747 30.895C24.5527 30.9356 24.3172 30.9021 24.0952 30.9427C23.9472 30.9697 23.7252 31.0103 23.6209 31.0676C23.5469 31.0811 23.5469 31.0811 23.5469 31.0811C23.7522 31.1583 23.9877 31.1917 24.2232 31.2252L24.2233 31.2252C24.6943 31.2921 25.2394 31.3454 25.3778 31.8937C25.4486 32.0719 25.4017 32.2335 25.3109 32.3648C25.1597 32.5836 24.9075 32.6679 24.6855 32.7085C24.921 32.7419 25.1128 32.7451 25.3045 32.7483L28.3259 32.9611C29.0627 33.0176 29.7558 33.044 30.4322 33.1881L30.4322 33.1881C30.947 33.2852 32.4915 33.5766 32.5662 34.4041C32.5932 34.5521 32.5765 34.6699 32.4858 34.8012C32.2741 35.1075 31.8436 35.2627 31.5611 35.3908C31.1608 35.5021 30.8346 35.5999 30.5083 35.6978C30.404 35.7551 30.33 35.7686 30.256 35.7821C30.108 35.8092 30.0038 35.8664 29.9298 35.88C29.8391 36.0113 29.8223 36.129 29.8796 36.2332C30.0212 36.5897 30.8591 36.7808 31.2259 36.905L33.7968 37.5824L33.7969 37.5824C34.517 37.7567 35.2371 37.9311 36.001 38.1356C36.1625 38.1826 36.3543 38.1858 36.5596 38.263L36.5791 38.2677C37.5792 38.5058 39.1191 38.8725 39.4407 39.8014C39.6126 40.1142 39.6229 40.38 39.5019 40.555C39.4414 40.6425 39.307 40.7436 39.2027 40.8008C38.89 40.9727 38.5502 40.9965 38.0927 41.0036C37.9009 41.0004 37.6654 40.967 37.4298 40.9336L37.1943 40.9001L37.1942 40.9001C36.9586 40.8667 36.3699 40.7831 36.175 40.9716C36.3134 41.5199 37.1043 41.8725 37.7774 42.2083L37.7776 42.2084C38.0266 42.3158 38.2756 42.4232 38.4506 42.5442C38.5683 42.5609 38.6558 42.6214 38.7871 42.7121L38.7872 42.7121C39.2113 42.9406 39.7229 43.2294 39.9823 43.6027C40.1103 43.8852 40.1509 44.1072 39.9997 44.326L39.8485 44.5448L39.788 44.6323C39.788 44.6323 39.8015 44.7063 39.9463 44.8711C40.1484 45.14 40.3807 45.3653 40.6568 45.6207L40.7444 45.6812C41.209 46.1316 41.6737 46.5821 41.6776 47.2314C41.6306 47.3929 41.6139 47.5107 41.5232 47.6419C41.3417 47.9045 41.0155 48.0024 40.6319 47.996C40.1744 48.0031 39.7065 47.7444 39.296 47.59L39.1647 47.4993C39.0771 47.4388 38.9156 47.3918 38.7843 47.3011C38.3602 47.0727 37.8486 46.7838 37.5056 46.9994C37.4316 47.0129 37.4014 47.0567 37.3711 47.1004L37.3107 47.188C37.2804 47.2317 37.2199 47.3192 37.0281 47.316C36.7624 47.3264 36.4258 47.1585 36.207 47.0072L36.0757 46.9165C35.0222 46.3825 33.8979 45.6702 32.8206 44.7964C32.383 44.4939 31.7401 44.1143 31.37 44.1819C31.296 44.1955 31.1918 44.2527 31.1313 44.3403C31.0708 44.4278 30.9936 44.633 31.0342 44.8551C31.031 45.0468 31.1018 45.2251 31.1726 45.4033C31.2434 45.5816 31.3142 45.7599 31.3412 45.9079C31.338 46.0996 31.3451 46.5572 31.1637 46.8197C31.1032 46.9072 30.999 46.9645 30.8948 47.0218L30.8947 47.0218C30.4642 47.1769 30.0736 46.713 29.7402 46.3533L29.7401 46.3532C29.6391 46.2188 29.5381 46.0843 29.4068 45.9936C29.2421 46.1384 29.1076 46.2395 28.9461 46.1925C28.475 46.1256 28.0907 45.2781 27.8918 44.8174C27.1233 43.1224 25.9482 41.9223 24.4667 40.5106C24.4667 40.5106 24.4364 40.5543 24.45 40.6283C24.4468 40.8201 24.4435 41.0119 24.3528 41.1431C24.2923 41.2307 24.1881 41.288 24.1141 41.3015C23.9358 41.3723 23.8483 41.3118 23.717 41.2211L23.717 41.2211L23.6733 41.1908C23.5555 41.1741 23.4107 41.0094 23.2659 40.8447C23.0773 40.6497 22.919 40.4109 22.771 40.438C22.7272 40.4077 22.697 40.4515 22.6667 40.4953C22.6365 40.539 22.65 40.613 22.6198 40.6568C22.5561 40.9361 22.6372 41.3801 22.6746 41.7939C22.7151 42.0159 22.7557 42.2379 22.7525 42.4297L22.7493 42.6215C22.7564 43.079 22.8073 43.5668 22.6529 43.9774C22.6361 44.0951 22.5454 44.2264 22.4849 44.314Z" fill="#509E2F"/>
<path d="M23.6221 44.2592C24.09 44.5178 24.4934 44.2147 24.7051 43.9084C24.7656 43.8209 24.8564 43.6896 24.8731 43.5718C25.0275 43.1612 24.9766 42.6734 24.9695 42.2159L24.9727 42.0241C24.9759 41.8323 24.9353 41.6103 24.8948 41.3883C24.8574 40.9745 24.7763 40.5305 24.84 40.2512C24.8702 40.2074 24.8567 40.1334 24.8869 40.0897C24.9172 40.0459 24.9474 40.0021 24.9912 40.0324C25.1392 40.0053 25.2975 40.2441 25.4861 40.4391C25.6309 40.6038 25.7757 40.7685 25.8935 40.7852L25.9372 40.8155C26.0685 40.9062 26.156 40.9667 26.3343 40.8959C26.4083 40.8824 26.5125 40.8251 26.573 40.7376C26.6638 40.6063 26.667 40.4145 26.6702 40.2227C26.6566 40.1487 26.6869 40.105 26.6869 40.105C28.1684 41.5168 29.3436 42.7168 30.1121 44.4118C30.3109 44.8725 30.6952 45.72 31.1663 45.7869C31.3278 45.8339 31.4623 45.7328 31.627 45.588C31.7583 45.6787 31.8594 45.8132 31.9604 45.9477C32.2938 46.3074 32.6844 46.7714 33.1149 46.6162C33.2192 46.559 33.3234 46.5017 33.3839 46.4142C33.5654 46.1516 33.5582 45.6941 33.5614 45.5023C33.5344 45.3543 33.4636 45.176 33.3928 44.9978C33.322 44.8195 33.2512 44.6413 33.2544 44.4495C33.2138 44.2275 33.291 44.0222 33.3515 43.9347C33.412 43.8472 33.5163 43.7899 33.5903 43.7764C33.9603 43.7088 34.6032 44.0884 35.0408 44.3908C36.1181 45.2646 37.2424 45.9769 38.2959 46.5109C38.3397 46.5412 38.3834 46.5714 38.4272 46.6017C38.646 46.7529 38.9826 46.9208 39.2484 46.9105C39.4401 46.9137 39.5006 46.8262 39.5309 46.7824L39.5914 46.6949C39.6216 46.6511 39.6518 46.6073 39.7258 46.5938C40.0688 46.3782 40.5804 46.6671 41.0045 46.8955C41.1358 46.9862 41.2974 47.0332 41.3849 47.0937L41.5162 47.1844C41.9267 47.3388 42.3946 47.5975 42.8522 47.5904C43.2357 47.5968 43.562 47.4989 43.7434 47.2364C43.8341 47.1051 43.8508 46.9873 43.8978 46.8258C43.8939 46.1765 43.4292 45.726 42.9646 45.2756L42.8771 45.2151C42.601 44.9597 42.3686 44.7345 42.1666 44.4655C42.0217 44.3007 42.0082 44.2268 42.0082 44.2268C42.0082 44.2268 42.0385 44.183 42.0687 44.1392C42.0989 44.0955 42.1292 44.0517 42.2199 43.9204C42.3711 43.7016 42.3306 43.4796 42.2025 43.1971C41.9431 42.8239 41.4315 42.535 41.0074 42.3066C40.8761 42.2158 40.7886 42.1553 40.6708 42.1386C40.4958 42.0177 40.2467 41.9102 39.9977 41.8028C39.3245 41.4669 38.5336 41.1143 38.3952 40.566C38.5902 40.3775 39.179 40.4611 39.4145 40.4945L39.65 40.528C39.8856 40.5614 40.1211 40.5949 40.3129 40.5981C40.7704 40.5909 41.1102 40.5671 41.4229 40.3953C41.5272 40.338 41.6617 40.2369 41.7221 40.1494C41.8431 39.9744 41.8328 39.7086 41.661 39.3958C41.3372 38.4608 39.7792 38.0954 38.7798 37.8574C38.5745 37.7802 38.3827 37.777 38.2212 37.7301C37.4573 37.5255 36.7372 37.3512 36.0171 37.1768L33.4462 36.4994C33.0793 36.3752 32.2414 36.1842 32.0998 35.8277C32.0426 35.7234 32.0593 35.6057 32.15 35.4744C32.224 35.4609 32.3282 35.4036 32.4763 35.3765C32.5503 35.363 32.6243 35.3495 32.7285 35.2922C33.0548 35.1944 33.381 35.0965 33.7813 34.9852C34.0638 34.8571 34.4943 34.7019 34.706 34.3956C34.7967 34.2643 34.8134 34.1466 34.7864 33.9986C34.7117 33.171 33.1672 32.8796 32.6524 32.7825C31.976 32.6384 31.2829 32.612 30.5461 32.5555L27.5247 32.3427C27.333 32.3395 27.1412 32.3363 26.9057 32.3029C27.1277 32.2623 27.3799 32.178 27.5311 31.9592C27.6219 31.8279 27.6688 31.6664 27.598 31.4881C27.4596 30.9398 26.9146 30.8865 26.4435 30.8196C26.208 30.7862 25.9724 30.7527 25.7671 30.6755C25.7671 30.6755 25.7671 30.6755 25.8411 30.662C25.9454 30.6047 26.1674 30.5641 26.3154 30.5371C26.5374 30.4965 26.7729 30.53 26.995 30.4894C27.1127 30.5062 27.1867 30.4926 27.3045 30.5094C27.5703 30.499 27.9538 30.5054 28.2666 30.3336C28.3708 30.2763 28.475 30.219 28.5658 30.0877C28.8077 29.7377 28.7266 29.2936 28.3932 28.9339C27.8275 28.349 26.6331 28.2996 25.866 28.2868L25.7483 28.27C24.7019 28.1935 23.6523 28.3088 22.633 28.3803C22.2932 28.4042 21.9534 28.428 21.6137 28.4518L21.4959 28.4351C20.3285 28.5337 18.9997 28.5853 17.795 28.27C17.5157 28.2064 16.6205 27.9111 16.5227 27.5848C16.5091 27.5108 16.4956 27.4368 16.5863 27.3055C16.8418 27.0294 17.4776 26.9515 17.9049 26.9881C18.3322 27.0248 18.746 26.9874 19.1598 26.9501C19.6778 26.8554 20.4043 26.6462 20.6463 26.2961C20.7975 26.0773 20.7872 25.8115 20.6153 25.4988C20.2987 25.0213 19.5785 24.847 19.0637 24.7499L18.9459 24.7332C17.9903 24.5254 17.1795 24.4823 16.4999 24.53C16.3519 24.557 16.2341 24.5403 16.0861 24.5674C15.6723 24.6047 15.2283 24.6858 14.801 24.6492C14.727 24.6627 14.6832 24.6325 14.6092 24.646C14.4612 24.673 14.2695 24.6698 14.1819 24.6093C14.0507 24.5186 14.0371 24.4446 14.0101 24.2966C13.9966 24.2226 13.9393 24.1184 13.882 24.0141C13.6799 23.7451 13.5049 23.6242 13.1953 23.6042C12.8723 23.5103 12.5325 23.5342 12.2365 23.5882C12.0885 23.6153 11.8967 23.6121 11.7487 23.6391C10.9514 23.6701 10.3188 23.5562 9.72996 23.4726C9.0536 23.3285 8.4242 23.0229 7.85529 22.6297C7.59272 22.4483 7.31662 22.1928 7.07077 21.8936C7.02701 21.8634 7.0135 21.7894 6.92598 21.7289C6.81142 21.5204 6.65309 21.2817 6.43108 21.3222C6.20907 21.3628 6.01409 21.5514 5.84936 21.6962L5.78887 21.7837C5.68463 21.841 5.62415 21.9285 5.56367 22.016C5.47294 22.1473 5.45621 22.2651 5.57078 22.4736C5.76966 22.9343 6.19056 23.3545 6.53746 23.7882C6.68226 23.9529 6.78331 24.0874 6.88435 24.2219L7.18749 24.6254C8.01256 25.5835 8.85116 26.6156 9.51151 27.7186C9.84168 28.27 10.0676 28.8788 10.3373 29.5178C10.5227 29.9046 10.634 30.3048 10.8194 30.6916C10.8329 30.7656 10.8902 30.8698 10.9037 30.9438C11.1296 31.5526 11.5982 32.6523 12.1735 32.6619C12.3215 32.6349 12.4696 32.6078 12.53 32.5203C12.5603 32.4765 12.6207 32.389 12.651 32.3453C12.6812 32.3015 12.7115 32.2577 12.7417 32.214C12.7417 32.214 12.7417 32.214 12.7584 32.0962C12.7887 32.0525 12.8054 31.9347 12.8356 31.8909C12.9097 31.8774 12.9399 31.8336 12.9837 31.8639C13.189 31.9411 13.3138 32.4153 13.3544 32.6373L13.3679 32.7114C13.4387 32.8896 13.4355 33.0814 13.5063 33.2596C13.6041 33.5859 13.6718 33.9559 13.8134 34.3124C14.0934 35.2172 14.5755 36.3909 15.2486 36.7268C15.4977 36.8342 15.6894 36.8374 15.9115 36.7969C16.0595 36.7698 16.1502 36.6386 16.2409 36.5073C16.3921 36.2885 16.4558 36.0092 16.459 35.8174C16.506 35.6559 16.4654 35.4338 16.4686 35.2421C16.475 34.8585 16.4679 34.401 16.5889 34.2259C16.6494 34.1384 16.7703 33.9634 17.3695 34.3128C19.0356 35.2702 20.3794 36.9748 21.3604 39.2045C21.8592 40.2605 22.1798 41.3872 22.5441 42.5443C22.6014 42.6485 22.5846 42.7663 22.6419 42.8705C22.9586 43.348 23.1543 44.0005 23.6221 44.2592ZM18.6379 34.3487L18.4628 34.2277C17.8804 33.7606 16.9781 33.0077 16.3192 33.587C16.2889 33.6307 16.2587 33.6745 16.2285 33.7182C16.0168 34.0246 16.0104 34.4081 16.0342 34.7479C16.0175 34.8657 16.0445 35.0137 16.0278 35.1314C16.0548 35.2794 16.0516 35.4712 16.0349 35.589C16.0317 35.7807 15.9848 35.9423 15.9243 36.0298C15.8638 36.1173 15.7898 36.1308 15.7158 36.1444C15.5678 36.1714 15.3927 36.0504 15.1604 35.8252C14.5947 35.2403 14.3584 34.3658 14.1357 33.5653C14.0649 33.387 14.0243 33.165 13.9838 32.943C13.8891 32.425 13.7945 31.9069 13.5351 31.5337C13.3768 31.295 13.1007 31.0395 12.7442 31.1811C12.6702 31.1946 12.6097 31.2822 12.5795 31.3259C12.4887 31.4572 12.4418 31.6187 12.3948 31.7803C12.3781 31.898 12.3614 32.0158 12.3009 32.1033C12.2706 32.1471 12.2707 32.1471 12.2707 32.1471C12.1966 32.1606 11.9476 32.0532 11.1115 29.9882L11.0845 29.8402C10.9564 29.5577 10.8721 29.3054 10.744 29.0229C10.518 28.4142 10.2619 27.8492 9.97546 27.3279C9.71608 26.9547 9.50048 26.6117 9.2411 26.2385C9.88081 26.8099 10.6081 27.4418 11.4093 28.0601L11.8437 28.5543C12.5677 29.378 13.248 30.1714 13.7938 31.0658C14.4104 32.1385 14.8925 33.3123 15.2401 34.5871C15.2401 34.5871 15.2839 34.6173 15.3276 34.6476L15.4016 34.634L15.4318 34.5903C15.0668 32.5922 14.1837 30.6887 13.0858 29.2833C13.8735 29.8277 14.6612 30.372 15.4792 30.8726C15.7855 31.0843 16.1658 31.2825 16.4722 31.4942C17.5527 32.1763 18.5123 33.0333 19.4551 34.0082C20.1218 34.7276 20.7146 35.4605 21.2031 36.2507C22.3249 37.9959 23.0162 39.8961 23.4784 41.3794C23.4784 41.3794 23.5222 41.4097 23.5659 41.4399L23.6399 41.4264L23.6702 41.3826C23.3457 39.6065 22.6376 37.824 21.4283 36.0184C20.5356 34.6903 19.697 33.6581 18.8385 32.9355C19.818 33.4831 20.8715 34.0171 21.8947 34.5949C23.7527 35.5555 25.6544 36.5464 27.5561 37.5373C28.0652 38.859 28.7963 40.1402 29.5713 41.4516L29.8442 41.8988C30.4607 42.9715 31.1076 44.0005 31.9494 44.8409L31.9931 44.8711L32.0234 44.8273C32.0234 44.8273 32.0536 44.7836 32.0098 44.7533C31.6526 44.0539 31.1777 43.3377 30.7162 42.6955C30.3995 42.218 30.0391 41.7103 29.7527 41.1891C29.3517 40.4593 28.9372 39.6556 28.58 38.9561C28.3947 38.5694 28.179 38.2264 28.0374 37.8699C30.407 39.1194 32.7463 40.4127 35.0116 41.7195C35.0116 41.7195 34.9814 41.7633 35.0251 41.7935C35.2543 42.2105 35.5136 42.5837 35.847 42.9434C35.9481 43.0779 36.0793 43.1687 36.1366 43.2729C36.4398 43.6764 36.7294 44.0058 37.0628 44.3655L37.4972 44.8597C37.5409 44.89 37.5409 44.8899 37.5712 44.8462C37.6014 44.8024 37.6014 44.8024 37.5577 44.7722L37.5004 44.668C37.14 44.1602 36.766 43.5785 36.3619 43.0406C36.2608 42.9061 36.2035 42.8018 36.1025 42.6673C35.9441 42.4286 35.7858 42.1899 35.5973 41.9949C37.7313 43.211 39.6298 44.3936 41.5585 45.5325C41.6023 45.5627 41.6023 45.5627 41.6325 45.519C41.6628 45.4752 41.6627 45.4752 41.619 45.445C40.3936 44.5982 39.0505 43.7347 37.5022 42.794C35.6641 41.5238 33.7656 40.3412 31.9244 39.2628C32.382 39.2557 32.8833 39.2788 33.3408 39.2717C33.9161 39.2813 34.4477 39.2607 35.023 39.2703C35.9516 39.3301 36.924 39.42 37.8661 39.5538L38.4549 39.6374L38.5289 39.6239C38.5289 39.6239 38.5592 39.5802 38.5154 39.5499L38.4717 39.5197C35.9747 38.8288 33.4984 38.6694 31.6046 38.9771C31.6046 38.9771 31.5743 39.0209 31.5306 38.9906L30.9752 38.6715C29.134 37.5931 27.4678 36.6357 25.8017 35.6783C26.848 35.7547 27.9716 35.626 29.0077 35.4367C30.0875 35.2776 31.4498 34.9905 32.6705 34.3469C32.6705 34.3469 32.7008 34.3031 32.657 34.2729L32.6132 34.2426C32.2432 34.3102 31.843 34.4216 31.5167 34.5194C30.7162 34.7422 29.9459 34.9211 29.1318 35.0698C28.348 35.1748 27.5507 35.2058 26.7972 35.267C26.2656 35.2876 25.8081 35.2947 25.3203 35.3456C24.4721 34.8888 23.6677 34.4622 22.8194 34.0053C22.3516 33.7467 21.8535 33.5318 21.3418 33.2429C20.2884 32.7089 19.1911 32.1446 18.1241 31.5365C17.9491 31.4156 17.7302 31.2644 17.5249 31.1872C18.5275 31.2334 19.5636 31.0441 20.5694 30.8986C20.8654 30.8445 21.0874 30.804 21.3532 30.7936C22.9948 30.5702 24.8584 30.3062 26.5805 29.6857L26.567 29.6117C26.567 29.6117 26.5232 29.5815 26.4794 29.5512C25.6956 29.6562 24.8514 29.8487 24.0373 29.9974C23.2233 30.1461 22.4092 30.2948 21.5952 30.4436C20.7373 30.562 19.8358 30.6503 19.0082 30.725C18.7862 30.7655 18.5204 30.7759 18.2849 30.7424C17.8274 30.7495 17.3698 30.7567 16.9696 30.868C16.1818 30.3237 15.3941 29.7793 14.6064 29.2349L13.7749 28.6604C12.4183 27.7229 11.1222 26.6978 9.96051 25.5718C11.0172 25.914 12.2991 26.024 13.3455 26.1005L13.4195 26.0869C15.0109 26.2168 16.6493 26.1851 18.1732 25.945L18.2034 25.9012C18.2337 25.8574 18.2337 25.8575 18.1899 25.8272C18.1899 25.8272 18.1461 25.797 18.1024 25.7667C16.4337 25.8422 14.8996 25.8165 13.5436 25.7201C12.8068 25.6636 12.0867 25.4892 11.3363 25.3586L10.7777 25.2313C10.1452 25.1174 9.58656 24.9901 9.13542 24.6136C8.72804 24.2674 8.39467 23.9077 8.0613 23.548C9.37736 24.2635 11.0731 24.3361 12.3279 24.298C12.4019 24.2845 12.4759 24.271 12.5197 24.3012C12.8595 24.2774 13.0815 24.2368 13.3576 24.4923C13.4586 24.6268 13.5461 24.6873 13.6034 24.7915C13.8055 25.0605 14.0076 25.3295 14.4349 25.3661C14.8622 25.4028 15.276 25.3654 15.6898 25.328C15.9118 25.2875 16.1035 25.2907 16.3693 25.2804L16.5913 25.2398C16.8133 25.1992 17.0489 25.2327 17.2709 25.1921C17.964 25.2185 18.6403 25.3625 19.3167 25.5066L19.4344 25.5233C19.7137 25.587 20.1546 25.6977 20.2691 25.9062C20.3264 26.0104 20.3097 26.1282 20.2492 26.2157L20.2189 26.2595C19.9468 26.6533 18.9442 26.6071 18.4866 26.6142L18.3688 26.5975C17.7195 26.6014 17.04 26.6491 16.4885 26.9792C16.354 27.0803 16.2498 27.1376 16.1591 27.2689C16.0683 27.4001 16.0214 27.5617 16.0484 27.7097C16.1327 27.9619 16.3786 28.2611 16.7589 28.4593C18.5428 29.4335 20.568 29.2164 22.5629 29.0432C22.8287 29.0328 23.0945 29.0225 23.3165 28.982C23.5082 28.9852 23.7303 28.9446 23.922 28.9478C24.5578 28.8699 25.2374 28.8222 25.9304 28.8485C26.4318 28.8717 26.8153 28.8781 27.1821 29.0022C27.2561 28.9887 27.3436 29.0492 27.4176 29.0357C27.7709 29.0858 28.168 29.1662 28.3701 29.4352C28.5149 29.5999 28.5117 29.7917 28.3907 29.9668C28.3302 30.0543 28.1958 30.1553 28.0478 30.1824C27.7955 30.2667 27.56 30.2333 27.2942 30.2436C27.1024 30.2404 26.9847 30.2237 26.7929 30.2205C26.4531 30.2443 25.9351 30.3389 25.6223 30.5108C25.5181 30.5681 25.4138 30.6254 25.3836 30.6691C25.3231 30.7566 25.3366 30.8306 25.3502 30.9046C25.4345 31.1569 25.8888 31.3415 26.0806 31.3447C26.1243 31.375 26.2421 31.3917 26.3599 31.4084C26.6694 31.4283 27.1405 31.4952 27.2113 31.6735C27.2686 31.7777 27.3394 31.956 27.3091 31.9998C27.2486 32.0873 27.0569 32.0841 26.9089 32.1111C26.8349 32.1246 26.8349 32.1246 26.7609 32.1382L26.6869 32.1517C26.5389 32.1787 26.3471 32.1755 26.2126 32.2766C26.1824 32.3203 26.1521 32.3641 26.1219 32.4078C26.0614 32.4954 26.0447 32.6131 26.0582 32.6871C26.1863 32.9696 27.0106 33.0867 27.7037 33.113C27.7777 33.0995 27.8215 33.1297 27.8215 33.1297C28.5281 33.2301 29.2211 33.2564 29.9142 33.2827C30.5333 33.3226 31.1961 33.3926 31.8152 33.4325C32.478 33.5026 33.2149 33.5591 33.8005 33.8345C34.0933 33.9722 34.2684 34.0932 34.2954 34.2412C34.3089 34.3152 34.2787 34.359 34.2182 34.4465C34.1577 34.534 33.993 34.6788 33.7407 34.7631C33.428 34.935 33.058 35.0026 32.7317 35.1004L32.6275 35.1577C32.5535 35.1713 32.5232 35.215 32.4492 35.2285C32.197 35.3128 31.901 35.3669 31.7497 35.5857C31.5985 35.8045 31.6661 36.1746 31.7807 36.3831C32.0504 37.0221 32.932 37.2433 33.6084 37.3874C33.7699 37.4344 33.8877 37.4511 34.0054 37.4679L35.2842 37.7695C36.0918 38.0044 36.9297 38.1954 37.7373 38.4303C37.9728 38.4637 38.2521 38.5274 38.5314 38.5911C39.4433 38.7686 40.547 38.9493 41.1127 39.5342C41.2575 39.699 41.3856 39.9815 41.2646 40.1565L41.2344 40.2003C41.0696 40.3451 40.5683 40.322 40.3025 40.3323C40.1108 40.3291 39.8752 40.2956 39.67 40.2184C39.3167 40.1683 38.9936 40.0743 38.6538 40.0982C38.4318 40.1387 38.1796 40.2231 38.0586 40.3981C37.9679 40.5294 37.9209 40.6909 37.9615 40.9129C38.0291 41.283 38.3927 41.5989 38.9918 41.9483C39.1231 42.039 39.2846 42.086 39.4159 42.1767C39.7087 42.3144 40.0016 42.4521 40.2641 42.6335C40.4829 42.7847 40.7018 42.9359 40.9643 43.1174L41.2269 43.2989C41.5197 43.4365 41.6343 43.645 41.6581 43.9848C41.5841 43.9983 41.5101 44.0119 41.4496 44.0994C41.4194 44.1431 41.3891 44.1869 41.4027 44.2609C41.5411 44.8092 41.9182 45.1991 42.3256 45.5453C42.6892 45.8612 42.9788 46.1907 43.1204 46.5472C43.2047 46.7994 43.2015 46.9912 43.1411 47.0787C42.9899 47.2975 42.401 47.214 41.4923 46.8446C41.3308 46.7977 41.1995 46.707 41.0817 46.6902C40.6274 46.5056 40.2033 46.2772 39.7187 46.1363C39.601 46.1196 39.5269 46.1331 39.4665 46.2206L39.4362 46.2644C39.3455 46.3956 39.2413 46.4529 39.0932 46.48C38.5012 46.5881 37.4374 45.7883 36.3736 44.9885C35.1347 44.0677 33.8521 43.1167 33.1089 43.4437C33.0046 43.501 32.8701 43.602 32.8096 43.6895C32.6282 43.9521 32.6218 44.3356 32.7164 44.8537C32.73 44.9277 32.7872 45.0319 32.8008 45.1059C32.8986 45.4322 33.0975 45.8929 32.9463 46.1117C32.7513 46.3003 32.4044 45.8666 32.0846 45.5809C31.896 45.3859 31.7512 45.2212 31.6637 45.1607C31.5324 45.07 31.4281 45.1273 31.3374 45.2586C31.3071 45.3023 31.2769 45.3461 31.2332 45.3158C31.1154 45.2991 30.8831 45.0739 30.4145 43.9742C30.401 43.9002 30.3572 43.8699 30.3572 43.8699C30.0708 43.3487 29.7844 42.8275 29.3802 42.2895C28.501 41.0354 27.6155 40.1647 26.6662 39.5734C26.6225 39.5432 26.5787 39.5129 26.5485 39.5567C26.5485 39.5567 26.4609 39.4962 26.4172 39.466C26.3297 39.4055 26.2557 39.419 26.1649 39.5503C26.0877 39.7556 26.1012 39.8296 26.1148 39.9036C26.1283 39.9776 26.1418 40.0516 26.1251 40.1694C26.0948 40.2131 26.0948 40.2131 26.0948 40.2131C26.0646 40.2569 26.0646 40.2569 26.0209 40.2267C25.7551 40.237 25.2331 39.6823 25.0748 39.4436L25.0175 39.3393C24.9738 39.3091 24.8862 39.2486 24.8122 39.2621C24.7382 39.2756 24.708 39.3194 24.634 39.3329C24.6037 39.3767 24.5433 39.4642 24.513 39.508C24.2711 39.8581 24.2647 40.2416 24.302 40.6554L24.3394 41.0692C24.3767 41.483 24.4006 41.8227 24.3639 42.25C24.3774 42.324 24.3472 42.3678 24.3607 42.4418C24.3408 42.7513 24.3647 43.0911 24.1832 43.3537C24.0622 43.5287 23.884 43.5995 23.6485 43.5661C23.4432 43.4889 23.2681 43.3679 23.2276 43.1459C23.0016 42.5372 22.7757 41.9284 22.5935 41.3499C22.2562 40.3409 21.9054 39.2579 21.3764 38.2456C20.8434 36.5841 19.8465 35.3132 18.6379 34.3487Z" fill="#212721"/>
</svg>
