<svg width="37" height="12" viewBox="0 0 37 12" fill="none" xmlns="http://www.w3.org/2000/svg">
<path d="M15.9993 11.8268H13.0084L14.8792 0.210449H17.8699L15.9993 11.8268Z" fill="#00579F"/>
<path d="M26.8417 0.494553C26.2518 0.259513 25.3161 0 24.1591 0C21.2054 0 19.1255 1.58171 19.1128 3.84309C19.0882 5.51153 20.6019 6.43822 21.7341 6.99453C22.8912 7.56299 23.2846 7.93403 23.2846 8.44074C23.2728 9.21895 22.3495 9.57767 21.4884 9.57767C20.2943 9.57767 19.6545 9.39272 18.6821 8.95976L18.2883 8.77416L17.8698 11.3818C18.5712 11.7027 19.8636 11.9875 21.2054 12C24.3437 12 26.3869 10.4428 26.4111 8.03291C26.423 6.71054 25.6237 5.69729 23.9005 4.86931C22.8544 4.33781 22.2138 3.97942 22.2138 3.43559C22.226 2.9412 22.7556 2.43482 23.9365 2.43482C24.9088 2.41002 25.6232 2.64473 26.1644 2.87961L26.4349 3.00296L26.8417 0.494553Z" fill="#00579F"/>
<path d="M30.8169 7.71152C31.0632 7.04418 32.011 4.46137 32.011 4.46137C31.9986 4.48617 32.2568 3.78171 32.4045 3.34924L32.6135 4.35017C32.6135 4.35017 33.1799 7.13074 33.3029 7.71152C32.8355 7.71152 31.4076 7.71152 30.8169 7.71152ZM34.5088 0.210449H32.1953C31.4819 0.210449 30.9399 0.420359 30.6321 1.17426L26.1895 11.8266H29.3277C29.3277 11.8266 29.8444 10.3929 29.9554 10.0841C30.2997 10.0841 33.3526 10.0841 33.7955 10.0841C33.8814 10.4919 34.1524 11.8266 34.1524 11.8266H36.9217L34.5088 0.210449Z" fill="#00579F"/>
<path d="M10.5103 0.210449L7.5812 8.13167L7.26112 6.52515C6.71959 4.67144 5.02124 2.65743 3.12598 1.656L5.80892 11.8144H8.97174L13.6729 0.210449H10.5103Z" fill="#00579F"/>
<path d="M4.86133 0.210449H0.0492297L0 0.44516C3.75374 1.40914 6.23976 3.73276 7.26116 6.52564L6.21507 1.18691C6.04284 0.444996 5.51358 0.234922 4.86133 0.210449Z" fill="#FAA61A"/>
</svg>
